<svg xmlns="http://www.w3.org/2000/svg" viewBox="0 0 736 777" width="736" height="777"><defs><clipPath id="a"><path d="M560.413 134.755h151v56h-151z"/></clipPath><marker orient="auto" overflow="visible" id="b" stroke-miterlimit="10" viewBox="-9 -5 10 10" markerWidth="10" markerHeight="10" color="#4285f5"><path d="M-8 0h8m-4 4l-4-4 4-4" fill="none" stroke="currentColor"/></marker><marker orient="auto" overflow="visible" id="c" stroke-miterlimit="10" viewBox="-1 -4 8 8" markerWidth="8" markerHeight="8" color="#aaa"><circle cx="2.55" r="2.55" fill="currentColor" stroke="currentColor"/></marker><marker orient="auto" overflow="visible" id="d" stroke-miterlimit="10" viewBox="-9 -5 10 10" markerWidth="10" markerHeight="10" color="#38d3aa"><path d="M-8 0h8m-4 4l-4-4 4-4" fill="none" stroke="currentColor"/></marker><clipPath id="e"><path d="M301.663 52.854h136v87h-136z"/></clipPath><marker orient="auto" overflow="visible" id="f" stroke-miterlimit="10" viewBox="-9 -5 10 10" markerWidth="10" markerHeight="10" color="#ab56ff"><path d="M-8 0h8m-4 4l-4-4 4-4" fill="none" stroke="currentColor"/></marker><marker orient="auto" overflow="visible" id="g" stroke-miterlimit="10" viewBox="-9 -5 10 10" markerWidth="10" markerHeight="10" color="#ffa900"><path d="M-8 0h8m-4 4l-4-4 4-4" fill="none" stroke="currentColor"/></marker></defs><g fill="none"><title>05_Network-usage-using-pull-model</title><title>Layer 1</title><path fill="#eaedef" d="M3.413 427.255h165v346.5h-165z"/><text transform="translate(14.413 755.007)" fill="#757575"><tspan font-family="Roboto" font-size="10" font-weight="400" x="0" y="9">Rack 1</tspan></text><path fill="#eaedef" d="M380.288 426.255h165v346.5h-165z"/><text transform="translate(391.288 754.007)" fill="#757575"><tspan font-family="Roboto" font-size="10" font-weight="400" x="0" y="9">Rack 3</tspan></text><path fill="#eaedef" d="M567.413 427.755h165v345h-165z"/><text transform="translate(578.413 754.507)" fill="#757575"><tspan font-family="Roboto" font-size="10" font-weight="400" x="0" y="9">Rack 4</tspan></text><title>zone internal - blue</title><path fill="#e1f6fe" d="M405.288 455.454h115v45h-115z"/><path stroke="#fff" stroke-linecap="round" stroke-linejoin="round" stroke-width="2" d="M405.288 455.454h115v45h-115z"/><text transform="translate(415.288 470.454)" fill="#212121"><tspan font-family="Roboto" font-size="12" font-weight="400" x="29.57" y="11">Switch</tspan></text><title>zone internal - blue</title><path fill="#fef7e0" d="M405.288 603.02h115v45h-115z"/><path stroke="#fff" stroke-linecap="round" stroke-linejoin="round" stroke-width="2" d="M405.288 603.02h115v45h-115z"/><text transform="translate(415.288 618.02)" fill="#212121"><tspan font-family="Roboto" font-size="12" font-weight="400" x="19.331" y="11">Data Node</tspan></text><title>zone internal - blue</title><path fill="#fef7e0" d="M405.288 680.496h115v45h-115z"/><path stroke="#fff" stroke-linecap="round" stroke-linejoin="round" stroke-width="2" d="M405.288 680.496h115v45h-115z"/><text transform="translate(415.288 695.496)" fill="#212121"><tspan font-family="Roboto" font-size="12" font-weight="400" x="19.331" y="11">Data Node</tspan></text><title>zone internal - blue</title><path fill="#e1f6fe" d="M592.413 455.454h115v45h-115z"/><path stroke="#fff" stroke-linecap="round" stroke-linejoin="round" stroke-width="2" d="M592.413 455.454h115v45h-115z"/><text transform="translate(602.413 470.454)" fill="#212121"><tspan font-family="Roboto" font-size="12" font-weight="400" x="29.57" y="11">Switch</tspan></text><title>zone internal - blue</title><path fill="#fef7e0" d="M592.413 525.544h115v45h-115z"/><path stroke="#fff" stroke-linecap="round" stroke-linejoin="round" stroke-width="2" d="M592.413 525.544h115v45h-115z"/><text transform="translate(602.413 540.544)" fill="#212121"><tspan font-family="Roboto" font-size="12" font-weight="400" x="19.331" y="11">Data Node</tspan></text><title>zone internal - blue</title><path fill="#fef7e0" d="M592.413 603.02h115v45h-115z"/><path stroke="#fff" stroke-linecap="round" stroke-linejoin="round" stroke-width="2" d="M592.413 603.02h115v45h-115z"/><text transform="translate(602.413 618.02)" fill="#212121"><tspan font-family="Roboto" font-size="12" font-weight="400" x="19.331" y="11">Data Node</tspan></text><title>zone internal - blue</title><path fill="#fef7e0" d="M592.413 680.496h115v45h-115z"/><path stroke="#fff" stroke-linecap="round" stroke-linejoin="round" stroke-width="2" d="M592.413 680.496h115v45h-115z"/><text transform="translate(602.413 695.496)" fill="#212121"><tspan font-family="Roboto" font-size="12" font-weight="400" x="19.331" y="11">Data Node</tspan></text><title>zone internal - blue</title><path fill="#fef7e0" d="M405.288 526.044h115v45h-115z"/><path stroke="#fff" stroke-linecap="round" stroke-linejoin="round" stroke-width="2" d="M405.288 526.044h115v45h-115z"/><text transform="translate(415.288 541.044)" fill="#212121"><tspan font-family="Roboto" font-size="12" font-weight="400" x="19.331" y="11">Data Node</tspan></text><title>zone internal - blue</title><path fill="#38d3aa" d="M470.762 564.454h24.725v23h-24.725z"/><path stroke="#fff" stroke-linecap="round" stroke-linejoin="round" stroke-width="2" d="M470.762 564.454h24.725v23h-24.725z"/><text transform="translate(480.762 570.954)" fill="#212121"><tspan font-family="Roboto" font-size="9" font-weight="400" x="0" y="8">B</tspan></text><title>zone internal - blue</title><path fill="#38d3aa" d="M503.262 642.679h24.725v23h-24.725z"/><path stroke="#fff" stroke-linecap="round" stroke-linejoin="round" stroke-width="2" d="M503.262 642.679h24.725v23h-24.725z"/><text transform="translate(513.262 649.179)" fill="#212121"><tspan font-family="Roboto" font-size="9" font-weight="400" x="0" y="8">B</tspan></text><path fill="#eaedef" d="M191.85 426.755h165v346.5h-165z"/><text transform="translate(202.85 754.507)" fill="#757575"><tspan font-family="Roboto" font-size="10" font-weight="400" x="0" y="9">Rack 2</tspan></text><title>zone internal - blue</title><path fill="#e1f6fe" d="M216.85 454.454h115v45h-115z"/><path stroke="#fff" stroke-linecap="round" stroke-linejoin="round" stroke-width="2" d="M216.85 454.454h115v45h-115z"/><text transform="translate(226.85 469.454)" fill="#212121"><tspan font-family="Roboto" font-size="12" font-weight="400" x="29.57" y="11">Switch</tspan></text><title>zone internal - blue</title><path fill="#fef7e0" d="M216.85 524.544h115v45h-115z"/><path stroke="#fff" stroke-linecap="round" stroke-linejoin="round" stroke-width="2" d="M216.85 524.544h115v45h-115z"/><text transform="translate(226.85 539.544)" fill="#212121"><tspan font-family="Roboto" font-size="12" font-weight="400" x="19.331" y="11">Data Node</tspan></text><title>zone internal - blue</title><path fill="#fef7e0" d="M216.85 602.02h115v45h-115z"/><path stroke="#fff" stroke-linecap="round" stroke-linejoin="round" stroke-width="2" d="M216.85 602.02h115v45h-115z"/><text transform="translate(226.85 617.02)" fill="#212121"><tspan font-family="Roboto" font-size="12" font-weight="400" x="19.331" y="11">Data Node</tspan></text><title>zone internal - blue</title><path fill="#fef7e0" d="M216.85 679.496h115v45h-115z"/><path stroke="#fff" stroke-linecap="round" stroke-linejoin="round" stroke-width="2" d="M216.85 679.496h115v45h-115z"/><text transform="translate(226.85 694.496)" fill="#212121"><tspan font-family="Roboto" font-size="12" font-weight="400" x="19.331" y="11">Data Node</tspan></text><title>zone internal - blue</title><path fill="#ffa900" d="M282.324 562.954h24.725v23h-24.725z"/><path stroke="#fff" stroke-linecap="round" stroke-linejoin="round" stroke-width="2" d="M282.324 562.954h24.725v23h-24.725z"/><text transform="translate(292.324 569.454)" fill="#212121"><tspan font-family="Roboto" font-size="9" font-weight="400" x="0" y="8">A</tspan></text><title>zone internal - blue</title><path fill="#ffa900" d="M314.824 641.179h24.725v23h-24.725z"/><path stroke="#fff" stroke-linecap="round" stroke-linejoin="round" stroke-width="2" d="M314.824 641.179h24.725v23h-24.725z"/><text transform="translate(324.824 647.679)" fill="#212121"><tspan font-family="Roboto" font-size="9" font-weight="400" x="0" y="8">A</tspan></text><title>path solid</title><path stroke="#616161" stroke-linecap="round" stroke-linejoin="round" stroke-dasharray="4.0,4.0" d="M86.413 354.127h225.75"/><title>path solid</title><path stroke="#616161" stroke-linecap="round" stroke-linejoin="round" stroke-dasharray="4.0,4.0" d="M427.163 354.127h225.75"/><title>path solid</title><path stroke="#616161" stroke-linecap="round" stroke-linejoin="round" stroke-dasharray="4.0,4.0" d="M344.045 391.444v-40.99"/><title>path solid</title><path stroke="#616161" stroke-linecap="round" stroke-linejoin="round" stroke-dasharray="4.0,4.0" d="M389.891 391.444v-40.99"/><title>path solid</title><path stroke="#616161" stroke-linecap="round" stroke-linejoin="round" stroke-dasharray="4.0,4.0" d="M270.98 391.245h73.065"/><title>path solid</title><path stroke="#616161" stroke-linecap="round" stroke-linejoin="round" stroke-dasharray="4.0,4.0" d="M389.891 391.255h73.611"/><path fill="#eaedef" d="M228.163 3.587h504.25v214.168h-504.25z"/><title>Fill-3</title><path d="M325.337 26.271c0-3.23 2.441-5.671 5.641-5.671 1.638 0 3.018.652 3.989 1.774l-.971.94c-.758-.94-1.774-1.38-3.018-1.38-2.29 0-4.215 1.668-4.215 4.337 0 2.67 1.925 4.337 4.215 4.337 1.365 0 2.517-.637 3.337-1.577l.97.97c-.956 1.138-2.487 1.942-4.307 1.942-3.2 0-5.64-2.442-5.64-5.672" fill="#757575"/><title>Fill-5</title><path fill="#757575" d="M336.376 20.843h1.395v10.858h-1.395z"/><title>Fill-7</title><path d="M345.065 27.985c0-1.699-1.183-2.684-2.426-2.684-1.244 0-2.427.985-2.427 2.684 0 1.698 1.183 2.684 2.427 2.684 1.243 0 2.426-.986 2.426-2.684m1.395 0c0 2.26-1.592 3.958-3.821 3.958-2.23 0-3.822-1.699-3.822-3.958 0-2.26 1.592-3.958 3.822-3.958 2.229 0 3.821 1.699 3.821 3.958" fill="#757575"/><title>Fill-8</title><path d="M352.768 31.7v-1.03h-.06c-.41.682-1.335 1.274-2.351 1.274-1.911 0-2.836-1.29-2.836-3.124v-4.55h1.395v4.323c0 1.546.774 2.077 1.835 2.077 1.213 0 1.956-1.168 1.956-2.305V24.27h1.395v7.43z" fill="#757575"/><title>Fill-9</title><path d="M361.35 27.985c0-1.699-1.122-2.684-2.366-2.684-1.243 0-2.365 1.016-2.365 2.684 0 1.668 1.122 2.684 2.365 2.684 1.244 0 2.366-.986 2.366-2.684m-6.126 0c0-2.275 1.653-3.958 3.533-3.958 1.183 0 2.108.591 2.532 1.274h.061l-.06-1.031v-3.427h1.394V31.7h-1.334v-1.031h-.06c-.425.682-1.35 1.274-2.533 1.274-1.88 0-3.533-1.683-3.533-3.958" fill="#757575"/><title>Fill-10</title><path d="M370.22 25.968c1.244 0 1.942-1.031 1.942-1.896 0-.864-.698-1.895-1.942-1.895h-2.335v3.791zm-3.73 5.732V20.842h3.7c1.805 0 3.397 1.335 3.397 3.23 0 1.896-1.592 3.23-3.397 3.23h-2.305V31.7z" fill="#757575"/><title>Fill-11</title><path fill="#757575" d="M374.572 20.843h1.395v10.858h-1.395z"/><title>Fill-12</title><path d="M382.442 28.5s-.592-.485-1.774-.485c-1.471 0-2.048.789-2.048 1.47 0 .79.82 1.184 1.547 1.184 1.107 0 2.275-.956 2.275-2.169m-5.277.956c0-1.683 1.516-2.593 3.26-2.593 1 0 1.729.288 2.017.455v-.213c0-1.122-.895-1.804-1.941-1.804-.773 0-1.516.379-1.775 1.076l-1.273-.546c.258-.682 1.153-1.804 3.018-1.804 1.82 0 3.305 1.092 3.305 3.185V31.7h-1.334v-1.03h-.061c-.41.62-1.167 1.273-2.441 1.273-1.517 0-2.775-.94-2.775-2.487" fill="#757575"/><title>Fill-13</title><path d="M385.793 29.44v-3.897h-1.304V24.27h1.304v-2.274h1.395v2.274h1.82v1.274h-1.82v3.792c0 .833.349 1.212 1.001 1.212.258 0 .44-.03.637-.121l.485 1.198c-.318.137-.652.197-1.122.197-1.562 0-2.396-.864-2.396-2.38" fill="#757575"/><title>Fill-14</title><path d="M394.86 20.979l-.485 1.198c-.182-.091-.378-.121-.637-.121-.697 0-1.243.409-1.243 1.273v.94h1.94v1.274h-1.94V31.7H391.1v-6.157h-1.395V24.27h1.395v-.985c0-1.516 1.077-2.502 2.638-2.502.47 0 .804.06 1.123.197" fill="#757575"/><title>Fill-15</title><path d="M401.062 27.985c0-1.699-1.182-2.684-2.426-2.684-1.244 0-2.426.985-2.426 2.684 0 1.698 1.182 2.684 2.426 2.684 1.244 0 2.426-.986 2.426-2.684m1.396 0c0 2.26-1.593 3.958-3.822 3.958s-3.821-1.699-3.821-3.958c0-2.26 1.592-3.958 3.821-3.958 2.23 0 3.822 1.699 3.822 3.958" fill="#757575"/><title>Fill-16</title><path d="M403.58 31.7v-7.43h1.334v1.213h.06c.304-.85 1.38-1.395 2.154-1.395.455 0 .758.06 1.046.182l-.53 1.304c-.198-.076-.44-.106-.744-.106-.955 0-1.925.803-1.925 2.168V31.7z" fill="#757575"/><title>Fill-17</title><path d="M408.932 24.27h1.334v1.03h.06c.426-.712 1.411-1.273 2.29-1.273 1.199 0 1.972.546 2.351 1.425a3.023 3.023 0 0 1 2.594-1.425c1.819 0 2.653 1.289 2.653 3.124v4.55h-1.395v-4.338c0-1.547-.592-2.062-1.653-2.062-1.138 0-1.896 1.152-1.896 2.29v4.11h-1.395v-4.338c0-1.547-.59-2.062-1.653-2.062-1.137 0-1.895 1.152-1.895 2.29v4.11h-1.395z" fill="#757575"/><title>Fill-18</title><path d="M272.75 25.725c0-3.427 2.88-6.217 6.308-6.217 1.896 0 3.245.743 4.26 1.714l-1.197 1.198c-.728-.683-1.713-1.213-3.063-1.213-2.502 0-4.458 2.016-4.458 4.518s1.956 4.52 4.458 4.52c1.623 0 2.548-.653 3.139-1.244.485-.485.804-1.183.925-2.139h-4.064v-1.697h5.716c.061.303.092.666.092 1.06 0 1.275-.35 2.852-1.471 3.974-1.092 1.137-2.487 1.743-4.337 1.743-3.427 0-6.308-2.79-6.308-6.217" fill="#757575"/><title>Fill-19</title><path d="M289.486 30.366c-1.214 0-2.26-1.001-2.26-2.427 0-1.44 1.046-2.426 2.26-2.426 1.213 0 2.26.985 2.26 2.426 0 1.426-1.047 2.427-2.26 2.427m0-6.43c-2.214 0-4.019 1.683-4.019 4.003 0 2.305 1.805 4.004 4.019 4.004 2.214 0 4.018-1.699 4.018-4.004 0-2.32-1.804-4.003-4.018-4.003" fill="#757575"/><title>Fill-20</title><path d="M298.252 30.366c-1.213 0-2.259-1.001-2.259-2.427 0-1.44 1.046-2.426 2.26-2.426 1.212 0 2.259.985 2.259 2.426 0 1.426-1.047 2.427-2.26 2.427m0-6.43c-2.214 0-4.019 1.683-4.019 4.003 0 2.305 1.805 4.004 4.02 4.004 2.213 0 4.018-1.699 4.018-4.004 0-2.32-1.805-4.003-4.019-4.003" fill="#757575"/><title>Fill-21</title><path d="M306.996 30.366c-1.213 0-2.23-1.017-2.23-2.411 0-1.411 1.017-2.442 2.23-2.442 1.198 0 2.138 1.031 2.138 2.442 0 1.394-.94 2.41-2.138 2.41zm2.017-6.187v.652h-.061c-.395-.47-1.153-.895-2.108-.895-2.002 0-3.836 1.759-3.836 4.019 0 2.244 1.834 3.988 3.836 3.988.955 0 1.713-.425 2.108-.91h.06v.576c0 1.532-.818 2.35-2.138 2.35-1.076 0-1.744-.773-2.016-1.425l-1.532.637c.44 1.062 1.608 2.366 3.548 2.366 2.063 0 3.806-1.214 3.806-4.17v-7.188z" fill="#757575"/><title>Fill-22</title><path fill="#757575" d="M311.894 19.933h1.759V31.7h-1.759z"/><title>Fill-23</title><path d="M318.338 25.483c.698 0 1.29.349 1.486.849l-3.578 1.486c-.046-1.547 1.198-2.335 2.092-2.335m.137 4.883c-.895 0-1.532-.41-1.941-1.213l5.353-2.215-.182-.454c-.334-.895-1.35-2.548-3.427-2.548-2.063 0-3.776 1.623-3.776 4.003 0 2.245 1.698 4.004 3.973 4.004 1.835 0 2.896-1.123 3.336-1.775l-1.365-.91c-.455.668-1.077 1.108-1.97 1.108" fill="#757575"/><title>Shape</title><path d="M259.547 31.662l-2.148 3.733h-5.625a1.4 1.4 0 0 1-1.214-.704l-4.55-7.932a1.401 1.401 0 0 1 0-1.393l1.731-3.017 2.137 3.713 3.222 5.6z" fill="#fbbc05"/><title>Shape</title><path d="M266.638 26.759l-4.55 7.934a1.399 1.399 0 0 1-1.214.704h-3.476l2.148-3.734 3.224-5.601-3.224-5.6h4.279l2.812 4.904c.25.43.25.962.001 1.393z" fill="#ea4335"/><title>Shape</title><path d="M263.826 20.462H253.1l-3.222 5.6-2.137-3.715 2.819-4.915a1.399 1.399 0 0 1 1.214-.704h9.101c.502 0 .965.27 1.215.704z" fill="#4285f4"/><title>Shape</title><title>Oval</title><circle cx="256.324" cy="26.062" r="2.801" fill="#fff"/><path fill="#fff" d="M560.413 134.755h151v56h-151z"/><path stroke="#dfdfdf" stroke-linecap="round" stroke-linejoin="round" stroke-width="2" clip-path="url(#a)" d="M560.413 134.755h151v56h-151z"/><text transform="translate(611.413 155.755)" fill="#212121"><tspan font-family="Roboto" font-size="12" font-weight="400" x="0" y="11">Cloud Storage</tspan></text><title>Fill-1</title><path d="M604.079 161.47l-5.754-10.007c-.462-.799-1.298-1.286-2.158-1.286H584.66c-.922 0-1.727.54-2.158 1.286l-5.754 9.986a2.51 2.51 0 0 0 0 2.501l5.754 10.052c.46.799 1.297 1.332 2.157 1.332h11.508c.923 0 1.728-.582 2.158-1.326L604.078 164a2.566 2.566 0 0 0 0-2.532" fill="#4285f4"/><title>Fill-4</title><path d="M595.113 159.813l-7.913.728-1.534 1.528 1.304 1.304-1.29 2.291 9.669 9.67h.817c.923 0 1.728-.582 2.158-1.326l4.01-6.973z" fill="#000" fill-opacity=".07"/><title>Fill-6</title><path d="M593.537 161.496a.542.542 0 1 1 .543-.543c0 .3-.244.543-.543.543m1.403-1.744h-9.064a.266.266 0 0 0-.265.265v1.875c0 .145.12.264.265.264h9.064a.266.266 0 0 0 .266-.264v-1.875a.266.266 0 0 0-.266-.265" fill="#fff"/><title>Fill-8</title><path d="M593.537 165.098a.541.541 0 1 1-.001-1.085.541.541 0 0 1 .001 1.085m1.403-1.744h-9.064a.266.266 0 0 0-.265.266v1.874c0 .145.12.265.265.265h9.064c.146 0 .266-.12.266-.265v-1.875a.266.266 0 0 0-.266-.265" fill="#fff"/><title>path dash big</title><path stroke="#38d3aa" stroke-linecap="round" stroke-linejoin="round" d="M340.794 578.263h-22.658"/><title>path dash big</title><path stroke="#ab56ff" stroke-linecap="round" stroke-linejoin="round" d="M515.52 364.095v200.859"/><title>zone internal - blue</title><path fill="#e1f6fe" d="M28.413 455.454h115v45h-115z"/><path stroke="#fff" stroke-linecap="round" stroke-linejoin="round" stroke-width="2" d="M28.413 455.454h115v45h-115z"/><text transform="translate(38.413 470.454)" fill="#212121"><tspan font-family="Roboto" font-size="12" font-weight="400" x="29.57" y="11">Switch</tspan></text><title>zone internal - blue</title><path fill="#fef7e0" d="M28.413 525.544h115v45h-115z"/><path stroke="#fff" stroke-linecap="round" stroke-linejoin="round" stroke-width="2" d="M28.413 525.544h115v45h-115z"/><text transform="translate(38.413 540.544)" fill="#212121"><tspan font-family="Roboto" font-size="12" font-weight="400" x="19.331" y="11">Data Node</tspan></text><title>zone internal - blue</title><path fill="#fef7e0" d="M28.413 603.02h115v45h-115z"/><path stroke="#fff" stroke-linecap="round" stroke-linejoin="round" stroke-width="2" d="M28.413 603.02h115v45h-115z"/><text transform="translate(38.413 618.02)" fill="#212121"><tspan font-family="Roboto" font-size="12" font-weight="400" x="19.331" y="11">Data Node</tspan></text><title>zone internal - blue</title><path fill="#fef7e0" d="M28.413 680.496h115v45h-115z"/><path stroke="#fff" stroke-linecap="round" stroke-linejoin="round" stroke-width="2" d="M28.413 680.496h115v45h-115z"/><text transform="translate(38.413 695.496)" fill="#212121"><tspan font-family="Roboto" font-size="12" font-weight="400" x="19.331" y="11">Data Node</tspan></text><title>zone internal - blue</title><path fill="#e1f6fe" d="M312.163 323.057h115v56.098h-115z"/><path stroke="#fff" stroke-linecap="round" stroke-linejoin="round" stroke-width="2" d="M312.163 323.057h115v56.098h-115z"/><title>path dash big</title><path marker-start="url(#b)" stroke="#4285f5" stroke-linecap="round" stroke-linejoin="round" d="M551.656 162.255H400.153"/><title>path ball - grey primary</title><path d="M493.86 224.105V164.55" marker-end="url(#c)" stroke="#aaa" stroke-linecap="round" stroke-linejoin="round"/><title>path solid</title><path stroke="#616161" stroke-linecap="round" stroke-linejoin="round" stroke-dasharray="4.0,4.0" d="M85.413 454.454V354.127"/><title>path solid</title><path stroke="#616161" stroke-linecap="round" stroke-linejoin="round" stroke-dasharray="4.0,4.0" d="M271.36 391.625v62.829"/><title>path solid</title><path stroke="#616161" stroke-linecap="round" stroke-linejoin="round" stroke-dasharray="4.0,4.0" d="M465.073 391.755v62.699"/><title>path solid</title><path stroke="#616161" stroke-linecap="round" stroke-linejoin="round" stroke-dasharray="4.0,4.0" d="M653.913 454.454V354.127"/><circle cx="417.43" cy="151.325" r="7.389" fill="#0080ff"/><circle cx="417.43" cy="151.325" r="7.389" stroke="#fff" stroke-linecap="round" stroke-linejoin="round" stroke-width="2"/><text transform="translate(415.208 146.838)" fill="#fff"><tspan font-family="Roboto" font-size="8" font-weight="400" x="0" y="7">4</tspan></text><title>zone external - blue</title><path d="M432.042 308.105v-56.028l61.906-27.972 61.906 27.972v56.028z" fill="#eaedef" fill-opacity=".5"/><path d="M432.042 308.105v-56.028l61.906-27.972 61.906 27.972v56.028z" stroke="#aaa" stroke-linecap="round" stroke-linejoin="round"/><text transform="translate(466.448 251.418)" fill="#757575"><tspan font-family="Roboto" font-size="10" font-weight="400" x=".044" y="9">LargeFile.txt</tspan></text><title>zone internal - blue</title><path fill="#38d3aa" d="M481.586 270.783h24.725v23h-24.725z"/><path stroke="#fff" stroke-linecap="round" stroke-linejoin="round" stroke-width="2" d="M481.586 270.783h24.725v23h-24.725z"/><text transform="translate(491.586 277.283)" fill="#212121"><tspan font-family="Roboto" font-size="9" font-weight="400" x="0" y="8">B</tspan></text><g><title>zone internal - blue</title><path fill="#ffa900" d="M449.086 270.283h24.725v23h-24.725z"/><path stroke="#fff" stroke-linecap="round" stroke-linejoin="round" stroke-width="2" d="M449.086 270.283h24.725v23h-24.725z"/><text transform="translate(459.086 276.783)" fill="#212121"><tspan font-family="Roboto" font-size="9" font-weight="400" x="0" y="8">A</tspan></text></g><g><title>zone internal - blue</title><path fill="#ab56ff" d="M514.086 271.073h24.725v23h-24.725z"/><path stroke="#fff" stroke-linecap="round" stroke-linejoin="round" stroke-width="2" d="M514.086 271.073h24.725v23h-24.725z"/><text transform="translate(524.086 277.573)" fill="#fff"><tspan font-family="Roboto" font-size="9" font-weight="400" x="0" y="8">C</tspan></text></g><g><title>path dash big</title><path stroke="#ffa900" stroke-linecap="round" stroke-linejoin="round" d="M319.17 195.035v169.06"/></g><g><title>path solid</title><path stroke="#ffa900" stroke-linecap="round" stroke-linejoin="round" d="M138.631 364.095H319.17"/></g><g><title>path dash big</title><path stroke="#38d3aa" stroke-linecap="round" stroke-linejoin="round" d="M327.791 337.953V578.1"/></g><g><title>path dash big</title><path stroke="#38d3aa" stroke-linecap="round" stroke-linejoin="round" d="M369.436 337.953h-41.645"/></g><g><title>path dash big</title><path marker-start="url(#d)" stroke="#38d3aa" stroke-linecap="round" stroke-linejoin="round" d="M369.436 188.354v149.599"/></g><g><title>path dash big</title><path stroke="#ab56ff" stroke-linecap="round" stroke-linejoin="round" d="M408.714 195.035v168.96"/></g><g><title>path dash big</title><path stroke="#ab56ff" stroke-linecap="round" stroke-linejoin="round" d="M515.52 364.095H408.714"/></g><g><title>zone internal - blue</title><path fill="#38d3aa" d="M314.824 563.454h24.725v23h-24.725z"/><path stroke="#fff" stroke-linecap="round" stroke-linejoin="round" stroke-width="2" d="M314.824 563.454h24.725v23h-24.725z"/><text transform="translate(324.824 569.954)" fill="#212121"><tspan font-family="Roboto" font-size="9" font-weight="400" x="0" y="8">B</tspan></text></g><g><circle cx="339.173" cy="551.724" r="7.389" fill="#0080ff"/><circle cx="339.173" cy="551.724" r="7.389" stroke="#fff" stroke-linecap="round" stroke-linejoin="round" stroke-width="2"/></g><g><text transform="translate(336.952 547.237)" fill="#fff"><tspan font-family="Roboto" font-size="8" font-weight="400" x="0" y="7">2</tspan></text></g><g><title>path dash big</title><path stroke="#ffa900" stroke-linecap="round" stroke-linejoin="round" d="M138.631 364.154v214.168"/></g><g><title>zone internal - blue</title><path fill="#ffa900" d="M124.352 564.554h24.725v23h-24.725z"/><path stroke="#fff" stroke-linecap="round" stroke-linejoin="round" stroke-width="2" d="M124.352 564.554h24.725v23h-24.725z"/><text transform="translate(134.352 571.054)" fill="#212121"><tspan font-family="Roboto" font-size="9" font-weight="400" x="0" y="8">A</tspan></text></g><g><circle cx="149.562" cy="551.724" r="7.389" fill="#0080ff"/><circle cx="149.562" cy="551.724" r="7.389" stroke="#fff" stroke-linecap="round" stroke-linejoin="round" stroke-width="2"/></g><g><text transform="translate(147.34 547.237)" fill="#fff"><tspan font-family="Roboto" font-size="8" font-weight="400" x="0" y="7">1</tspan></text></g><g><title>zone internal - blue</title><path fill="#ab56ff" d="M503.262 564.454h24.725v23h-24.725z"/><path stroke="#fff" stroke-linecap="round" stroke-linejoin="round" stroke-width="2" d="M503.262 564.454h24.725v23h-24.725z"/><text transform="translate(513.262 570.954)" fill="#fff"><tspan font-family="Roboto" font-size="9" font-weight="400" x="0" y="8">C</tspan></text></g><g><circle cx="527.973" cy="551.724" r="7.389" fill="#0080ff"/><circle cx="527.973" cy="551.724" r="7.389" stroke="#fff" stroke-linecap="round" stroke-linejoin="round" stroke-width="2"/></g><g><text transform="translate(525.752 547.237)" fill="#fff"><tspan font-family="Roboto" font-size="8" font-weight="400" x="0" y="7">3</tspan></text></g><g><title>zone internal - blue</title><path fill="#ab56ff" d="M690.387 564.593h24.725v23h-24.725z"/><path stroke="#fff" stroke-linecap="round" stroke-linejoin="round" stroke-width="2" d="M690.387 564.593h24.725v23h-24.725z"/><text transform="translate(700.387 571.093)" fill="#fff"><tspan font-family="Roboto" font-size="9" font-weight="400" x="0" y="8">C</tspan></text></g><g><title>zone internal - blue</title><path fill="#ab56ff" d="M690.387 642.354h24.725v23h-24.725z"/><path stroke="#fff" stroke-linecap="round" stroke-linejoin="round" stroke-width="2" d="M690.387 642.354h24.725v23h-24.725z"/><text transform="translate(700.387 648.854)" fill="#fff"><tspan font-family="Roboto" font-size="9" font-weight="400" x="0" y="8">C</tspan></text></g><g><text transform="translate(349.468 345.054)" fill="#000"><tspan font-family="Roboto" font-size="12" font-weight="400" x=".07" y="11">Switch</tspan></text></g><g><path fill="#fff" d="M301.663 52.854h136v87h-136z"/><path stroke="#dfdfdf" stroke-linecap="round" stroke-linejoin="round" stroke-width="2" clip-path="url(#e)" d="M301.663 52.854h136v87h-136z"/></g><g><path fill="#dfdfdf" d="M317.663 100.854h104v1h-104z"/></g><g><text transform="translate(345.663 113.854)" fill="#757575"><tspan font-family="Roboto" font-size="9" font-weight="400" x="0" y="8">Cloud Dataproc</tspan></text></g><g><text transform="translate(317.663 72.354)" fill="#212121"><tspan font-family="Roboto" font-size="11" font-weight="400" x="24.113" y="10">Pull Cluster</tspan></text></g><g><title>Fill-1</title><path d="M337.459 118.933l-4.118-7.16c-.33-.571-.928-.92-1.543-.92h-8.235c-.66 0-1.236.387-1.544.92l-4.117 7.146a1.796 1.796 0 0 0 0 1.79l4.117 7.192c.33.571.928.953 1.544.953h8.234c.66 0 1.236-.416 1.544-.95l4.117-7.159a1.836 1.836 0 0 0 0-1.812" fill="#4285f4"/></g><g><title>Fill-4</title><path d="M328.849 115.705l-2.265.236-.694 5.043-2.006.043-.467 2.51 5.317 5.317h3.063c.66 0 1.236-.416 1.544-.95l2.814-4.892z" fill="#000" fill-opacity=".07"/></g><g><title>Fill-7</title><path d="M326.733 117.491a.913.913 0 1 0 .79-1.367.913.913 0 0 0-.79 1.367m2.418-1.393a1.878 1.878 0 1 1-3.254 1.875 1.878 1.878 0 0 1 3.254-1.875" fill="#fff"/></g><g><title>Fill-9</title><path d="M325.645 121.638c.36.152.686.395.94.72v-4.696l-.939-.624z" fill="#fff"/></g><g><title>Fill-11</title><path d="M329.824 122.482a.911.911 0 0 0 1.578-.914.912.912 0 0 0-1.578.914m2.415-1.398c.335.58.335 1.301 0 1.88a1.88 1.88 0 0 1-3.252.001 1.88 1.88 0 1 1 3.252-1.88" fill="#fff"/></g><g><title>Fill-13</title><path d="M326.393 118.504l4.147 2.395 1.012-.5-4.067-2.348a2.34 2.34 0 0 1-1.092.453" fill="#fff"/></g><g><title>Fill-15</title><path d="M323.953 122.661a.913.913 0 0 0 1.58-.911h-.001a.913.913 0 0 0-1.58.911m2.417-1.395c.25.435.317.941.187 1.426s-.44.89-.875 1.14a1.88 1.88 0 0 1-2.753-2.113 1.88 1.88 0 0 1 3.44-.453" fill="#fff"/></g><g><title>Fill-17</title><path d="M330.092 120.201l-4.338 2.505-.06 1.119 3.918-2.262c-.048-.387.325-.98.48-1.362" fill="#fff"/></g><g><title>zone internal - blue</title><path fill="#00d6ff" d="M333.087 132.667h73.152v45h-73.152z"/><path stroke="#d6d6d6" stroke-linecap="round" stroke-linejoin="round" d="M333.087 132.667h73.152v45h-73.152z"/><text transform="translate(343.087 141.167)" fill="#212121"><tspan font-family="Roboto" font-size="12" font-weight="400" x="9.625" y="11">Distcp </tspan> <tspan font-family="Roboto" font-size="12" font-weight="400" x=".244" y="25">Map Task</tspan></text></g><g><title>path dash big</title><path stroke="#ab56ff" stroke-linecap="round" stroke-linejoin="round" d="M408.469 195.035h-14.778"/></g><g><title>path dash big</title><path marker-start="url(#f)" stroke="#ab56ff" stroke-linecap="round" stroke-linejoin="round" d="M393.691 188.354v6.681"/></g><g><title>path dash big</title><path stroke="#ffa900" stroke-linecap="round" stroke-linejoin="round" d="M347.864 195.035H319.17"/></g><g><title>path dash big</title><path marker-start="url(#g)" stroke="#ffa900" stroke-linecap="round" stroke-linejoin="round" d="M347.864 188.354v6.681"/></g></g></svg>