<?xml version="1.0" encoding="UTF-8"?>
<svg width="820px" height="390px" viewBox="0 0 820 390" fill="none" stroke="none" font-family="-apple-system, system-ui, 'Segoe UI', Helvetica, Arial, sans-serif" font-size="16" font-weight="normal" version="1.1" xmlns="http://www.w3.org/2000/svg">
  <text fill="#24292e" font-weight="bold" text-anchor="middle" x="190" y="377">4 distintegrated clusters</text>
  <text fill="#24292e" text-anchor="middle" x="400" y="377">become</text>
  <text fill="#24292e" font-weight="bold" text-anchor="middle" x="620" y="377">1 unified fabric</text>
  <path stroke="#959da5" d="M120,330 L130,330"/>
  <path stroke="#959da5" d="M250,330 L260,330"/>
  <path stroke="#959da5" d="M60,290 L60,310"/>
  <path stroke="#959da5" d="M190,290 L190,310"/>
  <path stroke="#959da5" d="M320,290 L320,310"/>
  <path stroke="#959da5" d="M120,270 L130,270"/>
  <path stroke="#959da5" d="M250,270 L260,270"/>
  <path stroke="#959da5" d="M60.5,230 L60.5,250"/>
  <path stroke="#959da5" d="M190.5,230 L190.5,250"/>
  <path stroke="#959da5" d="M320.5,230 L320.5,250"/>
  <path stroke="#959da5" d="M120,210 L130,210"/>
  <path stroke="#959da5" d="M250,210 L260,210"/>
  <path stroke="#959da5" d="M60.5,170 L60.5,190"/>
  <path stroke="#959da5" d="M190.5,170 L190.5,190"/>
  <path stroke="#959da5" d="M320.5,170 L320.5,190"/>
  <polyline stroke="#959da5" points="190 110 190 120 60 120 60 130"/>
  <path stroke="#959da5" d="M190,110 L190,130"/>
  <polyline stroke="#959da5" points="190 110 190 120 320 120 320 130"/>
  <rect fill="#ffffff" stroke="#d1d5da" x="0.5" y="310.5" width="119" height="39" rx="3"/>
  <text fill="#24292e" text-anchor="middle" x="60" y="335">Database</text>
  <rect fill="#ffffff" stroke="#d1d5da" x="130.5" y="310.5" width="119" height="39" rx="3"/>
  <text fill="#24292e" text-anchor="middle" x="190" y="335">Database</text>
  <rect fill="#ffffff" stroke="#d1d5da" x="260.5" y="310.5" width="119" height="39" rx="3"/>
  <text fill="#24292e" text-anchor="middle" x="320" y="335">Database</text>
  <rect fill="#ffffff" stroke="#d1d5da" x="0.5" y="250.5" width="119" height="39" rx="3"/>
  <text fill="#24292e" text-anchor="middle" x="60" y="275">Broker</text>
  <rect fill="#ffffff" stroke="#d1d5da" x="130.5" y="250.5" width="119" height="39" rx="3"/>
  <text fill="#24292e" text-anchor="middle" x="190" y="275">Broker</text>
  <rect fill="#ffffff" stroke="#d1d5da" x="260.5" y="250.5" width="119" height="39" rx="3"/>
  <text fill="#24292e" text-anchor="middle" x="320" y="275">Broker</text>
  <rect fill="#ffffff" stroke="#d1d5da" x="0.5" y="190.5" width="119" height="39" rx="3"/>
  <text fill="#24292e" text-anchor="middle" x="60" y="215">Job Manager</text>
  <rect fill="#ffffff" stroke="#d1d5da" x="130.5" y="190.5" width="119" height="39" rx="3"/>
  <text fill="#24292e" text-anchor="middle" x="190" y="215">Job Manager</text>
  <rect fill="#ffffff" stroke="#d1d5da" x="260.5" y="190.5" width="119" height="39" rx="3"/>
  <text fill="#24292e" text-anchor="middle" x="320" y="215">Job Manager</text>
  <rect fill="#ffffff" stroke="#d1d5da" x="0.5" y="130.5" width="119" height="39" rx="3"/>
  <text fill="#24292e" text-anchor="middle" x="60" y="155">Web Services</text>
  <rect fill="#ffffff" stroke="#d1d5da" x="130.5" y="130.5" width="119" height="39" rx="3"/>
  <text fill="#24292e" text-anchor="middle" x="190" y="155">Web Services</text>
  <rect fill="#ffffff" stroke="#d1d5da" x="260.5" y="130.5" width="119" height="39" rx="3"/>
  <text fill="#24292e" text-anchor="middle" x="320" y="155">Web Services</text>
  <rect fill="#ffffff" stroke="#d1d5da" x="130.5" y="70.5" width="119" height="39" rx="3"/>
  <text fill="#24292e" text-anchor="middle" x="190" y="95">REST Apps</text>
  <path stroke="#959da5" d="M400,110 L400,360" stroke-dasharray="8,4"/>
  <path d="M540,230 L560,230" stroke="#959da5"/>
  <path d="M680,230 L700,230" stroke="#959da5"/>
  <polyline stroke="#959da5" points="620 110 620 120 550 120 550 230"/>
  <polyline stroke="#959da5" points="620 110 620 120 690 120 690 230"/>
  <rect fill="#ffffff" stroke="#d1d5da" x="420.5" y="130.5" width="119" height="159" rx="3"/>
  <path d="M421,170 L539,170" stroke="#e1e4e8"/>
  <path d="M421,210 L539,210" stroke="#e1e4e8"/>
  <path d="M421,250 L539,250" stroke="#e1e4e8"/>
  <text fill="#24292e" text-anchor="middle" x="480" y="155">Web Agents</text>
  <text fill="#24292e" text-anchor="middle" x="480" y="195">Scheduling</text>
  <text fill="#24292e" text-anchor="middle" x="480" y="235">Messaging</text>
  <text fill="#24292e" text-anchor="middle" x="480" y="275">Persistence</text>
  <text fill="#24292e" font-size="14" font-weight="bold" text-anchor="middle" x="480" y="306">Swim Kernel</text>
  <rect fill="#ffffff" stroke="#d1d5da" x="560.5" y="130.5" width="119" height="159" rx="3"/>
  <path d="M561,170 L679,170" stroke="#e1e4e8"/>
  <path d="M561,210 L679,210" stroke="#e1e4e8"/>
  <path d="M561,250 L679,250" stroke="#e1e4e8"/>
  <text fill="#24292e" text-anchor="middle" x="620" y="155">Web Agents</text>
  <text fill="#24292e" text-anchor="middle" x="620" y="195">Scheduling</text>
  <text fill="#24292e" text-anchor="middle" x="620" y="235">Messaging</text>
  <text fill="#24292e" text-anchor="middle" x="620" y="275">Persistence</text>
  <text fill="#24292e" font-size="14" font-weight="bold" text-anchor="middle" x="620" y="306">Swim Kernel</text>
  <rect fill="#ffffff" stroke="#d1d5da" x="700.5" y="130.5" width="119" height="159" rx="3"/>
  <path d="M701,170 L819,170" stroke="#e1e4e8"/>
  <path d="M701,210 L819,210" stroke="#e1e4e8"/>
  <path d="M701,250 L819,250" stroke="#e1e4e8"/>
  <text fill="#24292e" text-anchor="middle" x="760" y="155">Web Agents</text>
  <text fill="#24292e" text-anchor="middle" x="760" y="195">Scheduling</text>
  <text fill="#24292e" text-anchor="middle" x="760" y="235">Messaging</text>
  <text fill="#24292e" text-anchor="middle" x="760" y="275">Persistence</text>
  <text fill="#24292e" font-size="14" font-weight="bold" text-anchor="middle" x="760" y="306">Swim Kernel</text>
  <rect fill="#ffffff" stroke="#d1d5da" x="561" y="71" width="119" height="39" rx="3"/>
  <text fill="#24292e" text-anchor="middle" x="620" y="95">WARP Apps</text>
  <text fill="#ff8c00" font-size="18" font-weight="bold" text-anchor="middle" x="190" y="26">Traditional</text>
  <text fill="#24292e" font-size="18" font-weight="bold" text-anchor="middle" x="190" y="56">Stateless Middleware Stack</text>
  <text fill="#24292e" font-size="18" text-anchor="middle" x="400" y="56">⇒</text>
  <text fill="#4ec1f3" font-size="20" font-weight="bold" text-anchor="middle" x="620" y="26">swimOS</text>
  <text fill="#24292e" font-size="18" font-weight="bold" text-anchor="middle" x="620" y="56">Stateful Distributed OS</text>
</svg>
