<svg width="810" height="522" xmlns="http://www.w3.org/2000/svg"><defs><linearGradient x1="-7.564%" y1="50.005%" x2="93.328%" y2="49.996%" id="prefix__a"><stop stop-color="#355461" offset="0%"/><stop stop-color="#365664" offset="32.76%"/><stop stop-color="#3A5E6D" offset="54.51%"/><stop stop-color="#406A7C" offset="73.06%"/><stop stop-color="#497C91" offset="89.72%"/><stop stop-color="#508AA2" offset="100%"/></linearGradient></defs><g fill-rule="nonzero" fill="none"><path fill="#EFEFEF" d="M9 8h800.1v362.5H9z"/><path fill="#FFF" d="M2 1h800.1v362.5H2z"/><path fill="#B2B2B2" d="M803 364.5h-3.5v-2h1.5V361h2zM794 364.5h-5v-2h5v2zm-10.5 0h-5v-2h5v2zm-10.5 0h-5v-2h5v2zm-10.6 0h-5v-2h5v2zm-10.5 0h-5v-2h5v2zm-10.5 0h-5v-2h5v2zm-10.6 0h-5v-2h5v2zm-10.5 0h-5v-2h5v2zm-10.5 0h-5v-2h5v2zm-10.5 0h-5v-2h5v2zm-10.6 0h-5v-2h5v2zm-10.5 0h-5v-2h5v2zm-10.5 0h-5v-2h5v2zm-10.5 0h-5v-2h5v2zm-10.6 0h-5v-2h5v2zm-10.5 0h-5v-2h5v2zm-10.5 0h-5v-2h5v2zm-10.6 0h-5v-2h5v2zm-10.5 0h-5v-2h5v2zm-10.5 0h-5v-2h5v2zm-10.5 0h-5v-2h5v2zm-10.6 0h-5v-2h5v2zm-10.5 0h-5v-2h5v2zm-10.5 0h-5v-2h5v2zm-10.5 0h-5v-2h5v2zm-10.6 0h-5v-2h5v2zm-10.5 0h-5v-2h5v2zm-10.5 0h-5v-2h5v2zm-10.5 0h-5v-2h5v2zm-10.6 0h-5v-2h5v2zm-10.5 0h-5v-2h5v2zm-10.5 0h-5v-2h5v2zm-10.6 0h-5v-2h5v2zm-10.5 0h-5v-2h5v2zm-10.5 0h-5v-2h5v2zm-10.5 0h-5v-2h5v2zm-10.6 0h-5v-2h5v2zm-10.5 0h-5v-2h5v2zm-10.5 0h-5v-2h5v2zm-10.5 0h-5v-2h5v2zm-10.6 0h-5v-2h5v2zm-10.5 0h-5v-2h5v2zm-10.5 0h-5v-2h5v2zm-10.6 0h-5v-2h5v2zm-10.5 0h-5v-2h5v2zm-10.5 0h-5v-2h5v2zm-10.5 0h-5v-2h5v2zm-10.6 0h-5v-2h5v2zm-10.5 0h-5v-2h5v2zm-10.5 0h-5v-2h5v2zm-10.5 0h-5v-2h5v2zm-10.6 0h-5v-2h5v2zm-10.5 0h-5v-2h5v2zm-10.5 0h-5v-2h5v2zm-10.6 0h-5v-2h5v2zm-10.5 0h-5v-2h5v2zm-10.5 0h-5v-2h5v2zm-10.5 0h-5v-2h5v2zm-10.6 0h-5v-2h5v2zm-10.5 0h-5v-2h5v2zm-10.5 0h-5v-2h5v2zm-10.5 0h-5v-2h5v2zm-10.6 0h-5v-2h5v2zm-10.5 0h-5v-2h5v2zm-10.5 0h-5v-2h5v2zm-10.6 0h-5v-2h5v2zm-10.5 0h-5v-2h5v2zm-10.5 0h-5v-2h5v2zm-10.5 0h-5v-2h5v2zm-10.6 0h-5v-2h5v2zm-10.5 0h-5v-2h5v2zm-10.5 0h-5v-2h5v2zm-10.5 0h-5v-2h5v2zm-10.6 0h-5v-2h5v2zm-10.5 0h-5v-2h5v2zM4.5 364.5H1V361h2v1.5h1.5zM3 355.6H1v-4.9h2v4.9zm0-10.3H1v-4.9h2v4.9zm0-10.4H1V330h2v4.9zm0-10.4H1v-4.9h2v4.9zm0-10.3H1v-4.9h2v4.9zm0-10.4H1v-4.9h2v4.9zm0-10.3H1v-4.9h2v4.9zm0-10.4H1v-4.9h2v4.9zm0-10.3H1v-4.9h2v4.9zm0-10.4H1v-4.9h2v4.9zm0-10.3H1v-4.9h2v4.9zm0-10.4H1v-4.9h2v4.9zm0-10.4H1v-4.9h2v4.9zM3 221H1v-4.9h2v4.9zm0-10.4H1v-4.9h2v4.9zm0-10.3H1v-4.9h2v4.9zm0-10.4H1V185h2v4.9zm0-10.3H1v-4.9h2v4.9zm0-10.4H1v-4.9h2v4.9zm0-10.4H1v-4.9h2v4.9zm0-10.3H1v-4.9h2v4.9zm0-10.4H1v-4.9h2v4.9zm0-10.3H1v-4.9h2v4.9zm0-10.4H1v-4.9h2v4.9zm0-10.3H1v-4.9h2v4.9zm0-10.4H1v-4.9h2v4.9zm0-10.3H1v-4.9h2v4.9zM3 76H1v-4.9h2V76zm0-10.4H1v-4.9h2v4.9zm0-10.3H1v-4.9h2v4.9zm0-10.4H1V40h2v4.9zm0-10.3H1v-4.9h2v4.9zm0-10.4H1v-4.9h2v4.9zm0-10.3H1v-5h2v5zM3 3.5H1V0h3.5v2H3zM794 2h-5V0h5v2zm-10.5 0h-5V0h5v2zM773 2h-5V0h5v2zm-10.6 0h-5V0h5v2zm-10.5 0h-5V0h5v2zm-10.5 0h-5V0h5v2zm-10.6 0h-5V0h5v2zm-10.5 0h-5V0h5v2zm-10.5 0h-5V0h5v2zm-10.5 0h-5V0h5v2zm-10.6 0h-5V0h5v2zm-10.5 0h-5V0h5v2zm-10.5 0h-5V0h5v2zm-10.5 0h-5V0h5v2zm-10.6 0h-5V0h5v2zm-10.5 0h-5V0h5v2zm-10.5 0h-5V0h5v2zm-10.5 0h-5V0h5v2zm-10.6 0h-5V0h5v2zM594 2h-5V0h5v2zm-10.5 0h-5V0h5v2zm-10.6 0h-5V0h5v2zm-10.5 0h-5V0h5v2zm-10.5 0h-5V0h5v2zm-10.5 0h-5V0h5v2zm-10.6 0h-5V0h5v2zm-10.5 0h-5V0h5v2zm-10.5 0h-5V0h5v2zm-10.5 0h-5V0h5v2zm-10.6 0h-5V0h5v2zm-10.5 0h-5V0h5v2zm-10.5 0h-5V0h5v2zm-10.6 0h-5V0h5v2zm-10.5 0h-5V0h5v2zm-10.5 0h-5V0h5v2zm-10.5 0h-5V0h5v2zM415 2h-5V0h5v2zm-10.5 0h-5V0h5v2zM394 2h-5V0h5v2zm-10.5 0h-5V0h5v2zm-10.6 0h-5V0h5v2zm-10.5 0h-5V0h5v2zm-10.5 0h-5V0h5v2zm-10.6 0h-5V0h5v2zm-10.5 0h-5V0h5v2zm-10.5 0h-5V0h5v2zm-10.5 0h-5V0h5v2zm-10.6 0h-5V0h5v2zm-10.5 0h-5V0h5v2zm-10.5 0h-5V0h5v2zm-10.5 0h-5V0h5v2zm-10.6 0h-5V0h5v2zm-10.5 0h-5V0h5v2zm-10.5 0h-5V0h5v2zm-10.6 0h-5V0h5v2zM215 2h-5V0h5v2zm-10.5 0h-5V0h5v2zM194 2h-5V0h5v2zm-10.6 0h-5V0h5v2zm-10.5 0h-5V0h5v2zm-10.5 0h-5V0h5v2zm-10.5 0h-5V0h5v2zm-10.6 0h-5V0h5v2zm-10.5 0h-5V0h5v2zm-10.5 0h-5V0h5v2zm-10.6 0h-5V0h5v2zM99.2 2h-5V0h5v2zM88.7 2h-5V0h5v2zM78.2 2h-5V0h5v2zM67.6 2h-5V0h5v2zM57.1 2h-5V0h5v2zM46.6 2h-5V0h5v2zM36.1 2h-5V0h5v2zM25.5 2h-5V0h5v2zM15 2h-5V0h5v2zM803 3.5h-2V2h-1.5V0h3.5zM803 355.6h-2v-4.9h2v4.9zm0-10.3h-2v-4.9h2v4.9zm0-10.4h-2V330h2v4.9zm0-10.4h-2v-4.9h2v4.9zm0-10.3h-2v-4.9h2v4.9zm0-10.4h-2v-4.9h2v4.9zm0-10.3h-2v-4.9h2v4.9zm0-10.4h-2v-4.9h2v4.9zm0-10.3h-2v-4.9h2v4.9zm0-10.4h-2v-4.9h2v4.9zm0-10.3h-2v-4.9h2v4.9zm0-10.4h-2v-4.9h2v4.9zm0-10.4h-2v-4.9h2v4.9zm0-10.3h-2v-5h2v5zm0-10.4h-2v-4.9h2v4.9zm0-10.3h-2v-4.9h2v4.9zm0-10.4h-2V185h2v4.9zm0-10.3h-2v-4.9h2v4.9zm0-10.4h-2v-4.9h2v4.9zm0-10.4h-2v-4.9h2v4.9zm0-10.3h-2v-4.9h2v4.9zm0-10.4h-2v-4.9h2v4.9zm0-10.3h-2v-4.9h2v4.9zm0-10.4h-2v-4.9h2v4.9zm0-10.3h-2v-4.9h2v4.9zm0-10.4h-2v-4.9h2v4.9zm0-10.3h-2v-4.9h2v4.9zm0-10.4h-2v-4.9h2V76zm0-10.4h-2v-4.9h2v4.9zm0-10.3h-2v-4.9h2v4.9zm0-10.4h-2V40h2v4.9zm0-10.3h-2v-4.9h2v4.9zm0-10.4h-2v-4.9h2v4.9zm0-10.3h-2v-5h2v5z"/><path fill="#EFEFEF" d="M31.8 128.7h277v65h-277z"/><path fill="#000" d="M140 161.4h-1.3v5.7h-2.1v-13.3h2.1v5.6h1.3l5-5.6h2.8l-6 6.5 6.4 6.8h-2.9zM157.6 163.2c-.1 2.3-2 4.2-4.3 4.1-2.2-.1-4-1.9-4.1-4.1V158h2v5.1c0 1.8 1 2.4 2.2 2.4 1.2 0 2.2-.6 2.2-2.4V158h2v5.2zM170 162.5c.1 2.5-1.8 4.7-4.3 4.8h-.2c-1.1 0-2.2-.4-2.9-1.3v1.1h-2v-13.7h2v5.7c.7-.9 1.7-1.4 2.9-1.3 2.5 0 4.6 2.1 4.6 4.6-.1 0-.1 0-.1.1zm-7.5 0c.1 1.5 1.4 2.7 2.9 2.6 1.5-.1 2.7-1.4 2.6-2.9-.1-1.5-1.3-2.6-2.7-2.6-1.5 0-2.7 1.2-2.8 2.7v.2zM180.7 162.5v.7H174c.1 1.4 1.3 2.4 2.7 2.3 1 0 1.9-.4 2.6-1l1 1.4c-1 .9-2.4 1.3-3.7 1.3-2.5.1-4.6-1.8-4.7-4.3v-.5c-.2-2.4 1.6-4.6 4.1-4.8h.5c2.4.1 4.1 2 4.2 4.9zm-6.8-.8h4.7c0-1.3-1.1-2.2-2.3-2.2-1.3-.1-2.3.9-2.4 2.2zM185.1 167h-2v-13.7h2zM196.4 162.5v.7h-6.7c.1 1.4 1.3 2.4 2.7 2.3 1 0 1.9-.4 2.6-1l1 1.4c-1 .9-2.4 1.3-3.7 1.3-2.5.1-4.6-1.8-4.7-4.3v-.5c-.2-2.4 1.6-4.6 4.1-4.8h.5c2.4.1 4.2 2 4.2 4.9zm-6.8-.8h4.7c0-1.3-1.1-2.2-2.3-2.2-1.2-.1-2.3.9-2.4 2.2zM205 159.7h-3.5v4c0 1.2.6 1.7 1.4 1.7.7 0 1.3-.3 1.8-.6l.8 1.6c-.8.6-1.8.9-2.8.9-2.1 0-3.3-1.1-3.3-3.5v-4h-1.8V158h1.8v-2.8h2v2.8h3.5v1.7h.1z"/><path fill="#EFEFEF" d="M31.8 208.7h277v65h-277z"/><path fill="#000" d="M123.6 241.4h-1.3v5.7h-2.1v-13.3h2.1v5.6h1.3l5-5.6h2.8l-6 6.5 6.4 6.8h-2.9zM141.2 243.2c-.1 2.3-2 4.2-4.3 4.1-2.2-.1-4-1.9-4.1-4.1V238h2v5.1c0 1.8 1 2.4 2.2 2.4 1.2 0 2.2-.6 2.2-2.4V238h2v5.2zM153.7 242.5c.1 2.5-1.8 4.7-4.3 4.8h-.2c-1.1 0-2.2-.4-2.9-1.3v1.1h-2v-13.7h2v5.7c.7-.9 1.7-1.4 2.9-1.3 2.5 0 4.6 2.1 4.6 4.6-.1 0-.1 0-.1.1zm-7.6 0c.1 1.5 1.4 2.7 2.9 2.6 1.5-.1 2.7-1.4 2.6-2.9-.1-1.5-1.3-2.6-2.7-2.6-1.5 0-2.7 1.2-2.8 2.7v.2zM164.3 242.5v.7h-6.7c.1 1.4 1.3 2.4 2.7 2.3 1 0 1.9-.4 2.6-1l1 1.4c-1 .9-2.4 1.3-3.7 1.3-2.5.1-4.6-1.8-4.7-4.3v-.5c-.2-2.4 1.6-4.6 4.1-4.8h.5c2.4.1 4.2 2 4.2 4.9zm-6.8-.8h4.7c0-1.3-1.1-2.2-2.3-2.2-1.2-.1-2.3.9-2.4 2.2zM174.3 241.8v5.2h-2.1v-13.3h5.2c3.1 0 4.7 1.5 4.7 4s-1.6 4-4.7 4l-3.1.1zm0-6v4h3c1.7 0 2.5-.6 2.5-2s-.8-2-2.5-2h-3zM190.6 238l-.5 2c-.5-.2-1-.3-1.5-.3-1.2 0-2.2.9-2.2 2.1v5.3h-2V238h2v1c.6-.8 1.6-1.3 2.6-1.3.6 0 1.1.1 1.6.3zM201.4 242.5c.1 2.7-2.1 4.9-4.8 5-2.7.1-4.9-2.1-5-4.8-.1-2.7 2.1-4.9 4.8-5h.1c2.6-.1 4.8 1.9 4.9 4.6v.2zm-7.8 0c0 1.6 1.3 2.8 2.9 2.8 1.6 0 2.8-1.3 2.8-2.9 0-1.6-1.3-2.8-2.9-2.8-1.5 0-2.8 1.2-2.9 2.7.1.1.1.1.1.2zM208.1 242.4l3.4 4.7h-2.4l-2.3-3.2-2.3 3.2h-2.3l3.4-4.6-3.4-4.5h2.4l2.2 3 2.2-3h2.3zM215 250.9h-2.2l3.3-5.7-4-7.2h2.2l2.9 5.2 2.8-5.2h2.2z"/><path fill="#EFEFEF" d="M338.6 228.7h433.7v45H338.6z"/><path d="M480.9 246.3l-1.8 1.2c-.8-1.2-2.2-1.9-3.7-1.9-2.7.1-4.8 2.3-4.7 5 .1 2.6 2.1 4.6 4.7 4.7 1.5 0 2.9-.7 3.7-1.9l1.7 1.3c-1.3 1.7-3.3 2.8-5.5 2.7-3.8 0-6.9-3-7-6.8-.1-3.8 3-6.9 6.8-7h.1c2.4-.2 4.5.9 5.7 2.7zM492.4 252.5c.1 2.7-2.1 4.9-4.8 5-2.7.1-4.9-2.1-5-4.8-.1-2.7 2.1-4.9 4.8-5h.1c2.6-.1 4.8 1.9 4.9 4.6v.2zm-7.8 0c0 1.6 1.3 2.8 2.9 2.8 1.6 0 2.8-1.3 2.8-2.9 0-1.6-1.3-2.8-2.9-2.8-1.5 0-2.8 1.2-2.9 2.7.1.1.1.1.1.2zM503.3 251.3v5.7h-2v-5c0-1.5-.8-2.4-2.1-2.4-1.2-.1-2.3.9-2.4 2.1v5.3h-2v-9.1h2v1.1c.6-.9 1.7-1.4 2.8-1.3 1.9-.1 3.6 1.4 3.7 3.3v.3zM512.5 249.7H509v4c0 1.2.6 1.7 1.4 1.7.7 0 1.3-.3 1.8-.6l.8 1.6c-.8.6-1.8.9-2.8.9-2.1 0-3.3-1.1-3.3-3.5v-4h-1.8V248h1.8v-2.8h2v2.8h3.5l.1 1.7zM523.6 257h-2v-1c-.7.9-1.7 1.4-2.9 1.3-2.6-.1-4.7-2.4-4.5-5 .1-2.5 2.1-4.4 4.5-4.5 1.1 0 2.2.5 2.9 1.3V248h2v9zm-7.3-4.5c.1 1.5 1.4 2.7 2.9 2.6 1.5-.1 2.7-1.4 2.6-2.9-.1-1.5-1.3-2.6-2.7-2.6-1.5 0-2.7 1.2-2.8 2.7v.2zM529.1 244.8c0 .8-.6 1.4-1.4 1.4-.8 0-1.4-.6-1.4-1.3v-.1c0-.8.6-1.4 1.3-1.4.9 0 1.5.6 1.5 1.4zm-.4 12.2h-2v-9.1h2v9.1zM540.3 251.3v5.7h-2v-5c0-1.5-.8-2.4-2.1-2.4-1.2-.1-2.3.9-2.4 2.1v5.3h-2v-9.1h2v1.1c.6-.9 1.7-1.4 2.8-1.3 1.9-.1 3.6 1.4 3.7 3.3v.3zM551.5 252.5v.7h-6.7c.1 1.4 1.3 2.4 2.7 2.3 1 0 1.9-.4 2.6-1l1 1.4c-1 .9-2.4 1.3-3.7 1.3-2.5.1-4.6-1.8-4.7-4.3v-.5c-.2-2.4 1.6-4.6 4.1-4.8h.5c2.5.1 4.2 2 4.2 4.9zm-6.7-.8h4.7c0-1.3-1.1-2.2-2.3-2.2-1.3-.1-2.4.9-2.4 2.2zM560.1 248l-.5 2c-.5-.2-1-.3-1.5-.3-1.2 0-2.2.9-2.2 2.1v5.3h-2V248h2v1c.6-.8 1.6-1.3 2.6-1.3.6 0 1.1.1 1.6.3zM572.8 243.7c3.1 0 4.7 1.4 4.7 3.8 0 2.3-1.7 3.8-4.4 3.9l4.4 5.6h-2.7l-4.2-5.6h-1.1v5.6h-2.1v-13.3h5.4zm-3.3 2.1v3.7h3.3c1.7 0 2.5-.6 2.5-1.9 0-1.3-.9-1.8-2.5-1.8h-3.3zM588.3 253.2c-.1 2.3-2 4.2-4.3 4.1-2.2-.1-4-1.9-4.1-4.1V248h2v5.1c0 1.8 1 2.4 2.2 2.4 1.2 0 2.2-.6 2.2-2.4V248h2v5.2zM599.7 251.3v5.7h-2v-5c0-1.5-.8-2.4-2.1-2.4-1.2-.1-2.3.9-2.4 2.1v5.3h-2v-9.1h2v1.1c.6-.9 1.7-1.4 2.8-1.3 1.9-.1 3.6 1.4 3.7 3.3v.3zM608.9 249.7h-3.5v4c0 1.2.6 1.7 1.4 1.7.7 0 1.3-.3 1.8-.6l.8 1.6c-.8.6-1.8.9-2.8.9-2.1 0-3.3-1.1-3.3-3.5v-4h-1.8V248h1.8v-2.8h2v2.8h3.5l.1 1.7zM613.7 244.8c0 .8-.6 1.4-1.4 1.4-.8 0-1.4-.6-1.4-1.3v-.1c0-.8.6-1.4 1.3-1.4.8 0 1.5.6 1.5 1.4zm-.4 12.2h-2v-9.1h2v9.1zM631.3 251.3v5.7h-2v-5c0-1.5-.8-2.4-2.1-2.4-1.2-.1-2.3.9-2.4 2.1v5.3h-2v-5c0-1.5-.8-2.4-2.1-2.4-1.2-.1-2.3.9-2.4 2.1v5.3h-2v-9.1h2v1.1c.6-.9 1.7-1.4 2.8-1.3 1.3 0 2.5.6 3.1 1.6.7-1.1 2-1.7 3.3-1.6 1.9-.1 3.6 1.4 3.7 3.3.1.1.1.2.1.3zM642.5 252.5v.7h-6.7c.1 1.4 1.3 2.4 2.7 2.3 1 0 1.9-.4 2.6-1l1 1.4c-1 .9-2.4 1.3-3.7 1.3-2.5.1-4.6-1.8-4.7-4.3v-.5c-.2-2.4 1.6-4.6 4.1-4.8h.5c2.5.1 4.2 2 4.2 4.9zm-6.7-.8h4.7c0-1.3-1.1-2.2-2.3-2.2-1.3-.1-2.4.9-2.4 2.2z" fill="#000"/><path fill="#EFEFEF" d="M338.6 288.7h433.7v45H338.6z"/><path d="M481.9 306.3l-1.8 1.2c-.8-1.2-2.2-1.9-3.7-1.9-2.7.1-4.8 2.3-4.7 5 .1 2.6 2.1 4.6 4.7 4.7 1.5 0 2.9-.7 3.7-1.9l1.7 1.3c-1.3 1.7-3.3 2.8-5.5 2.7-3.8 0-6.9-3-7-6.8-.1-3.8 3-6.9 6.8-7h.1c2.3-.2 4.4.9 5.7 2.7zM493.4 306.7c-1.1-.7-2.4-1.1-3.7-1.1-1.8 0-3 .8-3 2 0 1.1 1 1.5 2.8 1.8l.9.1c2.2.3 4.3 1.2 4.3 3.7 0 2.7-2.5 4.2-5.3 4.2-1.9 0-3.8-.6-5.4-1.8l1.2-1.7c1.2.9 2.7 1.5 4.2 1.5 1.7 0 3.1-.7 3.1-2 0-1-1-1.5-3-1.8l-1-.1c-2-.3-3.9-1.2-3.9-3.7 0-2.7 2.4-4.2 5.2-4.2 1.7 0 3.4.5 4.8 1.4l-1.2 1.7zM499.6 317h-2.1v-13.3h2.1zM514.4 317h-2.7l-5.1-13.3h2.3l4.1 11.1 4.2-11.1h2.2zM529.3 312.5c.1 2.7-2.1 4.9-4.8 5-2.7.1-4.9-2.1-5-4.8-.1-2.7 2.1-4.9 4.8-5h.1c2.6-.1 4.8 1.9 4.9 4.6v.2zm-7.8 0c0 1.6 1.3 2.8 2.9 2.8 1.6 0 2.8-1.3 2.8-2.9 0-1.6-1.3-2.8-2.9-2.8-1.5 0-2.8 1.2-2.9 2.7.1.1.1.1.1.2zM533.8 317h-2v-13.7h2zM545.2 313.2c-.1 2.3-2 4.2-4.3 4.1-2.2-.1-4-1.9-4.1-4.1V308h2v5.1c0 1.8 1 2.4 2.2 2.4 1.2 0 2.2-.6 2.2-2.4V308h2v5.2zM563.2 311.3v5.7h-2v-5c0-1.5-.8-2.4-2.1-2.4-1.2-.1-2.3.9-2.4 2.1v5.3h-2v-5c0-1.5-.8-2.4-2.1-2.4-1.2-.1-2.3.9-2.4 2.1v5.3h-2v-9.1h2v1.1c.6-.9 1.7-1.4 2.8-1.3 1.3 0 2.5.6 3.1 1.6.7-1.1 2-1.7 3.3-1.6 1.9-.1 3.6 1.4 3.7 3.3.1.1.1.2.1.3zM574.4 312.5v.7h-6.7c.1 1.4 1.3 2.4 2.7 2.3 1 0 1.9-.4 2.6-1l1 1.4c-1 .9-2.4 1.3-3.7 1.3-2.5.1-4.6-1.8-4.7-4.3v-.5c-.2-2.4 1.6-4.6 4.1-4.8h.5c2.4.1 4.2 2 4.2 4.9zm-6.8-.8h4.7c0-1.3-1.1-2.2-2.3-2.2-1.3-.1-2.3.9-2.4 2.2zM587.5 303.7c4.2 0 6.9 2.6 6.9 6.7s-2.7 6.7-6.9 6.7h-5.3v-13.3h5.3v-.1zm-3.2 2.1v9.2h3.1c3.1 0 4.7-1.9 4.7-4.6 0-2.7-1.5-4.6-4.7-4.6h-3.1zM603.2 308l-.5 2c-.5-.2-1-.3-1.5-.3-1.2 0-2.2.9-2.2 2.1v5.3h-2V308h2v1c.6-.8 1.6-1.3 2.6-1.3.6 0 1.1.1 1.6.3zM607.6 304.8c0 .8-.6 1.4-1.4 1.4-.8 0-1.4-.6-1.4-1.3v-.1c0-.8.6-1.4 1.3-1.4.8 0 1.5.6 1.5 1.4zm-.4 12.2h-2v-9.1h2v9.1zM615 317h-2.4l-3.7-9.1h2.2l2.7 7 2.7-7h2.1zM628.5 312.5v.7h-6.7c.1 1.4 1.3 2.4 2.7 2.3 1 0 1.9-.4 2.6-1l1 1.4c-1 .9-2.4 1.3-3.7 1.3-2.5.1-4.6-1.8-4.7-4.3v-.5c-.2-2.4 1.6-4.6 4.1-4.8h.5c2.4.1 4.2 2 4.2 4.9zm-6.8-.8h4.7c0-1.3-1.1-2.2-2.3-2.2-1.2-.1-2.3.9-2.4 2.2zM637.1 308l-.5 2c-.5-.2-1-.3-1.5-.3-1.2 0-2.2.9-2.2 2.1v5.3h-2V308h2v1c.6-.8 1.6-1.3 2.6-1.3.6 0 1.1.1 1.6.3z" fill="#000"/><path fill="url(#prefix__a)" d="M0 394.6h804v53.2H0z"/><path d="M402.2 420.2c0 5-3.4 8.7-8.3 8.7-4.8 0-8.2-3.7-8.2-8.7 0-5 3.4-8.7 8.2-8.7 4.9 0 8.3 3.7 8.3 8.7zm-13.2 0c0 3.3 2.1 5.5 5 5.5s5-2.2 5-5.5-2.1-5.5-5-5.5-5 2.2-5 5.5zM415.5 416c-1.3-.9-2.9-1.4-4.5-1.4-1.8 0-3 .7-3 2 0 1.2 1.4 1.6 3.2 1.9l.9.2c2.8.5 5 1.8 5 4.7 0 3.7-3 5.5-6.4 5.5-2.4 0-4.7-.7-6.6-2.2l1.6-2.7c1.4 1.2 3.2 1.8 5 1.8 1.7 0 3.1-.7 3.1-2 0-1.2-1.1-1.6-3.3-2l-1-.2c-2.8-.5-4.8-1.8-4.8-4.8 0-3.5 2.9-5.3 6.3-5.3 2.1 0 4.2.6 6 1.8l-1.5 2.7zM603.1 520.6c-10.1 0-21-2.2-21-7v-10.4c.9-1.2.9-2.8 0-4v-10.4c.9-1.2.9-2.8 0-4v-10.4c0-4.8 10.9-7 21-7s21 2.2 21 7v10.4a3.3 3.3 0 000 4v10.4a3.3 3.3 0 000 4v10.4c.1 4.8-10.9 7-21 7z" fill="#FFF"/><path d="M603.1 468.8c10.8 0 19.5 2.5 19.5 5.5v10.4c-1.1.5-1.6 1.8-1.1 2.9.2.5.6.9 1.1 1.1v10.4c-1.1.5-1.6 1.8-1.1 2.9.2.5.6.9 1.1 1.1v10.4c0 3.1-8.7 5.5-19.5 5.5s-19.5-2.5-19.5-5.5v-10.4c1.1-.5 1.6-1.8 1.1-2.9-.2-.5-.6-.9-1.1-1.1v-10.4c1.1-.5 1.6-1.8 1.1-2.9-.2-.5-.6-.9-1.1-1.1v-10.4c0-3 8.7-5.5 19.5-5.5m0-3c-2.3 0-22.5.2-22.5 8.5v10.4c.6 1.3.6 2.7 0 4v10.4c.6 1.3.6 2.7 0 4v10.4c0 8.3 20.2 8.5 22.5 8.5 2.3 0 22.5-.2 22.5-8.5v-10.4c-.6-1.3-.6-2.7 0-4v-10.4c-.6-1.3-.6-2.7 0-4v-10.4c.1-8.3-20.2-8.5-22.5-8.5z" fill="#828282"/><path d="M622.7 503.1v10.4c0 3.1-8.7 5.5-19.5 5.5s-19.5-2.5-19.5-5.5v-10.4" fill="#FFF"/><path d="M603.1 519.6c-9.7 0-20-2.1-20-6v-10.4h1v10.4c0 2.4 7.8 5 19 5s19-2.7 19-5v-10.4h1v10.4c.1 3.8-10.3 6-20 6z" fill="#828282"/><g transform="translate(583 497)"><ellipse fill="#FFF" cx="20.1" cy="6.1" rx="19.5" ry="5.5"/><path d="M20.1 12.2c-9.7 0-20-2.1-20-6s10.3-6 20-6 20 2.1 20 6-10.3 6-20 6zm0-11.1c-11.2 0-19 2.7-19 5s7.8 5 19 5 19-2.7 19-5-7.8-5-19-5z" fill="#828282"/></g><path d="M622.7 488.7v10.4c0 3.1-8.7 5.5-19.5 5.5s-19.5-2.5-19.5-5.5v-10.4" fill="#FFF"/><path d="M603.1 505.2c-9.7 0-20-2.1-20-6v-10.4h1v10.4c0 2.4 7.8 5 19 5s19-2.7 19-5v-10.4h1v10.4c.1 3.8-10.3 6-20 6z" fill="#828282"/><g transform="translate(583 482)"><ellipse fill="#FFF" cx="20.1" cy="6.7" rx="19.5" ry="5.5"/><path d="M20.1 12.8c-9.7 0-20-2.1-20-6s10.3-6 20-6 20 2.1 20 6-10.3 6-20 6zm0-11.1c-11.2 0-19 2.7-19 5s7.8 5 19 5 19-2.7 19-5-7.8-5-19-5z" fill="#828282"/></g><path d="M622.7 474.3v10.4c0 3.1-8.7 5.5-19.5 5.5s-19.5-2.5-19.5-5.5v-10.4" fill="#FFF"/><path d="M603.1 490.8c-9.7 0-20-2.1-20-6v-10.4h1v10.4c0 2.4 7.8 5 19 5s19-2.7 19-5v-10.4h1v10.4c.1 3.8-10.3 6-20 6z" fill="#828282"/><g transform="translate(583 468)"><ellipse fill="#FFF" cx="20.1" cy="6.3" rx="19.5" ry="5.5"/><path d="M20.1 12.4c-9.7 0-20-2.1-20-6s10.3-6 20-6 20 2.1 20 6-10.3 6-20 6zm0-11.1c-11.2 0-19 2.7-19 5s7.8 5 19 5 19-2.7 19-5-7.8-5-19-5z" fill="#828282"/></g><path d="M617.4 485.2c-.5 0-.9-.2-1.2-.5-.4-.4-.5-1-.4-1.7.1-.6.5-1.2 1-1.7 1.1-1.1 2.6-1.3 3.4-.5.4.4.5 1 .4 1.7-.1.6-.5 1.2-1 1.7-.7.6-1.5 1-2.2 1zm1.5-3.8c-.4 0-1 .2-1.5.7-.4.4-.6.8-.7 1.2 0 .2-.1.5.1.8.3.3 1.2.2 1.9-.5.4-.4.6-.8.7-1.2 0-.2.1-.5-.1-.8 0-.2-.2-.2-.4-.2zM617.4 499.6c-.5 0-.9-.2-1.2-.5-.4-.4-.5-1-.4-1.7.1-.6.5-1.2 1-1.7 1.1-1.1 2.6-1.3 3.4-.5.4.4.5 1 .4 1.7-.1.6-.5 1.2-1 1.7-.7.6-1.5 1-2.2 1zm1.5-3.8c-.4 0-1 .2-1.4.7-.7.7-.9 1.6-.5 1.9.3.3 1.2.2 1.9-.5.4-.4.6-.8.7-1.2 0-.2.1-.5-.1-.8-.2-.1-.4-.1-.6-.1zM617.4 514c-.5 0-.9-.2-1.2-.5-.4-.4-.5-1-.4-1.7.1-.6.5-1.2 1-1.7 1.1-1.1 2.6-1.3 3.4-.5.4.4.5 1 .4 1.7-.1.6-.5 1.2-1 1.7-.7.6-1.5 1-2.2 1zm1.5-3.8c-.4 0-1 .2-1.4.7-.4.4-.6.8-.7 1.2 0 .2-.1.5.1.8.3.3 1.2.2 1.9-.5.4-.4.6-.8.7-1.2 0-.2.1-.5-.1-.8-.1-.2-.3-.2-.5-.2z" fill="#828282"/><path d="M522.7 520.6c-10.1 0-21-2.2-21-7v-10.4c.9-1.2.9-2.8 0-4v-10.4c.9-1.2.9-2.8 0-4v-10.4c0-4.8 10.9-7 21-7s21 2.2 21 7v10.4a3.3 3.3 0 000 4v10.4a3.3 3.3 0 000 4v10.4c0 4.8-10.9 7-21 7z" fill="#FFF"/><path d="M522.7 468.8c10.8 0 19.5 2.5 19.5 5.5v10.4c-1.1.5-1.6 1.8-1.1 2.9.2.5.6.9 1.1 1.1v10.4c-1.1.5-1.6 1.8-1.1 2.9.2.5.6.9 1.1 1.1v10.4c0 3.1-8.7 5.5-19.5 5.5s-19.5-2.5-19.5-5.5v-10.4c1.1-.5 1.6-1.8 1.1-2.9-.2-.5-.6-.9-1.1-1.1v-10.4c1.1-.5 1.6-1.8 1.1-2.9-.2-.5-.6-.9-1.1-1.1v-10.4c-.1-3 8.7-5.5 19.5-5.5m0-3c-2.3 0-22.5.2-22.5 8.5v10.4c.6 1.3.6 2.7 0 4v10.4c.6 1.3.6 2.7 0 4v10.4c0 8.3 20.2 8.5 22.5 8.5 2.3 0 22.5-.2 22.5-8.5v-10.4c-.6-1.3-.6-2.7 0-4v-10.4c-.6-1.3-.6-2.7 0-4v-10.4c0-8.3-20.2-8.5-22.5-8.5z" fill="#828282"/><path d="M542.2 503.1v10.4c0 3.1-8.7 5.5-19.5 5.5s-19.5-2.5-19.5-5.5v-10.4" fill="#FFF"/><path d="M522.7 519.6c-9.7 0-20-2.1-20-6v-10.4h1v10.4c0 2.4 7.8 5 19 5s19-2.7 19-5v-10.4h1v10.4c0 3.8-10.3 6-20 6z" fill="#828282"/><g transform="translate(502 497)"><ellipse fill="#FFF" cx="20.7" cy="6.1" rx="19.5" ry="5.5"/><path d="M20.7 12.2c-9.7 0-20-2.1-20-6s10.3-6 20-6 20 2.1 20 6-10.3 6-20 6zm0-11.1c-11.2 0-19 2.7-19 5s7.8 5 19 5 19-2.7 19-5-7.8-5-19-5z" fill="#828282"/></g><path d="M542.2 488.7v10.4c0 3.1-8.7 5.5-19.5 5.5s-19.5-2.5-19.5-5.5v-10.4" fill="#FFF"/><path d="M522.7 505.2c-9.7 0-20-2.1-20-6v-10.4h1v10.4c0 2.4 7.8 5 19 5s19-2.7 19-5v-10.4h1v10.4c0 3.8-10.3 6-20 6z" fill="#828282"/><g transform="translate(502 482)"><ellipse fill="#FFF" cx="20.7" cy="6.7" rx="19.5" ry="5.5"/><path d="M20.7 12.8c-9.7 0-20-2.1-20-6s10.3-6 20-6 20 2.1 20 6-10.3 6-20 6zm0-11.1c-11.2 0-19 2.7-19 5s7.8 5 19 5 19-2.7 19-5-7.8-5-19-5z" fill="#828282"/></g><path d="M542.2 474.3v10.4c0 3.1-8.7 5.5-19.5 5.5s-19.5-2.5-19.5-5.5v-10.4" fill="#FFF"/><path d="M522.7 490.8c-9.7 0-20-2.1-20-6v-10.4h1v10.4c0 2.4 7.8 5 19 5s19-2.7 19-5v-10.4h1v10.4c0 3.8-10.3 6-20 6z" fill="#828282"/><g transform="translate(502 468)"><ellipse fill="#FFF" cx="20.7" cy="6.3" rx="19.5" ry="5.5"/><path d="M20.7 12.4c-9.7 0-20-2.1-20-6s10.3-6 20-6 20 2.1 20 6-10.3 6-20 6zm0-11.1c-11.2 0-19 2.7-19 5s7.8 5 19 5 19-2.7 19-5-7.8-5-19-5z" fill="#828282"/></g><path d="M537 485.2c-.5 0-.9-.2-1.2-.5-.8-.8-.6-2.3.5-3.4s2.6-1.3 3.4-.5c.8.8.6 2.3-.5 3.4-.7.6-1.5 1-2.2 1zm1.5-3.8c-.4 0-1 .2-1.5.7-.7.7-.9 1.6-.5 1.9.3.3 1.2.2 1.9-.5s.9-1.6.5-1.9c0-.2-.2-.2-.4-.2zM537 499.6c-.5 0-.9-.2-1.2-.5-.8-.8-.6-2.3.5-3.4s2.6-1.3 3.4-.5c.8.8.6 2.3-.5 3.4-.7.6-1.5 1-2.2 1zm0-3.1c-.7.7-.9 1.6-.5 1.9.3.3 1.2.2 1.9-.5s.9-1.6.5-1.9c-.2-.4-1.1-.3-1.9.5zM537 514c-.5 0-.9-.2-1.2-.5-.8-.8-.6-2.3.5-3.4s2.6-1.3 3.4-.5c.8.8.6 2.3-.5 3.4-.7.6-1.5 1-2.2 1zm1.5-3.8c-.4 0-1 .2-1.4.7-.7.7-.9 1.6-.5 1.9.3.3 1.2.2 1.9-.5s.9-1.6.5-1.9c-.1-.2-.3-.2-.5-.2z" fill="#828282"/><path d="M442.2 520.6c-10.1 0-21-2.2-21-7v-10.4c.9-1.2.9-2.8 0-4v-10.4c.9-1.2.9-2.8 0-4v-10.4c0-4.8 10.9-7 21-7s21 2.2 21 7v10.4a3.3 3.3 0 000 4v10.4a3.3 3.3 0 000 4v10.4c.1 4.8-10.8 7-21 7z" fill="#FFF"/><path d="M442.2 468.8c10.8 0 19.5 2.5 19.5 5.5v10.4c-1.1.5-1.6 1.8-1.1 2.9.2.5.6.9 1.1 1.1v10.4c-1.1.5-1.6 1.8-1.1 2.9.2.5.6.9 1.1 1.1v10.4c0 3.1-8.7 5.5-19.5 5.5s-19.5-2.5-19.5-5.5v-10.4c1.1-.5 1.6-1.8 1.1-2.9-.2-.5-.6-.9-1.1-1.1v-10.4c1.1-.5 1.6-1.8 1.1-2.9-.2-.5-.6-.9-1.1-1.1v-10.4c0-3 8.7-5.5 19.5-5.5m0-3c-2.3 0-22.5.2-22.5 8.5v10.4c.6 1.3.6 2.7 0 4v10.4c.6 1.3.6 2.7 0 4v10.4c0 8.3 20.2 8.5 22.5 8.5 2.3 0 22.5-.2 22.5-8.5v-10.4c-.6-1.3-.6-2.7 0-4v-10.4c-.6-1.3-.6-2.7 0-4v-10.4c.1-8.3-20.2-8.5-22.5-8.5z" fill="#828282"/><path d="M461.8 503.1v10.4c0 3.1-8.7 5.5-19.5 5.5s-19.5-2.5-19.5-5.5v-10.4" fill="#FFF"/><path d="M442.2 519.6c-9.7 0-20-2.1-20-6v-10.4h1v10.4c0 2.4 7.8 5 19 5s19-2.7 19-5v-10.4h1v10.4c.1 3.8-10.3 6-20 6z" fill="#828282"/><g transform="translate(422 497)"><ellipse fill="#FFF" cx="20.2" cy="6.1" rx="19.5" ry="5.5"/><path d="M20.2 12.2c-9.7 0-20-2.1-20-6s10.3-6 20-6 20 2.1 20 6-10.3 6-20 6zm0-11.1c-11.2 0-19 2.7-19 5s7.8 5 19 5 19-2.7 19-5-7.8-5-19-5z" fill="#828282"/></g><path d="M461.8 488.7v10.4c0 3.1-8.7 5.5-19.5 5.5s-19.5-2.5-19.5-5.5v-10.4" fill="#FFF"/><path d="M442.2 505.2c-9.7 0-20-2.1-20-6v-10.4h1v10.4c0 2.4 7.8 5 19 5s19-2.7 19-5v-10.4h1v10.4c.1 3.8-10.3 6-20 6z" fill="#828282"/><g transform="translate(422 482)"><ellipse fill="#FFF" cx="20.2" cy="6.7" rx="19.5" ry="5.5"/><path d="M20.2 12.8c-9.7 0-20-2.1-20-6s10.3-6 20-6 20 2.1 20 6-10.3 6-20 6zm0-11.1c-11.2 0-19 2.7-19 5s7.8 5 19 5 19-2.7 19-5-7.8-5-19-5z" fill="#828282"/></g><path d="M461.8 474.3v10.4c0 3.1-8.7 5.5-19.5 5.5s-19.5-2.5-19.5-5.5v-10.4" fill="#FFF"/><path d="M442.2 490.8c-9.7 0-20-2.1-20-6v-10.4h1v10.4c0 2.4 7.8 5 19 5s19-2.7 19-5v-10.4h1v10.4c.1 3.8-10.3 6-20 6z" fill="#828282"/><g transform="translate(422 468)"><ellipse fill="#FFF" cx="20.2" cy="6.3" rx="19.5" ry="5.5"/><path d="M20.2 12.4c-9.7 0-20-2.1-20-6s10.3-6 20-6 20 2.1 20 6-10.3 6-20 6zm0-11.1c-11.2 0-19 2.7-19 5s7.8 5 19 5 19-2.7 19-5-7.8-5-19-5z" fill="#828282"/></g><path d="M456.5 485.2c-.5 0-.9-.2-1.2-.5-.4-.4-.5-1-.4-1.7.1-.6.5-1.2 1-1.7 1.1-1.1 2.6-1.3 3.4-.5.4.4.5 1 .4 1.7-.1.6-.5 1.2-1 1.7-.7.6-1.4 1-2.2 1zm1.5-3.8c-.4 0-1 .2-1.5.7-.4.4-.6.8-.7 1.2 0 .2-.1.5.1.8.3.3 1.2.2 1.9-.5.4-.4.6-.8.7-1.2 0-.2.1-.5-.1-.8 0-.2-.1-.2-.4-.2zM456.5 499.6c-.5 0-.9-.2-1.2-.5-.8-.8-.6-2.3.5-3.4s2.6-1.3 3.4-.5c.4.4.5 1 .4 1.7-.1.6-.5 1.2-1 1.7-.6.6-1.4 1-2.1 1zm1.5-3.8c-.4 0-1 .2-1.4.7-.7.7-.9 1.6-.5 1.9.3.3 1.2.2 1.9-.5.4-.4.6-.8.7-1.2 0-.2.1-.5-.1-.8-.2-.1-.3-.1-.6-.1zM456.5 514c-.5 0-.9-.2-1.2-.5-.4-.4-.5-1-.4-1.7.1-.6.5-1.2 1-1.7 1.1-1.1 2.6-1.3 3.4-.5.4.4.5 1 .4 1.7-.1.6-.5 1.2-1 1.7-.7.6-1.4 1-2.2 1zm1.5-3.8c-.4 0-1 .2-1.4.7-.4.4-.6.8-.7 1.2 0 .2-.1.5.1.8.3.3 1.2.2 1.9-.5.4-.4.6-.8.7-1.2 0-.2.1-.5-.1-.8-.1-.2-.2-.2-.5-.2z" fill="#828282"/><path d="M361.8 520.6c-10.1 0-21-2.2-21-7v-10.4c.9-1.2.9-2.8 0-4v-10.4c.9-1.2.9-2.8 0-4v-10.4c0-4.8 10.9-7 21-7s21 2.2 21 7v10.4a3.3 3.3 0 000 4v10.4a3.3 3.3 0 000 4v10.4c0 4.8-10.9 7-21 7z" fill="#FFF"/><path d="M361.8 468.8c10.8 0 19.5 2.5 19.5 5.5v10.4c-1.1.5-1.6 1.8-1.1 2.9.2.5.6.9 1.1 1.1v10.4c-1.1.5-1.6 1.8-1.1 2.9.2.5.6.9 1.1 1.1v10.4c0 3.1-8.7 5.5-19.5 5.5s-19.5-2.5-19.5-5.5v-10.4c1.1-.5 1.6-1.8 1.1-2.9-.2-.5-.6-.9-1.1-1.1v-10.4c1.1-.5 1.6-1.8 1.1-2.9-.2-.5-.6-.9-1.1-1.1v-10.4c-.1-3 8.7-5.5 19.5-5.5m0-3c-2.3 0-22.5.2-22.5 8.5v10.4c.6 1.3.6 2.7 0 4v10.4c.6 1.3.6 2.7 0 4v10.4c0 8.3 20.2 8.5 22.5 8.5 2.3 0 22.5-.2 22.5-8.5v-10.4c-.6-1.3-.6-2.7 0-4v-10.4c-.6-1.3-.6-2.7 0-4v-10.4c0-8.3-20.2-8.5-22.5-8.5z" fill="#828282"/><path d="M381.3 503.1v10.4c0 3.1-8.7 5.5-19.5 5.5s-19.5-2.5-19.5-5.5v-10.4" fill="#FFF"/><path d="M361.8 519.6c-9.7 0-20-2.1-20-6v-10.4h1v10.4c0 2.4 7.8 5 19 5s19-2.7 19-5v-10.4h1v10.4c0 3.8-10.3 6-20 6z" fill="#828282"/><g transform="translate(341 497)"><ellipse fill="#FFF" cx="20.8" cy="6.1" rx="19.5" ry="5.5"/><path d="M20.8 12.2c-9.7 0-20-2.1-20-6s10.3-6 20-6 20 2.1 20 6-10.3 6-20 6zm0-11.1c-11.2 0-19 2.7-19 5s7.8 5 19 5 19-2.7 19-5-7.8-5-19-5z" fill="#828282"/></g><path d="M381.3 488.7v10.4c0 3.1-8.7 5.5-19.5 5.5s-19.5-2.5-19.5-5.5v-10.4" fill="#FFF"/><path d="M361.8 505.2c-9.7 0-20-2.1-20-6v-10.4h1v10.4c0 2.4 7.8 5 19 5s19-2.7 19-5v-10.4h1v10.4c0 3.8-10.3 6-20 6z" fill="#828282"/><g transform="translate(341 482)"><ellipse fill="#FFF" cx="20.8" cy="6.7" rx="19.5" ry="5.5"/><path d="M20.8 12.8c-9.7 0-20-2.1-20-6s10.3-6 20-6 20 2.1 20 6-10.3 6-20 6zm0-11.1c-11.2 0-19 2.7-19 5s7.8 5 19 5 19-2.7 19-5-7.8-5-19-5z" fill="#828282"/></g><path d="M381.3 474.3v10.4c0 3.1-8.7 5.5-19.5 5.5s-19.5-2.5-19.5-5.5v-10.4" fill="#FFF"/><path d="M361.8 490.8c-9.7 0-20-2.1-20-6v-10.4h1v10.4c0 2.4 7.8 5 19 5s19-2.7 19-5v-10.4h1v10.4c0 3.8-10.3 6-20 6z" fill="#828282"/><g transform="translate(341 468)"><ellipse fill="#FFF" cx="20.8" cy="6.3" rx="19.5" ry="5.5"/><path d="M20.8 12.4c-9.7 0-20-2.1-20-6s10.3-6 20-6 20 2.1 20 6-10.3 6-20 6zm0-11.1c-11.2 0-19 2.7-19 5s7.8 5 19 5 19-2.7 19-5-7.8-5-19-5z" fill="#828282"/></g><path d="M376.1 485.2c-.5 0-.9-.2-1.2-.5-.8-.8-.6-2.3.5-3.4s2.6-1.3 3.4-.5c.8.8.6 2.3-.5 3.4-.7.6-1.5 1-2.2 1zm0-3.1c-.7.7-.9 1.6-.5 1.9.3.3 1.2.2 1.9-.5s.9-1.6.5-1.9c-.2-.4-1.1-.3-1.9.5zM376.1 499.6c-.5 0-.9-.2-1.2-.5-.8-.8-.6-2.3.5-3.4s2.6-1.3 3.4-.5c.8.8.6 2.3-.5 3.4-.5.5-1.1.8-1.7 1h-.5zm0-3.1c-.7.7-.9 1.6-.5 1.9.2.2.6.2.8.1.4-.1.8-.3 1.2-.7.7-.7.9-1.6.5-1.9-.3-.3-1.2-.2-2 .6zM376.1 514c-.5 0-.9-.2-1.2-.5-.8-.8-.6-2.3.5-3.4s2.6-1.3 3.4-.5c.8.8.6 2.3-.5 3.4-.7.6-1.5 1-2.2 1zm0-3.1c-.7.7-.9 1.6-.5 1.9.3.3 1.2.2 1.9-.5s.9-1.6.5-1.9c-.2-.4-1.1-.3-1.9.5z" fill="#828282"/><path d="M281.3 520.6c-10.1 0-21-2.2-21-7v-10.4c.9-1.2.9-2.8 0-4v-10.4c.9-1.2.9-2.8 0-4v-10.4c0-4.8 10.9-7 21-7s21 2.2 21 7v10.4a3.3 3.3 0 000 4v10.4a3.3 3.3 0 000 4v10.4c.1 4.8-10.8 7-21 7z" fill="#FFF"/><path d="M281.3 468.8c10.8 0 19.5 2.5 19.5 5.5v10.4c-1.1.5-1.6 1.8-1.1 2.9.2.5.6.9 1.1 1.1v10.4c-1.1.5-1.6 1.8-1.1 2.9.2.5.6.9 1.1 1.1v10.4c0 3.1-8.7 5.5-19.5 5.5s-19.5-2.5-19.5-5.5v-10.4c1.1-.5 1.6-1.8 1.1-2.9-.2-.5-.6-.9-1.1-1.1v-10.4c1.1-.5 1.6-1.8 1.1-2.9-.2-.5-.6-.9-1.1-1.1v-10.4c0-3 8.7-5.5 19.5-5.5m0-3c-2.3 0-22.5.2-22.5 8.5v10.4c.6 1.3.6 2.7 0 4v10.4c.6 1.3.6 2.7 0 4v10.4c0 8.3 20.2 8.5 22.5 8.5 2.3 0 22.5-.2 22.5-8.5v-10.4c-.6-1.3-.6-2.7 0-4v-10.4c-.6-1.3-.6-2.7 0-4v-10.4c.1-8.3-20.2-8.5-22.5-8.5z" fill="#828282"/><path d="M300.9 503.1v10.4c0 3.1-8.7 5.5-19.5 5.5s-19.5-2.5-19.5-5.5v-10.4" fill="#FFF"/><path d="M281.3 519.6c-9.7 0-20-2.1-20-6v-10.4h1v10.4c0 2.4 7.8 5 19 5s19-2.7 19-5v-10.4h1v10.4c.1 3.8-10.3 6-20 6z" fill="#828282"/><g transform="translate(261 497)"><ellipse fill="#FFF" cx="20.3" cy="6.1" rx="19.5" ry="5.5"/><path d="M20.3 12.2c-9.7 0-20-2.1-20-6s10.3-6 20-6 20 2.1 20 6-10.3 6-20 6zm0-11.1c-11.2 0-19 2.7-19 5s7.8 5 19 5 19-2.7 19-5-7.8-5-19-5z" fill="#828282"/></g><path d="M300.9 488.7v10.4c0 3.1-8.7 5.5-19.5 5.5s-19.5-2.5-19.5-5.5v-10.4" fill="#FFF"/><path d="M281.3 505.2c-9.7 0-20-2.1-20-6v-10.4h1v10.4c0 2.4 7.8 5 19 5s19-2.7 19-5v-10.4h1v10.4c.1 3.8-10.3 6-20 6z" fill="#828282"/><g transform="translate(261 482)"><ellipse fill="#FFF" cx="20.3" cy="6.7" rx="19.5" ry="5.5"/><path d="M20.3 12.8c-9.7 0-20-2.1-20-6s10.3-6 20-6 20 2.1 20 6-10.3 6-20 6zm0-11.1c-11.2 0-19 2.7-19 5s7.8 5 19 5 19-2.7 19-5-7.8-5-19-5z" fill="#828282"/></g><path d="M300.9 474.3v10.4c0 3.1-8.7 5.5-19.5 5.5s-19.5-2.5-19.5-5.5v-10.4" fill="#FFF"/><path d="M281.3 490.8c-9.7 0-20-2.1-20-6v-10.4h1v10.4c0 2.4 7.8 5 19 5s19-2.7 19-5v-10.4h1v10.4c.1 3.8-10.3 6-20 6z" fill="#828282"/><g transform="translate(261 468)"><ellipse fill="#FFF" cx="20.3" cy="6.3" rx="19.5" ry="5.5"/><path d="M20.3 12.4c-9.7 0-20-2.1-20-6s10.3-6 20-6 20 2.1 20 6-10.3 6-20 6zm0-11.1c-11.2 0-19 2.7-19 5s7.8 5 19 5 19-2.7 19-5-7.8-5-19-5z" fill="#828282"/></g><path d="M295.7 485.2c-.5 0-.9-.2-1.2-.5-.8-.8-.6-2.3.5-3.4s2.6-1.3 3.4-.5c.4.4.5 1 .4 1.7-.1.6-.5 1.2-1 1.7-.6.6-1.4 1-2.1 1zm0-3.1c-.7.7-.9 1.6-.5 1.9.3.3 1.2.2 1.9-.5s.9-1.6.5-1.9c-.3-.4-1.2-.3-1.9.5zM295.7 499.6c-.5 0-.9-.2-1.2-.5-.8-.8-.6-2.3.5-3.4s2.6-1.3 3.4-.5c.8.8.6 2.3-.5 3.4-.7.6-1.5 1-2.2 1zm0-3.1c-.7.7-.9 1.6-.5 1.9.3.3 1.2.2 1.9-.5s.9-1.6.5-1.9c-.3-.4-1.2-.3-1.9.5zM295.7 514c-.5 0-.9-.2-1.2-.5-.8-.8-.6-2.3.5-3.4s2.6-1.3 3.4-.5c.8.8.6 2.3-.5 3.4-.7.6-1.5 1-2.2 1zm0-3.1c-.7.7-.9 1.6-.5 1.9.3.3 1.2.2 1.9-.5s.9-1.6.5-1.9c-.3-.4-1.2-.3-1.9.5z" fill="#828282"/><path d="M200.9 520.6c-10.1 0-21-2.2-21-7v-10.4c.9-1.2.9-2.8 0-4v-10.4c.9-1.2.9-2.8 0-4v-10.4c0-4.8 10.9-7 21-7s21 2.2 21 7v10.4a3.3 3.3 0 000 4v10.4a3.3 3.3 0 000 4v10.4c0 4.8-10.9 7-21 7z" fill="#FFF"/><path d="M200.9 468.8c10.8 0 19.5 2.5 19.5 5.5v10.4c-1.1.5-1.6 1.8-1.1 2.9.2.5.6.9 1.1 1.1v10.4c-1.1.5-1.6 1.8-1.1 2.9.2.5.6.9 1.1 1.1v10.4c0 3.1-8.7 5.5-19.5 5.5s-19.5-2.5-19.5-5.5v-10.4c1.1-.5 1.6-1.8 1.1-2.9-.2-.5-.6-.9-1.1-1.1v-10.4c1.1-.5 1.6-1.8 1.1-2.9-.2-.5-.6-.9-1.1-1.1v-10.4c-.1-3 8.7-5.5 19.5-5.5m0-3c-2.3 0-22.5.2-22.5 8.5v10.4c.6 1.3.6 2.7 0 4v10.4c.6 1.3.6 2.7 0 4v10.4c0 8.3 20.2 8.5 22.5 8.5 2.3 0 22.5-.2 22.5-8.5v-10.4c-.6-1.3-.6-2.7 0-4v-10.4c-.6-1.3-.6-2.7 0-4v-10.4c0-8.3-20.2-8.5-22.5-8.5z" fill="#828282"/><path d="M220.4 503.1v10.4c0 3.1-8.7 5.5-19.5 5.5s-19.5-2.5-19.5-5.5v-10.4" fill="#FFF"/><path d="M200.9 519.6c-9.7 0-20-2.1-20-6v-10.4h1v10.4c0 2.4 7.8 5 19 5s19-2.7 19-5v-10.4h1v10.4c0 3.8-10.3 6-20 6z" fill="#828282"/><g transform="translate(180 497)"><ellipse fill="#FFF" cx="20.9" cy="6.1" rx="19.5" ry="5.5"/><path d="M20.9 12.2c-9.7 0-20-2.1-20-6s10.3-6 20-6 20 2.1 20 6-10.3 6-20 6zm0-11.1c-11.2 0-19 2.7-19 5s7.8 5 19 5 19-2.7 19-5-7.8-5-19-5z" fill="#828282"/></g><path d="M220.4 488.7v10.4c0 3.1-8.7 5.5-19.5 5.5s-19.5-2.5-19.5-5.5v-10.4" fill="#FFF"/><path d="M200.9 505.2c-9.7 0-20-2.1-20-6v-10.4h1v10.4c0 2.4 7.8 5 19 5s19-2.7 19-5v-10.4h1v10.4c0 3.8-10.3 6-20 6z" fill="#828282"/><g transform="translate(180 482)"><ellipse fill="#FFF" cx="20.9" cy="6.7" rx="19.5" ry="5.5"/><path d="M20.9 12.8c-9.7 0-20-2.1-20-6s10.3-6 20-6 20 2.1 20 6-10.3 6-20 6zm0-11.1c-11.2 0-19 2.7-19 5s7.8 5 19 5 19-2.7 19-5-7.8-5-19-5z" fill="#828282"/></g><path d="M220.4 474.3v10.4c0 3.1-8.7 5.5-19.5 5.5s-19.5-2.5-19.5-5.5v-10.4" fill="#FFF"/><path d="M200.9 490.8c-9.7 0-20-2.1-20-6v-10.4h1v10.4c0 2.4 7.8 5 19 5s19-2.7 19-5v-10.4h1v10.4c0 3.8-10.3 6-20 6z" fill="#828282"/><g transform="translate(180 468)"><ellipse fill="#FFF" cx="20.9" cy="6.3" rx="19.5" ry="5.5"/><path d="M20.9 12.4c-9.7 0-20-2.1-20-6s10.3-6 20-6 20 2.1 20 6-10.3 6-20 6zm0-11.1c-11.2 0-19 2.7-19 5s7.8 5 19 5 19-2.7 19-5-7.8-5-19-5z" fill="#828282"/></g><path d="M215.2 485.2c-.5 0-.9-.2-1.2-.5-.8-.8-.6-2.3.5-3.4s2.6-1.3 3.4-.5c.8.8.6 2.3-.5 3.4-.7.6-1.5 1-2.2 1zm.1-3.1c-.7.7-.9 1.6-.5 1.9.3.3 1.2.2 1.9-.5s.9-1.6.5-1.9c-.3-.4-1.2-.3-1.9.5zM215.2 499.6c-.5 0-.9-.2-1.2-.5-.8-.8-.6-2.3.5-3.4s2.6-1.3 3.4-.5c.4.4.6 1 .4 1.7-.1.6-.5 1.2-1 1.7-.6.6-1.4 1-2.1 1zm.1-3.1c-.7.7-.9 1.6-.5 1.9.3.3 1.2.2 1.9-.5.4-.4.6-.8.7-1.2 0-.2.1-.5-.1-.8-.4-.3-1.3-.2-2 .6zM215.2 514c-.5 0-.9-.2-1.2-.5-.8-.8-.6-2.3.5-3.4s2.6-1.3 3.4-.5c.8.8.6 2.3-.5 3.4-.5.5-1.1.8-1.7 1h-.5zm.1-3.1c-.7.7-.9 1.6-.5 1.9.2.2.6.2.8.1.4-.1.8-.3 1.2-.7.7-.7.9-1.6.5-1.9-.4-.3-1.3-.2-2 .6z" fill="#828282"/><path fill="#000" d="M38.4 44.1h-1.6v7.2h-2.7V34.4h2.7v7.1h1.7l6.3-7.1h3.5l-7.6 8.2 8.1 8.6h-3.7zM62.5 38.9c0 1.7-1 3.2-2.6 3.8 1.7.5 2.9 2.1 3 3.9 0 3-2.9 4.8-6.4 4.8-3.5 0-6.4-1.8-6.4-4.8 0-1.8 1.2-3.4 3-3.9-1.6-.6-2.6-2.1-2.6-3.8 0-3 2.7-4.8 6-4.8s6 1.8 6 4.8zm-9.6 7.6c0 1.7 1.6 2.6 3.6 2.6s3.6-.9 3.6-2.6c0-1.7-1.6-2.6-3.6-2.6s-3.6.9-3.6 2.6zm.4-7.4c0 1.7 1.5 2.6 3.2 2.6 1.7 0 3.2-.9 3.2-2.6 0-1.6-1.5-2.5-3.2-2.5-1.7 0-3.2.8-3.2 2.5zM77.4 38.1c-1.4-.9-3-1.4-4.7-1.4-2.2 0-3.8 1-3.8 2.5 0 1.4 1.3 1.9 3.5 2.2l1.2.2c2.7.4 5.4 1.5 5.4 4.6 0 3.4-3.1 5.3-6.7 5.3-2.4 0-4.8-.8-6.8-2.3L67 47c1.5 1.2 3.4 1.8 5.3 1.8 2.2 0 3.9-.9 3.9-2.5 0-1.3-1.3-1.9-3.8-2.3h-1.3c-2.5-.3-5-1.5-5-4.6 0-3.4 3-5.2 6.6-5.2 2.2 0 4.3.6 6.1 1.8l-1.4 2.1zM103.7 51.2h-2.4l-9.4-12.1v12.1h-2.7V34.4h2.4l9.4 12.1V34.4h2.7zM124.9 42.8c0 4.9-4 8.8-8.9 8.7-4.8 0-8.7-3.9-8.7-8.7 0-4.9 4-8.8 8.9-8.7 4.8.1 8.7 3.9 8.7 8.7zm-14.7 0c-.1 3.3 2.5 6 5.8 6.1 3.3.1 6-2.5 6.1-5.8v-.3c.1-3.3-2.5-6-5.8-6.1-3.3-.1-6 2.5-6.1 5.8v.3zM135.2 34.4c5.3 0 8.7 3.3 8.7 8.4 0 5.1-3.5 8.4-8.7 8.4h-6.7V34.4h6.7zm-3.9 2.6v11.7h4c3.9 0 5.9-2.4 5.9-5.8s-1.9-5.8-5.9-5.8h-4V37zM159.8 51.2h-12.2V34.4h12.1V37h-9.4v4.5h9.1V44h-9.1v4.6h9.5z"/><g><path fill="#FFF" d="M368.6 30.8h403.7v138.1H368.6z"/><path d="M773.7 170.4H367.1V29.3h406.7v141.1h-.1zm-403.6-3h400.7V32.3H370.1v135.1z" fill="#F2F2F2"/></g><g><path fill="#FFF" d="M353.6 45.8h403.7v138.1H353.6z"/><path d="M758.7 185.4H352.1V44.3h406.7v141.1h-.1zm-403.6-3h400.7V47.3H355.1v135.1z" fill="#DBDBDB"/></g><g><path fill="#FFF" d="M338.6 60.8h403.7v138.1H338.6z"/><path d="M743.7 200.4H337.1V59.3h406.7v141.1h-.1zm-403.6-3h400.7V62.3H340.1v135.1z" fill="#BBB"/></g><path fill="#000" d="M499 168.4h-4.3v11.3h-2.1v-11.3h-4.3v-2H499zM507.7 175.1v.7H501c.1 1.4 1.3 2.4 2.7 2.3 1 0 1.9-.4 2.6-1l1 1.4c-1 .9-2.4 1.3-3.7 1.3-2.5.1-4.6-1.8-4.7-4.3v-.5c-.2-2.4 1.6-4.6 4.1-4.8h.5c2.5.1 4.2 2.1 4.2 4.9zm-6.7-.7h4.7c0-1.3-1.1-2.2-2.3-2.2-1.3-.1-2.4.9-2.4 2.2zM518.6 174v5.7h-2v-5.1c0-1.5-.8-2.4-2.1-2.4-1.2-.1-2.3.9-2.4 2.1v5.3h-2v-9.1h2v1.1c.6-.9 1.7-1.4 2.8-1.3 1.9-.1 3.6 1.4 3.7 3.3v.4zM530.4 179.7h-2v-1.1c-.7.9-1.7 1.4-2.9 1.3-2.6-.1-4.7-2.4-4.5-5 .1-2.5 2.1-4.4 4.5-4.5 1.1 0 2.2.5 2.9 1.3v-1.1h2v9.1zm-7.4-4.6c.1 1.5 1.4 2.7 2.9 2.6 1.5-.1 2.7-1.4 2.6-2.9-.1-1.5-1.3-2.6-2.7-2.6-1.5 0-2.7 1.2-2.8 2.7v.2zM542 174v5.7h-2v-5.1c0-1.5-.8-2.4-2.1-2.4-1.2-.1-2.3.9-2.4 2.1v5.3h-2v-9.1h2v1.1c.6-.9 1.7-1.4 2.8-1.3 1.9-.1 3.6 1.4 3.7 3.3v.4zM551.1 172.4h-3.5v4c0 1.2.6 1.7 1.4 1.7.7 0 1.3-.3 1.8-.6l.8 1.6c-.8.6-1.8.9-2.8.9-2.1 0-3.3-1.1-3.3-3.5v-4h-1.8v-1.8h1.8v-2.8h2v2.8h3.5l.1 1.7zM561.1 174.5v5.2H559v-13.3h5.2c3.1 0 4.7 1.5 4.7 4s-1.6 4-4.7 4l-3.1.1zm0-6.1v4h3c1.7 0 2.5-.6 2.5-2s-.8-2-2.5-2h-3zM580.1 175.1c.1 2.7-2.1 4.9-4.8 5-2.7.1-4.9-2.1-5-4.8-.1-2.7 2.1-4.9 4.8-5h.1c2.6-.1 4.8 1.9 4.9 4.6v.2zm-7.8 0c0 1.6 1.3 2.8 2.9 2.8 1.6 0 2.8-1.3 2.8-2.9 0-1.6-1.3-2.8-2.9-2.8-1.5 0-2.8 1.2-2.9 2.7.1.1.1.2.1.2zM589.3 171.7V166h2v13.7h-2v-1.1c-.7.9-1.7 1.4-2.9 1.3-2.6-.1-4.7-2.4-4.5-5 .1-2.5 2.1-4.4 4.5-4.5 1.2-.1 2.2.4 2.9 1.3zm-5.4 3.4c.1 1.5 1.4 2.7 2.9 2.6 1.5-.1 2.7-1.4 2.6-2.9-.1-1.5-1.3-2.6-2.7-2.6-1.5 0-2.7 1.2-2.8 2.7v.2z"/><path d="M724.2 78.8v63H356.6v-63h367.6m3-3H353.6v69h373.7v-69h-.1z" fill="#BE3043"/><path d="M519.4 100.6h6.6V120h-6.6v-19.4zm-8.1.2l-13.6 8.4c-.2.2-.5.2-.5 0l-13.6-8.4c-.4-.2-.5-.4-.9-.4-1-.1-1.8.7-1.8 1.6v18h6.6v-8.4c0-.3.3-.6.6-.6.1 0 .2 0 .3.1l7.5 4.6c.8.6 1.8.6 2.6 0l8.1-4.8c.5-.4.9 0 .9.6v8.4h6.6v-17.8c.1-1-.7-1.8-1.6-1.8h-.2c-.3.3-.6.3-1 .5zm48.1-.2h-6.8v9c0 .3-.3.6-.6.6-.1 0-.2 0-.3-.1l-17.4-9.2c-.3-.1-.6-.2-.9-.2-1-.1-1.8.7-1.8 1.6V119.9h6.8v-8.8c0-.3.3-.6.6-.6.1 0 .2 0 .3.1l17.6 9.4c.3.1.6.2.9.2 1 .1 1.8-.7 1.8-1.6v-.2l-.2-17.8zm5.5 19.4v-19.4h3.1V120h-3.1zm20.9.6c-8.3 0-14.1-3.9-14.1-10.3s5.9-10.3 14.1-10.3c8.4 0 14.1 3.9 14.1 10.3s-5.7 10.3-14.1 10.3zm0-17.8c-6.1 0-10.8 2.8-10.8 7.5 0 5 4.8 7.5 10.8 7.5 6 0 10.8-2.8 10.8-7.5 0-4.9-4.6-7.5-10.8-7.5z" fill="#C62D48"/></g></svg>