<svg xmlns="http://www.w3.org/2000/svg" viewBox="0 0 532.42 534.52"><defs><style>.cls-1,.cls-8{fill:#fff;}.cls-1,.cls-2{stroke:#cdd2d4;stroke-width:1.22px;}.cls-1,.cls-2,.cls-5,.cls-6{stroke-miterlimit:10;}.cls-2{fill:#f4f2f1;}.cls-3{isolation:isolate;}.cls-4{fill:#a5a5a5;}.cls-5,.cls-6{fill:none;}.cls-5{stroke:#a5a5a5;}.cls-6{stroke:#535759;stroke-width:2.43px;}.cls-7{fill:#a1b2ba;}.cls-9{fill:#3a7ca0;}.cls-10{fill:#3a7ca1;}</style></defs><g id="Layer_2" data-name="Layer 2"><g id="Layer_1-2" data-name="Layer 1"><rect class="cls-1" x="15.8" y="1.22" width="257.7" height="257.7"/><rect class="cls-1" x="273.5" y="258.91" width="257.7" height="257.7"/><rect class="cls-2" x="273.5" y="1.22" width="257.7" height="257.7"/><rect class="cls-2" x="15.8" y="258.91" width="257.7" height="257.7"/><g class="cls-3"><path class="cls-4" d="M22.7,531.31a3.71,3.71,0,0,1-.8,2.3,3,3,0,0,1-2.2.8,2.66,2.66,0,0,1-2.2-1.1,5,5,0,0,1-.8-2.9v-1.7a4.37,4.37,0,0,1,.9-2.9,3,3,0,0,1,4.4-.3,3.2,3.2,0,0,1,.8,2.3H21.6a2.73,2.73,0,0,0-.5-1.6,1.66,1.66,0,0,0-1.2-.5,1.9,1.9,0,0,0-1.5.8,4.2,4.2,0,0,0-.5,2.2v1.7a4.47,4.47,0,0,0,.5,2.2,1.6,1.6,0,0,0,1.4.8,1.58,1.58,0,0,0,1.3-.5,4.3,4.3,0,0,0,.5-1.6Z"/><path class="cls-4" d="M30.4,530.42a5.1,5.1,0,0,1-.8,3,2.64,2.64,0,0,1-2.3,1,2.76,2.76,0,0,1-2.3-1,4.21,4.21,0,0,1-.9-2.91v-1.79a4.8,4.8,0,0,1,.8-2.91,2.84,2.84,0,0,1,2.3-1.09,2.62,2.62,0,0,1,2.3,1,5,5,0,0,1,.8,2.9v1.8Zm-1.2-1.61a4.2,4.2,0,0,0-.5-2.2,1.58,1.58,0,0,0-1.5-.7,1.8,1.8,0,0,0-1.5.7,4.2,4.2,0,0,0-.5,2.2v1.7a4.24,4.24,0,0,0,.5,2.21,1.64,1.64,0,0,0,1.5.79,1.58,1.58,0,0,0,1.5-.7,4.05,4.05,0,0,0,.5-2.09Z"/><path class="cls-4" d="M33.8,524.92l2.4,7.7,2.4-7.7h1.5v9.4H38.9v-3.7l.1-3.7-2.5,7.3h-.9L33.3,527l.1,3.6v3.7H32.3v-9.4h1.5Z"/><path class="cls-4" d="M43.4,530.61v3.7H42.2v-9.4h3a2.86,2.86,0,0,1,2.1.8,3.5,3.5,0,0,1,0,4.2,3.06,3.06,0,0,1-2,.8H43.4Zm0-1h1.8a1.66,1.66,0,0,0,1.2-.5,1.84,1.84,0,0,0,.4-1.3,2.13,2.13,0,0,0-.4-1.4,1.35,1.35,0,0,0-1.2-.5H43.4Z"/><path class="cls-4" d="M50.7,533.31h3.7v1H49.5v-9.4h1.2Z"/></g><g class="cls-3"><path class="cls-4" d="M60.3,529.92H57v3.3h3.9v1h-5v-9.41h5v1H57.1v3h3.2Z"/></g><g class="cls-3"><path class="cls-4" d="M68,525.92H65.5v8.4H64.3v-8.4H61.8v-1h6.1v1Z"/><path class="cls-4" d="M73.8,529.92H70.5v3.3h3.9v1h-5v-9.41h5v1H70.6v3h3.3v1.11Z"/><path class="cls-4" d="M82,534.31H80.8l-3.8-7.2v7.2H75.8v-9.4H77l3.8,7.3v-7.3H82Z"/><path class="cls-4" d="M88.5,529.92H85.2v3.3h3.9v1h-5v-9.41h5v1H85.3v3h3.3v1.11Z"/><path class="cls-4" d="M94.7,531.92a1.37,1.37,0,0,0-.4-1.1,4.47,4.47,0,0,0-1.4-.7,5.29,5.29,0,0,1-1.5-.7,3.13,3.13,0,0,1-.8-.91,2,2,0,0,1-.3-1.09,2.25,2.25,0,0,1,.7-1.8,2.49,2.49,0,0,1,1.9-.7,2.73,2.73,0,0,1,1.5.4,2.41,2.41,0,0,1,1,1,3.19,3.19,0,0,1,.3,1.4H94.5a1.7,1.7,0,0,0-.4-1.3,1.66,1.66,0,0,0-1.2-.5,1.38,1.38,0,0,0-1.5,1.5,1.28,1.28,0,0,0,.4,1,3.16,3.16,0,0,0,1.3.7,5.26,5.26,0,0,1,2,1.1,2.44,2.44,0,0,1,.6,1.8,2.14,2.14,0,0,1-.7,1.8,2.72,2.72,0,0,1-2,.7,2.82,2.82,0,0,1-1.5-.4,2.66,2.66,0,0,1-1.1-1,2.41,2.41,0,0,1-.4-1.5h1.3a2.17,2.17,0,0,0,.5,1.4,1.54,1.54,0,0,0,1.3.5,1.59,1.59,0,0,0,1.2-.4A1.75,1.75,0,0,0,94.7,531.92Z"/><path class="cls-4" d="M101.5,531.92a1.37,1.37,0,0,0-.4-1.1,4.47,4.47,0,0,0-1.4-.7,5.29,5.29,0,0,1-1.5-.7,3.13,3.13,0,0,1-.8-.91,2,2,0,0,1-.3-1.09,2.25,2.25,0,0,1,.7-1.8,2.49,2.49,0,0,1,1.9-.7,2.73,2.73,0,0,1,1.5.4,2.41,2.41,0,0,1,1,1,3.19,3.19,0,0,1,.3,1.4h-1.2a1.7,1.7,0,0,0-.4-1.3,1.66,1.66,0,0,0-1.2-.5,1.38,1.38,0,0,0-1.5,1.5,1.28,1.28,0,0,0,.4,1,3.16,3.16,0,0,0,1.3.7,5.26,5.26,0,0,1,2,1.1,2.44,2.44,0,0,1,.6,1.8,2.14,2.14,0,0,1-.7,1.8,2.72,2.72,0,0,1-2,.7,2.82,2.82,0,0,1-1.5-.4,2.66,2.66,0,0,1-1.1-1,2.41,2.41,0,0,1-.4-1.5H98a2.17,2.17,0,0,0,.5,1.4,1.54,1.54,0,0,0,1.3.5,1.59,1.59,0,0,0,1.2-.4A1.46,1.46,0,0,0,101.5,531.92Z"/><path class="cls-4" d="M113.4,530.42a5.1,5.1,0,0,1-.8,3,2.64,2.64,0,0,1-2.3,1,2.76,2.76,0,0,1-2.3-1,4.21,4.21,0,0,1-.9-2.91v-1.79a4.8,4.8,0,0,1,.8-2.91,2.84,2.84,0,0,1,2.3-1.09,2.62,2.62,0,0,1,2.3,1,5,5,0,0,1,.8,2.9v1.8Zm-1.2-1.61a4.2,4.2,0,0,0-.5-2.2,1.58,1.58,0,0,0-1.5-.7,1.8,1.8,0,0,0-1.5.7,4.2,4.2,0,0,0-.5,2.2v1.7a4.24,4.24,0,0,0,.5,2.21,1.64,1.64,0,0,0,1.5.79,1.58,1.58,0,0,0,1.5-.7,4.05,4.05,0,0,0,.5-2.09Z"/><path class="cls-4" d="M119.6,530.11h-3.2v4.1h-1.2v-9.4h4.9v1h-3.7V529h3.2Z"/><path class="cls-4" d="M127.2,532.51l2.1-7.59h1.3l-2.9,9.4h-1l-2.9-9.4h1.3Z"/><path class="cls-4" d="M133.2,534.31H132v-9.4h1.2Z"/><path class="cls-4" d="M139.4,531.92a1.37,1.37,0,0,0-.4-1.1,4.47,4.47,0,0,0-1.4-.7,5.29,5.29,0,0,1-1.5-.7,3.13,3.13,0,0,1-.8-.91,2,2,0,0,1-.3-1.09,2.25,2.25,0,0,1,.7-1.8,2.49,2.49,0,0,1,1.9-.7,2.73,2.73,0,0,1,1.5.4,2.41,2.41,0,0,1,1,1,3.19,3.19,0,0,1,.3,1.4h-1.2a1.7,1.7,0,0,0-.4-1.3,1.66,1.66,0,0,0-1.2-.5,1.38,1.38,0,0,0-1.5,1.5,1.28,1.28,0,0,0,.4,1,3.16,3.16,0,0,0,1.3.7,5.26,5.26,0,0,1,2,1.1,2.44,2.44,0,0,1,.6,1.8,2.14,2.14,0,0,1-.7,1.8,2.72,2.72,0,0,1-2,.7,2.82,2.82,0,0,1-1.5-.4,2.66,2.66,0,0,1-1.1-1,2.41,2.41,0,0,1-.4-1.5h1.2a2.17,2.17,0,0,0,.5,1.4,1.54,1.54,0,0,0,1.3.5,1.59,1.59,0,0,0,1.2-.4A1.85,1.85,0,0,0,139.4,531.92Z"/><path class="cls-4" d="M143.3,534.31h-1.2v-9.4h1.2Z"/><path class="cls-4" d="M151.5,530.42a5.1,5.1,0,0,1-.8,3,2.64,2.64,0,0,1-2.3,1,2.76,2.76,0,0,1-2.3-1,4.21,4.21,0,0,1-.9-2.91v-1.79a4.8,4.8,0,0,1,.8-2.91,2.84,2.84,0,0,1,2.3-1.09,2.62,2.62,0,0,1,2.3,1,5,5,0,0,1,.8,2.9v1.8Zm-1.2-1.61a4.2,4.2,0,0,0-.5-2.2,1.58,1.58,0,0,0-1.5-.7,1.8,1.8,0,0,0-1.5.7,4.2,4.2,0,0,0-.5,2.2v1.7a4.24,4.24,0,0,0,.5,2.21,1.64,1.64,0,0,0,1.5.79,1.58,1.58,0,0,0,1.5-.7,4.05,4.05,0,0,0,.5-2.09Z"/><path class="cls-4" d="M159.4,534.31h-1.2l-3.8-7.2v7.2h-1.1v-9.4h1.2l3.8,7.3v-7.3h1.2v9.4Z"/></g><g class="cls-3"><path class="cls-4" d="M343.4,529.11h-3.1l-.7,2.5h-1.3l3-9.4h1l3,9.4h-1.2Zm-2.8-1h2.6l-1.3-4.3Z"/><path class="cls-4" d="M349.9,529.81a.68.68,0,0,0-.3-.59,4.42,4.42,0,0,0-1.1-.6,13.09,13.09,0,0,1-1.3-.7,3.77,3.77,0,0,1-.6-.6,1.08,1.08,0,0,1-.2-.8,1.82,1.82,0,0,1,.6-1.4,2.43,2.43,0,0,1,3.2,0,2,2,0,0,1,.6,1.5h-1.1a1.13,1.13,0,0,0-1.9-.8.91.91,0,0,0-.3.7,1.42,1.42,0,0,0,.2.6c.1.1.5.3,1,.6a4.87,4.87,0,0,1,1.7,1,1.64,1.64,0,0,1,.5,1.2,2.07,2.07,0,0,1-.6,1.5,2.31,2.31,0,0,1-1.7.5,2.79,2.79,0,0,1-1.8-.6,1.86,1.86,0,0,1-.7-1.6h1.1a1,1,0,0,0,.4.9,1.5,1.5,0,0,0,1.8,0C349.8,530.31,349.9,530.11,349.9,529.81Z"/><path class="cls-4" d="M355.3,527.72a3.66,3.66,0,0,1,.7-2.41,2.35,2.35,0,0,1,1.9-.9,2.2,2.2,0,0,1,1.9.9,5.32,5.32,0,0,1,.8,2.41v.7a3.61,3.61,0,0,1-.7,2.4,2.38,2.38,0,0,1-2,.9,2.2,2.2,0,0,1-1.9-.9,4.81,4.81,0,0,1-.8-2.3v-.8Zm1.1.7a2.86,2.86,0,0,0,.4,1.7,1.38,1.38,0,0,0,1.1.6c1,0,1.5-.71,1.6-2.21v-.79a2.89,2.89,0,0,0-.4-1.71,1.37,1.37,0,0,0-1.1-.59,1.27,1.27,0,0,0-1.1.59,2.89,2.89,0,0,0-.4,1.71v.7Z"/><path class="cls-4" d="M362.7,531.51v-6h-.9v-.9h.9v-.8a2.86,2.86,0,0,1,.5-1.7,1.75,1.75,0,0,1,1.5-.6,1.7,1.7,0,0,1,.7.1l-.1,1c-.2,0-.3-.1-.5-.1-.6,0-1,.5-1,1.41v.7H365v.9h-1.2v6h-1.1Z"/><path class="cls-4" d="M371,522.22l2.4,7.7,2.4-7.7h1.5v9.4h-1v-3.7l.1-3.7-2.5,7.29H373l-2.4-7.29.1,3.59v3.7h-1.2v-9.4H371Z"/></g><g class="cls-3"><path class="cls-4" d="M382.9,531.51a1.69,1.69,0,0,1-.1-.79,1.78,1.78,0,0,1-1.5.9,2.46,2.46,0,0,1-1.5-.5,2,2,0,0,1-.5-1.5,2.06,2.06,0,0,1,.7-1.7,2.93,2.93,0,0,1,2-.6h.8v-.7a1.22,1.22,0,0,0-.3-.9,1.22,1.22,0,0,0-1.6,0,1.13,1.13,0,0,0-.3.79h-1.3a1.69,1.69,0,0,1,.3-1,2.43,2.43,0,0,1,.9-.79,2.54,2.54,0,0,1,1.2-.3,2.35,2.35,0,0,1,1.6.5,2,2,0,0,1,.6,1.5v3.5a5.9,5.9,0,0,0,.2,1.4v.1h-1.2Zm-1.5-.9a2.35,2.35,0,0,0,.8-.2,1.72,1.72,0,0,0,.6-.6v-1.7h-.6a1.84,1.84,0,0,0-1.3.4,1.24,1.24,0,0,0-.5,1,2,2,0,0,0,.2.91C380.7,530.61,381,530.61,381.4,530.61Z"/></g><g class="cls-3"><path class="cls-4" d="M387.4,529.72l1.3-5.1h1.2l-2.3,8a3.65,3.65,0,0,1-.7,1.4,1.61,1.61,0,0,1-1.1.5,1.27,1.27,0,0,1-.6-.1v-1h.3a1.88,1.88,0,0,0,.8-.2,2.77,2.77,0,0,0,.5-.8l.2-.8-2-6.9h1.2Z"/><path class="cls-4" d="M399.2,531.51H394v-.9l2.7-3.5a5.05,5.05,0,0,0,.8-1.3,2.13,2.13,0,0,0,.2-1.09,2.17,2.17,0,0,0-.3-1.21,1.07,1.07,0,0,0-.9-.5,1.47,1.47,0,0,0-1.1.5,2,2,0,0,0-.4,1.41h-1.1a2.8,2.8,0,0,1,.7-2.1,2.56,2.56,0,0,1,1.9-.8,2.41,2.41,0,0,1,1.8.7,2.33,2.33,0,0,1,.6,1.8,6.36,6.36,0,0,1-1.4,3.3l-2.1,2.7h3.9v1Z"/><path class="cls-4" d="M405.5,527.61a6.29,6.29,0,0,1-.6,3.1,2,2,0,0,1-1.9,1,2.06,2.06,0,0,1-1.9-1,5.87,5.87,0,0,1-.6-3v-1.6a6.29,6.29,0,0,1,.6-3.1,2,2,0,0,1,1.9-1,2.06,2.06,0,0,1,1.9,1,5.47,5.47,0,0,1,.6,2.91Zm-1.2-1.69a6.08,6.08,0,0,0-.3-2.2,1.05,1.05,0,0,0-1-.71,1,1,0,0,0-1,.71,5.82,5.82,0,0,0-.3,2.09v1.91a6.08,6.08,0,0,0,.3,2.2,1,1,0,0,0,1,.7,1,1,0,0,0,1-.7,5.84,5.84,0,0,0,.3-2.1Z"/><path class="cls-4" d="M412.6,531.51h-5.2v-.9l2.7-3.5a5.05,5.05,0,0,0,.8-1.3,2.13,2.13,0,0,0,.2-1.09,2.17,2.17,0,0,0-.3-1.21,1.07,1.07,0,0,0-.9-.5,1.47,1.47,0,0,0-1.1.5,2,2,0,0,0-.4,1.41h-1.1a2.8,2.8,0,0,1,.7-2.1,2.56,2.56,0,0,1,1.9-.8,2.41,2.41,0,0,1,1.8.7,2.33,2.33,0,0,1,.6,1.8,6.36,6.36,0,0,1-1.4,3.3l-2.1,2.7h3.9v1Z"/><path class="cls-4" d="M418.9,527.61a6.29,6.29,0,0,1-.6,3.1,2,2,0,0,1-1.9,1,2.06,2.06,0,0,1-1.9-1,5.87,5.87,0,0,1-.6-3v-1.6a6.29,6.29,0,0,1,.6-3.1,2,2,0,0,1,1.9-1,2.06,2.06,0,0,1,1.9,1,5.47,5.47,0,0,1,.6,2.91Zm-1.2-1.69a6.08,6.08,0,0,0-.3-2.2,1.05,1.05,0,0,0-1-.71,1,1,0,0,0-1,.71,5.82,5.82,0,0,0-.3,2.09v1.91a6.08,6.08,0,0,0,.3,2.2,1,1,0,0,0,1,.7,1,1,0,0,0,1-.7,5.84,5.84,0,0,0,.3-2.1Z"/></g><g class="cls-3"><path class="cls-4" d="M479.6,530.42l-.2.3a3.25,3.25,0,0,1-2.6,1,3,3,0,0,1-2.4-1,4.23,4.23,0,0,1-.9-2.91V526a5.15,5.15,0,0,1,.8-3,2.72,2.72,0,0,1,2.4-1,2.82,2.82,0,0,1,2.1.71,2.86,2.86,0,0,1,.8,2.09h-1.2a2.19,2.19,0,0,0-.5-1.4,1.73,1.73,0,0,0-1.3-.5,1.58,1.58,0,0,0-1.5.7,3.58,3.58,0,0,0-.5,2.1v1.9a4.47,4.47,0,0,0,.5,2.2,1.94,1.94,0,0,0,1.6.8,2,2,0,0,0,1.4-.5l.2-.2v-2.2h-1.7v-1h2.9v3.71Z"/><path class="cls-4" d="M485,531.51a1.69,1.69,0,0,1-.1-.79,1.78,1.78,0,0,1-1.5.9,2.46,2.46,0,0,1-1.5-.5,1.84,1.84,0,0,1-.5-1.5,2.06,2.06,0,0,1,.7-1.7,2.93,2.93,0,0,1,2-.6h.8v-.7a1.22,1.22,0,0,0-.3-.9,1.22,1.22,0,0,0-1.6,0,1.13,1.13,0,0,0-.3.79h-1.1a1.69,1.69,0,0,1,.3-1,3.16,3.16,0,0,1,.8-.79,2.28,2.28,0,0,1,1.2-.3,2.35,2.35,0,0,1,1.6.5,2,2,0,0,1,.6,1.5v3.5a5.9,5.9,0,0,0,.2,1.4v.1H485Zm-1.5-.9a2.35,2.35,0,0,0,.8-.2,1.72,1.72,0,0,0,.6-.6v-1.7h-.6a1.84,1.84,0,0,0-1.3.4,1.24,1.24,0,0,0-.5,1,2,2,0,0,0,.2.91C482.8,530.61,483.1,530.61,483.5,530.61Z"/></g><g class="cls-3"><path class="cls-4" d="M490.6,525.72h-.5a1.16,1.16,0,0,0-1.2,1v5h-1.1v-7h1.1v.7a1.29,1.29,0,0,1,1.3-.8.9.9,0,0,1,.5.1Z"/></g><g class="cls-3"><path class="cls-4" d="M493.6,522.92v1.7h1v.9h-1v4.3c0,.3,0,.5.1.6a.62.62,0,0,0,.5.2.9.9,0,0,0,.5-.1v1a2.2,2.2,0,0,1-.8.1,1.1,1.1,0,0,1-1-.5,2.59,2.59,0,0,1-.4-1.4v-4.3h-1.1v-.91h1.1v-1.7h1.1Z"/><path class="cls-4" d="M497,524.61v.8a2,2,0,0,1,1.7-.9c1.2,0,1.9.8,1.9,2.5v4.6h-1.1V527a2.13,2.13,0,0,0-.3-1.2,1.14,1.14,0,0,0-.8-.3,1.33,1.33,0,0,0-.8.3,1.87,1.87,0,0,0-.5.7v5.1H496v-7Z"/><path class="cls-4" d="M504.8,531.72a2.63,2.63,0,0,1-2-.8,3.17,3.17,0,0,1-.7-2.3v-.8a3.44,3.44,0,0,1,.7-2.4,2.33,2.33,0,0,1,1.9-.91,2.2,2.2,0,0,1,1.8.8,3.86,3.86,0,0,1,.6,2.41v.7h-3.8v.2a2.36,2.36,0,0,0,.4,1.6,1.7,1.7,0,0,0,1.2.5,2.68,2.68,0,0,0,.9-.21,1.28,1.28,0,0,0,.7-.59l.6.7A2.61,2.61,0,0,1,504.8,531.72Zm-.1-6.3a1.1,1.1,0,0,0-1,.5,2.7,2.7,0,0,0-.4,1.5H506v-.2a1.83,1.83,0,0,0-.4-1.41A1.09,1.09,0,0,0,504.7,525.42Z"/></g><g class="cls-3"><path class="cls-4" d="M511.4,525.72h-.5a1.16,1.16,0,0,0-1.2,1v5h-1.1v-7h1.1v.7a1.29,1.29,0,0,1,1.3-.8.9.9,0,0,1,.5.1Z"/></g><g class="cls-3"><path class="cls-4" d="M511.8,533.42l-.7-.5a2.93,2.93,0,0,0,.6-1.7v-1.1h1.2v.9a3.08,3.08,0,0,1-.3,1.3A3.13,3.13,0,0,1,511.8,533.42Z"/><path class="cls-4" d="M518.8,531.51h-1.2v-9.4h1.2Z"/><path class="cls-4" d="M521.7,524.61v.8a2,2,0,0,1,1.7-.9c1.2,0,1.9.8,1.9,2.5v4.6h-1.1V527a2.13,2.13,0,0,0-.3-1.2,1.14,1.14,0,0,0-.8-.3,1.33,1.33,0,0,0-.8.3,1.87,1.87,0,0,0-.5.7v5.1h-1.1v-7Z"/><path class="cls-4" d="M529.5,530.72a1,1,0,0,0,.9-.41,1.51,1.51,0,0,0,.4-1h1.1a2.61,2.61,0,0,1-.7,1.7,2,2,0,0,1-1.6.71,2.63,2.63,0,0,1-2-.8,3.47,3.47,0,0,1-.7-2.41v-.79a3.31,3.31,0,0,1,.7-2.41,2.63,2.63,0,0,1,2-.8,2.07,2.07,0,0,1,1.7.71A3.56,3.56,0,0,1,532,527h-1.1a1.59,1.59,0,0,0-.4-1.2,1,1,0,0,0-.9-.4,1.29,1.29,0,0,0-1.1.5,3.1,3.1,0,0,0-.4,1.6v.9a2.5,2.5,0,0,0,.4,1.7C528.6,530.51,528.9,530.72,529.5,530.72Z"/></g><g class="cls-3"><path class="cls-4" d="M459.7,526.92a4.79,4.79,0,0,1,.6-2.41,5.78,5.78,0,0,1,1.7-1.79,4.54,4.54,0,0,1,2.3-.6,4.65,4.65,0,0,1,2.3.6,4.27,4.27,0,0,1,1.7,1.79,4.79,4.79,0,0,1,.6,2.41,5.36,5.36,0,0,1-.6,2.4,5.48,5.48,0,0,1-1.6,1.8,4.76,4.76,0,0,1-2.3.7,3.89,3.89,0,0,1-2.3-.7,4.9,4.9,0,0,1-1.7-1.8A4.45,4.45,0,0,1,459.7,526.92Zm.7,0a4.55,4.55,0,0,0,.5,2,4.16,4.16,0,0,0,1.4,1.5,3.2,3.2,0,0,0,1.9.5,4.14,4.14,0,0,0,1.9-.5,3.44,3.44,0,0,0,1.4-1.5,4.25,4.25,0,0,0,0-4,4,4,0,0,0-1.4-1.5,3.13,3.13,0,0,0-1.9-.5,4.14,4.14,0,0,0-1.9.5,3.39,3.39,0,0,0-1.4,1.5A3.91,3.91,0,0,0,460.4,526.92Zm5.9.8a1.75,1.75,0,0,1-.6,1.5,2.61,2.61,0,0,1-1.6.5,1.87,1.87,0,0,1-1.6-.71,2.86,2.86,0,0,1-.6-1.9v-.7a2.44,2.44,0,0,1,.6-1.8,1.86,1.86,0,0,1,1.6-.7,2.54,2.54,0,0,1,1.6.5,1.89,1.89,0,0,1,.6,1.5h-1a1.06,1.06,0,0,0-1.2-1.2,1.28,1.28,0,0,0-1,.4,2.13,2.13,0,0,0-.3,1.2v.7a2.17,2.17,0,0,0,.3,1.21,1.07,1.07,0,0,0,1,.4,1.06,1.06,0,0,0,1.2-1.2h1Z"/></g><g class="cls-3"><path class="cls-4" d="M7.1,510.51v3.21l2.5.7v1.2l-9.4-3v-1l9.4-3v1.2Zm-1,2.91v-2.6l-4.3,1.3Z"/><path class="cls-4" d="M9.6,507.31H.2v-2.7a2.55,2.55,0,0,1,.6-1.9,2.55,2.55,0,0,1,1.9-.6,2.66,2.66,0,0,1,1.2.3,1.76,1.76,0,0,1,.8.9,1.59,1.59,0,0,1,.8-1,3.26,3.26,0,0,1,1.4-.4,2.72,2.72,0,0,1,2,.7,2.58,2.58,0,0,1,.7,2Zm-5.4-1.19v-1.5a1.27,1.27,0,0,0-.4-1,1.37,1.37,0,0,0-1.1-.4,1.67,1.67,0,0,0-1.1.29,1.57,1.57,0,0,0-.4,1V506h3Zm1,0H8.6v-1.61a1.53,1.53,0,0,0-.4-1.1A1.63,1.63,0,0,0,7,503c-1.1,0-1.7.5-1.7,1.4v1.71Z"/><path class="cls-4" d="M9.6,498.91v1.21H.2v-1.21Z"/><path class="cls-4" d="M8.6,495.62v-3.71h1v4.9H.2v-1.2H8.6Z"/></g><g class="cls-3"><path class="cls-4" d="M9.6,489.31v1.2H.2v-1.2Z"/></g><g class="cls-3"><path class="cls-4" d="M1.2,481.91v2.5H9.6v1.21H1.2v2.5H.2V482h1Z"/></g><g class="cls-3"><path class="cls-4" d="M4.9,478,.2,476.12v-1.3l5.9,2.7H9.6v1.2H6.1l-5.9,2.7v-1.3Z"/></g><g class="cls-3"><path class="cls-4" d="M1.2,465.31v2.5H9.6V469H1.2v2.5H.2v-6.1h1Z"/></g><g class="cls-3"><path class="cls-4" d="M5.7,458a5.1,5.1,0,0,1,3,.8,2.64,2.64,0,0,1,1,2.3,2.76,2.76,0,0,1-1,2.3,4.2,4.2,0,0,1-2.9.9H4.1a4.77,4.77,0,0,1-2.9-.8,2.84,2.84,0,0,1-1.1-2.3,2.64,2.64,0,0,1,1-2.3,4.35,4.35,0,0,1,2.9-.79H5.7Zm-1.6,1.21a4.2,4.2,0,0,0-2.2.5,1.56,1.56,0,0,0-.7,1.5,1.8,1.8,0,0,0,.7,1.5,4.3,4.3,0,0,0,2.2.5H5.8a4.3,4.3,0,0,0,2.2-.5,1.65,1.65,0,0,0,.8-1.5,1.56,1.56,0,0,0-.7-1.5,4.06,4.06,0,0,0-2.1-.5Z"/><path class="cls-4" d="M5.3,448.62v3.29H8.6V448h1v5H.2v-5h1v3.8h3v-3.3H5.3Z"/><path class="cls-4" d="M3.8,444,.2,442.22v-1.4l4.6,2.4,4.7-2.5v1.4L5.9,444l3.7,1.8v1.4l-4.7-2.5-4.6,2.5v-1.4Z"/><path class="cls-4" d="M5.3,434.81v3.3H8.6v-3.9h1v5H.2v-5h1V438h3v-3.3H5.3Z"/><path class="cls-4" d="M6.6,426.91a3.71,3.71,0,0,1,2.3.8,3,3,0,0,1,.8,2.2,2.67,2.67,0,0,1-1.1,2.21,4.76,4.76,0,0,1-2.9.89H4a4.37,4.37,0,0,1-2.9-.89,3,3,0,0,1-.3-4.4,3.2,3.2,0,0,1,2.3-.8v1.2a2.73,2.73,0,0,0-1.6.5,1.66,1.66,0,0,0-.5,1.2,1.9,1.9,0,0,0,.8,1.5,4.2,4.2,0,0,0,2.2.5H5.7a4.47,4.47,0,0,0,2.2-.5,1.6,1.6,0,0,0,.8-1.4,1.58,1.58,0,0,0-.5-1.3,3,3,0,0,0-1.6-.5Z"/><path class="cls-4" d="M.2,419.72H6.9a2.86,2.86,0,0,1,2.1.79,2.89,2.89,0,0,1,.8,2.11,2.83,2.83,0,0,1-.7,2.1,2.82,2.82,0,0,1-2.1.7H.2v-1.2H6.8a2,2,0,0,0,1.4-.4,1.94,1.94,0,0,0,0-2.6,2,2,0,0,0-1.4-.4H.2Z"/><path class="cls-4" d="M1.2,412.41v2.5H9.6v1.21H1.2v2.5H.2v-6.11h1Z"/><path class="cls-4" d="M5.3,406.51v3.3H8.6V406h1v5H.2v-5h1v3.8h3v-3.3Z"/></g><line class="cls-5" x1="4.4" y1="375.31" x2="4.4" y2="336.91"/><polygon class="cls-4" points="4.4 329.81 8.5 339.81 4.4 337.42 0.3 339.81 4.4 329.81"/><line class="cls-5" x1="190.2" y1="530.51" x2="228.5" y2="530.51"/><polygon class="cls-4" points="235.6 530.51 225.7 534.51 228 530.51 225.7 526.41 235.6 530.51"/><rect class="cls-6" x="15.8" y="1.22" width="515.4" height="515.4"/><path class="cls-7" d="M91.2,3.51H197.5a2.44,2.44,0,0,1,2.4,2.41V22.21a2.43,2.43,0,0,1-2.4,2.4H91.2a2.43,2.43,0,0,1-2.4-2.4V5.92A2.44,2.44,0,0,1,91.2,3.51Z"/><g class="cls-3"><path class="cls-8" d="M114.3,15.21a3.12,3.12,0,0,1-.9,2,2.82,2.82,0,0,1-2.1.7,2.76,2.76,0,0,1-2.3-1,4.1,4.1,0,0,1-.9-2.8v-.8a4.21,4.21,0,0,1,.4-2,2.85,2.85,0,0,1,1.1-1.3,3.37,3.37,0,0,1,1.7-.5,3,3,0,0,1,2.1.7,3.12,3.12,0,0,1,.9,2h-1.1a2.59,2.59,0,0,0-.6-1.4,1.7,1.7,0,0,0-1.3-.4,1.94,1.94,0,0,0-1.6.8,3.4,3.4,0,0,0-.6,2.2v.8a3.28,3.28,0,0,0,.6,2.1,1.9,1.9,0,0,0,1.5.8,2.17,2.17,0,0,0,1.4-.4,2.31,2.31,0,0,0,.6-1.4h1.1Z"/></g><g class="cls-3"><path class="cls-8" d="M122,17.81h-1.1V14h-4.1v3.71h-1.1v-8h1.1v3.5h4.1V9.71H122Z"/></g><g class="cls-3"><path class="cls-8" d="M128.5,15.71h-3.4l-.8,2.1h-1.1l3.1-8.1h.9l3.1,8.1h-1.1Zm-3.1-.89h2.8L126.8,11Z"/><path class="cls-8" d="M132.5,16.91h3.8v.9h-4.9V9.71h1.1v7.2Z"/><path class="cls-8" d="M138.6,16.91h3.8v.9h-4.9V9.71h1.1v7.2Z"/><path class="cls-8" d="M148.3,14h-3.5v2.9h4.1v.9h-5.1V9.71h5.1v.9h-4v2.6h3.5V14Z"/><path class="cls-8" d="M156.4,17.81h-1.1l-4.1-6.2v6.2h-1.1V9.71h1.1l4.1,6.3V9.71h1.1Z"/><path class="cls-8" d="M164.2,16.72a3.13,3.13,0,0,1-1.1.9,4.51,4.51,0,0,1-1.7.29,3.74,3.74,0,0,1-1.8-.5,2.52,2.52,0,0,1-1.2-1.29,4.24,4.24,0,0,1-.4-2v-.7a3.93,3.93,0,0,1,.9-2.8,3,3,0,0,1,2.4-1,3.17,3.17,0,0,1,2,.6,2.61,2.61,0,0,1,.9,1.8h-1.1a1.71,1.71,0,0,0-1.9-1.6,1.82,1.82,0,0,0-1.6.8,3.4,3.4,0,0,0-.6,2.2v.7a3.82,3.82,0,0,0,.6,2.2,2.14,2.14,0,0,0,1.7.8,3.42,3.42,0,0,0,1.1-.11,1.7,1.7,0,0,0,.7-.39v-1.8h-1.8v-.9h2.9Z"/><path class="cls-8" d="M170.6,14h-3.5v2.9h4.1v.9h-5.1V9.71h5.1v.9h-4v2.6h3.5V14Z"/><path class="cls-8" d="M175.5,14.51h-1.9v3.3h-1.1V9.71h2.7a3.22,3.22,0,0,1,2.1.61,2.13,2.13,0,0,1,.7,1.8,2,2,0,0,1-.4,1.3,2.1,2.1,0,0,1-1.1.8l1.9,3.4v.1h-1.1Zm-1.9-.89h1.6a1.89,1.89,0,0,0,1.3-.4,1.43,1.43,0,0,0,.5-1.1,1.59,1.59,0,0,0-.4-1.2,1.7,1.7,0,0,0-1.3-.4h-1.6v3.1Z"/><path class="cls-8" d="M181.9,14.21a5.29,5.29,0,0,1-2-1,1.94,1.94,0,0,1-.6-1.39,2.11,2.11,0,0,1,.8-1.61,3.17,3.17,0,0,1,2-.6,3.34,3.34,0,0,1,1.5.3,2.19,2.19,0,0,1,1,.9A2.84,2.84,0,0,1,185,12h-1.1a1.66,1.66,0,0,0-.5-1.2,1.84,1.84,0,0,0-1.3-.4,2.13,2.13,0,0,0-1.2.3,1.17,1.17,0,0,0-.4,1,.9.9,0,0,0,.4.8,6.91,6.91,0,0,0,1.4.61,12.17,12.17,0,0,1,1.6.6,1.55,1.55,0,0,1,.8.8,2,2,0,0,1,.3,1.1,1.94,1.94,0,0,1-.8,1.6,3.28,3.28,0,0,1-2.1.6,4.15,4.15,0,0,1-1.6-.3,2,2,0,0,1-1.1-.9,2,2,0,0,1-.4-1.3h1.1a1.66,1.66,0,0,0,.5,1.2,2.12,2.12,0,0,0,1.4.4,2.27,2.27,0,0,0,1.3-.3,1.05,1.05,0,0,0,.5-.9,1,1,0,0,0-.4-.9A5.66,5.66,0,0,0,181.9,14.21Z"/></g><path class="cls-7" d="M91.2,493.22H197.5a2.43,2.43,0,0,1,2.4,2.4V512a2.44,2.44,0,0,1-2.4,2.41H91.2A2.44,2.44,0,0,1,88.8,512V495.72A2.45,2.45,0,0,1,91.2,493.22Z"/><g class="cls-3"><path class="cls-8" d="M111.5,509.41h-1.1l-4.1-6.2v6.2h-1v-8.1h1.1l4.1,6.3v-6.3h1.1v8.1Z"/><path class="cls-8" d="M114.5,509.41h-1.1v-8.1h1.1Z"/><path class="cls-8" d="M122.5,506.81a3.12,3.12,0,0,1-.9,2,2.82,2.82,0,0,1-2.1.7,2.74,2.74,0,0,1-2.3-1,4.09,4.09,0,0,1-.9-2.79V505a4.26,4.26,0,0,1,.4-2,2.77,2.77,0,0,1,1.1-1.29,3.37,3.37,0,0,1,1.7-.5,3,3,0,0,1,2.1.7,3.12,3.12,0,0,1,.9,2h-1.1a2.59,2.59,0,0,0-.6-1.4,1.7,1.7,0,0,0-1.3-.4,1.94,1.94,0,0,0-1.6.8,3.4,3.4,0,0,0-.6,2.2v.8a3.28,3.28,0,0,0,.6,2.1,1.9,1.9,0,0,0,1.5.8,2.12,2.12,0,0,0,1.4-.4,2.29,2.29,0,0,0,.6-1.4h1.1Z"/><path class="cls-8" d="M130.1,509.41H129v-3.7h-4.1v3.7h-1.1v-8.1h1.1v3.5H129v-3.5h1.1Z"/><path class="cls-8" d="M136.6,505.72h-3.5v2.9h4.1v.89h-5.1v-8.1h5.1v.9h-4v2.6h3.5v.81Z"/><path class="cls-8" d="M142.4,506.22v3.2h-1.1v-8.1h3a2.82,2.82,0,0,1,2.1.7,2.5,2.5,0,0,1,.8,1.8,2.14,2.14,0,0,1-.7,1.8,3.34,3.34,0,0,1-2.1.6Zm0-.81h1.9a1.7,1.7,0,0,0,1.3-.4,1.64,1.64,0,0,0,.5-1.2,1.66,1.66,0,0,0-.5-1.2,2.23,2.23,0,0,0-1.3-.5h-2v3.3Z"/></g><g class="cls-3"><path class="cls-8" d="M149.6,508.51h3.8v.9h-4.9v-8.1h1.1v7.2Z"/></g><g class="cls-3"><path class="cls-8" d="M159.2,507.31h-3.4l-.8,2.1h-1.1l3.1-8.1h.9l3.1,8.1h-1.1Zm-3-.9H159l-1.4-3.79Z"/></g><g class="cls-3"><path class="cls-8" d="M164.1,505.41l2.1-4.1h1.2l-2.8,5.1v3h-1.1v-3l-2.8-5.1h1.2Z"/><path class="cls-8" d="M173.1,505.72h-3.5v2.9h4.1v.89h-5.1v-8.1h5.1v.9h-4v2.6h3.5v.81Z"/><path class="cls-8" d="M177.9,506.12H176v3.29h-1.1v-8.1h2.7a3.28,3.28,0,0,1,2.1.6,2.14,2.14,0,0,1,.7,1.8,2,2,0,0,1-.4,1.3,2.1,2.1,0,0,1-1.1.8l1.9,3.4v.1h-1.1Zm-1.9-.81h1.6a1.84,1.84,0,0,0,1.3-.4,1.42,1.42,0,0,0,.5-1.1,1.59,1.59,0,0,0-.4-1.2,1.7,1.7,0,0,0-1.3-.4h-1.6v3.1Z"/><path class="cls-8" d="M184.4,505.81a5.29,5.29,0,0,1-2-1,2,2,0,0,1-.6-1.4,2.09,2.09,0,0,1,.8-1.6,3.17,3.17,0,0,1,2-.6,3.34,3.34,0,0,1,1.5.3,2.19,2.19,0,0,1,1,.9,2.84,2.84,0,0,1,.4,1.2h-1.2a1.66,1.66,0,0,0-.5-1.2,1.84,1.84,0,0,0-1.3-.4,2.13,2.13,0,0,0-1.2.3,1.16,1.16,0,0,0-.4,1,.91.91,0,0,0,.4.8,6.45,6.45,0,0,0,1.4.6,13.78,13.78,0,0,1,1.6.6,1.55,1.55,0,0,1,.8.8,2,2,0,0,1,.3,1.1,1.94,1.94,0,0,1-.8,1.6,3.28,3.28,0,0,1-2.1.6,4.15,4.15,0,0,1-1.6-.3,2.41,2.41,0,0,1-1.5-2.2h1.1a1.7,1.7,0,0,0,.5,1.21,2.17,2.17,0,0,0,1.4.39,2.36,2.36,0,0,0,1.3-.29,1.06,1.06,0,0,0,.5-.9,1,1,0,0,0-.4-.9A3.74,3.74,0,0,0,184.4,505.81Z"/></g><path class="cls-7" d="M349.2,493.22H455.5a2.43,2.43,0,0,1,2.4,2.4V512a2.44,2.44,0,0,1-2.4,2.41H349.2a2.44,2.44,0,0,1-2.4-2.41V495.72A2.39,2.39,0,0,1,349.2,493.22Z"/><g class="cls-3"><path class="cls-8" d="M374.7,508l2.3-6.7h1.2l-3,8.1h-.9l-3-8.1h1.2Z"/><path class="cls-8" d="M380.4,509.41h-1.1v-8.1h1.1Z"/><path class="cls-8" d="M384.7,505.81a5.29,5.29,0,0,1-2-1,2,2,0,0,1-.6-1.4,2.09,2.09,0,0,1,.8-1.6,3.17,3.17,0,0,1,2-.6,3.34,3.34,0,0,1,1.5.3,2.19,2.19,0,0,1,1,.9,2.84,2.84,0,0,1,.4,1.2h-1.1a1.66,1.66,0,0,0-.5-1.2,1.84,1.84,0,0,0-1.3-.4,2.13,2.13,0,0,0-1.2.3,1.16,1.16,0,0,0-.4,1,.91.91,0,0,0,.4.8,6.45,6.45,0,0,0,1.4.6,9.12,9.12,0,0,1,1.6.6,1.55,1.55,0,0,1,.8.8,2,2,0,0,1,.3,1.1,1.94,1.94,0,0,1-.8,1.6,3.28,3.28,0,0,1-2.1.6,4.15,4.15,0,0,1-1.6-.3,2.41,2.41,0,0,1-1.5-2.2h1.1a1.7,1.7,0,0,0,.5,1.21,2.17,2.17,0,0,0,1.4.39,2.36,2.36,0,0,0,1.3-.29,1.06,1.06,0,0,0,.5-.9,1,1,0,0,0-.4-.9A4.47,4.47,0,0,0,384.7,505.81Z"/><path class="cls-8" d="M390.2,509.41h-1.1v-8.1h1.1Z"/><path class="cls-8" d="M398.4,505.62a4.67,4.67,0,0,1-.4,2.1,3.81,3.81,0,0,1-1.1,1.4,3.14,3.14,0,0,1-3.4,0,2.76,2.76,0,0,1-1.1-1.3,5.92,5.92,0,0,1-.4-2v-.6a4.64,4.64,0,0,1,.4-2.1,3.85,3.85,0,0,1,1.1-1.4,3.14,3.14,0,0,1,3.4,0,2.52,2.52,0,0,1,1.1,1.4,4.61,4.61,0,0,1,.4,2.1Zm-1-.5a3.43,3.43,0,0,0-.6-2.21,2,2,0,0,0-3.2,0,3.3,3.3,0,0,0-.6,2.1v.61a3.61,3.61,0,0,0,.6,2.2,2,2,0,0,0,3.2,0,3.4,3.4,0,0,0,.6-2.2Z"/></g><g class="cls-3"><path class="cls-8" d="M406.2,509.41h-1.1l-4.1-6.2v6.2h-1.1v-8.1H401l4.1,6.3v-6.3h1.1Z"/></g><g class="cls-3"><path class="cls-8" d="M412.7,507.31h-3.4l-.8,2.1h-1.1l3.1-8.1h.9l3.1,8.1h-1.1Zm-3.1-.9h2.8l-1.4-3.79Z"/><path class="cls-8" d="M418.6,506.12h-1.9v3.29h-1.1v-8.1h2.7a3.28,3.28,0,0,1,2.1.6,2.14,2.14,0,0,1,.7,1.8,2,2,0,0,1-.4,1.3,2.1,2.1,0,0,1-1.1.8l1.9,3.4v.1h-1.1Zm-1.9-.81h1.6a1.84,1.84,0,0,0,1.3-.4,1.42,1.42,0,0,0,.5-1.1,2.14,2.14,0,0,0-.4-1.2,1.7,1.7,0,0,0-1.3-.4h-1.6v3.1Z"/><path class="cls-8" d="M423.8,509.41h-1.1v-8.1h1.1Z"/><path class="cls-8" d="M430.4,505.72h-3.5v2.9H431v.89h-5.1v-8.1H431v.9h-4v2.6h3.5v.81Z"/><path class="cls-8" d="M434.6,505.81a5.29,5.29,0,0,1-2-1,2,2,0,0,1-.6-1.4,2.09,2.09,0,0,1,.8-1.6,3.17,3.17,0,0,1,2-.6,3.34,3.34,0,0,1,1.5.3,2.19,2.19,0,0,1,1,.9,2.84,2.84,0,0,1,.4,1.2h-1.1a1.66,1.66,0,0,0-.5-1.2,1.84,1.84,0,0,0-1.3-.4,2.13,2.13,0,0,0-1.2.3,1.16,1.16,0,0,0-.4,1,.91.91,0,0,0,.4.8,6.45,6.45,0,0,0,1.4.6,13.78,13.78,0,0,1,1.6.6,1.55,1.55,0,0,1,.8.8,2,2,0,0,1,.3,1.1,1.94,1.94,0,0,1-.8,1.6,3.28,3.28,0,0,1-2.1.6,4.15,4.15,0,0,1-1.6-.3,2.41,2.41,0,0,1-1.5-2.2h1.1a1.7,1.7,0,0,0,.5,1.21,2.17,2.17,0,0,0,1.4.39,2.36,2.36,0,0,0,1.3-.29,1.06,1.06,0,0,0,.5-.9,1,1,0,0,0-.4-.9A3.66,3.66,0,0,0,434.6,505.81Z"/></g><path class="cls-7" d="M349.2,3.51H455.5a2.44,2.44,0,0,1,2.4,2.41V22.21a2.43,2.43,0,0,1-2.4,2.4H349.2a2.43,2.43,0,0,1-2.4-2.4V5.92A2.37,2.37,0,0,1,349.2,3.51Z"/><g class="cls-3"><path class="cls-8" d="M382.5,16.91h3.8v.9h-4.9V9.71h1.1Z"/><path class="cls-8" d="M392.1,14h-3.5v2.9h4.1v.9h-5.1V9.71h5.1v.9h-4v2.6h3.5V14Z"/><path class="cls-8" d="M398.5,15.71h-3.4l-.8,2.1h-1l3.1-8.1h.9l3.1,8.1h-1.1Zm-3.1-.89h2.8L396.8,11Z"/><path class="cls-8" d="M401.5,17.81V9.71h2.3a4.14,4.14,0,0,1,1.9.5,4,4,0,0,1,1.3,1.3,4.24,4.24,0,0,1,.4,2V14a4.19,4.19,0,0,1-.4,2,2.69,2.69,0,0,1-1.3,1.3,4.14,4.14,0,0,1-1.9.5Zm1-7.19V17h1.1a2.4,2.4,0,0,0,1.9-.79,2.92,2.92,0,0,0,.7-2.2v-.5a3.28,3.28,0,0,0-.6-2.1,2.2,2.2,0,0,0-1.8-.8Z"/><path class="cls-8" d="M413.5,14H410v2.9h4.1v.9H409V9.71h5.1v.9h-4v2.6h3.5V14Z"/><path class="cls-8" d="M418.4,14.51h-1.9v3.3h-1.1V9.71h2.7a3.22,3.22,0,0,1,2.1.61,2.13,2.13,0,0,1,.7,1.8,2,2,0,0,1-.4,1.3,2.1,2.1,0,0,1-1.1.8l1.9,3.4v.1h-1.1Zm-1.9-.89h1.6a1.89,1.89,0,0,0,1.3-.4,1.43,1.43,0,0,0,.5-1.1,1.59,1.59,0,0,0-.4-1.2,1.7,1.7,0,0,0-1.3-.4h-1.6v3.1Z"/><path class="cls-8" d="M424.8,14.21a5.29,5.29,0,0,1-2-1,1.94,1.94,0,0,1-.6-1.39,2.11,2.11,0,0,1,.8-1.61,3.17,3.17,0,0,1,2-.6,3.34,3.34,0,0,1,1.5.3,2.19,2.19,0,0,1,1,.9,2.84,2.84,0,0,1,.4,1.2h-1.1a1.66,1.66,0,0,0-.5-1.2,1.84,1.84,0,0,0-1.3-.4,2.13,2.13,0,0,0-1.2.3,1.17,1.17,0,0,0-.4,1,.9.9,0,0,0,.4.8,6.91,6.91,0,0,0,1.4.61,12.17,12.17,0,0,1,1.6.6,1.55,1.55,0,0,1,.8.8,2,2,0,0,1,.3,1.1,1.94,1.94,0,0,1-.8,1.6,3.28,3.28,0,0,1-2.1.6,4.15,4.15,0,0,1-1.6-.3,2,2,0,0,1-1.1-.9,2,2,0,0,1-.4-1.3H423a1.66,1.66,0,0,0,.5,1.2,2.12,2.12,0,0,0,1.4.4,2.27,2.27,0,0,0,1.3-.3,1.05,1.05,0,0,0,.5-.9,1,1,0,0,0-.4-.9A5.66,5.66,0,0,0,424.8,14.21Z"/></g><g class="cls-3"><path class="cls-9" d="M316.21,203.92a3.57,3.57,0,0,1-.7,2.38,2.11,2.11,0,0,1-1.88.79,2.57,2.57,0,0,1-1.89-.79,3.18,3.18,0,0,1-.69-2.28v-1.39a3.61,3.61,0,0,1,.69-2.38,2.29,2.29,0,0,1,1.89-.89,2.51,2.51,0,0,1,1.88.79,4,4,0,0,1,.7,2.38Zm-1-1.29a3,3,0,0,0-.39-1.79,1.5,1.5,0,0,0-2.38,0,3,3,0,0,0-.4,1.79V204a2.94,2.94,0,0,0,.4,1.78,1.48,1.48,0,0,0,2.38,0,2.8,2.8,0,0,0,.39-1.68Z"/><path class="cls-9" d="M320.17,206.6a1.6,1.6,0,0,1-1.29.59,1.68,1.68,0,0,1-1.19-.49,2.46,2.46,0,0,1-.39-1.49v-3.67h.89v3.57c0,.89.3,1.29.79,1.29a1.28,1.28,0,0,0,1.19-.8v-4.16h.9v5.65h-.9Z"/><path class="cls-9" d="M323.45,200.05v1.39h.89v.69h-.89v3.47a.82.82,0,0,0,.09.5.52.52,0,0,0,.4.2.76.76,0,0,0,.4-.1V207a1.27,1.27,0,0,1-.6.1.82.82,0,0,1-.79-.39,1.8,1.8,0,0,1-.3-1.1v-3.47h-.89v-.69h.89v-1.39Z"/><path class="cls-9" d="M328.6,205.11a1.18,1.18,0,0,0-.3-.89,3.39,3.39,0,0,0-1.09-.6A7.73,7.73,0,0,1,326,203a1.93,1.93,0,0,1-.59-.7,2.86,2.86,0,0,1-.2-.89,2,2,0,0,1,.6-1.49,2.1,2.1,0,0,1,1.58-.59,2.71,2.71,0,0,1,1.19.29,3,3,0,0,1,.8.8,2.18,2.18,0,0,1,.29,1.19h-1a1.74,1.74,0,0,0-.3-1.09,1.13,1.13,0,0,0-1-.4,1.21,1.21,0,0,0-.89.3,1.2,1.2,0,0,0-.3.89,1.09,1.09,0,0,0,.3.79,3.51,3.51,0,0,0,1.09.6,3.37,3.37,0,0,1,1.59.89,2.19,2.19,0,0,1,.49,1.39,2.06,2.06,0,0,1-.59,1.49,2.12,2.12,0,0,1-1.59.59,2.34,2.34,0,0,1-1.19-.3,2.23,2.23,0,0,1-.89-.79,2.62,2.62,0,0,1-.3-1.19h1a1.38,1.38,0,0,0,1.49,1.49,1.66,1.66,0,0,0,1-.3C328.5,205.8,328.6,205.51,328.6,205.11Z"/><path class="cls-9" d="M332.07,205.51l1-4.07h1l-1.89,6.45a1.72,1.72,0,0,1-.59,1.09,1.11,1.11,0,0,1-.9.39,1.07,1.07,0,0,1-.49-.1v-.79h.2a.84.84,0,0,0,.59-.2c.2-.1.3-.3.4-.69l.2-.6-1.69-5.55h1Z"/><path class="cls-9" d="M337.43,205.6a.76.76,0,0,0-.2-.49,6,6,0,0,0-.89-.5c-.5-.2-.9-.39-1.09-.49a1.21,1.21,0,0,1-.5-.5,1.44,1.44,0,0,1-.2-.69,1.8,1.8,0,0,1,.5-1.19,1.5,1.5,0,0,1,1.29-.5,1.72,1.72,0,0,1,1.29.5,1.65,1.65,0,0,1,.49,1.19h-.89a.91.91,0,0,0-.3-.7.89.89,0,0,0-.69-.29.85.85,0,0,0-.6.19c-.2.1-.2.3-.2.6s.1.3.2.49a3.78,3.78,0,0,0,.8.5,3.41,3.41,0,0,1,1.38.79,1.78,1.78,0,0,1,.4,1,1.65,1.65,0,0,1-.5,1.19,2,2,0,0,1-1.38.39,2,2,0,0,1-1.39-.49,1.53,1.53,0,0,1-.5-1.29h.89a.77.77,0,0,0,.3.69,1,1,0,0,0,.8.3,1.44,1.44,0,0,0,.69-.2A.46.46,0,0,0,337.43,205.6Z"/><path class="cls-9" d="M340.6,200.05v1.39h.89v.69h-.89v3.47a.75.75,0,0,0,.1.5.52.52,0,0,0,.4.2.73.73,0,0,0,.39-.1V207a1.23,1.23,0,0,1-.59.1.82.82,0,0,1-.8-.39,1.87,1.87,0,0,1-.29-1.1v-3.47h-.9v-.69h.9v-1.39Z"/><path class="cls-9" d="M344.27,207.19a2.14,2.14,0,0,1-1.59-.59,2.58,2.58,0,0,1-.59-1.89V204a3.2,3.2,0,0,1,.59-2,1.81,1.81,0,0,1,1.49-.69,1.75,1.75,0,0,1,1.49.6,3.37,3.37,0,0,1,.49,2v.59H343v.1a2.23,2.23,0,0,0,.3,1.29,1.14,1.14,0,0,0,1,.4,1.37,1.37,0,0,0,.69-.2,2.65,2.65,0,0,0,.6-.5l.49.6A1.71,1.71,0,0,1,344.27,207.19Zm-.1-5.06a1,1,0,0,0-.89.4,2.1,2.1,0,0,0-.3,1.19h2.18v-.1a2.12,2.12,0,0,0-.3-1.19C344.77,202.23,344.57,202.13,344.17,202.13Z"/><path class="cls-9" d="M347.94,201.44v.5a1.66,1.66,0,0,1,1.39-.6,1.34,1.34,0,0,1,1.29.79,1.88,1.88,0,0,1,1.48-.79c1,0,1.59.69,1.59,2v3.77h-.89v-3.67a2,2,0,0,0-.2-.89.77.77,0,0,0-.69-.3.91.91,0,0,0-.7.3,1.13,1.13,0,0,0-.3.79v3.77H350v-3.77c0-.79-.3-1.19-1-1.19a1,1,0,0,0-1,.7V207h-.89v-5.65h.79Z"/><path class="cls-9" d="M357.66,205.6a.76.76,0,0,0-.2-.49,6,6,0,0,0-.89-.5c-.5-.2-.9-.39-1.09-.49a1.21,1.21,0,0,1-.5-.5,1.44,1.44,0,0,1-.2-.69,1.8,1.8,0,0,1,.5-1.19,1.5,1.5,0,0,1,1.29-.5,1.72,1.72,0,0,1,1.29.5,1.65,1.65,0,0,1,.49,1.19h-.89a.91.91,0,0,0-.3-.7.89.89,0,0,0-.69-.29.69.69,0,0,0-.8.79c0,.2.1.3.2.49a3.78,3.78,0,0,0,.8.5,3.41,3.41,0,0,1,1.38.79,1.78,1.78,0,0,1,.4,1,1.65,1.65,0,0,1-.5,1.19,2,2,0,0,1-1.38.39,2,2,0,0,1-1.39-.49,1.61,1.61,0,0,1-.6-1.29h.9a.77.77,0,0,0,.29.69,1,1,0,0,0,.8.3,1.44,1.44,0,0,0,.69-.2C357.56,206,357.66,205.9,357.66,205.6Z"/></g><g class="cls-3"><path class="cls-9" d="M330.35,215.46l1.9,6.1,1.9-6.1h1.2V223h-.9v-2.9l.1-2.89-2,5.8h-.7l-1.9-5.8.1,2.89V223h-1v-7.5Z"/><path class="cls-9" d="M338.65,223a2.11,2.11,0,0,1-1.6-.6,2.44,2.44,0,0,1-.6-1.8v-.7a3.31,3.31,0,0,1,.5-1.9,2,2,0,0,1,1.5-.7,2,2,0,0,1,1.5.6,3.34,3.34,0,0,1,.5,1.9v.6h-3.1v.11a2.27,2.27,0,0,0,.3,1.3,1.05,1.05,0,0,0,1,.4,1.56,1.56,0,0,0,.7-.2,2.94,2.94,0,0,0,.6-.5l.5.6A2,2,0,0,1,338.65,223Zm-.1-4.9c-.4,0-.7.1-.8.4a3.5,3.5,0,0,0-.3,1.2h2.2v-.1a1.61,1.61,0,0,0-.3-1.1A.91.91,0,0,0,338.55,218.06Z"/><path class="cls-9" d="M342.25,217.36v.6a1.57,1.57,0,0,1,1.3-.7c1,0,1.5.7,1.5,2V223h-.9v-3.6a2,2,0,0,0-.2-.9.78.78,0,0,0-.7-.3,1.42,1.42,0,0,0-.6.2,1.27,1.27,0,0,0-.4.6v4h-.9v-5.5h.9Z"/><path class="cls-9" d="M346.05,219.86a3.68,3.68,0,0,1,.5-2,1.51,1.51,0,0,1,1.4-.7,1.43,1.43,0,0,1,1.2.6v-2.9h.9v7.9h-.8v-.6a1.56,1.56,0,0,1-2.6,0,3.31,3.31,0,0,1-.5-1.9v-.4Zm.9.5a2.65,2.65,0,0,0,.3,1.4,1,1,0,0,0,.9.4,1,1,0,0,0,1-.7v-2.8a1.2,1.2,0,0,0-1-.7,1,1,0,0,0-.9.4,2.27,2.27,0,0,0-.3,1.3Z"/><path class="cls-9" d="M352.25,215.86c0,.2,0,.3-.1.4a.5.5,0,0,1-.8,0c-.1-.1-.1-.2-.1-.4s0-.3.1-.4a.5.5,0,0,1,.8,0A.6.6,0,0,1,352.25,215.86Zm0,7h-.9v-5.5h.9Z"/><path class="cls-9" d="M355.05,219.36l.9-2h1l-1.5,2.7,1.5,2.8h-1l-1-2.1-1,2.1h-1l1.5-2.8-1.5-2.7h1Z"/></g><circle class="cls-9" cx="319.18" cy="221.62" r="5.8"/><circle class="cls-9" cx="300.55" cy="206.61" r="5.8"/><circle class="cls-9" cx="324.39" cy="277.07" r="5.8"/><g class="cls-3"><path class="cls-9" d="M216.11,245.12a3.57,3.57,0,0,1-.7,2.39,2.41,2.41,0,0,1-3.6,0,3.7,3.7,0,0,1-.7-2.3v-1.39a3.2,3.2,0,0,1,.7-2.31,2.06,2.06,0,0,1,1.8-.8,2.2,2.2,0,0,1,1.8.8,3.73,3.73,0,0,1,.7,2.31Zm-.9-1.3a3,3,0,0,0-.4-1.81,1.45,1.45,0,0,0-1.2-.6,1.43,1.43,0,0,0-1.2.6,2.86,2.86,0,0,0-.4,1.7V245a2.64,2.64,0,0,0,.4,1.7,1.43,1.43,0,0,0,1.2.61,1.41,1.41,0,0,0,1.2-.61,2.64,2.64,0,0,0,.4-1.7Z"/></g><g class="cls-3"><path class="cls-9" d="M219.51,243.51h-.4a1.06,1.06,0,0,0-1,.81v4h-.9v-5.5h.9v.6a1.2,1.2,0,0,1,1-.7.6.6,0,0,1,.4.1Z"/></g><g class="cls-3"><path class="cls-9" d="M222.81,248.22c-.1-.1-.1-.3-.1-.6a1.31,1.31,0,0,1-1.2.7,1.63,1.63,0,0,1-1.2-.4,1.59,1.59,0,0,1-.4-1.2,1.49,1.49,0,0,1,.6-1.3,2.54,2.54,0,0,1,1.6-.5h.7v-.6a1.12,1.12,0,0,0-.2-.7,1.1,1.1,0,0,0-.7-.2,1.45,1.45,0,0,0-.7.2.85.85,0,0,0-.3.6H220a1.14,1.14,0,0,1,.3-.8c.2-.2.4-.5.7-.6a2.66,2.66,0,0,1,.9-.2,1.74,1.74,0,0,1,1.3.39,2.23,2.23,0,0,1,.5,1.2V247a3.66,3.66,0,0,0,.2,1.11v.1Zm-1.2-.71a1.55,1.55,0,0,0,.6-.19,1,1,0,0,0,.4-.5v-1.31h-.5a1.49,1.49,0,0,0-1,.31,1,1,0,0,0-.4.8,1.45,1.45,0,0,0,.2.7C221,247.51,221.31,247.51,221.61,247.51Z"/><path class="cls-9" d="M226.71,247.51a.91.91,0,0,0,.7-.3,1.14,1.14,0,0,0,.3-.8h.9a1.61,1.61,0,0,1-.6,1.3,1.66,1.66,0,0,1-1.3.5,2.11,2.11,0,0,1-1.6-.6,2.7,2.7,0,0,1-.5-1.9v-.6a3.31,3.31,0,0,1,.5-1.9,2.21,2.21,0,0,1,1.6-.7,2.17,2.17,0,0,1,1.4.5,2.27,2.27,0,0,1,.5,1.5h-.9a1.21,1.21,0,0,0-.3-.89.91.91,0,0,0-.7-.3,1,1,0,0,0-.9.39,2.27,2.27,0,0,0-.3,1.3v.7a2.4,2.4,0,0,0,.3,1.4A1,1,0,0,0,226.71,247.51Z"/><path class="cls-9" d="M230.41,248.22h-.9v-7.9h.9Z"/><path class="cls-9" d="M233.61,248.32a2.08,2.08,0,0,1-1.6-.61,2.43,2.43,0,0,1-.6-1.8v-.7a3.25,3.25,0,0,1,.5-1.89,2,2,0,0,1,1.5-.7,2,2,0,0,1,1.5.6,2.7,2.7,0,0,1,.5,1.9v.6h-3.1v.1a2.27,2.27,0,0,0,.3,1.3,1.05,1.05,0,0,0,1,.4,1.45,1.45,0,0,0,.7-.2,2.65,2.65,0,0,0,.6-.5l.5.6A2,2,0,0,1,233.61,248.32Zm-.1-4.9c-.4,0-.7.1-.8.4a2.1,2.1,0,0,0-.3,1.19h2.2v-.1a1.61,1.61,0,0,0-.3-1.1A.9.9,0,0,0,233.51,243.42Z"/></g><circle class="cls-9" cx="245.31" cy="245.32" r="5.8"/><circle class="cls-9" cx="222.4" cy="197.13" r="5.8" transform="translate(-7.81 385.08) rotate(-80.78)"/><circle class="cls-9" cx="283.56" cy="249.62" r="5.8"/><circle class="cls-9" cx="180.63" cy="318.32" r="5.8"/><circle class="cls-9" cx="244" cy="327.01" r="5.8"/><circle class="cls-9" cx="187.52" cy="330.9" r="5.8"/><circle class="cls-9" cx="257.78" cy="335.33" r="5.8"/><circle class="cls-9" cx="193.1" cy="308.51" r="5.8"/><circle class="cls-9" cx="285.28" cy="301" r="5.8"/><g class="cls-3"><path class="cls-9" d="M338.12,238.32a1.22,1.22,0,0,0-.3-.9,3.58,3.58,0,0,0-1.1-.6,6.66,6.66,0,0,1-1.2-.6,1.34,1.34,0,0,1-.6-.7,2.92,2.92,0,0,1-.2-.9,2.05,2.05,0,0,1,2.1-2.1,2.66,2.66,0,0,1,1.2.3,3,3,0,0,1,.8.8,2,2,0,0,1,.3,1.1h-.9a1.8,1.8,0,0,0-.3-1.1,1.05,1.05,0,0,0-1-.4,1.06,1.06,0,0,0-1.2,1.2,1.14,1.14,0,0,0,.3.8,4.37,4.37,0,0,0,1,.6,3.07,3.07,0,0,1,1.6.9,2.17,2.17,0,0,1,.5,1.4,2,2,0,0,1-.6,1.5,2.07,2.07,0,0,1-1.6.5,2.66,2.66,0,0,1-1.2-.3,2.36,2.36,0,0,1-.9-.8,2.13,2.13,0,0,1-.3-1.2h.9a1.38,1.38,0,0,0,1.5,1.5,1.22,1.22,0,0,0,.9-.3C338,239,338.12,238.72,338.12,238.32Z"/><path class="cls-9" d="M342.82,240.22c-.1-.1-.1-.3-.1-.6a1.31,1.31,0,0,1-1.2.7,1.63,1.63,0,0,1-1.2-.4,1.59,1.59,0,0,1-.4-1.2,1.49,1.49,0,0,1,.6-1.3,2.54,2.54,0,0,1,1.6-.5h.7v-.6a1.12,1.12,0,0,0-.2-.7,1.1,1.1,0,0,0-.7-.2,1.45,1.45,0,0,0-.7.2.85.85,0,0,0-.3.6H340a1.14,1.14,0,0,1,.3-.8,1.34,1.34,0,0,1,.7-.6,2.66,2.66,0,0,1,.9-.2,1.74,1.74,0,0,1,1.3.39,2.23,2.23,0,0,1,.5,1.2V239a3.66,3.66,0,0,0,.2,1.11v.1Zm-1.2-.7a1.42,1.42,0,0,0,.6-.2,1,1,0,0,0,.4-.5v-1.3h-.5a1.49,1.49,0,0,0-1,.3,1,1,0,0,0-.4.8.75.75,0,0,0,.9.9Z"/><path class="cls-9" d="M345.72,240.22h-.9v-7.9h.9Z"/><path class="cls-9" d="M348.92,240.32a2.11,2.11,0,0,1-1.6-.6,2.44,2.44,0,0,1-.6-1.8v-.7a3.31,3.31,0,0,1,.5-1.9,2,2,0,0,1,1.5-.7,2,2,0,0,1,1.5.6,3.31,3.31,0,0,1,.5,1.9v.6h-3v.1a2.27,2.27,0,0,0,.3,1.3,1.05,1.05,0,0,0,1,.4,1.45,1.45,0,0,0,.7-.2,2.65,2.65,0,0,0,.6-.5l.5.6A2.08,2.08,0,0,1,348.92,240.32Zm-.1-4.9c-.4,0-.7.1-.8.4a3.5,3.5,0,0,0-.3,1.2h2.2v-.2a1.61,1.61,0,0,0-.3-1.1A1,1,0,0,0,348.82,235.42Z"/><path class="cls-9" d="M354.32,238.82a.76.76,0,0,0-.2-.5,3.05,3.05,0,0,0-.9-.5,8.92,8.92,0,0,1-1-.5,1,1,0,0,1-.4-.5,1.48,1.48,0,0,1-.1-.7,1.43,1.43,0,0,1,.5-1.1,1.84,1.84,0,0,1,1.3-.4,1.9,1.9,0,0,1,1.3.5,1.66,1.66,0,0,1,.5,1.2h-.9a.71.71,0,0,0-.3-.6.86.86,0,0,0-.6-.3.85.85,0,0,0-.6.2c-.2.1-.2.3-.2.6a.52.52,0,0,0,.2.4,1.93,1.93,0,0,0,.8.39,4.28,4.28,0,0,1,1.4.81,1.78,1.78,0,0,1,.4,1A1.63,1.63,0,0,1,355,240a1.8,1.8,0,0,1-1.3.4,2.17,2.17,0,0,1-1.4-.5,1.54,1.54,0,0,1-.5-1.3h.9a1,1,0,0,0,1,1,1.45,1.45,0,0,0,.7-.2C354.62,239.32,354.32,239,354.32,238.82Z"/><path class="cls-9" d="M356.62,240.22v-4.8h-.7v-.7h.7v-.6a2.2,2.2,0,0,1,.4-1.3,1.62,1.62,0,0,1,1.2-.5.75.75,0,0,1,.5.1v.8h-.4c-.5,0-.8.4-.8,1.1v.5h.9v.7h-.9v4.8h-.9Z"/><path class="cls-9" d="M359.12,237.22a2.88,2.88,0,0,1,.6-1.9,1.8,1.8,0,0,1,1.5-.7,1.68,1.68,0,0,1,1.5.7,2.88,2.88,0,0,1,.6,1.9v.6a2.88,2.88,0,0,1-.6,1.9,1.86,1.86,0,0,1-1.6.7,1.68,1.68,0,0,1-1.5-.7,3.51,3.51,0,0,1-.6-1.8v-.7Zm.9.5a2.27,2.27,0,0,0,.3,1.3,1.05,1.05,0,0,0,.9.5c.8,0,1.2-.6,1.2-1.7v-.6a2.27,2.27,0,0,0-.3-1.3,1.06,1.06,0,0,0-1.8,0,2.5,2.5,0,0,0-.3,1.3v.5Z"/></g><g class="cls-3"><path class="cls-9" d="M366.52,235.52h-.4a1.05,1.05,0,0,0-1,.8v4h-.9v-5.5h.9v.6a1.2,1.2,0,0,1,1-.7.6.6,0,0,1,.4.1Z"/></g><g class="cls-3"><path class="cls-9" d="M368.92,239.62a.91.91,0,0,0,.7-.3,1.14,1.14,0,0,0,.3-.8h.9a1.61,1.61,0,0,1-.6,1.3,1.66,1.66,0,0,1-1.3.5,2.11,2.11,0,0,1-1.6-.6,2.7,2.7,0,0,1-.5-1.9v-.6a3.31,3.31,0,0,1,.5-1.9,2.19,2.19,0,0,1,3-.2,2.25,2.25,0,0,1,.5,1.5h-.9a1.22,1.22,0,0,0-.3-.9.91.91,0,0,0-.7-.3,1,1,0,0,0-.9.4,2.27,2.27,0,0,0-.3,1.3v.7a2.42,2.42,0,0,0,.3,1.4A1.27,1.27,0,0,0,368.92,239.62Z"/><path class="cls-9" d="M373.62,240.32a2.11,2.11,0,0,1-1.6-.6,2.44,2.44,0,0,1-.6-1.8v-.7a3.31,3.31,0,0,1,.5-1.9,2,2,0,0,1,1.5-.7,2,2,0,0,1,1.5.6,2.7,2.7,0,0,1,.5,1.9v.6h-3.1v.1a2.27,2.27,0,0,0,.3,1.3,1.05,1.05,0,0,0,1,.4,1.45,1.45,0,0,0,.7-.2,2.65,2.65,0,0,0,.6-.5l.5.6A1.83,1.83,0,0,1,373.62,240.32Zm-.1-4.9c-.4,0-.7.1-.8.4a2.13,2.13,0,0,0-.3,1.2h2.2v-.2a1.61,1.61,0,0,0-.3-1.1A1,1,0,0,0,373.52,235.42Z"/></g><g class="cls-3"><path class="cls-9" d="M296.08,302.05V305h-.9v-7.5h2.4a2.11,2.11,0,0,1,1.6.6,2.71,2.71,0,0,1,0,3.4,2.11,2.11,0,0,1-1.6.6Zm0-.8h1.4a1.28,1.28,0,0,0,1-.4,1.61,1.61,0,0,0,.3-1.1,2,2,0,0,0-.3-1.1,1,1,0,0,0-.9-.4h-1.5Z"/></g><g class="cls-3"><path class="cls-9" d="M302.88,300.35h-.4a1.05,1.05,0,0,0-1,.8v4h-.9v-5.5h.9v.6a1.2,1.2,0,0,1,1-.7.6.6,0,0,1,.4.1Z"/></g><g class="cls-3"><path class="cls-9" d="M303.28,302a2.88,2.88,0,0,1,.6-1.9,1.8,1.8,0,0,1,1.5-.7,1.68,1.68,0,0,1,1.5.7,2.88,2.88,0,0,1,.6,1.9v.6a2.88,2.88,0,0,1-.6,1.9,1.86,1.86,0,0,1-1.6.7,1.68,1.68,0,0,1-1.5-.7,3.51,3.51,0,0,1-.6-1.8V302Zm.9.6a2.27,2.27,0,0,0,.3,1.3,1.05,1.05,0,0,0,.9.5c.8,0,1.2-.6,1.2-1.7V302a2.27,2.27,0,0,0-.3-1.3,1.06,1.06,0,0,0-1.8,0,2.5,2.5,0,0,0-.3,1.3v.6Z"/><path class="cls-9" d="M308.38,302a3.68,3.68,0,0,1,.5-2,1.51,1.51,0,0,1,1.4-.7,1.36,1.36,0,0,1,1.3.7v-.6h.8V305a2.54,2.54,0,0,1-.5,1.6,1.84,1.84,0,0,1-1.5.5,2.92,2.92,0,0,1-.9-.2,2.18,2.18,0,0,1-.8-.5l.4-.6a1.73,1.73,0,0,0,1.2.6c.8,0,1.1-.4,1.2-1.2v-.7a1.52,1.52,0,0,1-1.2.7,1.49,1.49,0,0,1-1.3-.6,3.31,3.31,0,0,1-.5-1.9V302Zm.9.6a2.65,2.65,0,0,0,.3,1.4,1,1,0,0,0,.9.4,1,1,0,0,0,1-.7v-2.8a1,1,0,0,0-1-.7,1,1,0,0,0-.9.4,2.27,2.27,0,0,0-.3,1.3Z"/></g><g class="cls-3"><path class="cls-9" d="M315.68,300.35h-.4a1.05,1.05,0,0,0-1,.8v4h-.9v-5.5h.9v.6a1.2,1.2,0,0,1,1-.7.6.6,0,0,1,.4.1Z"/></g><g class="cls-3"><path class="cls-9" d="M318.28,305.15a2.11,2.11,0,0,1-1.6-.6,2.44,2.44,0,0,1-.6-1.8v-.7a3.31,3.31,0,0,1,.5-1.9,1.8,1.8,0,0,1,1.5-.7,2,2,0,0,1,1.5.6,2.7,2.7,0,0,1,.5,1.9v.6H317v.1a2.27,2.27,0,0,0,.3,1.3,1.05,1.05,0,0,0,1,.4,1.45,1.45,0,0,0,.7-.2,2.65,2.65,0,0,0,.6-.5l.5.6A2,2,0,0,1,318.28,305.15Zm-.1-5c-.4,0-.7.1-.8.4a2.13,2.13,0,0,0-.3,1.2h2.2v-.1a1.61,1.61,0,0,0-.3-1.1A1,1,0,0,0,318.18,300.15Z"/><path class="cls-9" d="M323.68,303.65a.76.76,0,0,0-.2-.5,3.78,3.78,0,0,0-.8-.5,8.92,8.92,0,0,1-1-.5,1,1,0,0,1-.4-.5,1.48,1.48,0,0,1-.1-.7,1.43,1.43,0,0,1,.5-1.1,1.84,1.84,0,0,1,1.3-.4,1.9,1.9,0,0,1,1.3.5,1.66,1.66,0,0,1,.5,1.2h-.9a.71.71,0,0,0-.3-.6.86.86,0,0,0-.6-.3.85.85,0,0,0-.6.2c-.2.1-.2.3-.2.6a.52.52,0,0,0,.2.4,1.91,1.91,0,0,0,.8.4,4.29,4.29,0,0,1,1.4.8,1.78,1.78,0,0,1,.4,1,1.66,1.66,0,0,1-.5,1.2,1.84,1.84,0,0,1-1.3.4,2.17,2.17,0,0,1-1.4-.5,1.54,1.54,0,0,1-.5-1.3h.9a1,1,0,0,0,1,1,1.45,1.45,0,0,0,.7-.2C324.08,304.15,323.68,303.85,323.68,303.65Z"/><path class="cls-9" d="M328.18,303.65a.76.76,0,0,0-.2-.5,3.05,3.05,0,0,0-.9-.5,8.92,8.92,0,0,1-1-.5,1,1,0,0,1-.4-.5,1.48,1.48,0,0,1-.1-.7,1.43,1.43,0,0,1,.5-1.1,1.84,1.84,0,0,1,1.3-.4,1.9,1.9,0,0,1,1.3.5,1.66,1.66,0,0,1,.5,1.2h-.9a.71.71,0,0,0-.3-.6.86.86,0,0,0-.6-.3.85.85,0,0,0-.6.2c-.2.1-.2.3-.2.6a.52.52,0,0,0,.2.4,1.91,1.91,0,0,0,.8.4,4.29,4.29,0,0,1,1.4.8,1.78,1.78,0,0,1,.4,1,1.66,1.66,0,0,1-.5,1.2,1.84,1.84,0,0,1-1.3.4,2.17,2.17,0,0,1-1.4-.5,1.54,1.54,0,0,1-.5-1.3h.9a1,1,0,0,0,1,1,1.45,1.45,0,0,0,.7-.2A1.27,1.27,0,0,1,328.18,303.65Z"/></g><circle class="cls-9" cx="324.98" cy="238.21" r="5.8"/><g class="cls-3"><path class="cls-9" d="M206,177.82l1.91,6.15,1.92-6.15h1.21v7.56h-.81v-2.93l.1-2.92-2,5.85h-.71l-1.91-5.85.1,2.92v2.93h-.91v-7.56Z"/><path class="cls-9" d="M213.57,178.32c0,.2,0,.3-.1.4a.5.5,0,0,1-.81,0c-.1-.1-.1-.2-.1-.4s0-.3.1-.4a.51.51,0,0,1,.81,0C213.47,178,213.57,178.12,213.57,178.32Zm-.1,7.06h-.91v-5.55h.91Z"/><path class="cls-9" d="M216.59,184.67a.93.93,0,0,0,.71-.3,1.16,1.16,0,0,0,.3-.81h.91a1.6,1.6,0,0,1-.61,1.31,1.64,1.64,0,0,1-1.31.51,2.14,2.14,0,0,1-1.61-.61,2.72,2.72,0,0,1-.5-1.91v-.61a3.35,3.35,0,0,1,.5-1.91,2.17,2.17,0,0,1,1.61-.71,2.13,2.13,0,0,1,1.41.51,2.21,2.21,0,0,1,.51,1.51h-.91a1.23,1.23,0,0,0-.3-.91.93.93,0,0,0-.71-.3,1,1,0,0,0-.91.4,2.31,2.31,0,0,0-.3,1.31v.71a2.46,2.46,0,0,0,.3,1.41A1,1,0,0,0,216.59,184.67Z"/></g><g class="cls-3"><path class="cls-9" d="M221.53,180.64h-.4a1.05,1.05,0,0,0-1,.81v4h-.91v-5.55h.91v.61a1.22,1.22,0,0,1,1-.71.6.6,0,0,1,.4.1Z"/></g><g class="cls-3"><path class="cls-9" d="M221.93,182.25a2.92,2.92,0,0,1,.61-1.91,1.8,1.8,0,0,1,1.51-.71,1.67,1.67,0,0,1,1.51.71,2.86,2.86,0,0,1,.61,1.91v.61a2.86,2.86,0,0,1-.61,1.91,1.85,1.85,0,0,1-1.61.71,1.68,1.68,0,0,1-1.51-.71,3.55,3.55,0,0,1-.61-1.81v-.71Zm.91.61a2.33,2.33,0,0,0,.3,1.31,1.08,1.08,0,0,0,.91.5c.81,0,1.21-.6,1.21-1.71v-.71a2.31,2.31,0,0,0-.3-1.31,1.07,1.07,0,0,0-.91-.5,1.08,1.08,0,0,0-.91.5,2.54,2.54,0,0,0-.3,1.31Z"/><path class="cls-9" d="M229.9,184a.77.77,0,0,0-.2-.51,3.33,3.33,0,0,0-.91-.5,8.08,8.08,0,0,1-1-.51,1,1,0,0,1-.4-.5,1.51,1.51,0,0,1-.1-.71,1.43,1.43,0,0,1,.5-1.1,1.83,1.83,0,0,1,1.31-.41,1.89,1.89,0,0,1,1.31.51,1.66,1.66,0,0,1,.5,1.21H230a.72.72,0,0,0-.3-.61.9.9,0,0,0-.61-.3.85.85,0,0,0-.6.2.8.8,0,0,0-.21.6.5.5,0,0,0,.21.41,1.91,1.91,0,0,0,.8.4,4.07,4.07,0,0,1,1.41.81,1.79,1.79,0,0,1,.41,1,1.66,1.66,0,0,1-.51,1.2,1.81,1.81,0,0,1-1.31.41,2.15,2.15,0,0,1-1.41-.51,1.54,1.54,0,0,1-.5-1.31h.9a.89.89,0,0,0,.31.71.91.91,0,0,0,.7.3,1.49,1.49,0,0,0,.71-.2C229.8,184.37,229.9,184.17,229.9,184Z"/><path class="cls-9" d="M231.61,182.25a2.86,2.86,0,0,1,.61-1.91,1.79,1.79,0,0,1,1.51-.71,1.68,1.68,0,0,1,1.51.71,2.91,2.91,0,0,1,.6,1.91v.61a2.91,2.91,0,0,1-.6,1.91,1.87,1.87,0,0,1-1.61.71,1.7,1.7,0,0,1-1.52-.71,3.55,3.55,0,0,1-.6-1.81v-.71Zm.91.61a2.33,2.33,0,0,0,.3,1.31,1.05,1.05,0,0,0,.91.5c.8,0,1.21-.6,1.21-1.71v-.71a2.22,2.22,0,0,0-.31-1.31,1.07,1.07,0,0,0-1.81,0,2.54,2.54,0,0,0-.3,1.31Z"/><path class="cls-9" d="M237.36,185.38v-4.84h-.71v-.71h.71v-.6a2.24,2.24,0,0,1,.4-1.31,1.67,1.67,0,0,1,1.21-.51.75.75,0,0,1,.5.1v.81h-.4c-.5,0-.81.4-.81,1.11v.5h.91v.71h-.91v4.84h-.9Z"/><path class="cls-9" d="M241.29,178.42v1.31h.8v.71h-.8v3.42a.77.77,0,0,0,.1.51.52.52,0,0,0,.4.2.76.76,0,0,0,.4-.1v.81a1.27,1.27,0,0,1-.6.1.82.82,0,0,1-.81-.41,1.81,1.81,0,0,1-.3-1.11v-3.42h-1v-.71h.81v-1.31Z"/></g><g class="cls-3"><path class="cls-9" d="M226.92,349a1.22,1.22,0,0,0-.3-.9,3.58,3.58,0,0,0-1.1-.6,6.66,6.66,0,0,1-1.2-.6,1.34,1.34,0,0,1-.6-.7,2.92,2.92,0,0,1-.2-.9,2.05,2.05,0,0,1,2.1-2.1,2.66,2.66,0,0,1,1.2.3,3,3,0,0,1,.8.8,2,2,0,0,1,.3,1.1H227a1.8,1.8,0,0,0-.3-1.1,1.05,1.05,0,0,0-1-.4,1.06,1.06,0,0,0-1.2,1.2,1.14,1.14,0,0,0,.3.8,4.37,4.37,0,0,0,1,.6,3.07,3.07,0,0,1,1.6.9,2.17,2.17,0,0,1,.5,1.4,2,2,0,0,1-.6,1.5,2.07,2.07,0,0,1-1.6.5,2.66,2.66,0,0,1-1.2-.3,2.36,2.36,0,0,1-.9-.8,2.13,2.13,0,0,1-.3-1.2h.9a1.38,1.38,0,0,0,1.5,1.5,1.22,1.22,0,0,0,.9-.3C226.82,349.67,226.92,349.37,226.92,349Z"/><path class="cls-9" d="M230.82,351a2.11,2.11,0,0,1-1.6-.6,2.44,2.44,0,0,1-.6-1.8v-.7a3.31,3.31,0,0,1,.5-1.9,2,2,0,0,1,1.5-.7,2,2,0,0,1,1.5.6,3.31,3.31,0,0,1,.5,1.9v.6h-3.1v.1a2.27,2.27,0,0,0,.3,1.3,1.05,1.05,0,0,0,1,.4,1.45,1.45,0,0,0,.7-.2,2.65,2.65,0,0,0,.6-.5l.5.6A2,2,0,0,1,230.82,351Zm-.1-5c-.4,0-.7.1-.8.4a2.13,2.13,0,0,0-.3,1.2h2.2v-.1a1.61,1.61,0,0,0-.3-1.1A.91.91,0,0,0,230.72,346Z"/></g><g class="cls-3"><path class="cls-9" d="M235.72,346.17h-.4a1.05,1.05,0,0,0-1,.8v4h-.9v-5.5h.9v.6a1.2,1.2,0,0,1,1-.7.6.6,0,0,1,.4.1Z"/></g><g class="cls-3"><path class="cls-9" d="M238,349.47l1.1-4.2h.9l-1.6,5.5h-.7l-1.7-5.5h.9Z"/><path class="cls-9" d="M241.82,343.87c0,.2,0,.3-.1.4a.5.5,0,0,1-.8,0c-.1-.1-.1-.2-.1-.4s0-.3.1-.4a.5.5,0,0,1,.8,0C241.72,343.57,241.82,343.67,241.82,343.87Zm-.1,7h-.9v-5.5h.9Z"/><path class="cls-9" d="M244.92,350.17a.91.91,0,0,0,.7-.3,1.14,1.14,0,0,0,.3-.8h.9a1.61,1.61,0,0,1-.6,1.3,1.66,1.66,0,0,1-1.3.5,2.11,2.11,0,0,1-1.6-.6,2.7,2.7,0,0,1-.5-1.9v-.6a3.31,3.31,0,0,1,.5-1.9,2.19,2.19,0,0,1,3-.2,2.25,2.25,0,0,1,.5,1.5h-.9a1.22,1.22,0,0,0-.3-.9.91.91,0,0,0-.7-.3,1,1,0,0,0-.9.4,2.27,2.27,0,0,0-.3,1.3v.7a2.42,2.42,0,0,0,.3,1.4C244.12,350.07,244.42,350.17,244.92,350.17Z"/><path class="cls-9" d="M249.62,351a2.11,2.11,0,0,1-1.6-.6,2.44,2.44,0,0,1-.6-1.8v-.7a3.31,3.31,0,0,1,.5-1.9,2,2,0,0,1,1.5-.7,2,2,0,0,1,1.5.6,3.31,3.31,0,0,1,.5,1.9v.6h-3.1v.1a2.27,2.27,0,0,0,.3,1.3,1.05,1.05,0,0,0,1,.4,1.45,1.45,0,0,0,.7-.2,2.65,2.65,0,0,0,.6-.5l.5.6A2,2,0,0,1,249.62,351Zm-.1-5c-.4,0-.7.1-.8.4a2.13,2.13,0,0,0-.3,1.2h2.2v-.1a1.61,1.61,0,0,0-.3-1.1A1,1,0,0,0,249.52,346Z"/><path class="cls-9" d="M257.32,350.87h-.9l-3-5.7v5.7h-.9v-7.5h.9l3,5.8v-5.8h.9Z"/><path class="cls-9" d="M258.42,347.87a2.88,2.88,0,0,1,.6-1.9,1.8,1.8,0,0,1,1.5-.7,1.68,1.68,0,0,1,1.5.7,2.88,2.88,0,0,1,.6,1.9v.6a2.88,2.88,0,0,1-.6,1.9,1.86,1.86,0,0,1-1.6.7,1.68,1.68,0,0,1-1.5-.7,3.51,3.51,0,0,1-.6-1.8v-.7Zm.9.5a2.27,2.27,0,0,0,.3,1.3,1.05,1.05,0,0,0,.9.5c.8,0,1.2-.6,1.2-1.7v-.6a2.27,2.27,0,0,0-.3-1.3,1.06,1.06,0,0,0-1.8,0,2.5,2.5,0,0,0-.3,1.3Z"/><path class="cls-9" d="M267.72,349.27l.8-3.9h.9l-1.4,5.5h-.7l-1.1-4-1.1,4h-.7l-1.3-5.5h.9l.9,3.9,1-3.9h.7Z"/></g><g class="cls-3"><path class="cls-9" d="M152.81,317.07V320h-.9v-7.5h2.4a2.11,2.11,0,0,1,1.6.6,2.71,2.71,0,0,1,0,3.4,2.11,2.11,0,0,1-1.6.6Zm0-.81h1.4a1.31,1.31,0,0,0,1-.39,1.66,1.66,0,0,0,.3-1.11,2.06,2.06,0,0,0-.3-1.1,1,1,0,0,0-.9-.4h-1.4v3Z"/></g><g class="cls-3"><path class="cls-9" d="M159.21,320.07a2.11,2.11,0,0,1-1.6-.6,2.44,2.44,0,0,1-.6-1.8V317a3.31,3.31,0,0,1,.5-1.9,2,2,0,0,1,1.5-.7,2,2,0,0,1,1.5.6,2.7,2.7,0,0,1,.5,1.9v.6h-3.1v.1a2.27,2.27,0,0,0,.3,1.3,1.07,1.07,0,0,0,1,.39,1.45,1.45,0,0,0,.7-.2,2.65,2.65,0,0,0,.6-.5l.5.6A2,2,0,0,1,159.21,320.07Zm-.1-5c-.4,0-.7.1-.8.4a2.11,2.11,0,0,0-.3,1.2h2.2v-.1a1.61,1.61,0,0,0-.3-1.1A.81.81,0,0,0,159.11,315.07Z"/><path class="cls-9" d="M161.81,317a3.68,3.68,0,0,1,.5-2,1.76,1.76,0,0,1,1.4-.71,1.36,1.36,0,0,1,1.3.71v-.6h.8V320a2.54,2.54,0,0,1-.5,1.6,1.84,1.84,0,0,1-1.5.5,2.92,2.92,0,0,1-.9-.2,2.32,2.32,0,0,1-.8-.5l.4-.61a1.74,1.74,0,0,0,1.2.61c.8,0,1.1-.4,1.2-1.21v-.7a1.56,1.56,0,0,1-1.3.7,1.49,1.49,0,0,1-1.3-.6,3.31,3.31,0,0,1-.5-1.9V317Zm.9.5a2.65,2.65,0,0,0,.3,1.4,1,1,0,0,0,.9.39,1,1,0,0,0,1-.7v-2.8a1,1,0,0,0-1-.7,1,1,0,0,0-.9.4,2.27,2.27,0,0,0-.3,1.3Z"/><path class="cls-9" d="M169.81,320c-.1-.1-.1-.3-.1-.6a1.31,1.31,0,0,1-1.2.7,1.41,1.41,0,0,1-1.6-1.6,1.49,1.49,0,0,1,.6-1.3,2.54,2.54,0,0,1,1.6-.5h.7V316a1.23,1.23,0,0,0-.2-.71,1.17,1.17,0,0,0-.7-.2,1.45,1.45,0,0,0-.7.2.88.88,0,0,0-.3.61H167a1.12,1.12,0,0,1,.3-.8c.2-.2.4-.5.7-.6a2.94,2.94,0,0,1,.9-.21,1.74,1.74,0,0,1,1.3.4,2.23,2.23,0,0,1,.5,1.21v2.79a3.59,3.59,0,0,0,.2,1.1v.11h-1.1Zm-1.3-.71a1.42,1.42,0,0,0,.6-.2,1,1,0,0,0,.4-.5v-1.3H169a1.55,1.55,0,0,0-1,.3,1,1,0,0,0-.4.8,1.45,1.45,0,0,0,.2.7C167.91,319.26,168.21,319.26,168.51,319.26Z"/></g><g class="cls-3"><path class="cls-9" d="M295.65,250.54a1.22,1.22,0,0,0-.3-.9,3.58,3.58,0,0,0-1.1-.6,6.66,6.66,0,0,1-1.2-.6,1.34,1.34,0,0,1-.6-.7,2.92,2.92,0,0,1-.2-.9,2.05,2.05,0,0,1,2.1-2.1,2.66,2.66,0,0,1,1.2.3,3,3,0,0,1,.8.8,2,2,0,0,1,.3,1.1h-.9a1.8,1.8,0,0,0-.3-1.1,1.05,1.05,0,0,0-1-.4,1.06,1.06,0,0,0-1.2,1.2,1.14,1.14,0,0,0,.3.8,4.37,4.37,0,0,0,1,.6,3.07,3.07,0,0,1,1.6.9,2.17,2.17,0,0,1,.5,1.4,2,2,0,0,1-.6,1.5,2.07,2.07,0,0,1-1.6.5,2.66,2.66,0,0,1-1.2-.3,2.36,2.36,0,0,1-.9-.8,2.13,2.13,0,0,1-.3-1.2h.9a1.38,1.38,0,0,0,1.5,1.5,1.22,1.22,0,0,0,.9-.3C295.55,251.24,295.65,250.94,295.65,250.54Z"/><path class="cls-9" d="M301.05,250.44h-2.5l-.6,2h-1l2.4-7.5h.8l2.4,7.5h-1Zm-2.2-.8h2l-1-3.4Z"/><path class="cls-9" d="M304.35,249.54v2.9h-.9v-7.5h2.4a2.11,2.11,0,0,1,1.6.6,2.71,2.71,0,0,1,0,3.4,2.11,2.11,0,0,1-1.6.6Zm0-.8h1.4a1.28,1.28,0,0,0,1-.4,1.61,1.61,0,0,0,.3-1.1,2,2,0,0,0-.3-1.1,1,1,0,0,0-.9-.4h-1.4v3Z"/></g><g class="cls-3"><path class="cls-9" d="M231.3,317.1l-.2.2a2.81,2.81,0,0,1-2.08.79,2.51,2.51,0,0,1-1.89-.79,3.15,3.15,0,0,1-.7-2.29v-1.39a3.7,3.7,0,0,1,.6-2.29,2.27,2.27,0,0,1,1.89-.79,2.38,2.38,0,0,1,1.69.59,2.93,2.93,0,0,1,.69,1.69h-.89a1.81,1.81,0,0,0-.4-1.09,1.15,1.15,0,0,0-1-.4,1.66,1.66,0,0,0-1.2.5,3.5,3.5,0,0,0-.39,1.69V315a2.71,2.71,0,0,0,.39,1.69,1.43,1.43,0,0,0,1.2.6,1.58,1.58,0,0,0,1.19-.4l.1-.1v-1.69h-1.39v-.79h2.28v2.78Z"/><path class="cls-9" d="M234.48,318.19a2.14,2.14,0,0,1-1.59-.59,2.47,2.47,0,0,1-.59-1.79v-.7a3.38,3.38,0,0,1,.49-1.89,2,2,0,0,1,1.5-.69,2,2,0,0,1,1.49.59,3.3,3.3,0,0,1,.49,1.89v.6h-3.08v.1a2.25,2.25,0,0,0,.3,1.29,1,1,0,0,0,1,.4,1.45,1.45,0,0,0,.7-.2,2.65,2.65,0,0,0,.6-.5l.49.6A2,2,0,0,1,234.48,318.19Zm-.09-5c-.4,0-.7.1-.8.4a2.12,2.12,0,0,0-.3,1.19h2.19v-.1a1.6,1.6,0,0,0-.3-1.09A.9.9,0,0,0,234.39,313.22Z"/><path class="cls-9" d="M238.06,312.53v.59a1.59,1.59,0,0,1,1.3-.69c1,0,1.49.69,1.49,2v3.68H240v-3.58a2,2,0,0,0-.2-.89.76.76,0,0,0-.69-.3,1.42,1.42,0,0,0-.6.2.92.92,0,0,0-.4.6v4h-.89v-5.46h.89Z"/><path class="cls-9" d="M244,318.19a2.12,2.12,0,0,1-1.59-.59,2.44,2.44,0,0,1-.6-1.79v-.7a3.3,3.3,0,0,1,.5-1.89,1.93,1.93,0,0,1,1.49-.69,2,2,0,0,1,1.49.59,3.3,3.3,0,0,1,.5,1.89v.6h-3.08v.1A2.35,2.35,0,0,0,243,317a1.05,1.05,0,0,0,1,.4,1.37,1.37,0,0,0,.69-.2,2.65,2.65,0,0,0,.6-.5l.5.6A2,2,0,0,1,244,318.19Zm-.1-5c-.4,0-.7.1-.8.4a2.21,2.21,0,0,0-.29,1.19H245v-.1a1.6,1.6,0,0,0-.3-1.09A.88.88,0,0,0,243.93,313.22Z"/></g><g class="cls-3"><path class="cls-9" d="M248.8,313.52l1.39-2.88h1.1l-1.89,3.68,2,3.77h-1.1l-1.39-2.88-1.39,2.88h-1.09l2-3.77-2-3.68h1.09Z"/></g><g class="cls-3"><path class="cls-9" d="M254.77,317.6a1.5,1.5,0,0,1-1.3.59,1.3,1.3,0,0,1-1.09-.49,2.24,2.24,0,0,1-.4-1.5v-3.57h.9v3.48c0,.89.3,1.29.79,1.29a1.08,1.08,0,0,0,1.1-.7v-4.07h.89v5.46h-.89Z"/><path class="cls-9" d="M259.44,316.7a.76.76,0,0,0-.2-.5,3.45,3.45,0,0,0-.89-.49,8.92,8.92,0,0,1-1-.5,1,1,0,0,1-.4-.5,1.7,1.7,0,0,1,.4-1.79,2.13,2.13,0,0,1,2.59.1,1.69,1.69,0,0,1,.49,1.2h-.89a.71.71,0,0,0-.3-.6.86.86,0,0,0-.6-.3.84.84,0,0,0-.59.2.85.85,0,0,0-.2.6.48.48,0,0,0,.2.39,1.86,1.86,0,0,0,.79.4,4.12,4.12,0,0,1,1.39.8,1.75,1.75,0,0,1,.4,1,1.62,1.62,0,0,1-.5,1.19,1.8,1.8,0,0,1-1.29.4,2.21,2.21,0,0,1-1.39-.49,1.54,1.54,0,0,1-.5-1.3h.9a.91.91,0,0,0,.3.7.89.89,0,0,0,.69.3,1.45,1.45,0,0,0,.7-.2A1.27,1.27,0,0,1,259.44,316.7Z"/></g><g class="cls-3"><path class="cls-9" d="M164.27,335.23h-.93v-7.75h.93Z"/><path class="cls-9" d="M165.82,335.23v-7.75H168a1.82,1.82,0,0,1,2.07,2.06,1.41,1.41,0,0,1-.31.93,1.38,1.38,0,0,1-.72.62,1.6,1.6,0,0,1,.82.62,2.07,2.07,0,0,1,.31,1.14,2.13,2.13,0,0,1-2.27,2.27h-2.07Zm.93-4.34H168a1.22,1.22,0,0,0,.83-.31,1.26,1.26,0,0,0,.31-.93,1.23,1.23,0,0,0-.31-.93,1.17,1.17,0,0,0-.83-.31h-1.24Zm0,.82v2.79h1.35a.82.82,0,0,0,.82-.41,1.53,1.53,0,0,0,.31-1c0-.93-.41-1.35-1.13-1.35Z"/><path class="cls-9" d="M172.75,327.58l2,6.3,2-6.3h1.24v7.75H177v-3l.11-3-2.07,6h-.72l-2-6,.11,3v3h-.93v-7.75Z"/></g><g class="cls-3"><path class="cls-9" d="M161.38,305.05h-2.6l-.6,2h-1l2.4-7.5h.8l2.4,7.5h-1Zm-2.3-.8h2l-1-3.4Z"/><path class="cls-9" d="M167.58,304.55a3.68,3.68,0,0,1-.5,2,1.37,1.37,0,0,1-1.3.6,1.49,1.49,0,0,1-1.3-.6v2.7h-.9v-7.8h.8v.6a1.36,1.36,0,0,1,1.3-.7,1.68,1.68,0,0,1,1.4.6,3.31,3.31,0,0,1,.5,1.9Zm-.9-.6a2.65,2.65,0,0,0-.3-1.4,1,1,0,0,0-.9-.4,1,1,0,0,0-1,.7v2.9a1.1,1.1,0,0,0,1,.6,1,1,0,0,0,.9-.4,2.42,2.42,0,0,0,.3-1.4Z"/><path class="cls-9" d="M172.58,304.55a3.68,3.68,0,0,1-.5,2,1.61,1.61,0,0,1-1.3.6,1.49,1.49,0,0,1-1.3-.6v2.7h-.9v-7.8h.8v.6a1.36,1.36,0,0,1,1.3-.7,1.68,1.68,0,0,1,1.4.6,3.31,3.31,0,0,1,.5,1.9Zm-.9-.6a2.65,2.65,0,0,0-.3-1.4,1,1,0,0,0-.9-.4,1,1,0,0,0-1,.7v2.9a1.1,1.1,0,0,0,1,.6,1,1,0,0,0,.9-.4,2.42,2.42,0,0,0,.3-1.4Z"/><path class="cls-9" d="M174.58,300.05c0,.2,0,.3-.1.4a.5.5,0,0,1-.8,0c-.1-.1-.1-.2-.1-.4s0-.3.1-.4a.5.5,0,0,1,.8,0C174.48,299.75,174.58,299.85,174.58,300.05Zm-.1,7h-.9v-5.6h.9Z"/><path class="cls-9" d="M178.58,307.05c-.1-.1-.1-.3-.1-.6a1.31,1.31,0,0,1-1.2.7,1.41,1.41,0,0,1-1.6-1.6,1.49,1.49,0,0,1,.6-1.3,2.54,2.54,0,0,1,1.6-.5h.7v-.6a.75.75,0,0,0-.9-.9,1.45,1.45,0,0,0-.7.2.86.86,0,0,0-.3.6h-.9a1.14,1.14,0,0,1,.3-.8,1.34,1.34,0,0,1,.7-.6,2.92,2.92,0,0,1,.9-.2,1.7,1.7,0,0,1,1.3.4,2.2,2.2,0,0,1,.5,1.2v2.8a3.59,3.59,0,0,0,.2,1.1v.1Zm-1.2-.8a1.42,1.42,0,0,0,.6-.2,1,1,0,0,0,.4-.5v-1.3h-.5a1.49,1.49,0,0,0-1,.3,1,1,0,0,0-.4.8,1.45,1.45,0,0,0,.2.7C176.78,306.25,177.08,306.25,177.38,306.25Z"/><path class="cls-9" d="M181.38,301.45v.6a1.57,1.57,0,0,1,1.3-.7c1,0,1.5.7,1.5,2v3.7h-.9v-3.6a2,2,0,0,0-.2-.9.78.78,0,0,0-.7-.3,1.42,1.42,0,0,0-.6.2,1.27,1.27,0,0,0-.4.6v4h-.9v-5.6Z"/></g><circle class="cls-9" cx="209.17" cy="355.19" r="5.8"/><circle class="cls-9" cx="123.45" cy="433.55" r="5.8"/><circle class="cls-9" cx="41.24" cy="465.33" r="5.8"/><g class="cls-3"><path class="cls-9" d="M201.18,367.21l1.39-2.88h1.09L201.78,368l2,3.78h-1.09l-1.39-2.89-1.39,2.89h-1.1l2-3.78-2-3.68h1.1Z"/></g><path class="cls-9" d="M209.6,368.75a3.56,3.56,0,0,1-.7,2.38,2.09,2.09,0,0,1-1.88.79,2.53,2.53,0,0,1-1.89-.79,3.16,3.16,0,0,1-.69-2.28v-1.39a3.63,3.63,0,0,1,.69-2.38,2.32,2.32,0,0,1,1.89-.89,2.54,2.54,0,0,1,1.88.79,4,4,0,0,1,.7,2.38Zm-1-1.29a2.94,2.94,0,0,0-.39-1.78,1.48,1.48,0,0,0-2.38,0,2.94,2.94,0,0,0-.4,1.78v1.39a3,3,0,0,0,.4,1.79,1.5,1.5,0,0,0,2.38,0,2.85,2.85,0,0,0,.39-1.69Z"/><path class="cls-9" d="M211.69,366.26v.59a1.59,1.59,0,0,1,1.3-.69c1,0,1.49.69,1.49,2v3.68h-.9v-3.58a2,2,0,0,0-.2-.9.75.75,0,0,0-.69-.3,1.42,1.42,0,0,0-.6.2.92.92,0,0,0-.4.6v4h-.89v-5.47h.89Z"/><path class="cls-9" d="M217.66,371.92a2.08,2.08,0,0,1-1.59-.59,2.44,2.44,0,0,1-.6-1.79v-.7A3.3,3.3,0,0,1,216,367a2,2,0,0,1,1.49-.69,2,2,0,0,1,1.49.59,3.3,3.3,0,0,1,.5,1.89v.6h-3.08v.1a2.23,2.23,0,0,0,.3,1.29c.19.3.49.4,1,.4a1.45,1.45,0,0,0,.7-.2,2.85,2.85,0,0,0,.59-.5l.5.6A2,2,0,0,1,217.66,371.92Zm-.1-5c-.4,0-.7.1-.8.4a2.21,2.21,0,0,0-.29,1.19h2.18v-.09a1.67,1.67,0,0,0-.29-1.1A.91.91,0,0,0,217.56,367Z"/><path class="cls-9" d="M119.21,422.78l-1.5-3.25a1.66,1.66,0,0,0,.66-.45,2.89,2.89,0,0,0,0-3.6,2.23,2.23,0,0,0-1.69-.63h-2.54v7.93h1v-3.07h1.59l1.43,3.07Zm-4-3.91V415.7h1.48a1,1,0,0,1,.95.42,2.15,2.15,0,0,1,.32,1.16,1.74,1.74,0,0,1-.32,1.17,1.39,1.39,0,0,1-1.06.42Z"/><path class="cls-9" d="M121.68,422.78a2.16,2.16,0,0,1-1.64-.61,2.54,2.54,0,0,1-.62-1.85v-.72a3.46,3.46,0,0,1,.51-2,2,2,0,0,1,1.54-.72,2.09,2.09,0,0,1,1.54.62,3.36,3.36,0,0,1,.52,1.95v.61h-3.19v.1a2.39,2.39,0,0,0,.31,1.34,1.09,1.09,0,0,0,1,.41,1.42,1.42,0,0,0,.72-.21,2.5,2.5,0,0,0,.61-.51l.52.62A2.09,2.09,0,0,1,121.68,422.78Zm-.1-5.13c-.41,0-.72.1-.83.41a2.24,2.24,0,0,0-.3,1.23h2.26v-.1a1.66,1.66,0,0,0-.31-1.13A.94.94,0,0,0,121.58,417.65Z"/><path class="cls-9" d="M127.09,421.19a.76.76,0,0,0-.2-.5,2.79,2.79,0,0,0-.89-.49,8.92,8.92,0,0,1-1-.5,1,1,0,0,1-.39-.5,1.72,1.72,0,0,1,.39-1.79,1.84,1.84,0,0,1,1.3-.4,1.89,1.89,0,0,1,1.29.5,1.65,1.65,0,0,1,.5,1.19h-.9a.71.71,0,0,0-.3-.59.76.76,0,0,0-1.39.5.52.52,0,0,0,.2.39,1.91,1.91,0,0,0,.8.4,4.34,4.34,0,0,1,1.39.8,1.71,1.71,0,0,1,.39,1,1.63,1.63,0,0,1-.49,1.19,1.83,1.83,0,0,1-1.29.4,2.17,2.17,0,0,1-1.4-.5,1.53,1.53,0,0,1-.49-1.29h.89a1,1,0,0,0,1,1,1.44,1.44,0,0,0,.69-.2A1.27,1.27,0,0,1,127.09,421.19Z"/><path class="cls-9" d="M131,422.05a.91.91,0,0,0,.7-.3,1.14,1.14,0,0,0,.3-.8h.9a1.61,1.61,0,0,1-.6,1.3,1.66,1.66,0,0,1-1.3.5,2.11,2.11,0,0,1-1.6-.6,2.7,2.7,0,0,1-.5-1.9v-.6a3.31,3.31,0,0,1,.5-1.9,2.19,2.19,0,0,1,3-.2,2.25,2.25,0,0,1,.5,1.5H132a1.22,1.22,0,0,0-.3-.9.91.91,0,0,0-.7-.3,1,1,0,0,0-.9.4,2.27,2.27,0,0,0-.3,1.3v.7a2.42,2.42,0,0,0,.3,1.4A1.27,1.27,0,0,0,131,422.05Z"/><path class="cls-9" d="M133.79,419.56a2.88,2.88,0,0,1,.6-1.9,1.8,1.8,0,0,1,1.5-.7,1.68,1.68,0,0,1,1.5.7,2.88,2.88,0,0,1,.6,1.9v.6a2.88,2.88,0,0,1-.6,1.9,1.86,1.86,0,0,1-1.6.7,1.68,1.68,0,0,1-1.5-.7,3.51,3.51,0,0,1-.6-1.8v-.7Zm.9.5a2.27,2.27,0,0,0,.3,1.3,1.05,1.05,0,0,0,.9.5c.8,0,1.2-.6,1.2-1.7v-.6a2.27,2.27,0,0,0-.3-1.3,1.06,1.06,0,0,0-1.8,0,2.5,2.5,0,0,0-.3,1.3Z"/><path class="cls-9" d="M360.65,277.49a2.88,2.88,0,0,1,.6-1.9,1.8,1.8,0,0,1,1.5-.7,1.68,1.68,0,0,1,1.5.7,2.88,2.88,0,0,1,.6,1.9v.6a2.88,2.88,0,0,1-.6,1.9,1.86,1.86,0,0,1-1.6.7,1.68,1.68,0,0,1-1.5-.7,3.51,3.51,0,0,1-.6-1.8v-.7Zm.9.5a2.27,2.27,0,0,0,.3,1.3,1.05,1.05,0,0,0,.9.5c.8,0,1.2-.6,1.2-1.7v-.6a2.27,2.27,0,0,0-.3-1.3,1.06,1.06,0,0,0-1.8,0,2.5,2.5,0,0,0-.3,1.3Z"/><path class="cls-9" d="M368.37,279a.76.76,0,0,0-.2-.5,3.05,3.05,0,0,0-.9-.5,8.92,8.92,0,0,1-1-.5,1,1,0,0,1-.4-.5,1.48,1.48,0,0,1-.1-.7,1.43,1.43,0,0,1,.5-1.1,1.84,1.84,0,0,1,1.3-.4,1.9,1.9,0,0,1,1.3.5,1.66,1.66,0,0,1,.5,1.2h-.9a.71.71,0,0,0-.3-.6.86.86,0,0,0-.6-.3.85.85,0,0,0-.6.2c-.2.1-.2.3-.2.6a.52.52,0,0,0,.2.4,1.91,1.91,0,0,0,.8.4,4.29,4.29,0,0,1,1.4.8,1.78,1.78,0,0,1,.4,1,1.66,1.66,0,0,1-.5,1.2,1.84,1.84,0,0,1-1.3.4,2.17,2.17,0,0,1-1.4-.5,1.54,1.54,0,0,1-.5-1.3h.9a1,1,0,0,0,1,1,1.45,1.45,0,0,0,.7-.2A1.27,1.27,0,0,1,368.37,279Z"/><path class="cls-9" d="M356.77,275v.6a1.57,1.57,0,0,1,1.3-.7c1,0,1.5.7,1.5,2v3.7h-.9V277a2,2,0,0,0-.2-.9.78.78,0,0,0-.7-.3,1.42,1.42,0,0,0-.6.2,1.27,1.27,0,0,0-.4.6v4h-.9v-5.5h.9Z"/><path class="cls-9" d="M344,275v.49a1.68,1.68,0,0,1,1.39-.59,1.33,1.33,0,0,1,1.29.79,1.85,1.85,0,0,1,1.48-.79c1,0,1.59.69,1.59,2v3.77h-.89V277a2,2,0,0,0-.2-.89.77.77,0,0,0-.69-.3.91.91,0,0,0-.7.3,1.11,1.11,0,0,0-.3.79v3.77h-.89v-3.77c0-.79-.3-1.19-1-1.19a1,1,0,0,0-1,.69v4.17h-.89v-5.65H344Z"/><path class="cls-9" d="M353.14,280.59a2.11,2.11,0,0,1-1.6-.6,2.44,2.44,0,0,1-.6-1.8v-.7a3.31,3.31,0,0,1,.5-1.9,2,2,0,0,1,1.5-.7,2,2,0,0,1,1.5.6,3.31,3.31,0,0,1,.5,1.9v.6h-3v.1a2.27,2.27,0,0,0,.3,1.3,1.05,1.05,0,0,0,1,.4,1.45,1.45,0,0,0,.7-.2,2.65,2.65,0,0,0,.6-.5l.5.6A2.08,2.08,0,0,1,353.14,280.59Zm-.1-4.9c-.4,0-.7.1-.8.4a3.5,3.5,0,0,0-.3,1.2h2.2v-.2a1.61,1.61,0,0,0-.3-1.1A1,1,0,0,0,353,275.69Z"/><path class="cls-9" d="M340.48,280.59a2.11,2.11,0,0,1-1.6-.6,2.44,2.44,0,0,1-.6-1.8v-.7a3.31,3.31,0,0,1,.5-1.9,2,2,0,0,1,1.5-.7,2,2,0,0,1,1.5.6,3.31,3.31,0,0,1,.5,1.9v.6h-3v.1a2.27,2.27,0,0,0,.3,1.3,1.05,1.05,0,0,0,1,.4,1.45,1.45,0,0,0,.7-.2,2.65,2.65,0,0,0,.6-.5l.5.6A2.08,2.08,0,0,1,340.48,280.59Zm-.1-4.9c-.4,0-.7.1-.8.4a3.5,3.5,0,0,0-.3,1.2h2.2v-.2a1.61,1.61,0,0,0-.3-1.1A1,1,0,0,0,340.38,275.69Z"/><path class="cls-9" d="M336.16,280.62h-.93v-7.75h.93Z"/><path class="cls-9" d="M333.11,273.8v-.93h5.17v.93Z"/><path class="cls-9" d="M61,452.09a1.22,1.22,0,0,0-.3-.9,3.58,3.58,0,0,0-1.1-.6,6.66,6.66,0,0,1-1.2-.6,1.34,1.34,0,0,1-.6-.7,2.92,2.92,0,0,1-.2-.9,2.05,2.05,0,0,1,2.1-2.1,2.66,2.66,0,0,1,1.2.3,3,3,0,0,1,.8.8,2,2,0,0,1,.3,1.1h-.9a1.8,1.8,0,0,0-.3-1.1,1.05,1.05,0,0,0-1-.4,1.06,1.06,0,0,0-1.2,1.2,1.14,1.14,0,0,0,.3.8,4.37,4.37,0,0,0,1,.6,3.07,3.07,0,0,1,1.6.9,2.17,2.17,0,0,1,.5,1.4,2,2,0,0,1-.6,1.5,2.07,2.07,0,0,1-1.6.5,2.66,2.66,0,0,1-1.2-.3,2.36,2.36,0,0,1-.9-.8,2.13,2.13,0,0,1-.3-1.2h.9a1.38,1.38,0,0,0,1.5,1.5,1.22,1.22,0,0,0,.9-.3C60.87,452.79,61,452.49,61,452.09Z"/><path class="cls-9" d="M62.79,450.69a2.88,2.88,0,0,1,.6-1.9,1.8,1.8,0,0,1,1.5-.7,1.68,1.68,0,0,1,1.5.7,2.88,2.88,0,0,1,.6,1.9v.6a2.88,2.88,0,0,1-.6,1.9,1.86,1.86,0,0,1-1.6.7,1.68,1.68,0,0,1-1.5-.7,3.51,3.51,0,0,1-.6-1.8v-.7Zm.9.5a2.27,2.27,0,0,0,.3,1.3,1.05,1.05,0,0,0,.9.5c.8,0,1.2-.6,1.2-1.7v-.6a2.27,2.27,0,0,0-.3-1.3,1.06,1.06,0,0,0-1.8,0,2.5,2.5,0,0,0-.3,1.3Z"/><path class="cls-9" d="M68.28,453.79v-5h-.73v-.73h.73v-.62a2.3,2.3,0,0,1,.41-1.35,1.73,1.73,0,0,1,1.25-.52.83.83,0,0,1,.52.1v.83H70c-.52,0-.83.42-.83,1.15v.51h.93v.73h-.93v5h-.93Z"/><path class="cls-9" d="M71.89,446.77v1.42h.91v.71h-.91v3.56a.75.75,0,0,0,.1.5.5.5,0,0,0,.41.21.76.76,0,0,0,.4-.1v.81a1.29,1.29,0,0,1-.61.1.82.82,0,0,1-.81-.41,1.83,1.83,0,0,1-.3-1.11V448.9h-1v-.71h1v-1.42Z"/><path class="cls-9" d="M39.21,446.77v1.42h.91v.71h-.91v3.56a.75.75,0,0,0,.1.5.5.5,0,0,0,.41.21.76.76,0,0,0,.4-.1v.81a1.29,1.29,0,0,1-.61.1.82.82,0,0,1-.81-.41,1.83,1.83,0,0,1-.31-1.11V448.9h-.94v-.71h.94v-1.42Z"/><path class="cls-9" d="M77.93,452.14l.8-3.9h.9l-1.4,5.5h-.7l-1.1-4-1.1,4h-.7l-1.3-5.5h.9l.9,3.9,1-3.9h.7Z"/><path class="cls-9" d="M83.27,453.79c-.1-.1-.1-.3-.1-.6a1.31,1.31,0,0,1-1.2.7,1.41,1.41,0,0,1-1.6-1.6A1.49,1.49,0,0,1,81,451a2.54,2.54,0,0,1,1.6-.5h.7v-.7a.75.75,0,0,0-.9-.9,1.45,1.45,0,0,0-.7.2.86.86,0,0,0-.3.6h-.9a1.14,1.14,0,0,1,.3-.8c.2-.2.4-.5.7-.6a2.92,2.92,0,0,1,.9-.2,1.7,1.7,0,0,1,1.3.4,2.2,2.2,0,0,1,.5,1.2v2.8a3.59,3.59,0,0,0,.2,1.1v.1h-1.1Zm-1.3-.7a1.42,1.42,0,0,0,.6-.2,1,1,0,0,0,.4-.5v-1.3h-.5a1.49,1.49,0,0,0-1,.3,1,1,0,0,0-.4.8,1.45,1.45,0,0,0,.2.7C81.37,453.09,81.67,453.09,82,453.09Z"/><g class="cls-3"><path class="cls-9" d="M87.57,448.89h-.4a1.05,1.05,0,0,0-1,.8v4h-.9v-5.5h.9v.6a1.2,1.2,0,0,1,1-.7.6.6,0,0,1,.4.1Z"/></g><path class="cls-9" d="M90.13,453.82a2.16,2.16,0,0,1-1.64-.62,2.49,2.49,0,0,1-.62-1.84v-.72a3.38,3.38,0,0,1,.52-1.95,2,2,0,0,1,1.54-.72,2.07,2.07,0,0,1,1.54.62,3.36,3.36,0,0,1,.51,2v.61H88.8v.1a2.31,2.31,0,0,0,.31,1.34c.2.31.51.41,1,.41a1.39,1.39,0,0,0,.72-.21,2.53,2.53,0,0,0,.62-.51l.51.62A2.09,2.09,0,0,1,90.13,453.82Zm-.1-5.13c-.41,0-.72.1-.82.41a2.16,2.16,0,0,0-.31,1.23h2.26v-.1a1.61,1.61,0,0,0-.31-1.13A.92.92,0,0,0,90,448.69Z"/><path class="cls-9" d="M30.56,454a2.16,2.16,0,0,1-1.64-.61,2.52,2.52,0,0,1-.62-1.85v-.72a3.46,3.46,0,0,1,.51-1.95,2,2,0,0,1,1.54-.72,2.09,2.09,0,0,1,1.54.62,3.38,3.38,0,0,1,.52,2v.62H29.22v.1a2.35,2.35,0,0,0,.31,1.33,1.09,1.09,0,0,0,1,.41,1.53,1.53,0,0,0,.72-.2,2.75,2.75,0,0,0,.61-.51l.52.61A2.07,2.07,0,0,1,30.56,454Zm-.1-5.13c-.41,0-.72.11-.83.41a2.24,2.24,0,0,0-.3,1.23h2.25v-.1a1.7,1.7,0,0,0-.3-1.13A1,1,0,0,0,30.46,448.88Z"/><path class="cls-9" d="M52.77,454a2.16,2.16,0,0,1-1.64-.61,2.52,2.52,0,0,1-.62-1.85v-.72a3.38,3.38,0,0,1,.52-1.95,2,2,0,0,1,1.54-.72,2.1,2.1,0,0,1,1.54.62,3.46,3.46,0,0,1,.51,2v.62H51.44v.1a2.36,2.36,0,0,0,.3,1.33,1.09,1.09,0,0,0,1,.41,1.53,1.53,0,0,0,.72-.2,2.79,2.79,0,0,0,.62-.51l.51.61A2.07,2.07,0,0,1,52.77,454Zm-.1-5.13c-.41,0-.72.11-.82.41a2.16,2.16,0,0,0-.31,1.23H53.8v-.1a1.64,1.64,0,0,0-.31-1.13A1,1,0,0,0,52.67,448.88Z"/><path class="cls-9" d="M37.19,451.29a3.68,3.68,0,0,1-.5,2,1.37,1.37,0,0,1-1.3.6,1.49,1.49,0,0,1-1.3-.6V456h-.9v-7.8H34v.6a1.36,1.36,0,0,1,1.3-.7,1.68,1.68,0,0,1,1.4.6,3.31,3.31,0,0,1,.5,1.9Zm-.9-.6a2.65,2.65,0,0,0-.3-1.4,1,1,0,0,0-.9-.4,1,1,0,0,0-1,.7v2.9a1.1,1.1,0,0,0,1,.6,1,1,0,0,0,.9-.4,2.42,2.42,0,0,0,.3-1.4Z"/><path class="cls-9" d="M43.87,453.36a1.46,1.46,0,0,1-1.29.59,1.25,1.25,0,0,1-1.09-.49,2.22,2.22,0,0,1-.4-1.49v-3.58H42v3.48c0,.89.3,1.29.8,1.29a1.07,1.07,0,0,0,1.09-.7v-4.07h.9v5.47h-.9Z"/><path class="cls-9" d="M46.69,448.24v.6a1.57,1.57,0,0,1,1.3-.7c1,0,1.5.7,1.5,2v3.7h-.9v-3.6a2,2,0,0,0-.2-.9.78.78,0,0,0-.7-.3,1.42,1.42,0,0,0-.6.2,1.27,1.27,0,0,0-.4.6v4h-.9v-5.5h.9Z"/><path class="cls-10" d="M27.21,453.84h-.92L23.22,448v5.83h-.93v-7.68h.93l3.07,5.94v-5.94h.92Z"/></g></g></svg>