<svg width="809" height="554" xmlns="http://www.w3.org/2000/svg"><defs><linearGradient x1="-10.325%" y1="50.016%" x2="95.374%" y2="49.98%" id="prefix__a"><stop stop-color="#355461" offset="0%"/><stop stop-color="#385B69" offset="5.704%"/><stop stop-color="#436F82" offset="27.06%"/><stop stop-color="#4A7E94" offset="49.33%"/><stop stop-color="#4F879F" offset="72.9%"/><stop stop-color="#508AA2" offset="100%"/></linearGradient><linearGradient x1="49.747%" y1="-.019%" x2="49.747%" y2="99.95%" id="prefix__b"><stop stop-color="#C62D48" offset="2%"/><stop stop-color="#D24F59" offset="86%"/></linearGradient><linearGradient x1=".022%" y1="50.232%" x2="100.001%" y2="50.232%" id="prefix__c"><stop stop-color="#C62D48" offset="2%"/><stop stop-color="#D24F59" offset="86%"/></linearGradient><linearGradient x1="100.006%" y1="50.232%" x2=".027%" y2="50.232%" id="prefix__d"><stop stop-color="#C62D48" offset="2%"/><stop stop-color="#D24F59" offset="86%"/></linearGradient><linearGradient x1="-10.318%" y1="50.016%" x2="95.419%" y2="49.98%" id="prefix__e"><stop stop-color="#355461" offset="0%"/><stop stop-color="#385B69" offset="5.704%"/><stop stop-color="#436F82" offset="27.06%"/><stop stop-color="#4A7E94" offset="49.33%"/><stop stop-color="#4F879F" offset="72.9%"/><stop stop-color="#508AA2" offset="100%"/></linearGradient><linearGradient x1="-10.295%" y1="50.016%" x2="95.403%" y2="49.981%" id="prefix__f"><stop stop-color="#355461" offset="0%"/><stop stop-color="#385B69" offset="5.704%"/><stop stop-color="#436F82" offset="27.06%"/><stop stop-color="#4A7E94" offset="49.33%"/><stop stop-color="#4F879F" offset="72.9%"/><stop stop-color="#508AA2" offset="100%"/></linearGradient></defs><g fill-rule="nonzero" fill="none"><path fill="#EFEFEF" d="M620.6 206.1h188v229.8h-188zM12.5 206.1h188v188.8h-188zM315.7 406.4h188v147.1h-188z"/><path fill="#FFF" d="M614.6 200.1h188v229.8h-188z"/><path fill="#B2B2B2" d="M803.6 430.9h-3.5v-2h1.5v-1.5h2zM794.6 430.9h-5v-2h5v2zm-10.4 0h-5v-2h5v2zm-10.5 0h-5v-2h5v2zm-10.4 0h-5v-2h5v2zm-10.5 0h-5v-2h5v2zm-10.4 0h-5v-2h5v2zm-10.5 0h-5v-2h5v2zm-10.4 0h-5v-2h5v2zm-10.4 0h-5v-2h5v2zm-10.5 0h-5v-2h5v2zm-10.4 0h-5v-2h5v2zm-10.5 0h-5v-2h5v2zm-10.4 0h-5v-2h5v2zm-10.5 0h-5v-2h5v2zm-10.4 0h-5v-2h5v2zm-10.4 0h-5v-2h5v2zm-10.5 0h-5v-2h5v2zM617.1 430.9h-3.5v-3.5h2v1.5h1.5zM615.6 421.9h-2v-5h2v5zm0-10.4h-2v-5h2v5zm0-10.5h-2v-5h2v5zm0-10.4h-2v-5h2v5zm0-10.5h-2v-5h2v5zm0-10.4h-2v-5h2v5zm0-10.5h-2v-5h2v5zm0-10.4h-2v-5h2v5zm0-10.4h-2v-5h2v5zm0-10.5h-2v-5h2v5zm0-10.4h-2v-5h2v5zm0-10.5h-2v-5h2v5zm0-10.4h-2v-5h2v5zm0-10.5h-2v-5h2v5zm0-10.4h-2v-5h2v5zm0-10.4h-2v-5h2v5zm0-10.5h-2v-5h2v5zm0-10.4h-2v-5h2v5zm0-10.5h-2v-5h2v5zm0-10.4h-2v-5h2v5zm0-10.5h-2v-5h2v5zM615.6 202.6h-2v-3.5h3.5v2h-1.5zM794.6 201.1h-5v-2h5v2zm-10.4 0h-5v-2h5v2zm-10.5 0h-5v-2h5v2zm-10.4 0h-5v-2h5v2zm-10.5 0h-5v-2h5v2zm-10.4 0h-5v-2h5v2zm-10.5 0h-5v-2h5v2zm-10.4 0h-5v-2h5v2zm-10.4 0h-5v-2h5v2zm-10.5 0h-5v-2h5v2zm-10.4 0h-5v-2h5v2zm-10.5 0h-5v-2h5v2zm-10.4 0h-5v-2h5v2zm-10.5 0h-5v-2h5v2zm-10.4 0h-5v-2h5v2zm-10.4 0h-5v-2h5v2zm-10.5 0h-5v-2h5v2zM803.6 202.6h-2v-1.5h-1.5v-2h3.5zM803.6 421.9h-2v-5h2v5zm0-10.4h-2v-5h2v5zm0-10.5h-2v-5h2v5zm0-10.4h-2v-5h2v5zm0-10.5h-2v-5h2v5zm0-10.4h-2v-5h2v5zm0-10.5h-2v-5h2v5zm0-10.4h-2v-5h2v5zm0-10.4h-2v-5h2v5zm0-10.5h-2v-5h2v5zm0-10.4h-2v-5h2v5zm0-10.5h-2v-5h2v5zm0-10.4h-2v-5h2v5zm0-10.5h-2v-5h2v5zm0-10.4h-2v-5h2v5zm0-10.4h-2v-5h2v5zm0-10.5h-2v-5h2v5zm0-10.4h-2v-5h2v5zm0-10.5h-2v-5h2v5zm0-10.4h-2v-5h2v5zm0-10.5h-2v-5h2v5z"/><path fill="#FFF" d="M6.5 200.1h188v188.8H6.5z"/><path fill="#B2B2B2" d="M195.5 389.9H192v-2h1.5v-1.5h2zM186.5 389.9h-5v-2h5v2zm-10.4 0h-5v-2h5v2zm-10.4 0h-5v-2h5v2zm-10.5 0h-5v-2h5v2zm-10.4 0h-5v-2h5v2zm-10.5 0h-5v-2h5v2zm-10.4 0h-5v-2h5v2zm-10.5 0h-5v-2h5v2zm-10.4 0h-5v-2h5v2zm-10.4 0h-5v-2h5v2zm-10.5 0h-5v-2h5v2zm-10.4 0h-5v-2h5v2zm-10.5 0h-5v-2h5v2zm-10.4 0h-5v-2h5v2zm-10.5 0h-5v-2h5v2zm-10.4 0h-5v-2h5v2zm-10.4 0h-5v-2h5v2zM9 389.9H5.5v-3.5h2v1.5H9zM7.5 380.9h-2v-5h2v5zm0-10.5h-2v-5h2v5zm0-10.5h-2v-5h2v5zm0-10.5h-2v-5h2v5zm0-10.5h-2v-5h2v5zm0-10.5h-2v-5h2v5zm0-10.4h-2v-5h2v5zm0-10.5h-2v-5h2v5zm0-10.5h-2v-5h2v5zm0-10.5h-2v-5h2v5zm0-10.5h-2v-5h2v5zm0-10.5h-2v-5h2v5zm0-10.5h-2v-5h2v5zm0-10.5h-2v-5h2v5zm0-10.4h-2v-5h2v5zm0-10.5h-2v-5h2v5zm0-10.5h-2v-5h2v5zM7.5 202.6h-2v-3.5H9v2H7.5zM186.5 201.1h-5v-2h5v2zm-10.4 0h-5v-2h5v2zm-10.4 0h-5v-2h5v2zm-10.5 0h-5v-2h5v2zm-10.4 0h-5v-2h5v2zm-10.5 0h-5v-2h5v2zm-10.4 0h-5v-2h5v2zm-10.5 0h-5v-2h5v2zm-10.4 0h-5v-2h5v2zm-10.4 0h-5v-2h5v2zm-10.5 0h-5v-2h5v2zm-10.4 0h-5v-2h5v2zm-10.5 0h-5v-2h5v2zm-10.4 0h-5v-2h5v2zm-10.5 0h-5v-2h5v2zm-10.4 0h-5v-2h5v2zm-10.4 0h-5v-2h5v2zM195.5 202.6h-2v-1.5H192v-2h3.5zM195.5 380.9h-2v-5h2v5zm0-10.5h-2v-5h2v5zm0-10.5h-2v-5h2v5zm0-10.5h-2v-5h2v5zm0-10.5h-2v-5h2v5zm0-10.5h-2v-5h2v5zm0-10.4h-2v-5h2v5zm0-10.5h-2v-5h2v5zm0-10.5h-2v-5h2v5zm0-10.5h-2v-5h2v5zm0-10.5h-2v-5h2v5zm0-10.5h-2v-5h2v5zm0-10.5h-2v-5h2v5zm0-10.5h-2v-5h2v5zm0-10.4h-2v-5h2v5zm0-10.5h-2v-5h2v5zm0-10.5h-2v-5h2v5z"/><path fill="#FFF" d="M309.7 400.4h188v147.1h-188z"/><path fill="#B2B2B2" d="M498.7 548.5h-3.5v-2h1.5V545h2zM489.8 548.5h-5v-2h5v2zm-10.5 0h-5v-2h5v2zm-10.4 0h-5v-2h5v2zm-10.5 0h-5v-2h5v2zm-10.4 0h-5v-2h5v2zm-10.5 0h-5v-2h5v2zm-10.4 0h-5v-2h5v2zm-10.4 0h-5v-2h5v2zm-10.5 0h-5v-2h5v2zm-10.4 0h-5v-2h5v2zm-10.5 0h-5v-2h5v2zm-10.4 0h-5v-2h5v2zm-10.5 0h-5v-2h5v2zm-10.4 0h-5v-2h5v2zm-10.4 0h-5v-2h5v2zm-10.5 0h-5v-2h5v2zm-10.4 0h-5v-2h5v2zM312.2 548.5h-3.5V545h2v1.5h1.5zM310.7 539.5h-2v-5h2v5zm0-10.5h-2v-5h2v5zm0-10.5h-2v-5h2v5zm0-10.5h-2v-5h2v5zm0-10.5h-2v-5h2v5zm0-10.5h-2v-5h2v5zm0-10.5h-2v-5h2v5zm0-10.5h-2v-5h2v5zm0-10.5h-2v-5h2v5zm0-10.5h-2v-5h2v5zm0-10.5h-2v-5h2v5zm0-10.6h-2v-5h2v5zm0-10.5h-2v-5h2v5zM310.7 402.9h-2v-3.5h3.5v2h-1.5zM489.8 401.4h-5v-2h5v2zm-10.5 0h-5v-2h5v2zm-10.4 0h-5v-2h5v2zm-10.5 0h-5v-2h5v2zm-10.4 0h-5v-2h5v2zm-10.5 0h-5v-2h5v2zm-10.4 0h-5v-2h5v2zm-10.4 0h-5v-2h5v2zm-10.5 0h-5v-2h5v2zm-10.4 0h-5v-2h5v2zm-10.5 0h-5v-2h5v2zm-10.4 0h-5v-2h5v2zm-10.5 0h-5v-2h5v2zm-10.4 0h-5v-2h5v2zm-10.4 0h-5v-2h5v2zm-10.5 0h-5v-2h5v2zm-10.4 0h-5v-2h5v2zM498.7 402.9h-2v-1.5h-1.5v-2h3.5zM498.7 539.5h-2v-5h2v5zm0-10.5h-2v-5h2v5zm0-10.5h-2v-5h2v5zm0-10.5h-2v-5h2v5zm0-10.5h-2v-5h2v5zm0-10.5h-2v-5h2v5zm0-10.5h-2v-5h2v5zm0-10.5h-2v-5h2v5zm0-10.5h-2v-5h2v5zm0-10.5h-2v-5h2v5zm0-10.5h-2v-5h2v5zm0-10.6h-2v-5h2v5zm0-10.5h-2v-5h2v5z"/><path fill="url(#prefix__a)" d="M613.6 149.5h190v52h-190z"/><path fill="#FFF" d="M662 173.7h-1.2v5.4h-2.6V166h2.6v5.3h1.2l4.4-5.3h3.3l-5.5 6.4 5.9 6.7h-3.4zM679.3 175.2c0 2.9-2 4.1-4.3 4.1s-4.3-1.2-4.3-4.1V170h2.5v5c0 1.5.8 2 1.9 2 1.1 0 1.9-.6 1.9-2v-5h2.4v5.2h-.1zM691.3 174.6c.2 2.5-1.7 4.6-4.2 4.8h-.2c-1.1 0-2.1-.4-2.7-1.2v1h-2.4v-13.5h2.4v5.4c.7-.8 1.6-1.2 2.7-1.2 2.5 0 4.5 2.1 4.4 4.6v.1zm-7.2 0c.1 1.3 1.2 2.3 2.5 2.2 1.3-.1 2.3-1.2 2.2-2.5-.1-1.2-1.1-2.2-2.3-2.2-1.3 0-2.3 1-2.3 2.3-.1 0-.1.1-.1.2zM701.8 174.6v.8h-6.5c.2 1.1 1.2 2 2.3 1.9.8 0 1.7-.3 2.3-.9l1.4 1.6c-1.1.9-2.5 1.4-3.9 1.4-2.6 0-4.8-2.2-4.7-4.9 0-2.5 2.1-4.6 4.6-4.7 2.7 0 4.4 1.9 4.5 4.8zm-6.5-.9h4c-.1-1.1-1.1-1.9-2.2-1.8-1 .1-1.7.8-1.8 1.8zM710 170l-.4 2.4c-.5-.2-1-.3-1.5-.3-1-.1-1.9.7-1.9 1.7v5.3h-2.5V170h2.4v1c.6-.8 1.6-1.3 2.6-1.2.4 0 .9 0 1.3.2zM720.3 173.3v5.8h-2.5v-5c0-1.3-.7-2-1.8-2-1 0-1.9.8-1.9 1.8v5.3h-2.5V170h2.4v1.1c.6-.9 1.6-1.4 2.7-1.3 1.9-.1 3.5 1.4 3.5 3.2.1.1.1.2.1.3zM731.2 174.6v.8h-6.5c.2 1.1 1.2 2 2.3 1.9.8 0 1.7-.3 2.3-.9l1.4 1.6c-1.1.9-2.5 1.4-3.9 1.4-2.6 0-4.8-2.2-4.7-4.9 0-2.5 2.1-4.6 4.6-4.7 2.7 0 4.5 1.9 4.5 4.8zm-6.5-.9h4c-.1-1.1-1.1-1.9-2.2-1.8-.9.1-1.7.8-1.8 1.8zM739.7 172.2h-3.3v3.3c0 1.1.6 1.6 1.4 1.6.6 0 1.2-.3 1.7-.6l.9 1.9c-.9.6-1.9 1-3 1-2.3 0-3.4-1.3-3.4-3.6v-3.5h-1.8V170h1.8v-2.7h2.5v2.7h3.3v2.2h-.1zM750.3 174.6v.8h-6.5c.2 1.1 1.2 2 2.3 1.9.8 0 1.7-.3 2.3-.9l1.4 1.6c-1.1.9-2.5 1.4-3.9 1.4-2.6 0-4.8-2.2-4.7-4.9 0-2.5 2.1-4.6 4.6-4.7 2.6 0 4.4 1.9 4.5 4.8zm-6.5-.9h4c-.1-1.1-1.1-1.9-2.2-1.8-1 .1-1.7.8-1.8 1.8zM758.7 172.6c-.9-.4-1.9-.7-2.9-.7-.9 0-1.4.3-1.4.8s.7.7 1.5.8l.8.1c2 .3 3.1 1.2 3.1 2.7 0 1.9-1.5 3.1-4.2 3.1-1.4 0-2.8-.3-4.1-1.1l1-1.9c.9.6 2 .9 3.1.9s1.7-.3 1.7-.9c0-.4-.5-.7-1.5-.8l-.7-.1c-2.1-.3-3.1-1.2-3.1-2.8 0-1.9 1.4-3 3.8-3 1.3 0 2.6.3 3.8.9l-.9 2z"/><path fill="url(#prefix__b)" d="M403.7 201.1l4.8-4.8h-3.6v-64.8h-2.4v64.8H399z"/><path fill="url(#prefix__c)" d="M610.1 93.1l-4.8-4.8v3.6H501.5v2.4h103.8v3.5z"/><path fill="url(#prefix__d)" d="M200.8 93.1l4.8 4.7v-3.5h103.8v-2.4H205.6v-3.6z"/><path d="M170.2 61c4.5-26.3-13.1-51.3-39.4-55.8-22.9-4-45.4 8.9-53.5 30.7-10.9-8.3-26.5-6.3-34.8 4.6-3.3 4.3-5.1 9.7-5.1 15.1v.2C17.2 58 2.5 76.2 4.6 96.5c2 18.8 17.9 33 36.7 33h120.4c19.2 0 34.8-15.6 34.8-34.8.1-15.9-10.8-29.8-26.3-33.7z" fill="#FFF"/><path d="M161.8 133.5H41.4c-21 0-38.5-15.7-40.7-36.6-1.2-10.9 2-21.6 8.8-30.1 6.1-7.6 14.6-12.7 24.1-14.5.6-5.2 2.6-10.2 5.8-14.3 4.7-6.1 11.5-10 19.1-11.1 5.9-.8 11.9.3 17.1 3 10.1-20.8 32.9-32.7 56-28.7 13.8 2.4 25.8 10 33.8 21.4 7.4 10.4 10.6 22.9 9.3 35.5 15.4 5.4 25.9 20 25.9 36.6 0 21.4-17.4 38.8-38.8 38.8zm-120.4-78v.3l.1 3.6-3.6.4c-8.8.9-16.6 5.2-22.1 12.1-5.5 6.9-8.1 15.4-7.2 24.1 1.8 16.8 15.9 29.4 32.8 29.4h120.4c8.2 0 15.9-3.2 21.7-9 5.8-5.8 9-13.5 9-21.8 0-14.1-9.6-26.4-23.3-29.8l-3.6-.9.6-3.7c2-11.7-.6-23.4-7.5-33.1-6.8-9.7-17-16.1-28.7-18.1-21-3.6-41.6 8.2-49.1 28.1L79 42.2 74.9 39c-4.4-3.4-9.9-4.8-15.4-4.1-5.5.7-10.4 3.6-13.8 8-2.7 3.6-4.2 8.1-4.3 12.6z" fill="#BBB"/><path d="M779.9 61c4.5-26.3-13.1-51.3-39.4-55.8-22.9-4-45.4 8.9-53.5 30.7-10.9-8.3-26.5-6.3-34.8 4.6-3.3 4.3-5.1 9.7-5.1 15.1v.2c-20.3 2.2-35 20.4-32.8 40.7 2 18.8 17.9 33 36.7 33h120.4c19.2 0 31.5-15.6 31.5-34.8.1-16.3-7.8-29.9-23-33.7z" fill="#FFF"/><path d="M771.5 133.5H651.1c-21 0-38.5-15.7-40.7-36.6-2.3-21.3 12.3-40.6 33-44.6.6-5.2 2.6-10.2 5.8-14.3 8.6-11.3 24-14.4 36.2-8.1 10.1-20.8 32.9-32.7 56-28.7 27.3 4.7 46 29.8 43.1 57C798.4 63.3 807 77 807 94.7c0 22.5-14.9 38.8-35.5 38.8zm-120.4-78v3.9l-3.6.4c-18 1.9-31.1 18.2-29.2 36.2 1.8 16.8 15.9 29.4 32.8 29.4h120.4c16.2 0 27.5-12.6 27.5-30.8 0-15.6-7.5-26.7-20.1-29.8l-3.6-.9.6-3.7c4.2-24.1-12-47.1-36.1-51.2-21-3.6-41.6 8.2-49.1 28.1l-1.9 5.1-4.3-3.3c-9.1-7-22.2-5.2-29.2 3.9-2.6 3.7-4.2 8.2-4.2 12.7z" fill="#BBB"/><path d="M70.5 74.2v6.5h-2.7V64.1h6.5c3.8 0 5.9 1.9 5.9 5.1 0 3.1-2.1 5.1-5.9 5.1h-3.8v-.1zm0-7.6v5h3.7c2.2 0 3.2-.8 3.2-2.5s-1-2.5-3.2-2.5h-3.7zM93.7 75.9c0 3.6-2.6 5.1-5.3 5.1-2.7 0-5.3-1.5-5.3-5.1v-6.6h2.5v6.3c0 2.2 1.2 3 2.8 3 1.6 0 2.8-.8 2.8-3v-6.3h2.5v6.6zM109.3 75c.2 3.2-2.3 5.8-5.4 6h-.3c-1.4.1-2.7-.6-3.6-1.7v1.4h-2.5V63.6h2.5v7.1a4.6 4.6 0 013.6-1.7c3.2 0 5.7 2.6 5.7 5.7v.3zm-9.5 0c.1 1.9 1.7 3.3 3.6 3.2 1.9-.1 3.3-1.7 3.2-3.6a3.4 3.4 0 00-3.4-3.2c-1.9 0-3.4 1.5-3.4 3.4v.2zM114.9 80.7h-2.5V63.6h2.5zM121.8 65.4c0 1-.8 1.7-1.7 1.7h-.1c-.9 0-1.7-.7-1.7-1.7v-.1c0-1 .7-1.7 1.7-1.8h.1c.9.1 1.7.9 1.7 1.9zm-.5 15.3h-2.5V69.3h2.5v11.4zM134.6 70.8l-1.6 1.7c-.7-.7-1.7-1.2-2.7-1.2-2 .2-3.5 1.9-3.4 4 .1 1.8 1.6 3.2 3.4 3.4 1 0 2-.5 2.8-1.2l1.5 1.7c-1.1 1.2-2.6 1.9-4.3 1.8-3.3 0-6-2.7-6-6s2.7-6 6-6c1.7 0 3.2.6 4.3 1.8zM83.4 95.8l-2.2 1.5c-1-1.5-2.8-2.4-4.7-2.4-3.3.1-6 2.9-5.9 6.2.1 3.2 2.7 5.8 5.9 5.9 1.9 0 3.6-.9 4.6-2.4l2.2 1.6c-1.6 2.2-4.1 3.5-6.8 3.4-4.8 0-8.7-3.8-8.7-8.6s3.8-8.7 8.6-8.7h.2c2.6-.1 5.2 1.2 6.8 3.5zM89.1 109.3h-2.5V92.1h2.5zM104.4 103.6c.1 3.4-2.6 6.2-6 6.3-3.4.1-6.2-2.6-6.3-6-.1-3.4 2.6-6.2 6-6.3h.1c3.3-.1 6 2.4 6.1 5.7.1.1.1.2.1.3zm-9.7 0c0 2 1.7 3.5 3.7 3.5s3.5-1.7 3.5-3.7c0-1.9-1.6-3.5-3.6-3.5-1.9 0-3.5 1.5-3.6 3.4v.3zM118 104.4c0 3.6-2.6 5.1-5.3 5.1-2.7 0-5.3-1.5-5.3-5.1v-6.6h2.5v6.3c0 2.2 1.2 3 2.8 3 1.6 0 2.8-.8 2.8-3v-6.3h2.5v6.6zM130.2 99.3v-7.1h2.5v17.1h-2.5v-1.4a4.6 4.6 0 01-3.6 1.7c-3.3-.2-5.9-3-5.7-6.3.2-3.1 2.6-5.5 5.7-5.7 1.4-.1 2.7.6 3.6 1.7zm-6.7 4.3c.1 1.9 1.7 3.3 3.6 3.2 1.9-.1 3.3-1.7 3.2-3.6a3.4 3.4 0 00-3.4-3.2c-1.9 0-3.4 1.5-3.4 3.4v.2z" fill="#000"/><path d="M473.5 61c4.5-26.3-13.1-51.3-39.4-55.8-22.9-4-45.4 8.9-53.5 30.7-10.9-8.3-26.5-6.3-34.8 4.6-3.3 4.3-5.1 9.7-5.1 15.1v.2c-20.3 2.2-35 20.4-32.8 40.7 2 18.8 17.9 33 36.7 33H465c19.2 0 34.8-15.6 34.8-34.8 0-15.9-10.9-29.8-26.3-33.7z" fill="#FFF"/><path d="M465 133.5H344.6c-21 0-38.5-15.7-40.7-36.6-1.2-10.9 2-21.6 8.8-30.1 6.1-7.6 14.6-12.7 24.1-14.5.6-5.2 2.6-10.2 5.8-14.3 4.7-6.1 11.5-10 19.1-11.1 5.9-.8 11.9.3 17.1 3 10.1-20.8 32.9-32.7 56-28.7 13.8 2.4 25.8 10 33.8 21.4 7.4 10.4 10.6 22.9 9.3 35.5 15.4 5.4 25.9 20 25.9 36.6 0 10.4-4 20.1-11.4 27.4-7.3 7.4-17 11.4-27.4 11.4zm-120.3-78v.3l.1 3.6-3.6.4c-8.8.9-16.6 5.2-22.1 12.1-5.5 6.9-8.1 15.4-7.1 24.2 1.8 16.8 15.9 29.4 32.8 29.4H465c8.2 0 15.9-3.2 21.7-9 5.8-5.8 9-13.5 9-21.8 0-14.1-9.6-26.4-23.3-29.8l-3.6-.9.6-3.7c2-11.7-.6-23.4-7.5-33.1-6.8-9.7-17-16.1-28.7-18.1-21-3.6-41.6 8.2-49.1 28.1l-1.9 5.1-4.3-3.3c-4.4-3.4-9.9-4.8-15.4-4.1-5.5.7-10.4 3.6-13.8 8-2.5 3.6-4 8.1-4 12.6z" fill="#BBB"/><path fill="#000" d="M369.5 68.1h9v-7h2.7v16.7h-2.7v-7.1h-9v7.1h-2.7V61.1h2.7zM387.4 82.6h-2.8l4.1-7.2-5.1-9.1h2.8l3.7 6.5 3.5-6.5h2.7zM410.3 72c.2 3.2-2.3 5.8-5.4 6h-.3c-1.4.1-2.7-.6-3.6-1.7v1.4h-2.5V60.6h2.5v7.1a4.6 4.6 0 013.6-1.7c3.2 0 5.7 2.6 5.7 5.7v.3zm-9.5 0c.1 1.9 1.7 3.3 3.6 3.2 1.9-.1 3.3-1.7 3.2-3.6a3.4 3.4 0 00-3.4-3.2c-1.9 0-3.4 1.5-3.4 3.4v.2zM421 66.3l-.6 2.5c-.6-.3-1.2-.4-1.9-.4-1.6 0-2.7 1.1-2.7 3.1v6.3h-2.5V66.3h2.5v1.3c.8-1.1 2-1.7 3.3-1.6.7 0 1.3.1 1.9.3zM426.6 62.4c0 1-.8 1.7-1.7 1.7h-.1c-.9 0-1.7-.7-1.7-1.7v-.1c0-1 .7-1.7 1.7-1.8h.1c.9.1 1.7.9 1.7 1.9zm-.5 15.3h-2.5V66.3h2.5v11.4zM438.4 67.7v-7.1h2.5v17.1h-2.5v-1.4a4.6 4.6 0 01-3.6 1.7c-3.3-.2-5.9-3-5.7-6.3.2-3.1 2.6-5.5 5.7-5.7 1.4 0 2.8.6 3.6 1.7zm-6.7 4.3c.1 1.9 1.7 3.3 3.6 3.2 1.9-.1 3.3-1.7 3.2-3.6a3.4 3.4 0 00-3.4-3.2c-1.9 0-3.4 1.5-3.4 3.4v.2zM386.6 92.8l-2.2 1.5c-1-1.5-2.8-2.4-4.7-2.4-3.3.1-6 2.9-5.9 6.2.1 3.2 2.7 5.8 5.9 5.9 1.9 0 3.6-.9 4.6-2.4l2.2 1.6c-1.6 2.2-4.1 3.5-6.8 3.4-4.8 0-8.7-3.8-8.7-8.6s3.8-8.7 8.6-8.7h.2c2.6-.1 5.2 1.2 6.8 3.5zM392.3 106.3h-2.5V89.1h2.5zM407.6 100.6c.1 3.4-2.6 6.2-6 6.3-3.4.1-6.2-2.6-6.3-6-.1-3.4 2.6-6.2 6-6.3h.1c3.3-.1 6 2.4 6.1 5.7.1.1.1.2.1.3zm-9.7 0c0 2 1.7 3.5 3.7 3.5s3.5-1.7 3.5-3.7c0-1.9-1.6-3.5-3.6-3.5-1.9 0-3.5 1.5-3.6 3.4v.3zM421.2 101.4c0 3.6-2.6 5.1-5.3 5.1-2.7 0-5.3-1.5-5.3-5.1v-6.6h2.5v6.3c0 2.2 1.2 3 2.8 3 1.6 0 2.8-.8 2.8-3v-6.3h2.5v6.6zM433.4 96.3v-7.1h2.5v17.1h-2.5v-1.4a4.6 4.6 0 01-3.6 1.7c-3.3-.2-5.9-3-5.7-6.3.2-3.1 2.6-5.5 5.7-5.7 1.4-.1 2.8.6 3.6 1.7zm-6.7 4.3c.1 1.9 1.7 3.3 3.6 3.2 1.9-.1 3.3-1.7 3.2-3.6a3.4 3.4 0 00-3.4-3.2c-1.9 0-3.4 1.5-3.4 3.4v.2z"/><path d="M473.5 261c4.5-26.3-13.1-51.3-39.4-55.8-22.9-4-45.4 8.9-53.5 30.7-10.9-8.3-26.5-6.3-34.8 4.6-3.3 4.3-5.1 9.7-5.1 15.1v.2c-20.3 2.2-35 20.4-32.8 40.7 2 18.8 17.9 33 36.7 33H465c19.2 0 34.8-15.6 34.8-34.8 0-15.9-10.9-29.8-26.3-33.7z" fill="#FFF"/><path d="M465 333.5H344.6c-21 0-38.5-15.7-40.7-36.6-1.2-10.9 2-21.6 8.8-30.1 6.1-7.6 14.6-12.7 24.1-14.5.6-5.2 2.6-10.2 5.8-14.3 8.6-11.3 24-14.4 36.2-8.1 10.1-20.8 32.9-32.7 56-28.7 13.8 2.4 25.8 10 33.8 21.4 7.4 10.4 10.6 22.9 9.3 35.5 15.4 5.4 25.9 20 25.9 36.6 0 10.4-4 20.1-11.4 27.4-7.3 7.4-17 11.4-27.4 11.4zm-120.3-78v.3l.1 3.6-3.6.4c-8.8.9-16.6 5.2-22.1 12.1-5.5 6.9-8.1 15.4-7.1 24.2 1.8 16.8 15.9 29.4 32.8 29.4H465c8.2 0 15.9-3.2 21.7-9 5.8-5.8 9-13.5 9-21.8 0-14.1-9.6-26.4-23.3-29.8l-3.6-.9.6-3.7c2-11.7-.6-23.4-7.5-33.1-6.8-9.7-17-16.1-28.7-18.1-21-3.6-41.6 8.2-49.1 28.1l-1.9 5.1-4.3-3.3c-9.1-7-22.2-5.2-29.2 3.9-2.5 3.6-4 8.1-4 12.6z" fill="#BBB"/><path fill="#000" d="M388.7 277.7h-12.2V261h12v2.5h-9.3v4.5h9v2.5h-9v4.6h9.5zM400.8 267.7v-7.1h2.5v17.1h-2.5v-1.4a4.6 4.6 0 01-3.6 1.7c-3.3-.2-5.9-3-5.7-6.3.2-3.1 2.6-5.5 5.7-5.7 1.4 0 2.7.6 3.6 1.7zM394 272c.1 1.9 1.7 3.3 3.6 3.2 1.9-.1 3.3-1.7 3.2-3.6a3.4 3.4 0 00-3.4-3.2c-1.9 0-3.4 1.5-3.4 3.4v.2zM415.4 267.7v-1.4h2.5v10.6c0 3.6-2.3 5.8-6.1 5.8-1.7 0-3.3-.4-4.8-1.3l.9-2.1c1.2.7 2.5 1.1 3.9 1.2 2.3 0 3.6-1.3 3.6-3.4v-.9c-.9 1.1-2.3 1.8-3.8 1.7-2.6 0-5.3-2.2-5.3-5.9s2.7-5.9 5.3-5.9c1.5-.2 2.9.5 3.8 1.6zm-6.5 4.2c.1 1.9 1.7 3.3 3.5 3.2 1.9-.1 3.3-1.7 3.2-3.5a3.4 3.4 0 00-3.4-3.2c-1.8 0-3.3 1.4-3.4 3.3.1 0 .1.1.1.2zM432.1 272v.9h-8.4c.2 1.7 1.7 3 3.4 2.9 1.2 0 2.4-.4 3.3-1.2l1.2 1.8c-1.3 1.1-3 1.7-4.7 1.6-3.1.1-5.7-2.3-5.8-5.4v-.6c0-3.6 2.3-6 5.7-6 3.1 0 5.3 2.5 5.3 6zm-8.5-1h5.9c-.3-1.8-1.3-2.8-2.9-2.8-1.6 0-2.9 1.2-3 2.8zM386.6 292.8l-2.2 1.5c-1-1.5-2.8-2.4-4.7-2.4-3.3.1-6 2.9-5.9 6.2.1 3.2 2.7 5.8 5.9 5.9 1.9 0 3.6-.9 4.6-2.4l2.2 1.6c-1.6 2.2-4.1 3.5-6.8 3.4-4.8 0-8.7-3.8-8.7-8.6s3.8-8.7 8.6-8.7h.2c2.6-.1 5.2 1.2 6.8 3.5zM392.3 306.3h-2.5v-17.1h2.5zM407.6 300.6c.1 3.4-2.6 6.2-6 6.3-3.4.1-6.2-2.6-6.3-6-.1-3.4 2.6-6.2 6-6.3h.1c3.3-.1 6 2.4 6.1 5.7.1.1.1.2.1.3zm-9.7 0c0 2 1.7 3.5 3.7 3.5s3.5-1.7 3.5-3.7c0-1.9-1.6-3.5-3.6-3.5-1.9 0-3.5 1.5-3.6 3.4v.3zM421.2 301.4c0 3.6-2.6 5.1-5.3 5.1-2.7 0-5.3-1.5-5.3-5.1v-6.6h2.5v6.3c0 2.2 1.2 3 2.8 3 1.6 0 2.8-.8 2.8-3v-6.3h2.5v6.6zM433.4 296.3v-7.1h2.5v17.1h-2.5v-1.4a4.6 4.6 0 01-3.6 1.7c-3.3-.2-5.9-3-5.7-6.3.2-3.1 2.6-5.5 5.7-5.7 1.4-.1 2.8.6 3.6 1.7zm-6.7 4.3c.1 1.9 1.7 3.3 3.6 3.2 1.9-.1 3.3-1.7 3.2-3.6a3.4 3.4 0 00-3.4-3.2c-1.9 0-3.4 1.5-3.4 3.4v.2zM671.6 71.2v6.5h-2.7V61.1h6.5c3.8 0 5.9 1.9 5.9 5.1 0 3.1-2.1 5.1-5.9 5.1h-3.8v-.1zm0-7.6v5h3.7c2.2 0 3.2-.8 3.2-2.5s-1-2.5-3.2-2.5h-3.7zM692 66.3l-.6 2.5c-.6-.3-1.2-.4-1.9-.4-1.6 0-2.7 1.1-2.7 3.1v6.3h-2.5V66.3h2.5v1.3c.8-1.1 2-1.7 3.3-1.6.7 0 1.3.1 1.9.3zM697.6 62.4c0 1-.8 1.7-1.7 1.7h-.1c-.9 0-1.7-.7-1.7-1.7v-.1c0-1 .7-1.7 1.7-1.8h.1c.9.1 1.6.9 1.7 1.9zm-.5 15.3h-2.5V66.3h2.5v11.4zM706.8 77.7h-3l-4.6-11.4h2.7l3.4 8.8 3.4-8.8h2.6zM724.4 77.7h-2.5v-1.4a4.6 4.6 0 01-3.6 1.7c-3.3-.2-5.9-3-5.7-6.3.2-3.1 2.6-5.5 5.7-5.7 1.4-.1 2.7.6 3.6 1.7v-1.4h2.5v11.4zm-9.2-5.7c.1 1.9 1.7 3.3 3.6 3.2 1.9-.1 3.3-1.7 3.2-3.6a3.4 3.4 0 00-3.4-3.2c-1.9 0-3.4 1.5-3.4 3.4v.2zM736.1 68.6h-4.4v5c0 1.5.8 2.1 1.8 2.1.8 0 1.6-.3 2.3-.8l1 2c-1 .7-2.2 1.1-3.5 1.1-2.6 0-4.1-1.4-4.1-4.4v-5H727v-2.3h2.3v-3.5h2.5v3.5h4.4v2.3h-.1zM749.4 72v.9H741c.2 1.7 1.7 3 3.4 2.9 1.2 0 2.4-.4 3.3-1.2l1.2 1.8c-1.3 1.1-3 1.7-4.7 1.6-3.1.1-5.7-2.3-5.8-5.4V72c0-3.6 2.3-6 5.7-6 3.1 0 5.3 2.5 5.3 6zm-8.5-1h5.9c-.3-1.8-1.3-2.8-2.9-2.8-1.6 0-2.9 1.2-3 2.8zM691.4 92.8l-2.2 1.5c-1-1.5-2.8-2.4-4.7-2.4-3.3.1-6 2.9-5.9 6.2.1 3.2 2.7 5.8 5.9 5.9 1.9 0 3.6-.9 4.6-2.4l2.2 1.6c-1.6 2.2-4.1 3.5-6.8 3.4-4.8 0-8.7-3.8-8.7-8.6s3.8-8.7 8.6-8.7h.2c2.7-.1 5.3 1.2 6.8 3.5zM697.1 106.3h-2.5V89.1h2.5zM712.5 100.6c.1 3.4-2.6 6.2-6 6.3-3.4.1-6.2-2.6-6.3-6-.1-3.4 2.6-6.2 6-6.3h.1c3.3-.1 6 2.4 6.1 5.7.1.1.1.2.1.3zm-9.7 0c0 2 1.7 3.5 3.7 3.5s3.5-1.7 3.5-3.7c0-1.9-1.6-3.5-3.6-3.5-1.9 0-3.5 1.5-3.6 3.4v.3zM726 101.4c0 3.6-2.6 5.1-5.3 5.1-2.7 0-5.3-1.5-5.3-5.1v-6.6h2.5v6.3c0 2.2 1.2 3 2.8 3 1.6 0 2.8-.8 2.8-3v-6.3h2.5v6.6zM738.3 96.3v-7.1h2.5v17.1h-2.5v-1.4a4.6 4.6 0 01-3.6 1.7c-3.3-.2-5.9-3-5.7-6.3.2-3.1 2.6-5.5 5.7-5.7 1.4-.1 2.7.6 3.6 1.7zm-6.8 4.3c.1 1.9 1.7 3.3 3.6 3.2 1.9-.1 3.3-1.7 3.2-3.6a3.4 3.4 0 00-3.4-3.2c-1.9 0-3.4 1.5-3.4 3.4v.2z"/><path d="M691 225.5h5.6v16.4H691v-16.4zm-6.8.1l-11.4 6.9c-.2.1-.4.1-.5 0l-11.4-6.9c-.2-.1-.5-.2-.8-.2-.9 0-1.6.7-1.6 1.6v14.9h5.6v-7.1c0-.3.2-.6.6-.6.1 0 .2 0 .3.1l6.4 3.9c.6.4 1.4.4 2.1 0l6.7-3.9c.3-.2.6-.1.8.2.1.1.1.2.1.3v7.1h5.6V227c0-.9-.7-1.6-1.6-1.6-.4 0-.6.1-.9.2zm40.3-.1h-5.7v7.5c0 .3-.3.6-.6.6-.1 0-.2 0-.3-.1l-14.7-7.8c-.2-.1-.5-.2-.7-.2-.9 0-1.6.7-1.6 1.6V242h5.6v-7.4c0-.3.2-.6.6-.6.1 0 .2 0 .3.1l14.8 7.8c.8.4 1.7.1 2.1-.6.1-.2.2-.5.2-.7v-15.1zm4.6 16.4v-16.4h2.6v16.4h-2.6zm17.6.3c-6.9 0-11.9-3.3-11.9-8.6 0-5.2 4.9-8.6 11.9-8.6s11.9 3.3 11.9 8.6-4.9 8.6-11.9 8.6zm0-14.9c-5.2 0-9.1 2.3-9.1 6.4 0 4.1 4 6.4 9.1 6.4 5.2 0 9.2-2.2 9.2-6.4-.1-4.2-4.1-6.4-9.2-6.4z" fill="#C62D48"/><path d="M679.5 387.7c2.9 0 4.5 1.3 4.5 3.6 0 2.1-1.6 3.6-4.2 3.7l4.2 5.3h-2.5l-4-5.3h-1v5.3h-2v-12.6h5zm-3.1 1.9v3.5h3.1c1.6 0 2.4-.6 2.4-1.8 0-1.2-.8-1.7-2.4-1.7h-3.1zM694.4 400.3h-1.9v-1c-.6.8-1.7 1.3-2.7 1.3-2.5-.1-4.4-2.3-4.3-4.8.1-2.3 2-4.2 4.3-4.3 1.1 0 2.1.4 2.7 1.3v-1h1.9v8.5zm-7-4.3c.1 1.4 1.3 2.5 2.8 2.4 1.4-.1 2.5-1.3 2.4-2.8-.1-1.4-1.2-2.4-2.6-2.4-1.4 0-2.6 1.1-2.6 2.6v.2zM705.4 394.9v5.4h-1.9v-4.8c0-1.4-.7-2.3-2-2.3-1.2-.1-2.2.9-2.2 2v5h-1.9v-8.6h1.9v1.1c.6-.8 1.6-1.3 2.6-1.3 1.8-.1 3.4 1.3 3.5 3.1v.4zM715.4 392.9l-1.2 1.3c-.5-.6-1.3-.9-2.1-.9-1.5.1-2.7 1.5-2.5 3 .1 1.4 1.2 2.4 2.5 2.5.8 0 1.5-.3 2.1-.9l1.2 1.3c-.8.9-2 1.4-3.2 1.4-2.5 0-4.5-2-4.5-4.5s2-4.5 4.5-4.5c1.2-.2 2.4.3 3.2 1.3zM719.4 392.7c.6-.8 1.6-1.3 2.6-1.3 1.8-.1 3.4 1.3 3.5 3.1v5.7h-1.9v-4.8c0-1.4-.7-2.3-2-2.3-1.2-.1-2.2.9-2.2 2v5h-1.9v-13h1.9v5.6zM736.1 396v.7h-6.4c.1 1.3 1.3 2.3 2.6 2.2.9 0 1.8-.3 2.5-.9l.9 1.3c-1 .8-2.3 1.3-3.5 1.2-2.3.1-4.3-1.7-4.4-4.1v-.5c-.2-2.3 1.5-4.3 3.9-4.5h.4c2.3.1 4 1.9 4 4.6zm-6.4-.7h4.5c0-1.2-1-2.1-2.2-2.1-1.2-.1-2.2.9-2.3 2.1zM744.3 391.7l-.5 1.9c-.4-.2-.9-.3-1.4-.3-1.1 0-2.1.9-2.1 2v5h-1.9v-8.6h1.9v1c.6-.8 1.5-1.3 2.5-1.2.5 0 1 .1 1.5.2zM651.3 278.4h-2.5l-4.8-12.6h2.2l3.9 10.5 4-10.5h2.1zM671.6 278.4h-2V268l-3.7 9.1h-2.1l-3.7-9v10.3h-2v-12.6h3.1l3.7 9 3.7-9h3.1zM684.1 276.3l2-6.6h2l-2.9 8.6H683l-2.1-6.5-2.1 6.5h-2.2l-2.9-8.6h2l2 6.6 2.1-6.6h2.1zM698.2 278.4h-1.9v-1c-.6.8-1.7 1.3-2.7 1.3-2.5-.1-4.4-2.3-4.3-4.8.1-2.3 2-4.2 4.3-4.3 1.1 0 2.1.4 2.7 1.3v-1h1.9v8.5zm-7-4.3c.1 1.4 1.3 2.5 2.8 2.4 1.5-.1 2.5-1.3 2.4-2.8-.1-1.4-1.2-2.4-2.6-2.4-1.4 0-2.6 1.1-2.6 2.6v.2zM706.9 269.8l-.5 1.9c-.4-.2-.9-.3-1.4-.3-1.1 0-2.1.9-2.1 2v5H701v-8.6h1.9v1c.6-.8 1.5-1.3 2.5-1.2.6-.1 1.1 0 1.5.2zM716.2 274.1v.7h-6.4c.1 1.3 1.3 2.3 2.6 2.2.9 0 1.8-.3 2.5-.9l.9 1.3c-1 .8-2.3 1.3-3.5 1.2-2.3.1-4.3-1.7-4.4-4.1v-.5c-.2-2.3 1.5-4.3 3.9-4.5h.4c2.4 0 4 1.9 4 4.6zm-6.4-.8h4.5c0-1.2-1-2.1-2.2-2.1-1.2 0-2.2.9-2.3 2.1zM732.2 267.7h-4.1v10.7h-2v-10.7H722v-1.9h10.2zM741 278.4h-1.9v-1c-.6.8-1.7 1.3-2.7 1.3-2.5-.1-4.4-2.3-4.3-4.8.1-2.3 2-4.2 4.3-4.3 1.1 0 2.1.4 2.7 1.3v-1h1.9v8.5zm-7-4.3c.1 1.4 1.3 2.5 2.8 2.4 1.4-.1 2.5-1.3 2.4-2.8-.1-1.4-1.2-2.4-2.6-2.4-1.4 0-2.6 1.1-2.6 2.6v.2zM751.9 273v5.4H750v-4.8c0-1.4-.7-2.3-2-2.3-1.2-.1-2.2.9-2.2 2v5h-1.9v-8.6h1.9v1.1c.6-.8 1.6-1.3 2.6-1.3 1.8-.1 3.4 1.3 3.5 3.1v.4zM761.6 271.1l-4.7 5.5h4.8v1.7h-7.3V277l4.8-5.5h-4.6v-1.7h7.1zM772.1 274.7c-.1 2.2-1.9 3.9-4.1 3.9-2.1-.1-3.8-1.8-3.9-3.9v-5h1.9v4.8c0 1.7.9 2.3 2.1 2.3 1.2 0 2.1-.6 2.1-2.3v-4.8h1.9v5zM633.2 306.4c2.9 0 4.5 1.3 4.5 3.6 0 2.1-1.6 3.6-4.2 3.7l4.2 5.3h-2.5l-4-5.3h-1v5.3h-2v-12.6h5zm-3.2 1.9v3.5h3.1c1.6 0 2.4-.6 2.4-1.8 0-1.2-.8-1.7-2.4-1.7H630zM647.5 314.7v.7h-6.4c.1 1.3 1.3 2.3 2.6 2.2.9 0 1.8-.3 2.5-.9l.9 1.3c-1 .8-2.3 1.3-3.5 1.2-2.3.1-4.3-1.7-4.4-4.1v-.5c-.2-2.3 1.5-4.3 3.9-4.5h.4c2.4.1 4 1.9 4 4.6zm-6.4-.7h4.5c0-1.2-1-2.1-2.2-2.1-1.2-.1-2.2.9-2.3 2.1zM656.3 311.4V306h1.9v13h-1.9v-1c-.6.8-1.7 1.3-2.7 1.3-2.5-.1-4.4-2.3-4.3-4.8.1-2.3 2-4.2 4.3-4.3 1-.1 2 .4 2.7 1.2zm-5.1 3.3c.1 1.4 1.3 2.5 2.8 2.4 1.4-.1 2.5-1.3 2.4-2.8-.1-1.4-1.2-2.4-2.6-2.4-1.4 0-2.6 1.1-2.6 2.6v.2zM668.2 311.7h6.8v-5.3h2V319h-2v-5.4h-6.8v5.4h-2v-12.6h2zM688.5 319h-1.9v-1c-.6.8-1.7 1.3-2.7 1.3-2.5-.1-4.4-2.3-4.3-4.8.1-2.3 2-4.2 4.3-4.3 1.1 0 2.1.4 2.7 1.3v-1h1.9v8.5zm-6.9-4.3c.1 1.4 1.3 2.5 2.8 2.4 1.4-.1 2.5-1.3 2.4-2.8-.1-1.4-1.2-2.4-2.6-2.4-1.4 0-2.6 1.1-2.6 2.6-.1.1-.1.1 0 .2zM697.3 312.1H694v3.8c0 1.2.6 1.6 1.4 1.6.6 0 1.2-.2 1.7-.6l.7 1.5c-.8.5-1.7.8-2.6.9-2 0-3.1-1.1-3.1-3.3v-3.8h-1.7v-1.7h1.7v-2.6h1.9v2.6h3.3v1.6zM717.2 312.7c0 3.6-2.9 6.6-6.5 6.7-3.6 0-6.6-2.9-6.7-6.5 0-3.6 2.9-6.6 6.5-6.7h.1c3.5-.1 6.5 2.6 6.6 6.1.1.1.1.3 0 .4zm-11 0c.1 2.5 2.1 4.4 4.6 4.3 2.5-.1 4.4-2.1 4.3-4.6-.1-2.4-2-4.4-4.5-4.4-2.4-.1-4.4 1.8-4.5 4.2.1.3.1.4.1.5zM728.6 314.7c.1 2.4-1.7 4.4-4.1 4.5h-.2c-1 0-2.1-.4-2.7-1.3v4.6h-1.9v-12.2h1.9v1c.6-.8 1.7-1.3 2.7-1.3 2.4 0 4.3 1.9 4.3 4.3v.4zm-7.1 0c.1 1.4 1.3 2.5 2.8 2.4 1.4-.1 2.5-1.3 2.4-2.8-.1-1.4-1.2-2.4-2.6-2.4-1.4 0-2.6 1.1-2.6 2.6v.2zM738.7 314.7v.7h-6.4c.1 1.3 1.3 2.3 2.6 2.2.9 0 1.8-.3 2.5-.9l.9 1.3c-1 .8-2.3 1.3-3.5 1.2-2.3.1-4.3-1.7-4.4-4.1v-.5c-.2-2.3 1.5-4.3 3.9-4.5h.4c2.4.1 4 1.9 4 4.6zm-6.4-.7h4.5c0-1.2-1-2.1-2.2-2.1-1.2-.1-2.2.9-2.3 2.1zM749.1 313.6v5.4h-1.9v-4.8c0-1.4-.7-2.3-2-2.3-1.2-.1-2.2.9-2.2 2v5h-1.9v-8.6h1.9v1.1c.6-.8 1.6-1.3 2.6-1.3 1.8-.1 3.4 1.3 3.5 3.1v.4zM757.8 312.6c-.8-.5-1.7-.7-2.7-.7-1 0-1.6.4-1.6 1s.6.8 1.4.9l.9.1c1.9.3 3 1.1 3 2.5 0 1.7-1.4 2.8-3.9 2.8-1.3 0-2.6-.4-3.7-1.1l.9-1.4c.8.6 1.8.9 2.8.9 1.3 0 2-.4 2-1.1 0-.5-.5-.8-1.5-1l-.9-.1c-1.9-.3-2.9-1.1-2.9-2.5 0-1.7 1.4-2.8 3.6-2.8 1.2 0 2.4.3 3.5.9l-.9 1.6zM762.9 311.4c.6-.8 1.6-1.3 2.6-1.3 1.8-.1 3.4 1.3 3.5 3.1v5.7h-1.9v-4.8c0-1.4-.7-2.3-2-2.3-1.2-.1-2.2.9-2.2 2v5H761v-13h1.9v5.6zM774.2 307.4c0 .7-.6 1.3-1.3 1.3-.7 0-1.3-.5-1.3-1.3v-.1c0-.7.6-1.3 1.3-1.3.7.1 1.3.7 1.3 1.4zm-.4 11.6h-1.9v-8.6h1.9v8.6zM782.3 312.1h-3v6.9h-1.9v-6.9h-1.7v-1.7h1.7v-1.5c0-1.7.9-3.1 2.9-3.1.8 0 1.7.2 2.4.6l-.7 1.6c-.5-.3-1-.4-1.6-.5-.7 0-1.1.5-1.1 1.3v1.5h3v1.8zM790 312.1h-3.3v3.8c0 1.2.6 1.6 1.4 1.6.6 0 1.2-.2 1.7-.6l.7 1.5c-.8.5-1.7.8-2.6.9-2 0-3.1-1.1-3.1-3.3v-3.8h-1.7v-1.7h1.7v-2.6h1.9v2.6h3.3v1.6zM654.6 352.4h6.8v-5.3h2v12.6h-2v-5.4h-6.8v5.4h-2v-12.6h2zM668.9 354.7v5h-2v-12.6h4.9c2.9 0 4.5 1.5 4.5 3.8 0 2.4-1.6 3.8-4.5 3.8h-2.9zm0-5.7v3.8h2.8c1.6 0 2.4-.6 2.4-1.9 0-1.3-.8-1.9-2.4-1.9h-2.8zM687.9 359.7h-9.2v-12.6h9.1v1.9h-7v3.4h6.8v1.9h-6.8v3.5h7.2zM705 359.7h-9.2v-12.6h9.1v1.9h-7v3.4h6.8v1.9h-6.8v3.5h7.2v1.9zM714.7 352.4L710 358h4.8v1.7h-7.3v-1.4l4.8-5.5h-4.6v-1.7h7.1zM731.4 354.3v5.4h-1.9v-4.8c0-1.4-.7-2.3-2-2.3-1.2-.1-2.2.9-2.2 2v5h-1.9v-4.8c0-1.4-.7-2.3-2-2.3-1.2-.1-2.2.9-2.2 2v5h-1.9v-8.6h1.9v1.1c.6-.8 1.6-1.3 2.6-1.3 1.2 0 2.3.5 3 1.5.7-1 1.9-1.6 3.2-1.5 1.8-.1 3.4 1.3 3.5 3.1-.1.3-.1.4-.1.5zM742 355.4v.7h-6.4c.1 1.3 1.3 2.3 2.6 2.2.9 0 1.8-.3 2.5-.9l.9 1.3c-1 .8-2.3 1.3-3.5 1.2-2.3.1-4.3-1.7-4.4-4.1v-.5c-.2-2.3 1.5-4.3 3.9-4.5h.4c2.4 0 4 1.9 4 4.6zm-6.4-.8h4.5c0-1.2-1-2.1-2.2-2.1-1.2 0-2.2.9-2.3 2.1zM750.2 351.1l-.5 1.9c-.4-.2-.9-.3-1.4-.3-1.1 0-2.1.9-2.1 2v5h-1.9v-8.6h1.9v1c.6-.8 1.5-1.3 2.5-1.2.5-.1 1 0 1.5.2zM760 359.7h-1.9v-1c-.6.8-1.7 1.3-2.7 1.3-2.5-.1-4.4-2.3-4.3-4.8.1-2.3 2-4.2 4.3-4.3 1.1 0 2.1.4 2.7 1.3v-1h1.9v8.5zm-7-4.3c.1 1.4 1.3 2.5 2.8 2.4 1.4-.1 2.5-1.3 2.4-2.8-.1-1.4-1.2-2.4-2.6-2.4-1.4 0-2.6 1.1-2.6 2.6v.2zM764.8 359.7H763v-13h1.9v13z" fill="#000"/><path fill="url(#prefix__e)" d="M5.5 149.5h190v52H5.5z"/><path fill="#FFF" d="M54 173.7h-1.2v5.4h-2.6V166h2.6v5.3H54l4.4-5.3h3.3l-5.5 6.4 5.9 6.7h-3.4zM71.2 175.2c0 2.9-2 4.1-4.3 4.1s-4.3-1.2-4.3-4.1V170H65v5c0 1.5.8 2 1.9 2 1.1 0 1.9-.6 1.9-2v-5h2.4v5.2zM83.2 174.6c.2 2.5-1.7 4.6-4.2 4.8h-.2c-1.1 0-2.1-.4-2.7-1.2v1h-2.4v-13.5h2.4v5.4c.7-.8 1.6-1.2 2.7-1.2 2.5 0 4.5 2.1 4.4 4.6v.1zm-7.2 0c.1 1.3 1.2 2.3 2.5 2.2 1.3-.1 2.3-1.2 2.2-2.5-.1-1.2-1.1-2.2-2.3-2.2-1.3 0-2.3 1-2.3 2.3-.1 0-.1.1-.1.2zM93.7 174.6v.8h-6.5c.2 1.1 1.2 2 2.3 1.9.8 0 1.7-.3 2.3-.9l1.4 1.6c-1.1.9-2.5 1.4-3.9 1.4-2.6 0-4.8-2.2-4.7-4.9 0-2.5 2.1-4.6 4.6-4.7 2.7 0 4.5 1.9 4.5 4.8zm-6.5-.9h4c-.1-1.1-1.1-1.9-2.2-1.8-.9.1-1.7.8-1.8 1.8zM101.9 170l-.4 2.4c-.5-.2-1-.3-1.5-.3-1-.1-1.9.7-1.9 1.7v5.3h-2.5V170H98v1c.6-.8 1.6-1.3 2.6-1.2.5 0 .9 0 1.3.2zM112.2 173.3v5.8h-2.5v-5c0-1.3-.7-2-1.8-2-1 0-1.9.8-1.9 1.8v5.3h-2.5V170h2.4v1.1c.6-.9 1.6-1.4 2.7-1.3 1.9-.1 3.5 1.4 3.5 3.2.1.1.1.2.1.3zM123.2 174.6v.8h-6.5c.2 1.1 1.2 2 2.3 1.9.8 0 1.7-.3 2.3-.9l1.4 1.6c-1.1.9-2.5 1.4-3.9 1.4-2.6 0-4.8-2.2-4.7-4.9 0-2.5 2.1-4.6 4.6-4.7 2.7 0 4.5 1.9 4.5 4.8zm-6.5-.9h4c-.1-1.1-1.1-1.9-2.2-1.8-1 .1-1.7.8-1.8 1.8zM131.7 172.2h-3.3v3.3c0 1.1.6 1.6 1.4 1.6.6 0 1.2-.3 1.7-.6l.9 1.9c-.9.6-1.9 1-3 1-2.3 0-3.4-1.3-3.4-3.6v-3.5h-1.8V170h1.8v-2.7h2.5v2.7h3.3v2.2h-.1zM142.2 174.6v.8h-6.5c.2 1.1 1.2 2 2.3 1.9.8 0 1.7-.3 2.3-.9l1.4 1.6c-1.1.9-2.5 1.4-3.9 1.4-2.6 0-4.8-2.2-4.7-4.9 0-2.5 2.1-4.6 4.6-4.7 2.7 0 4.5 1.9 4.5 4.8zm-6.5-.9h4c-.1-1.1-1.1-1.9-2.2-1.8-.9.1-1.7.8-1.8 1.8zM150.7 172.6c-.9-.4-1.9-.7-2.9-.7-.9 0-1.4.3-1.4.8s.7.7 1.5.8l.8.1c2 .3 3.1 1.2 3.1 2.7 0 1.9-1.5 3.1-4.2 3.1-1.4 0-2.8-.3-4.1-1.1l1-1.9c.9.6 2 .9 3.1.9s1.7-.3 1.7-.9c0-.4-.5-.7-1.5-.8l-.7-.1c-2.1-.3-3.1-1.2-3.1-2.8 0-1.9 1.4-3 3.8-3 1.3 0 2.6.3 3.8.9l-.9 2z"/><path d="M82.9 225.5h5.6v16.4h-5.6v-16.4zm-6.7.1l-11.4 6.9c-.2.1-.4.1-.5 0l-11.4-6.9c-.2-.1-.5-.2-.8-.2-.9 0-1.6.7-1.6 1.6v14.9h5.6v-7.1c0-.3.2-.6.6-.6.1 0 .2 0 .3.1l6.4 3.9c.6.4 1.4.4 2.1 0l6.7-3.9c.3-.2.6-.1.8.2.1.1.1.2.1.3v7.1h5.6V227c0-.9-.7-1.6-1.6-1.6-.4 0-.7.1-.9.2zm40.3-.1h-5.7v7.5c0 .3-.3.6-.6.6-.1 0-.2 0-.3-.1l-14.7-7.8c-.2-.1-.5-.2-.7-.2-.9 0-1.6.7-1.6 1.6V242h5.6v-7.4c0-.3.2-.6.6-.6.1 0 .2 0 .3.1l14.8 7.8c.8.4 1.7.1 2.1-.6.1-.2.2-.5.2-.7v-15.1zm4.5 16.4v-16.4h2.6v16.4H121zm17.6.3c-6.9 0-11.9-3.3-11.9-8.6 0-5.2 4.9-8.6 11.9-8.6s11.9 3.3 11.9 8.6-4.8 8.6-11.9 8.6zm0-14.9c-5.2 0-9.1 2.3-9.1 6.4 0 4.1 4 6.4 9.1 6.4 5.2 0 9.2-2.2 9.2-6.4s-4-6.4-9.2-6.4z" fill="#C62D48"/><path fill="#000" d="M92.8 278.4h-9.2v-12.6h9.1v1.9h-7v3.4h6.8v1.9h-6.8v3.5h7.2v1.9zM99.2 273H98v5.4h-2v-12.6h2v5.3h1.2l4.7-5.3h2.6l-5.7 6.1 6.1 6.5h-2.8zM116.9 268.6c-1.1-.7-2.3-1.1-3.5-1.1-1.7 0-2.8.7-2.8 1.9 0 1 1 1.4 2.6 1.7l.9.1c2 .3 4.1 1.1 4.1 3.5 0 2.6-2.3 4-5.1 4-1.8 0-3.6-.6-5.1-1.7l1.1-1.6c1.1.9 2.5 1.4 4 1.4 1.6 0 2.9-.7 2.9-1.9 0-1-1-1.4-2.8-1.7l-1-.1c-1.9-.3-3.7-1.1-3.7-3.5 0-2.5 2.2-3.9 5-3.9 1.6 0 3.2.4 4.6 1.4l-1.2 1.5zM94.3 319h-2.2l-1.2-3.2h-5.7L84 319h-2.1l5-12.6h2.5l4.9 12.6zm-8.4-5.1h4.2l-2.1-5.4-2.1 5.4zM99.5 313.7h-1.2v5.4h-2v-12.6h2v5.3h1.2l4.7-5.3h2.6l-5.7 6.1 6.1 6.5h-2.8zM117.3 309.2c-1.1-.7-2.3-1.1-3.5-1.1-1.7 0-2.8.7-2.8 1.9 0 1 1 1.4 2.6 1.7l.9.1c2 .3 4.1 1.1 4.1 3.5 0 2.6-2.3 4-5.1 4-1.8 0-3.6-.6-5.1-1.7l1.1-1.6c1.1.9 2.5 1.4 4 1.4 1.6 0 2.9-.7 2.9-1.9 0-1-1-1.4-2.8-1.7l-1-.1c-1.9-.3-3.7-1.1-3.7-3.5 0-2.5 2.2-3.9 5-3.9 1.6 0 3.2.4 4.6 1.4l-1.2 1.5zM93.1 348.9l-1.5 1.4c-1.7-1.8-4.6-1.9-6.4-.2-1.8 1.7-1.9 4.6-.2 6.4.8.9 2 1.4 3.2 1.4 2 .2 3.8-1.2 4-3.2h-3.3v-1.9h5.5v.5c0 3.6-2.3 6.6-6.2 6.6-3.6 0-6.5-2.9-6.5-6.6 0-3.7 2.9-6.5 6.6-6.5 1.8 0 3.5.7 4.8 2.1zM100.3 354.3h-1.2v5.4h-2v-12.6h2v5.3h1.2l4.7-5.3h2.6l-5.7 6.1 6.1 6.5h-2.8zM119.1 359.7h-9.2v-12.6h9.1v1.9h-7v3.4h6.8v1.9H112v3.5h7.2z"/><path fill="url(#prefix__f)" d="M308.7 349.5h190v52h-190z"/><path fill="#FFF" d="M357.2 375.8H356v5.4h-2.6V368h2.6v5.3h1.2l4.4-5.3h3.3l-5.5 6.4 5.9 6.7h-3.4zM374.4 377.4c0 2.9-2 4.1-4.3 4.1s-4.3-1.2-4.3-4.1v-5.2h2.5v5c0 1.5.8 2 1.9 2 1.1 0 1.9-.6 1.9-2v-5h2.4v5.2h-.1zM386.4 376.7c.2 2.5-1.7 4.6-4.2 4.8h-.2c-1.1 0-2.1-.4-2.7-1.2v1h-2.4v-13.5h2.4v5.4c.7-.8 1.6-1.2 2.7-1.2 2.5 0 4.5 2.1 4.4 4.6.1 0 .1 0 0 .1zm-7.2 0c.1 1.3 1.2 2.3 2.5 2.2 1.3-.1 2.3-1.2 2.2-2.5-.1-1.2-1.1-2.2-2.3-2.2-1.3 0-2.3 1-2.3 2.3-.1.1-.1.1-.1.2zM396.9 376.7v.8h-6.5c.2 1.1 1.2 2 2.3 1.9.8 0 1.7-.3 2.3-.9l1.4 1.6c-1.1.9-2.5 1.4-3.9 1.4-2.6 0-4.8-2.2-4.7-4.9 0-2.5 2.1-4.6 4.6-4.7 2.7 0 4.5 1.9 4.5 4.8zm-6.5-.9h4c-.1-1.1-1.1-1.9-2.2-1.8-.9.1-1.7.9-1.8 1.8zM405.1 372.1l-.4 2.4c-.5-.2-1-.3-1.5-.3-1-.1-1.9.7-1.9 1.7v5.3h-2.5v-9.1h2.4v1c.6-.8 1.6-1.3 2.6-1.2.5 0 .9.1 1.3.2zM415.4 375.5v5.8H413v-5c0-1.3-.7-2-1.8-2-1 0-1.9.8-1.9 1.8v5.3h-2.5v-9.1h2.4v1.1c.6-.9 1.6-1.4 2.7-1.3 1.9-.1 3.5 1.4 3.5 3.2v.2zM426.4 376.7v.8h-6.5c.2 1.1 1.2 2 2.3 1.9.8 0 1.7-.3 2.3-.9l1.4 1.6c-1.1.9-2.5 1.4-3.9 1.4-2.6 0-4.8-2.2-4.7-4.9 0-2.5 2.1-4.6 4.6-4.7 2.7 0 4.5 1.9 4.5 4.8zm-6.5-.9h4c-.1-1.1-1.1-1.9-2.2-1.8-1 .1-1.7.9-1.8 1.8zM434.9 374.3h-3.3v3.3c0 1.1.6 1.6 1.4 1.6.6 0 1.2-.3 1.7-.6l.9 1.9c-.9.6-1.9 1-3 1-2.3 0-3.4-1.3-3.4-3.6v-3.5h-1.8v-2.2h1.8v-2.7h2.5v2.7h3.3v2.1h-.1zM445.4 376.7v.8h-6.5c.2 1.1 1.2 2 2.3 1.9.8 0 1.7-.3 2.3-.9l1.4 1.6c-1.1.9-2.5 1.4-3.9 1.4-2.6 0-4.8-2.2-4.7-4.9 0-2.5 2.1-4.6 4.6-4.7 2.7 0 4.5 1.9 4.5 4.8zm-6.5-.9h4c-.1-1.1-1.1-1.9-2.2-1.8-.9.1-1.7.9-1.8 1.8zM453.9 374.7c-.9-.4-1.9-.7-2.9-.7-.9 0-1.4.3-1.4.8s.7.7 1.5.8l.8.1c2 .3 3.1 1.2 3.1 2.7 0 1.9-1.5 3.1-4.2 3.1-1.4 0-2.8-.3-4.1-1.1l1-1.9c.9.6 2 .9 3.1.9s1.7-.3 1.7-.9c0-.4-.5-.7-1.5-.8l-.7-.1c-2.1-.3-3.1-1.2-3.1-2.8 0-1.9 1.4-3 3.8-3 1.3 0 2.6.3 3.8.9l-.9 2z"/><path d="M386.1 425.8h5.6v16.4h-5.6v-16.4zm-6.7.1l-11.4 6.9c-.2.1-.4.1-.5 0l-11.4-6.9c-.2-.1-.5-.2-.8-.2-.9 0-1.6.7-1.6 1.6v14.9h5.6v-7.1c0-.3.2-.6.6-.6.1 0 .2 0 .3.1l6.4 3.9c.6.4 1.4.4 2.1 0l6.7-3.9c.3-.2.6-.1.8.2.1.1.1.2.1.3v7.1h5.6v-14.9c0-.9-.7-1.6-1.6-1.6-.4 0-.7.1-.9.2zm40.3-.1H414v7.5c0 .3-.3.6-.6.6-.1 0-.2 0-.3-.1l-14.7-7.8c-.2-.1-.5-.2-.7-.2-.9 0-1.6.7-1.6 1.6v14.9h5.6v-7.4c0-.3.2-.6.6-.6.1 0 .2 0 .3.1l14.8 7.8c.8.4 1.7.1 2.1-.6.1-.2.2-.5.2-.7v-15.1zm4.5 16.4v-16.4h2.6v16.4h-2.6zm17.6.4c-6.9 0-11.9-3.3-11.9-8.6 0-5.2 4.9-8.6 11.9-8.6s11.9 3.3 11.9 8.6-4.8 8.6-11.9 8.6zm0-15c-5.2 0-9.1 2.3-9.1 6.4 0 4.1 4 6.4 9.1 6.4 5.2 0 9.2-2.2 9.2-6.4 0-4.1-4-6.4-9.2-6.4z" fill="#C62D48"/><path fill="#000" d="M377.6 478.7h-2v-10.4l-3.7 9.1h-2.1l-3.7-9v10.3h-2v-12.6h3.1l3.7 9 3.7-9h3.1zM383.1 467.1c0 .7-.6 1.3-1.3 1.3-.7 0-1.3-.5-1.3-1.3v-.1c0-.7.6-1.3 1.3-1.3.7.1 1.3.6 1.3 1.4zm-.4 11.6h-1.9v-8.6h1.9v8.6zM392.8 471.2l-1.2 1.3c-.5-.6-1.3-.9-2.1-.9-1.5.1-2.7 1.5-2.5 3 .1 1.4 1.2 2.4 2.5 2.5.8 0 1.5-.3 2.1-.9l1.2 1.3c-.8.9-2 1.4-3.2 1.4-2.5 0-4.5-2-4.5-4.5s2-4.5 4.5-4.5c1.2-.1 2.4.4 3.2 1.3zM400.7 470.1l-.5 1.9c-.4-.2-.9-.3-1.4-.3-1.1 0-2.1.9-2.1 2v5h-1.9v-8.6h1.9v1c.6-.8 1.5-1.3 2.5-1.2.5-.1 1 0 1.5.2zM410.9 474.4c.1 2.6-2 4.7-4.5 4.7-2.6.1-4.7-2-4.7-4.5-.1-2.6 2-4.7 4.5-4.7h.1c2.5-.1 4.6 1.8 4.6 4.3v.2zm-7.3 0c0 1.5 1.3 2.7 2.8 2.6 1.5 0 2.7-1.3 2.6-2.8 0-1.5-1.2-2.7-2.7-2.6-1.5 0-2.7 1.1-2.7 2.6v.2zM416.7 473.3h-1.2v5.4h-2v-12.6h2v5.3h1.2l4.7-5.3h2.6l-5.7 6.1 6.1 6.5h-2.8zM434.8 469.5c0 1.3-.8 2.4-1.9 2.9 1.3.4 2.2 1.6 2.2 2.9 0 2.3-2.2 3.6-4.8 3.6-2.6 0-4.8-1.4-4.8-3.6 0-1.4.9-2.6 2.2-2.9-1.2-.5-1.9-1.6-1.9-2.9 0-2.3 2-3.6 4.5-3.6s4.5 1.3 4.5 3.6zm-7.2 5.7c0 1.3 1.2 1.9 2.7 1.9 1.5 0 2.7-.7 2.7-1.9 0-1.3-1.2-2-2.7-2-1.5 0-2.7.7-2.7 2zm.3-5.6c0 1.3 1.1 1.9 2.4 1.9 1.3 0 2.4-.7 2.4-1.9s-1.1-1.9-2.4-1.9c-1.3 0-2.4.7-2.4 1.9zM443.4 472.2c-.8-.5-1.7-.7-2.7-.7-1 0-1.6.4-1.6 1s.6.8 1.4.9l.9.1c1.9.3 3 1.1 3 2.5 0 1.7-1.4 2.8-3.9 2.8-1.3 0-2.6-.4-3.7-1.1l.9-1.4c.8.6 1.8.9 2.8.9 1.3 0 2-.4 2-1.1 0-.5-.5-.8-1.5-1l-.9-.1c-1.9-.3-2.9-1.1-2.9-2.5 0-1.7 1.4-2.8 3.6-2.8 1.2 0 2.4.3 3.5.9l-.9 1.6zM392.6 514h-1.2v5.4h-2v-12.6h2v5.3h1.2l4.7-5.3h2.6l-5.7 6.1 6.1 6.5h-2.8zM409.5 510.1c0 1.3-.8 2.4-1.9 2.9 1.3.4 2.2 1.6 2.2 2.9 0 2.5-2.2 3.6-4.5 3.6-1.6.1-3.2-.6-4.3-1.8l1.3-1.3c.8.8 1.9 1.3 3 1.3 1.4 0 2.5-.6 2.5-1.9 0-1.3-1.2-1.9-2.7-1.9h-1.5v-1.8h1.5c1.4 0 2.5-.6 2.5-1.9 0-1.2-1.1-1.9-2.4-1.9-1 0-2 .5-2.5 1.4l-1.4-1.2c.9-1.3 2.5-2.1 4.1-2 2.4 0 4.1 1.5 4.1 3.6zM418.1 512.9c-.8-.5-1.7-.7-2.7-.7-1 0-1.6.4-1.6 1s.6.8 1.4.9l.9.1c1.9.3 3 1.1 3 2.5 0 1.7-1.4 2.8-3.9 2.8-1.3 0-2.6-.4-3.7-1.1l.9-1.4c.8.6 1.8.9 2.8.9 1.3 0 2-.4 2-1.1 0-.5-.5-.8-1.5-1l-.9-.1c-1.9-.3-2.9-1.1-2.9-2.5 0-1.7 1.4-2.8 3.6-2.8 1.2 0 2.4.3 3.5.9l-.9 1.6z"/></g></svg>