<?xml version="1.0" encoding="UTF-8"?>
<svg width="790px" height="597px" viewBox="0 0 790 597" version="1.1" xmlns="http://www.w3.org/2000/svg" xmlns:xlink="http://www.w3.org/1999/xlink">
    <!-- Generator: Sketch 59.1 (86144) - https://sketch.com -->
    <title>illustration-cloudkarafka-overview</title>
    <desc>Created with Sketch.</desc>
    <g id="Main-Page" stroke="none" stroke-width="1" fill="none" fill-rule="evenodd">
        <g id="1-1_Main-page" transform="translate(-325.000000, -4152.000000)">
            <g id="illustration-cloudkarafka-overview" transform="translate(325.000000, 4152.000000)">
                <g id="Group-17">
                    <rect id="Rectangle" fill="#F9FAFB" x="0" y="0" width="790" height="597" rx="6"></rect>
                    <g id="Group-19" transform="translate(236.000000, 68.000000)" fill="#3F9EE1" fill-rule="nonzero">
                        <path d="M2,261 C2,263.209139 3.790861,265 6,265 L307,265 C309.209139,265 311,263.209139 311,261 L311,142 L313.002383,142 L313.002383,261 C313.002383,264.313708 310.313708,267 307,267 L6,267 C2.6862915,267 -5.68434189e-14,264.313708 -5.68434189e-14,261 L-5.68434189e-14,142 L2,142 L2,261 Z" id="Rectangle"></path>
                        <path d="M2,-4.47641924e-13 L2,119 C2,121.209139 3.790861,123 6,123 L37,123 L37,125 L6,125 C2.6862915,125 0,122.313708 0,119 L0,4.61852778e-13 L2,-4.47641924e-13 Z" id="Rectangle" transform="translate(18.500000, 62.500000) scale(1, -1) translate(-18.500000, -62.500000) "></path>
                        <path d="M278,-4.47641924e-13 L278,119 C278,121.209139 279.790861,123 282,123 L313,123 L313,125 L282,125 C278.686292,125 276,122.313708 276,119 L276,4.61852778e-13 L278,-4.47641924e-13 Z" id="Rectangle" transform="translate(294.500000, 62.500000) scale(-1, -1) translate(-294.500000, -62.500000) "></path>
                    </g>
                    <circle id="Oval" fill="#FFFFFF" cx="395.5" cy="201.5" r="91.5"></circle>
                    <rect id="Rectangle" stroke="#E5E9EC" stroke-width="2" fill="#FFFFFF" x="213" y="390" width="171.5" height="62" rx="4"></rect>
                    <g id="Group-12" transform="translate(592.000000, 129.000000)">
                        <path d="M25.79,123 C28.688,123 30.578,120.998 30.578,118.338 C30.578,115.692 28.688,113.662 25.79,113.662 L22.598,113.662 L22.598,123 L25.79,123 Z M25.79,121.964 L23.76,121.964 L23.76,114.698 L25.79,114.698 C28.1,114.698 29.374,116.322 29.374,118.338 C29.374,120.34 28.058,121.964 25.79,121.964 Z M37.634,123 L37.634,118.352 C37.634,116.714 36.444,116.07 35.016,116.07 C33.91,116.07 33.042,116.434 32.314,117.19 L32.804,117.918 C33.406,117.274 34.064,116.98 34.876,116.98 C35.856,116.98 36.584,117.498 36.584,118.408 L36.584,119.626 C36.038,118.996 35.268,118.702 34.344,118.702 C33.196,118.702 31.978,119.416 31.978,120.928 C31.978,122.398 33.196,123.168 34.344,123.168 C35.254,123.168 36.024,122.846 36.584,122.23 L36.584,123 L37.634,123 Z M34.722,122.412 C33.742,122.412 33.056,121.796 33.056,120.942 C33.056,120.074 33.742,119.458 34.722,119.458 C35.464,119.458 36.178,119.738 36.584,120.298 L36.584,121.572 C36.178,122.132 35.464,122.412 34.722,122.412 Z M41.442,123.168 C42.058,123.168 42.436,122.986 42.702,122.734 L42.394,121.95 C42.254,122.104 41.974,122.23 41.68,122.23 C41.218,122.23 40.994,121.866 40.994,121.362 L40.994,117.162 L42.366,117.162 L42.366,116.238 L40.994,116.238 L40.994,114.39 L39.944,114.39 L39.944,116.238 L38.824,116.238 L38.824,117.162 L39.944,117.162 L39.944,121.586 C39.944,122.594 40.448,123.168 41.442,123.168 Z M49.128,123 L49.128,118.352 C49.128,116.714 47.938,116.07 46.51,116.07 C45.404,116.07 44.536,116.434 43.808,117.19 L44.298,117.918 C44.9,117.274 45.558,116.98 46.37,116.98 C47.35,116.98 48.078,117.498 48.078,118.408 L48.078,119.626 C47.532,118.996 46.762,118.702 45.838,118.702 C44.69,118.702 43.472,119.416 43.472,120.928 C43.472,122.398 44.69,123.168 45.838,123.168 C46.748,123.168 47.518,122.846 48.078,122.23 L48.078,123 L49.128,123 Z M46.216,122.412 C45.236,122.412 44.55,121.796 44.55,120.942 C44.55,120.074 45.236,119.458 46.216,119.458 C46.958,119.458 47.672,119.738 48.078,120.298 L48.078,121.572 C47.672,122.132 46.958,122.412 46.216,122.412 Z M62.876,123 L59.11,113.662 L57.668,113.662 L53.916,123 L55.246,123 L56.072,120.928 L60.72,120.928 L61.546,123 L62.876,123 Z M60.37,119.892 L56.408,119.892 L58.396,114.866 L60.37,119.892 Z M69.666,123 L69.666,118.254 C69.666,116.784 68.924,116.07 67.51,116.07 C66.502,116.07 65.578,116.658 65.102,117.218 L65.102,116.238 L64.052,116.238 L64.052,123 L65.102,123 L65.102,118.058 C65.494,117.512 66.278,117.008 67.104,117.008 C68.014,117.008 68.616,117.386 68.616,118.576 L68.616,123 L69.666,123 Z M77.044,123 L77.044,118.352 C77.044,116.714 75.854,116.07 74.426,116.07 C73.32,116.07 72.452,116.434 71.724,117.19 L72.214,117.918 C72.816,117.274 73.474,116.98 74.286,116.98 C75.266,116.98 75.994,117.498 75.994,118.408 L75.994,119.626 C75.448,118.996 74.678,118.702 73.754,118.702 C72.606,118.702 71.388,119.416 71.388,120.928 C71.388,122.398 72.606,123.168 73.754,123.168 C74.664,123.168 75.434,122.846 75.994,122.23 L75.994,123 L77.044,123 Z M74.132,122.412 C73.152,122.412 72.466,121.796 72.466,120.942 C72.466,120.074 73.152,119.458 74.132,119.458 C74.874,119.458 75.588,119.738 75.994,120.298 L75.994,121.572 C75.588,122.132 74.874,122.412 74.132,122.412 Z M80.194,123 L80.194,113.662 L79.144,113.662 L79.144,123 L80.194,123 Z M81.916,125.646 C82.112,125.702 82.462,125.744 82.686,125.744 C83.582,125.73 84.268,125.352 84.674,124.372 L88.062,116.238 L86.914,116.238 L84.674,121.782 L82.42,116.238 L81.286,116.238 L84.114,123.07 L83.666,124.092 C83.428,124.652 83.12,124.806 82.658,124.806 C82.49,124.806 82.238,124.764 82.084,124.694 L81.916,125.646 Z M91.296,123.168 C93.046,123.168 93.956,122.258 93.956,121.124 C93.956,118.492 89.77,119.472 89.77,117.988 C89.77,117.386 90.344,116.924 91.268,116.924 C92.136,116.924 92.878,117.288 93.284,117.778 L93.774,117.05 C93.228,116.504 92.416,116.07 91.268,116.07 C89.658,116.07 88.748,116.966 88.748,118.016 C88.748,120.522 92.934,119.514 92.934,121.152 C92.934,121.824 92.374,122.314 91.338,122.314 C90.414,122.314 89.56,121.866 89.112,121.348 L88.566,122.104 C89.252,122.832 90.19,123.168 91.296,123.168 Z M96.182,115.272 C96.574,115.272 96.896,114.964 96.896,114.572 C96.896,114.18 96.574,113.858 96.182,113.858 C95.804,113.858 95.482,114.18 95.482,114.572 C95.482,114.964 95.804,115.272 96.182,115.272 Z M96.714,123 L96.714,116.238 L95.664,116.238 L95.664,123 L96.714,123 Z M100.956,123.168 C102.706,123.168 103.616,122.258 103.616,121.124 C103.616,118.492 99.43,119.472 99.43,117.988 C99.43,117.386 100.004,116.924 100.928,116.924 C101.796,116.924 102.538,117.288 102.944,117.778 L103.434,117.05 C102.888,116.504 102.076,116.07 100.928,116.07 C99.318,116.07 98.408,116.966 98.408,118.016 C98.408,120.522 102.594,119.514 102.594,121.152 C102.594,121.824 102.034,122.314 100.998,122.314 C100.074,122.314 99.22,121.866 98.772,121.348 L98.226,122.104 C98.912,122.832 99.85,123.168 100.956,123.168 Z M106.738,122.664 C106.738,121.992 106.318,121.6 105.856,121.6 C105.436,121.6 105.114,121.95 105.114,122.356 C105.114,122.776 105.394,123.07 105.786,123.07 C105.856,123.07 105.954,123.056 105.982,123.042 C105.926,123.504 105.52,124.05 105.072,124.344 L105.59,124.778 C106.234,124.316 106.738,123.518 106.738,122.664 Z M4.363,140 C7.261,140 9.151,137.998 9.151,135.338 C9.151,132.692 7.261,130.662 4.363,130.662 L1.171,130.662 L1.171,140 L4.363,140 Z M4.363,138.964 L2.333,138.964 L2.333,131.698 L4.363,131.698 C6.673,131.698 7.947,133.322 7.947,135.338 C7.947,137.34 6.631,138.964 4.363,138.964 Z M16.207,140 L16.207,135.352 C16.207,133.714 15.017,133.07 13.589,133.07 C12.483,133.07 11.615,133.434 10.887,134.19 L11.377,134.918 C11.979,134.274 12.637,133.98 13.449,133.98 C14.429,133.98 15.157,134.498 15.157,135.408 L15.157,136.626 C14.611,135.996 13.841,135.702 12.917,135.702 C11.769,135.702 10.551,136.416 10.551,137.928 C10.551,139.398 11.769,140.168 12.917,140.168 C13.827,140.168 14.597,139.846 15.157,139.23 L15.157,140 L16.207,140 Z M13.295,139.412 C12.315,139.412 11.629,138.796 11.629,137.942 C11.629,137.074 12.315,136.458 13.295,136.458 C14.037,136.458 14.751,136.738 15.157,137.298 L15.157,138.572 C14.751,139.132 14.037,139.412 13.295,139.412 Z M20.015,140.168 C20.631,140.168 21.009,139.986 21.275,139.734 L20.967,138.95 C20.827,139.104 20.547,139.23 20.253,139.23 C19.791,139.23 19.567,138.866 19.567,138.362 L19.567,134.162 L20.939,134.162 L20.939,133.238 L19.567,133.238 L19.567,131.39 L18.517,131.39 L18.517,133.238 L17.397,133.238 L17.397,134.162 L18.517,134.162 L18.517,138.586 C18.517,139.594 19.021,140.168 20.015,140.168 Z M27.701,140 L27.701,135.352 C27.701,133.714 26.511,133.07 25.083,133.07 C23.977,133.07 23.109,133.434 22.381,134.19 L22.871,134.918 C23.473,134.274 24.131,133.98 24.943,133.98 C25.923,133.98 26.651,134.498 26.651,135.408 L26.651,136.626 C26.105,135.996 25.335,135.702 24.411,135.702 C23.263,135.702 22.045,136.416 22.045,137.928 C22.045,139.398 23.263,140.168 24.411,140.168 C25.321,140.168 26.091,139.846 26.651,139.23 L26.651,140 L27.701,140 Z M24.789,139.412 C23.809,139.412 23.123,138.796 23.123,137.942 C23.123,137.074 23.809,136.458 24.789,136.458 C25.531,136.458 26.245,136.738 26.651,137.298 L26.651,138.572 C26.245,139.132 25.531,139.412 24.789,139.412 Z M34.617,140 L34.617,136.29 L37.207,136.29 C39.055,136.29 40.133,135.002 40.133,133.476 C40.133,131.95 39.083,130.662 37.207,130.662 L33.455,130.662 L33.455,140 L34.617,140 Z M37.067,135.254 L34.617,135.254 L34.617,131.698 L37.067,131.698 C38.173,131.698 38.929,132.426 38.929,133.476 C38.929,134.526 38.173,135.254 37.067,135.254 Z M42.681,140 L42.681,135.212 C42.989,134.666 43.871,134.134 44.515,134.134 C44.683,134.134 44.809,134.148 44.935,134.176 L44.935,133.098 C44.011,133.098 43.227,133.616 42.681,134.33 L42.681,133.238 L41.631,133.238 L41.631,140 L42.681,140 Z M49.205,140.168 C51.263,140.168 52.551,138.572 52.551,136.612 C52.551,134.652 51.263,133.07 49.205,133.07 C47.147,133.07 45.859,134.652 45.859,136.612 C45.859,138.572 47.147,140.168 49.205,140.168 Z M49.205,139.23 C47.763,139.23 46.951,137.998 46.951,136.612 C46.951,135.24 47.763,134.008 49.205,134.008 C50.647,134.008 51.445,135.24 51.445,136.612 C51.445,137.998 50.647,139.23 49.205,139.23 Z M57.241,140.168 C58.473,140.168 59.201,139.664 59.719,138.992 L59.019,138.348 C58.571,138.95 57.997,139.23 57.297,139.23 C55.855,139.23 54.959,138.11 54.959,136.612 C54.959,135.114 55.855,134.008 57.297,134.008 C57.997,134.008 58.571,134.274 59.019,134.89 L59.719,134.246 C59.201,133.574 58.473,133.07 57.241,133.07 C55.225,133.07 53.867,134.61 53.867,136.612 C53.867,138.628 55.225,140.168 57.241,140.168 Z M64.241,140.168 C65.347,140.168 66.257,139.804 66.929,139.132 L66.425,138.446 C65.893,138.992 65.109,139.3 64.339,139.3 C62.883,139.3 61.987,138.236 61.903,136.962 L67.377,136.962 L67.377,136.696 C67.377,134.666 66.173,133.07 64.129,133.07 C62.197,133.07 60.797,134.652 60.797,136.612 C60.797,138.726 62.239,140.168 64.241,140.168 Z M66.341,136.192 L61.903,136.192 C61.959,135.156 62.673,133.938 64.115,133.938 C65.655,133.938 66.327,135.184 66.341,136.192 Z M71.213,140.168 C72.963,140.168 73.873,139.258 73.873,138.124 C73.873,135.492 69.687,136.472 69.687,134.988 C69.687,134.386 70.261,133.924 71.185,133.924 C72.053,133.924 72.795,134.288 73.201,134.778 L73.691,134.05 C73.145,133.504 72.333,133.07 71.185,133.07 C69.575,133.07 68.665,133.966 68.665,135.016 C68.665,137.522 72.851,136.514 72.851,138.152 C72.851,138.824 72.291,139.314 71.255,139.314 C70.331,139.314 69.477,138.866 69.029,138.348 L68.483,139.104 C69.169,139.832 70.107,140.168 71.213,140.168 Z M77.723,140.168 C79.473,140.168 80.383,139.258 80.383,138.124 C80.383,135.492 76.197,136.472 76.197,134.988 C76.197,134.386 76.771,133.924 77.695,133.924 C78.563,133.924 79.305,134.288 79.711,134.778 L80.201,134.05 C79.655,133.504 78.843,133.07 77.695,133.07 C76.085,133.07 75.175,133.966 75.175,135.016 C75.175,137.522 79.361,136.514 79.361,138.152 C79.361,138.824 78.801,139.314 77.765,139.314 C76.841,139.314 75.987,138.866 75.539,138.348 L74.993,139.104 C75.679,139.832 76.617,140.168 77.723,140.168 Z M82.609,132.272 C83.001,132.272 83.323,131.964 83.323,131.572 C83.323,131.18 83.001,130.858 82.609,130.858 C82.231,130.858 81.909,131.18 81.909,131.572 C81.909,131.964 82.231,132.272 82.609,132.272 Z M83.141,140 L83.141,133.238 L82.091,133.238 L82.091,140 L83.141,140 Z M90.855,140 L90.855,135.254 C90.855,133.784 90.113,133.07 88.699,133.07 C87.691,133.07 86.767,133.658 86.291,134.218 L86.291,133.238 L85.241,133.238 L85.241,140 L86.291,140 L86.291,135.058 C86.683,134.512 87.467,134.008 88.293,134.008 C89.203,134.008 89.805,134.386 89.805,135.576 L89.805,140 L90.855,140 Z M95.671,142.744 C97.323,142.744 98.891,142.044 98.891,139.804 L98.891,133.238 L97.841,133.238 L97.841,134.26 C97.295,133.518 96.483,133.07 95.573,133.07 C93.795,133.07 92.563,134.414 92.563,136.584 C92.563,138.768 93.809,140.084 95.573,140.084 C96.525,140.084 97.351,139.566 97.841,138.88 L97.841,139.846 C97.841,141.33 96.791,141.876 95.671,141.876 C94.705,141.876 94.033,141.624 93.473,140.952 L92.941,141.736 C93.739,142.52 94.523,142.744 95.671,142.744 Z M95.825,139.16 C94.467,139.16 93.655,138.068 93.655,136.584 C93.655,135.086 94.467,134.008 95.825,134.008 C96.665,134.008 97.477,134.512 97.841,135.1 L97.841,138.054 C97.477,138.642 96.665,139.16 95.825,139.16 Z M102.405,139.664 C102.405,138.992 101.985,138.6 101.523,138.6 C101.103,138.6 100.781,138.95 100.781,139.356 C100.781,139.776 101.061,140.07 101.453,140.07 C101.523,140.07 101.621,140.056 101.649,140.042 C101.593,140.504 101.187,141.05 100.739,141.344 L101.257,141.778 C101.901,141.316 102.405,140.518 102.405,139.664 Z M110.875,140.168 C111.981,140.168 112.891,139.804 113.563,139.132 L113.059,138.446 C112.527,138.992 111.743,139.3 110.973,139.3 C109.517,139.3 108.621,138.236 108.537,136.962 L114.011,136.962 L114.011,136.696 C114.011,134.666 112.807,133.07 110.763,133.07 C108.831,133.07 107.431,134.652 107.431,136.612 C107.431,138.726 108.873,140.168 110.875,140.168 Z M112.975,136.192 L108.537,136.192 C108.593,135.156 109.307,133.938 110.749,133.938 C112.289,133.938 112.961,135.184 112.975,136.192 Z M117.413,140.168 C118.029,140.168 118.407,139.986 118.673,139.734 L118.365,138.95 C118.225,139.104 117.945,139.23 117.651,139.23 C117.189,139.23 116.965,138.866 116.965,138.362 L116.965,134.162 L118.337,134.162 L118.337,133.238 L116.965,133.238 L116.965,131.39 L115.915,131.39 L115.915,133.238 L114.795,133.238 L114.795,134.162 L115.915,134.162 L115.915,138.586 C115.915,139.594 116.419,140.168 117.413,140.168 Z M122.803,140.168 C124.035,140.168 124.763,139.664 125.281,138.992 L124.581,138.348 C124.133,138.95 123.559,139.23 122.859,139.23 C121.417,139.23 120.521,138.11 120.521,136.612 C120.521,135.114 121.417,134.008 122.859,134.008 C123.559,134.008 124.133,134.274 124.581,134.89 L125.281,134.246 C124.763,133.574 124.035,133.07 122.803,133.07 C120.787,133.07 119.429,134.61 119.429,136.612 C119.429,138.628 120.787,140.168 122.803,140.168 Z M127.311,140.14 C126.891,140.14 126.541,139.79 126.541,139.37 C126.541,138.95 126.891,138.6 127.311,138.6 C127.731,138.6 128.081,138.95 128.081,139.37 C128.081,139.79 127.731,140.14 127.311,140.14 Z" id="DataAnalysis,DataProcessing,etc." fill="#6D7782" fill-rule="nonzero"></path>
                        <path d="M21.384,86.408 C22.0240032,86.408 22.5786643,86.4853326 23.048,86.64 C23.5173357,86.7946674 23.922665,87.0106653 24.264,87.288 C24.9360034,87.8320027 25.3733323,88.5946618 25.576,89.576 L23.56,89.944 C23.3893325,89.3999973 23.1253351,88.9600017 22.768,88.624 C22.4106649,88.2879983 21.965336,88.12 21.432,88.12 C20.706663,88.12 20.1200022,88.423997 19.672,89.032 C19.1919976,89.6933366 18.952,90.6079942 18.952,91.776 C18.952,92.9440058 19.1653312,93.8559967 19.592,94.512 C20.0186688,95.1680033 20.5999963,95.496 21.336,95.496 C22.0720037,95.496 22.6266648,95.3173351 23,94.96 C23.3733352,94.6026649 23.56,94.1413362 23.56,93.576 L25.592,93.576 C25.592,94.7386725 25.221337,95.6373302 24.48,96.272 C23.738663,96.9066698 22.7226731,97.224 21.432,97.224 C20.0559931,97.224 18.9626707,96.7440048 18.152,95.784 C17.3306626,94.8026618 16.92,93.4693418 16.92,91.784 C16.92,90.0773248 17.3413291,88.7440048 18.184,87.784 C18.9946707,86.8666621 20.0613267,86.408 21.384,86.408 Z M31.784,86.408 C32.4773368,86.408 33.1119971,86.5226655 33.688,86.752 C34.2640029,86.9813345 34.7599979,87.3199978 35.176,87.768 C36.050671,88.7066714 36.488,90.0506579 36.488,91.8 C36.488,93.5600088 36.050671,94.9199952 35.176,95.88 C34.3439958,96.7760045 33.2080072,97.224 31.768,97.224 C30.3386595,97.224 29.2080042,96.7653379 28.376,95.848 C27.501329,94.8986619 27.064,93.5493421 27.064,91.8 C27.064,90.0293245 27.501329,88.6746714 28.376,87.736 C29.1973374,86.8506622 30.3333261,86.408 31.784,86.408 Z M34.536,91.832 C34.536,90.6373274 34.2880025,89.7173366 33.792,89.072 C33.2959975,88.4266634 32.6266709,88.104 31.784,88.104 C30.9413291,88.104 30.2693358,88.4266634 29.768,89.072 C29.2666642,89.7173366 29.016,90.6346607 29.016,91.824 C29.016,93.0133393 29.2666642,93.9253302 29.768,94.56 C30.2693358,95.1946698 30.9413291,95.512 31.784,95.512 C32.6266709,95.512 33.2959975,95.1946698 33.792,94.56 C34.2880025,93.9253302 34.536,93.0160059 34.536,91.832 Z M40.76,86.616 L45.336,93.976 L45.336,86.616 L47.224,86.616 L47.224,97 L45.304,97 L40.584,89.384 L40.584,97 L38.696,97 L38.696,86.616 L40.76,86.616 Z M55.656,89.48 C55.4853325,88.5733288 54.8453389,88.12 53.736,88.12 C53.1919973,88.12 52.7680015,88.2293322 52.464,88.448 C52.1599985,88.6666678 52.008,88.9306651 52.008,89.24 C52.008,89.5493349 52.1066657,89.7919991 52.304,89.968 C52.4684453,90.1146674 52.7088136,90.2520738 53.0251105,90.380222 L55.48,91.336 C56.2480038,91.6346682 56.8399979,92.0106644 57.256,92.464 C57.6720021,92.9173356 57.88,93.4853299 57.88,94.168 C57.88,95.1066714 57.5280035,95.8506639 56.824,96.4 C56.1199965,96.9493361 55.1173398,97.224 53.816,97.224 C52.6639942,97.224 51.7306702,96.9413362 51.016,96.376 C50.215996,95.7573302 49.7946669,94.8826723 49.752,93.752 L51.624,93.752 C51.624,94.6053376 52.0666622,95.1439989 52.952,95.368 C53.218668,95.442667 53.5706645,95.48 54.008,95.48 C54.4453355,95.48 54.8506648,95.3706678 55.224,95.152 C55.5973352,94.9333322 55.784,94.6400018 55.784,94.272 C55.784,93.9039982 55.6826677,93.6213343 55.48,93.424 C55.3062848,93.2548563 55.038532,93.0955106 54.6767354,92.9459594 L52.424,92.056 C51.623996,91.7466651 51.0106688,91.3840021 50.584,90.968 C50.1573312,90.5519979 49.944,89.9760037 49.944,89.24 C49.944,88.3759957 50.2799966,87.6933358 50.952,87.192 C51.6346701,86.6693307 52.5599942,86.408 53.728,86.408 C54.8960058,86.408 55.7973302,86.6773306 56.432,87.216 C57.0666698,87.7546694 57.4319995,88.5093285 57.528,89.48 L55.656,89.48 Z M62.136,86.616 L62.136,93.08 C62.136,93.9333376 62.3519978,94.5466648 62.784,94.92 C63.2160022,95.2933352 63.7733299,95.48 64.456,95.48 C65.1386701,95.48 65.6959978,95.2933352 66.128,94.92 C66.5600022,94.5466648 66.776,93.9333376 66.776,93.08 L66.776,86.616 L68.664,86.616 L68.664,93.08 C68.664,94.4026733 68.2960037,95.4239964 67.56,96.144 C66.8239963,96.8640036 65.78934,97.224 64.456,97.224 C63.12266,97.224 62.0880037,96.8640036 61.352,96.144 C60.6159963,95.4239964 60.248,94.4026733 60.248,93.08 L60.248,86.616 L62.136,86.616 Z M74.152,86.616 L77,92.792 L79.848,86.616 L82.456,86.616 L82.456,97 L80.552,97 L80.552,89.112 L77.608,95.864 L76.376,95.864 L73.336,88.888 L73.336,97 L71.448,97 L71.448,86.616 L74.152,86.616 Z M85.416,86.616 L92.104,86.616 L92.104,88.248 L87.304,88.248 L87.304,90.984 L91.8,90.984 L91.8,92.616 L87.304,92.616 L87.304,95.352 L92.104,95.352 L92.104,97 L85.416,97 L85.416,86.616 Z M102.52,89.8 C102.52,90.5360037 102.312002,91.1653307 101.896,91.688 C101.479998,92.2106693 100.882671,92.5733323 100.104,92.776 L102.888,97 L100.424,97 L98.136,92.952 L96.696,92.952 L96.696,97 L94.808,97 L94.808,86.616 L98.648,86.616 C99.8746728,86.616 100.82933,86.9093304 101.512,87.496 C102.184003,88.0613362 102.52,88.8293285 102.52,89.8 Z M98.472,91.688 C99.1653368,91.688 99.6879982,91.5306682 100.04,91.216 C100.392002,90.9013318 100.568,90.4853359 100.568,89.968 C100.568,89.4506641 100.408002,89.0346682 100.088,88.72 C99.7679984,88.4053318 99.2880032,88.248 98.648,88.248 L96.696,88.248 L96.696,91.688 L98.472,91.688 Z M110.568,89.48 C110.397332,88.5733288 109.757339,88.12 108.648,88.12 C108.103997,88.12 107.680002,88.2293322 107.376,88.448 C107.071998,88.6666678 106.92,88.9306651 106.92,89.24 C106.92,89.5493349 107.018666,89.7919991 107.216,89.968 C107.380445,90.1146674 107.620814,90.2520738 107.93711,90.380222 L110.392,91.336 C111.160004,91.6346682 111.751998,92.0106644 112.168,92.464 C112.584002,92.9173356 112.792,93.4853299 112.792,94.168 C112.792,95.1066714 112.440004,95.8506639 111.736,96.4 C111.031996,96.9493361 110.02934,97.224 108.728,97.224 C107.575994,97.224 106.64267,96.9413362 105.928,96.376 C105.127996,95.7573302 104.706667,94.8826723 104.664,93.752 L106.536,93.752 C106.536,94.6053376 106.978662,95.1439989 107.864,95.368 C108.130668,95.442667 108.482664,95.48 108.92,95.48 C109.357336,95.48 109.762665,95.3706678 110.136,95.152 C110.509335,94.9333322 110.696,94.6400018 110.696,94.272 C110.696,93.9039982 110.594668,93.6213343 110.392,93.424 C110.218285,93.2548563 109.950532,93.0955106 109.588735,92.9459594 L107.336,92.056 C106.535996,91.7466651 105.922669,91.3840021 105.496,90.968 C105.069331,90.5519979 104.856,89.9760037 104.856,89.24 C104.856,88.3759957 105.191997,87.6933358 105.864,87.192 C106.54667,86.6693307 107.471994,86.408 108.64,86.408 C109.808006,86.408 110.70933,86.6773306 111.344,87.216 C111.97867,87.7546694 112.344,88.5093285 112.44,89.48 L110.568,89.48 Z" id="CONSUMERS" fill="#141414" fill-rule="nonzero"></path>
                        <g id="Group-9" transform="translate(26.000000, 0.000000)" stroke="#3F9EE1" stroke-width="2">
                            <rect id="Rectangle" x="1" y="1" width="64" height="45" rx="4"></rect>
                            <rect id="Rectangle" transform="translate(33.000000, 58.000000) scale(1, -1) translate(-33.000000, -58.000000) " x="19" y="55" width="28" height="6" rx="1"></rect>
                            <g id="Group-8" transform="translate(1.250190, 1.904817)">
                                <circle id="Oval" cx="12.2498102" cy="14.5951834" r="2.5"></circle>
                                <circle id="Oval" cx="26.2498102" cy="26.5951834" r="2.5"></circle>
                                <circle id="Oval" cx="36.2498102" cy="11.5951834" r="2.5"></circle>
                                <circle id="Oval" cx="52.2498102" cy="26.5951834" r="2.5"></circle>
                                <line x1="-4.54747351e-13" y1="26.5951834" x2="10.6560157" y2="16.5685458" id="Path-11"></line>
                                <line x1="24.0797695" y1="25.0287629" x2="14.0771852" y2="16.5685458" id="Path-11"></line>
                                <line x1="27.7977581" y1="24.2192643" x2="34.9405831" y2="13.9192908" id="Path-11"></line>
                                <line x1="50.1026489" y1="24.2192643" x2="38.1710829" y2="13.0565573" id="Path-11"></line>
                                <g id="Group-7" transform="translate(53.906146, 0.000000)" stroke-linecap="round" stroke-linejoin="round">
                                    <line x1="4.54747351e-13" y1="24.2192643" x2="20.4811919" y2="0.5" id="Path-12"></line>
                                    <line x1="20.4811919" y1="0.098494389" x2="20.4811919" y2="8.09518342" id="Path-13"></line>
                                    <line x1="20.4811919" y1="0.098494389" x2="12.6960362" y2="0.901505611" id="Path-14"></line>
                                </g>
                            </g>
                            <line x1="1.25018977" y1="35.9394933" x2="65.3969321" y2="35.9394933" id="Path-15"></line>
                            <line x1="27.5" y1="46.2241462" x2="25.3299593" y2="54.3306238" id="Path-16"></line>
                            <line x1="40.5" y1="46.2241462" x2="38.3299593" y2="54.3306238" id="Path-16" transform="translate(39.414980, 50.277385) scale(-1, 1) translate(-39.414980, -50.277385) "></line>
                        </g>
                    </g>
                    <g id="Group-11" transform="translate(74.000000, 130.000000)">
                        <path d="M11.068,121.168 C13.602,121.168 14.876,119.684 14.876,117.36 L14.876,111.662 L13.714,111.662 L13.714,117.346 C13.714,119.054 12.79,120.132 11.068,120.132 C9.346,120.132 8.422,119.054 8.422,117.346 L8.422,111.662 L7.26,111.662 L7.26,117.374 C7.26,119.67 8.534,121.168 11.068,121.168 Z M19.16,121.168 C20.91,121.168 21.82,120.258 21.82,119.124 C21.82,116.492 17.634,117.472 17.634,115.988 C17.634,115.386 18.208,114.924 19.132,114.924 C20,114.924 20.742,115.288 21.148,115.778 L21.638,115.05 C21.092,114.504 20.28,114.07 19.132,114.07 C17.522,114.07 16.612,114.966 16.612,116.016 C16.612,118.522 20.798,117.514 20.798,119.152 C20.798,119.824 20.238,120.314 19.202,120.314 C18.278,120.314 17.424,119.866 16.976,119.348 L16.43,120.104 C17.116,120.832 18.054,121.168 19.16,121.168 Z M26.58,121.168 C27.686,121.168 28.596,120.804 29.268,120.132 L28.764,119.446 C28.232,119.992 27.448,120.3 26.678,120.3 C25.222,120.3 24.326,119.236 24.242,117.962 L29.716,117.962 L29.716,117.696 C29.716,115.666 28.512,114.07 26.468,114.07 C24.536,114.07 23.136,115.652 23.136,117.612 C23.136,119.726 24.578,121.168 26.58,121.168 Z M28.68,117.192 L24.242,117.192 C24.298,116.156 25.012,114.938 26.454,114.938 C27.994,114.938 28.666,116.184 28.68,117.192 Z M32.46,121 L32.46,116.212 C32.768,115.666 33.65,115.134 34.294,115.134 C34.462,115.134 34.588,115.148 34.714,115.176 L34.714,114.098 C33.79,114.098 33.006,114.616 32.46,115.33 L32.46,114.238 L31.41,114.238 L31.41,121 L32.46,121 Z M47.678,121 L43.912,111.662 L42.47,111.662 L38.718,121 L40.048,121 L40.874,118.928 L45.522,118.928 L46.348,121 L47.678,121 Z M45.172,117.892 L41.21,117.892 L43.198,112.866 L45.172,117.892 Z M54.468,121 L54.468,116.254 C54.468,114.784 53.726,114.07 52.312,114.07 C51.304,114.07 50.38,114.658 49.904,115.218 L49.904,114.238 L48.854,114.238 L48.854,121 L49.904,121 L49.904,116.058 C50.296,115.512 51.08,115.008 51.906,115.008 C52.816,115.008 53.418,115.386 53.418,116.576 L53.418,121 L54.468,121 Z M61.846,121 L61.846,116.352 C61.846,114.714 60.656,114.07 59.228,114.07 C58.122,114.07 57.254,114.434 56.526,115.19 L57.016,115.918 C57.618,115.274 58.276,114.98 59.088,114.98 C60.068,114.98 60.796,115.498 60.796,116.408 L60.796,117.626 C60.25,116.996 59.48,116.702 58.556,116.702 C57.408,116.702 56.19,117.416 56.19,118.928 C56.19,120.398 57.408,121.168 58.556,121.168 C59.466,121.168 60.236,120.846 60.796,120.23 L60.796,121 L61.846,121 Z M58.934,120.412 C57.954,120.412 57.268,119.796 57.268,118.942 C57.268,118.074 57.954,117.458 58.934,117.458 C59.676,117.458 60.39,117.738 60.796,118.298 L60.796,119.572 C60.39,120.132 59.676,120.412 58.934,120.412 Z M64.996,121 L64.996,111.662 L63.946,111.662 L63.946,121 L64.996,121 Z M66.718,123.646 C66.914,123.702 67.264,123.744 67.488,123.744 C68.384,123.73 69.07,123.352 69.476,122.372 L72.864,114.238 L71.716,114.238 L69.476,119.782 L67.222,114.238 L66.088,114.238 L68.916,121.07 L68.468,122.092 C68.23,122.652 67.922,122.806 67.46,122.806 C67.292,122.806 67.04,122.764 66.886,122.694 L66.718,123.646 Z M75.664,121.168 C76.28,121.168 76.658,120.986 76.924,120.734 L76.616,119.95 C76.476,120.104 76.196,120.23 75.902,120.23 C75.44,120.23 75.216,119.866 75.216,119.362 L75.216,115.162 L76.588,115.162 L76.588,114.238 L75.216,114.238 L75.216,112.39 L74.166,112.39 L74.166,114.238 L73.046,114.238 L73.046,115.162 L74.166,115.162 L74.166,119.586 C74.166,120.594 74.67,121.168 75.664,121.168 Z M78.59,113.272 C78.982,113.272 79.304,112.964 79.304,112.572 C79.304,112.18 78.982,111.858 78.59,111.858 C78.212,111.858 77.89,112.18 77.89,112.572 C77.89,112.964 78.212,113.272 78.59,113.272 Z M79.122,121 L79.122,114.238 L78.072,114.238 L78.072,121 L79.122,121 Z M84.204,121.168 C85.436,121.168 86.164,120.664 86.682,119.992 L85.982,119.348 C85.534,119.95 84.96,120.23 84.26,120.23 C82.818,120.23 81.922,119.11 81.922,117.612 C81.922,116.114 82.818,115.008 84.26,115.008 C84.96,115.008 85.534,115.274 85.982,115.89 L86.682,115.246 C86.164,114.574 85.436,114.07 84.204,114.07 C82.188,114.07 80.83,115.61 80.83,117.612 C80.83,119.628 82.188,121.168 84.204,121.168 Z M90.294,121.168 C92.044,121.168 92.954,120.258 92.954,119.124 C92.954,116.492 88.768,117.472 88.768,115.988 C88.768,115.386 89.342,114.924 90.266,114.924 C91.134,114.924 91.876,115.288 92.282,115.778 L92.772,115.05 C92.226,114.504 91.414,114.07 90.266,114.07 C88.656,114.07 87.746,114.966 87.746,116.016 C87.746,118.522 91.932,117.514 91.932,119.152 C91.932,119.824 91.372,120.314 90.336,120.314 C89.412,120.314 88.558,119.866 88.11,119.348 L87.564,120.104 C88.25,120.832 89.188,121.168 90.294,121.168 Z M96.076,120.664 C96.076,119.992 95.656,119.6 95.194,119.6 C94.774,119.6 94.452,119.95 94.452,120.356 C94.452,120.776 94.732,121.07 95.124,121.07 C95.194,121.07 95.292,121.056 95.32,121.042 C95.264,121.504 94.858,122.05 94.41,122.344 L94.928,122.778 C95.572,122.316 96.076,121.518 96.076,120.664 Z M4.439,138.168 C6.959,138.168 7.883,136.782 7.883,135.424 C7.883,131.938 2.353,133.142 2.353,131.042 C2.353,130.16 3.151,129.558 4.271,129.558 C5.293,129.558 6.273,129.908 6.973,130.678 L7.673,129.824 C6.889,128.998 5.783,128.522 4.355,128.522 C2.521,128.522 1.149,129.572 1.149,131.112 C1.149,134.444 6.679,133.114 6.679,135.522 C6.679,136.236 6.147,137.132 4.481,137.132 C3.165,137.132 2.157,136.488 1.541,135.802 L0.855,136.684 C1.625,137.552 2.815,138.168 4.439,138.168 Z M12.629,138.168 C13.735,138.168 14.645,137.804 15.317,137.132 L14.813,136.446 C14.281,136.992 13.497,137.3 12.727,137.3 C11.271,137.3 10.375,136.236 10.291,134.962 L15.765,134.962 L15.765,134.696 C15.765,132.666 14.561,131.07 12.517,131.07 C10.585,131.07 9.185,132.652 9.185,134.612 C9.185,136.726 10.627,138.168 12.629,138.168 Z M14.729,134.192 L10.291,134.192 C10.347,133.156 11.061,131.938 12.503,131.938 C14.043,131.938 14.715,133.184 14.729,134.192 Z M18.509,138 L18.509,133.212 C18.817,132.666 19.699,132.134 20.343,132.134 C20.511,132.134 20.637,132.148 20.763,132.176 L20.763,131.098 C19.839,131.098 19.055,131.616 18.509,132.33 L18.509,131.238 L17.459,131.238 L17.459,138 L18.509,138 Z M25.033,138 L27.847,131.238 L26.699,131.238 L24.459,136.782 L22.205,131.238 L21.071,131.238 L23.885,138 L25.033,138 Z M31.991,138.168 C33.097,138.168 34.007,137.804 34.679,137.132 L34.175,136.446 C33.643,136.992 32.859,137.3 32.089,137.3 C30.633,137.3 29.737,136.236 29.653,134.962 L35.127,134.962 L35.127,134.696 C35.127,132.666 33.923,131.07 31.879,131.07 C29.947,131.07 28.547,132.652 28.547,134.612 C28.547,136.726 29.989,138.168 31.991,138.168 Z M34.091,134.192 L29.653,134.192 C29.709,133.156 30.423,131.938 31.865,131.938 C33.405,131.938 34.077,133.184 34.091,134.192 Z M37.871,138 L37.871,133.212 C38.179,132.666 39.061,132.134 39.705,132.134 C39.873,132.134 39.999,132.148 40.125,132.176 L40.125,131.098 C39.201,131.098 38.417,131.616 37.871,132.33 L37.871,131.238 L36.821,131.238 L36.821,138 L37.871,138 Z M50.597,138 L50.597,136.964 L46.257,136.964 L46.257,128.662 L45.095,128.662 L45.095,138 L50.597,138 Z M55.147,138.168 C57.205,138.168 58.493,136.572 58.493,134.612 C58.493,132.652 57.205,131.07 55.147,131.07 C53.089,131.07 51.801,132.652 51.801,134.612 C51.801,136.572 53.089,138.168 55.147,138.168 Z M55.147,137.23 C53.705,137.23 52.893,135.998 52.893,134.612 C52.893,133.24 53.705,132.008 55.147,132.008 C56.589,132.008 57.387,133.24 57.387,134.612 C57.387,135.998 56.589,137.23 55.147,137.23 Z M62.917,140.744 C64.569,140.744 66.137,140.044 66.137,137.804 L66.137,131.238 L65.087,131.238 L65.087,132.26 C64.541,131.518 63.729,131.07 62.819,131.07 C61.041,131.07 59.809,132.414 59.809,134.584 C59.809,136.768 61.055,138.084 62.819,138.084 C63.771,138.084 64.597,137.566 65.087,136.88 L65.087,137.846 C65.087,139.33 64.037,139.876 62.917,139.876 C61.951,139.876 61.279,139.624 60.719,138.952 L60.187,139.736 C60.985,140.52 61.769,140.744 62.917,140.744 Z M63.071,137.16 C61.713,137.16 60.901,136.068 60.901,134.584 C60.901,133.086 61.713,132.008 63.071,132.008 C63.911,132.008 64.723,132.512 65.087,133.1 L65.087,136.054 C64.723,136.642 63.911,137.16 63.071,137.16 Z M70.379,138.168 C72.129,138.168 73.039,137.258 73.039,136.124 C73.039,133.492 68.853,134.472 68.853,132.988 C68.853,132.386 69.427,131.924 70.351,131.924 C71.219,131.924 71.961,132.288 72.367,132.778 L72.857,132.05 C72.311,131.504 71.499,131.07 70.351,131.07 C68.741,131.07 67.831,131.966 67.831,133.016 C67.831,135.522 72.017,134.514 72.017,136.152 C72.017,136.824 71.457,137.314 70.421,137.314 C69.497,137.314 68.643,136.866 68.195,136.348 L67.649,137.104 C68.335,137.832 69.273,138.168 70.379,138.168 Z M76.161,137.664 C76.161,136.992 75.741,136.6 75.279,136.6 C74.859,136.6 74.537,136.95 74.537,137.356 C74.537,137.776 74.817,138.07 75.209,138.07 C75.279,138.07 75.377,138.056 75.405,138.042 C75.349,138.504 74.943,139.05 74.495,139.344 L75.013,139.778 C75.657,139.316 76.161,138.518 76.161,137.664 Z M84.631,138.168 C85.737,138.168 86.647,137.804 87.319,137.132 L86.815,136.446 C86.283,136.992 85.499,137.3 84.729,137.3 C83.273,137.3 82.377,136.236 82.293,134.962 L87.767,134.962 L87.767,134.696 C87.767,132.666 86.563,131.07 84.519,131.07 C82.587,131.07 81.187,132.652 81.187,134.612 C81.187,136.726 82.629,138.168 84.631,138.168 Z M86.731,134.192 L82.293,134.192 C82.349,133.156 83.063,131.938 84.505,131.938 C86.045,131.938 86.717,133.184 86.731,134.192 Z M91.169,138.168 C91.785,138.168 92.163,137.986 92.429,137.734 L92.121,136.95 C91.981,137.104 91.701,137.23 91.407,137.23 C90.945,137.23 90.721,136.866 90.721,136.362 L90.721,132.162 L92.093,132.162 L92.093,131.238 L90.721,131.238 L90.721,129.39 L89.671,129.39 L89.671,131.238 L88.551,131.238 L88.551,132.162 L89.671,132.162 L89.671,136.586 C89.671,137.594 90.175,138.168 91.169,138.168 Z M96.559,138.168 C97.791,138.168 98.519,137.664 99.037,136.992 L98.337,136.348 C97.889,136.95 97.315,137.23 96.615,137.23 C95.173,137.23 94.277,136.11 94.277,134.612 C94.277,133.114 95.173,132.008 96.615,132.008 C97.315,132.008 97.889,132.274 98.337,132.89 L99.037,132.246 C98.519,131.574 97.791,131.07 96.559,131.07 C94.543,131.07 93.185,132.61 93.185,134.612 C93.185,136.628 94.543,138.168 96.559,138.168 Z M101.067,138.14 C100.647,138.14 100.297,137.79 100.297,137.37 C100.297,136.95 100.647,136.6 101.067,136.6 C101.487,136.6 101.837,136.95 101.837,137.37 C101.837,137.79 101.487,138.14 101.067,138.14 Z" id="UserAnalytics,ServerLogs,etc." fill="#6D7782" fill-rule="nonzero"></path>
                        <path d="M10.316,84.616 C11.4893392,84.616 12.4039967,84.9013305 13.06,85.472 C13.7160033,86.0426695 14.044,86.8586614 14.044,87.92 C14.044,88.9813386 13.7160033,89.7973305 13.06,90.368 C12.4039967,90.9386695 11.4893392,91.224 10.316,91.224 L8.556,91.224 L8.556,95 L6.652,95 L6.652,84.616 L10.316,84.616 Z M10.316,89.576 C10.9026696,89.576 11.3453318,89.4213349 11.644,89.112 C11.9426682,88.8026651 12.092,88.4053358 12.092,87.92 C12.092,87.4346642 11.9426682,87.0346682 11.644,86.72 C11.3453318,86.4053318 10.9026696,86.248 10.316,86.248 L8.556,86.248 L8.556,89.576 L10.316,89.576 Z M23.708,87.8 C23.708,88.5360037 23.5000021,89.1653307 23.084,89.688 C22.6679979,90.2106693 22.0706706,90.5733323 21.292,90.776 L24.076,95 L21.612,95 L19.324,90.952 L17.884,90.952 L17.884,95 L15.996,95 L15.996,84.616 L19.836,84.616 C21.0626728,84.616 22.0173299,84.9093304 22.7,85.496 C23.3720034,86.0613362 23.708,86.8293285 23.708,87.8 Z M19.66,89.688 C20.3533368,89.688 20.8759982,89.5306682 21.228,89.216 C21.5800018,88.9013318 21.756,88.4853359 21.756,87.968 C21.756,87.4506641 21.5960016,87.0346682 21.276,86.72 C20.9559984,86.4053318 20.4760032,86.248 19.836,86.248 L17.884,86.248 L17.884,89.688 L19.66,89.688 Z M30.284,84.408 C30.9773368,84.408 31.6119971,84.5226655 32.188,84.752 C32.7640029,84.9813345 33.2599979,85.3199978 33.676,85.768 C34.550671,86.7066714 34.988,88.0506579 34.988,89.8 C34.988,91.5600088 34.550671,92.9199952 33.676,93.88 C32.8439958,94.7760045 31.7080072,95.224 30.268,95.224 C28.8386595,95.224 27.7080042,94.7653379 26.876,93.848 C26.001329,92.8986619 25.564,91.5493421 25.564,89.8 C25.564,88.0293245 26.001329,86.6746714 26.876,85.736 C27.6973374,84.8506622 28.8333261,84.408 30.284,84.408 Z M33.036,89.832 C33.036,88.6373274 32.7880025,87.7173366 32.292,87.072 C31.7959975,86.4266634 31.1266709,86.104 30.284,86.104 C29.4413291,86.104 28.7693358,86.4266634 28.268,87.072 C27.7666642,87.7173366 27.516,88.6346607 27.516,89.824 C27.516,91.0133393 27.7666642,91.9253302 28.268,92.56 C28.7693358,93.1946698 29.4413291,93.512 30.284,93.512 C31.1266709,93.512 31.7959975,93.1946698 32.292,92.56 C32.7880025,91.9253302 33.036,91.0160059 33.036,89.832 Z M40.588,84.616 C42.1666746,84.616 43.4413285,85.0853286 44.412,86.024 C45.3933382,86.9626714 45.884,88.2266587 45.884,89.816 C45.884,91.3946746 45.3933382,92.6533286 44.412,93.592 C43.4413285,94.5306714 42.1666746,95 40.588,95 L37.212,95 L37.212,84.616 L40.588,84.616 Z M39.116,93.288 L40.588,93.288 C41.5693382,93.288 42.363997,92.9573366 42.972,92.296 C43.5480029,91.6559968 43.836,90.8293384 43.836,89.816 C43.836,88.7813282 43.5480029,87.9440032 42.972,87.304 C42.3746637,86.6533301 41.580005,86.328 40.588,86.328 L39.116,86.328 L39.116,93.288 Z M49.932,84.616 L49.932,91.08 C49.932,91.9333376 50.1479978,92.5466648 50.58,92.92 C51.0120022,93.2933352 51.5693299,93.48 52.252,93.48 C52.9346701,93.48 53.4919978,93.2933352 53.924,92.92 C54.3560022,92.5466648 54.572,91.9333376 54.572,91.08 L54.572,84.616 L56.46,84.616 L56.46,91.08 C56.46,92.4026733 56.0920037,93.4239964 55.356,94.144 C54.6199963,94.8640036 53.58534,95.224 52.252,95.224 C50.91866,95.224 49.8840037,94.8640036 49.148,94.144 C48.4119963,93.4239964 48.044,92.4026733 48.044,91.08 L48.044,84.616 L49.932,84.616 Z M62.972,84.408 C63.6120032,84.408 64.1666643,84.4853326 64.636,84.64 C65.1053357,84.7946674 65.510665,85.0106653 65.852,85.288 C66.5240034,85.8320027 66.9613323,86.5946618 67.164,87.576 L65.148,87.944 C64.9773325,87.3999973 64.7133351,86.9600017 64.356,86.624 C63.9986649,86.2879983 63.553336,86.12 63.02,86.12 C62.294663,86.12 61.7080022,86.423997 61.26,87.032 C60.7799976,87.6933366 60.54,88.6079942 60.54,89.776 C60.54,90.9440058 60.7533312,91.8559967 61.18,92.512 C61.6066688,93.1680033 62.1879963,93.496 62.924,93.496 C63.6600037,93.496 64.2146648,93.3173351 64.588,92.96 C64.9613352,92.6026649 65.148,92.1413362 65.148,91.576 L67.18,91.576 C67.18,92.7386725 66.809337,93.6373302 66.068,94.272 C65.326663,94.9066698 64.3106731,95.224 63.02,95.224 C61.6439931,95.224 60.5506707,94.7440048 59.74,93.784 C58.9186626,92.8026618 58.508,91.4693418 58.508,89.784 C58.508,88.0773248 58.9293291,86.7440048 59.772,85.784 C60.5826707,84.8666621 61.6493267,84.408 62.972,84.408 Z M69.372,84.616 L76.06,84.616 L76.06,86.248 L71.26,86.248 L71.26,88.984 L75.756,88.984 L75.756,90.616 L71.26,90.616 L71.26,93.352 L76.06,93.352 L76.06,95 L69.372,95 L69.372,84.616 Z M86.476,87.8 C86.476,88.5360037 86.2680021,89.1653307 85.852,89.688 C85.4359979,90.2106693 84.8386706,90.5733323 84.06,90.776 L86.844,95 L84.38,95 L82.092,90.952 L80.652,90.952 L80.652,95 L78.764,95 L78.764,84.616 L82.604,84.616 C83.8306728,84.616 84.7853299,84.9093304 85.468,85.496 C86.1400034,86.0613362 86.476,86.8293285 86.476,87.8 Z M82.428,89.688 C83.1213368,89.688 83.6439982,89.5306682 83.996,89.216 C84.3480018,88.9013318 84.524,88.4853359 84.524,87.968 C84.524,87.4506641 84.3640016,87.0346682 84.044,86.72 C83.7239984,86.4053318 83.2440032,86.248 82.604,86.248 L80.652,86.248 L80.652,89.688 L82.428,89.688 Z M94.524,87.48 C94.3533325,86.5733288 93.7133389,86.12 92.604,86.12 C92.0599973,86.12 91.6360015,86.2293322 91.332,86.448 C91.0279985,86.6666678 90.876,86.9306651 90.876,87.24 C90.876,87.5493349 90.9746657,87.7919991 91.172,87.968 C91.3364453,88.1146674 91.5768136,88.2520738 91.8931105,88.380222 L94.348,89.336 C95.1160038,89.6346682 95.7079979,90.0106644 96.124,90.464 C96.5400021,90.9173356 96.748,91.4853299 96.748,92.168 C96.748,93.1066714 96.3960035,93.8506639 95.692,94.4 C94.9879965,94.9493361 93.9853398,95.224 92.684,95.224 C91.5319942,95.224 90.5986702,94.9413362 89.884,94.376 C89.083996,93.7573302 88.6626669,92.8826723 88.62,91.752 L90.492,91.752 C90.492,92.6053376 90.9346622,93.1439989 91.82,93.368 C92.086668,93.442667 92.4386645,93.48 92.876,93.48 C93.3133355,93.48 93.7186648,93.3706678 94.092,93.152 C94.4653352,92.9333322 94.652,92.6400018 94.652,92.272 C94.652,91.9039982 94.5506677,91.6213343 94.348,91.424 C94.1742848,91.2548563 93.906532,91.0955106 93.5447354,90.9459594 L91.292,90.056 C90.491996,89.7466651 89.8786688,89.3840021 89.452,88.968 C89.0253312,88.5519979 88.812,87.9760037 88.812,87.24 C88.812,86.3759957 89.1479966,85.6933358 89.82,85.192 C90.5026701,84.6693307 91.4279942,84.408 92.596,84.408 C93.7640058,84.408 94.6653302,84.6773306 95.3,85.216 C95.9346698,85.7546694 96.2999995,86.5093285 96.396,87.48 L94.524,87.48 Z" id="PRODUCERS" fill="#141414" fill-rule="nonzero"></path>
                        <g id="Group-4" transform="translate(22.000000, 0.000000)" stroke="#3F9EE1">
                            <rect id="Rectangle" stroke-width="2" x="13.5608177" y="16.4929487" width="33" height="9" rx="2"></rect>
                            <rect id="Rectangle" stroke-width="2" x="13.5608177" y="29.4929487" width="33" height="9" rx="2"></rect>
                            <rect id="Rectangle" stroke-width="2" x="13.5608177" y="42.4929487" width="33" height="9" rx="2"></rect>
                            <line x1="30.0608177" y1="51.3498835" x2="30.0608177" y2="58.0498318" id="Path-7" stroke-width="2" stroke-linecap="round" stroke-linejoin="round"></line>
                            <line x1="17.7514652" y1="58.0498318" x2="42.502887" y2="58.0498318" id="Path-8" stroke-width="2" stroke-linecap="round" stroke-linejoin="round"></line>
                            <circle id="Oval" fill="#D8D8D8" cx="18.5608177" cy="20.9929487" r="1"></circle>
                            <circle id="Oval" fill="#D8D8D8" cx="22.5608177" cy="20.9929487" r="1"></circle>
                            <circle id="Oval" fill="#D8D8D8" cx="26.5608177" cy="20.9929487" r="1"></circle>
                            <line x1="31.9962538" y1="20.9929487" x2="42.502887" y2="20.9929487" id="Path-9" stroke-width="2" stroke-linecap="round" stroke-linejoin="round"></line>
                            <circle id="Oval" fill="#D8D8D8" cx="18.5608177" cy="33.9929487" r="1"></circle>
                            <circle id="Oval" fill="#D8D8D8" cx="22.5608177" cy="33.9929487" r="1"></circle>
                            <circle id="Oval" fill="#D8D8D8" cx="26.5608177" cy="33.9929487" r="1"></circle>
                            <line x1="31.9962538" y1="33.9929487" x2="42.502887" y2="33.9929487" id="Path-9" stroke-width="2" stroke-linecap="round" stroke-linejoin="round"></line>
                            <circle id="Oval" fill="#D8D8D8" cx="18.5608177" cy="46.9929487" r="1"></circle>
                            <circle id="Oval" fill="#D8D8D8" cx="22.5608177" cy="46.9929487" r="1"></circle>
                            <circle id="Oval" fill="#D8D8D8" cx="26.5608177" cy="46.9929487" r="1"></circle>
                            <line x1="31.9962538" y1="46.9929487" x2="42.502887" y2="46.9929487" id="Path-9" stroke-width="2" stroke-linecap="round" stroke-linejoin="round"></line>
                            <path d="M13.3579027,30.9333685 L7.87762492,30.9333685 C3.00640039,30.577128 0.39406957,28.2839919 0.0406324532,24.0539604 C-0.312804663,19.8239288 1.63950988,17.1761542 5.89757608,16.1106364 C6.36415312,12.5217979 8.15757115,9.67948261 11.2778302,7.58369063 C14.3980892,5.48789864 17.5102381,5.0125107 20.6142771,6.1575268 C24.3126511,1.51558584 28.9747169,-0.501809187 34.6004746,0.105341712 C40.2262323,0.712492611 44.3275046,3.36006702 46.9042915,8.04806494 C49.2146804,7.86740301 51.0482137,8.67248489 52.4048916,10.4633106 C53.7615695,12.2541363 54.2432995,14.1365782 53.8500818,16.1106364 C57.740365,17.7810579 59.6855066,20.1885097 59.6855066,23.3329919 C59.6855066,26.4774741 58.5844256,28.6974597 56.3822638,29.9929487 C55.5162293,30.6198953 54.6721686,30.9333685 53.8500818,30.9333685 C53.0279949,30.9333685 50.7127315,30.9333685 46.9042915,30.9333685" id="Path-10" stroke-width="2" stroke-linecap="round" stroke-linejoin="round"></path>
                        </g>
                    </g>
                    <g id="Group-10" transform="translate(208.000000, 198.000000)" stroke="#BDBFC2" stroke-linecap="round" stroke-linejoin="round" stroke-width="2">
                        <line x1="0.5" y1="3.07974852" x2="59.5" y2="3.07974852" id="Path-6" stroke-dasharray="4,5"></line>
                        <line x1="59.8389965" y1="3.04937603" x2="57" y2="0" id="Path-17"></line>
                        <line x1="59.8389965" y1="6.04937603" x2="57" y2="3.05894022" id="Path-17" transform="translate(58.419498, 4.554158) scale(-1, 1) translate(-58.419498, -4.554158) "></line>
                    </g>
                    <g id="Group-10" transform="translate(517.000000, 198.000000)" stroke="#BDBFC2" stroke-linecap="round" stroke-linejoin="round" stroke-width="2">
                        <line x1="0.5" y1="3.07974852" x2="59.5" y2="3.07974852" id="Path-6" stroke-dasharray="4,5"></line>
                        <line x1="59.8389965" y1="3.04937603" x2="57" y2="0" id="Path-17"></line>
                        <line x1="59.8389965" y1="6.04937603" x2="57" y2="3.05894022" id="Path-17" transform="translate(58.419498, 4.554158) scale(-1, 1) translate(-58.419498, -4.554158) "></line>
                    </g>
                    <circle id="Oval" fill="#3A5B85" cx="395.5" cy="276.5" r="4.5"></circle>
                    <path d="M395.514423,277 L395.977807,360.977929 C395.989996,363.187034 394.209044,364.987749 391.999939,364.999939 C391.992582,364.99998 391.985225,365 391.977867,365 L299,365 C296.790861,365 295,366.790861 295,369 L295,389 L295,389" id="Path-21" stroke="#3A5B85" stroke-width="2"></path>
                    <path d="M492.5,277 L492.034596,361.022156 C492.022408,363.222614 490.235149,365 488.034658,365 L399.5,365 C397.290861,365 395.5,366.790861 395.5,369 L395.5,389 L395.5,389" id="Path-21" stroke="#3A5B85" stroke-width="2" transform="translate(444.000000, 333.000000) scale(-1, 1) translate(-444.000000, -333.000000) "></path>
                    <rect id="Rectangle" stroke="#E5E9EC" stroke-width="2" fill="#FFFFFF" x="407" y="390" width="171" height="62" rx="4"></rect>
                    <rect id="Rectangle" stroke="#3A5B85" stroke-width="2" fill="#3A5B85" x="213" y="474" width="365" height="62" rx="4"></rect>
                    <path d="M351.612,508.368 L357.1,501.36 L351.612,501.344 L351.612,499.616 L359.468,499.616 L359.468,501.232 L353.996,508.256 L359.468,508.272 L359.468,510 L351.612,510 L351.612,508.368 Z M365.98,499.408 C366.673337,499.408 367.307997,499.522666 367.884,499.752 C368.460003,499.981334 368.955998,500.319998 369.372,500.768 C370.246671,501.706671 370.684,503.050658 370.684,504.8 C370.684,506.560009 370.246671,507.919995 369.372,508.88 C368.539996,509.776004 367.404007,510.224 365.964,510.224 C364.53466,510.224 363.404004,509.765338 362.572,508.848 C361.697329,507.898662 361.26,506.549342 361.26,504.8 C361.26,503.029324 361.697329,501.674671 362.572,500.736 C363.393337,499.850662 364.529326,499.408 365.98,499.408 Z M368.732,504.832 C368.732,503.637327 368.484002,502.717337 367.988,502.072 C367.491998,501.426663 366.822671,501.104 365.98,501.104 C365.137329,501.104 364.465336,501.426663 363.964,502.072 C363.462664,502.717337 363.212,503.634661 363.212,504.824 C363.212,506.013339 363.462664,506.92533 363.964,507.56 C364.465336,508.19467 365.137329,508.512 365.98,508.512 C366.822671,508.512 367.491998,508.19467 367.988,507.56 C368.484002,506.92533 368.732,506.016006 368.732,504.832 Z M376.908,499.408 C377.601337,499.408 378.235997,499.522666 378.812,499.752 C379.388003,499.981334 379.883998,500.319998 380.3,500.768 C381.174671,501.706671 381.612,503.050658 381.612,504.8 C381.612,506.560009 381.174671,507.919995 380.3,508.88 C379.467996,509.776004 378.332007,510.224 376.892,510.224 C375.46266,510.224 374.332004,509.765338 373.5,508.848 C372.625329,507.898662 372.188,506.549342 372.188,504.8 C372.188,503.029324 372.625329,501.674671 373.5,500.736 C374.321337,499.850662 375.457326,499.408 376.908,499.408 Z M379.66,504.832 C379.66,503.637327 379.412002,502.717337 378.916,502.072 C378.419998,501.426663 377.750671,501.104 376.908,501.104 C376.065329,501.104 375.393336,501.426663 374.892,502.072 C374.390664,502.717337 374.14,503.634661 374.14,504.824 C374.14,506.013339 374.390664,506.92533 374.892,507.56 C375.393336,508.19467 376.065329,508.512 376.908,508.512 C377.750671,508.512 378.419998,508.19467 378.916,507.56 C379.412002,506.92533 379.66,506.016006 379.66,504.832 Z M385.756,499.616 L385.756,503.888 L389.852,499.616 L392.444,499.616 L387.868,504.288 L392.748,510 L390.3,510 L386.604,505.6 L385.756,506.464 L385.756,510 L383.852,510 L383.852,499.616 L385.756,499.616 Z M394.3,499.616 L400.988,499.616 L400.988,501.248 L396.188,501.248 L396.188,503.984 L400.684,503.984 L400.684,505.616 L396.188,505.616 L396.188,508.352 L400.988,508.352 L400.988,510 L394.3,510 L394.3,499.616 Z M403.676,499.616 L410.364,499.616 L410.364,501.248 L405.564,501.248 L405.564,503.984 L410.06,503.984 L410.06,505.616 L405.564,505.616 L405.564,508.352 L410.364,508.352 L410.364,510 L403.676,510 L403.676,499.616 Z M416.684,499.616 C417.857339,499.616 418.771997,499.90133 419.428,500.472 C420.084003,501.04267 420.412,501.858661 420.412,502.92 C420.412,503.981339 420.084003,504.79733 419.428,505.368 C418.771997,505.93867 417.857339,506.224 416.684,506.224 L414.924,506.224 L414.924,510 L413.02,510 L413.02,499.616 L416.684,499.616 Z M416.684,504.576 C417.27067,504.576 417.713332,504.421335 418.012,504.112 C418.310668,503.802665 418.46,503.405336 418.46,502.92 C418.46,502.434664 418.310668,502.034668 418.012,501.72 C417.713332,501.405332 417.27067,501.248 416.684,501.248 L414.924,501.248 L414.924,504.576 L416.684,504.576 Z M422.348,499.616 L429.036,499.616 L429.036,501.248 L424.236,501.248 L424.236,503.984 L428.732,503.984 L428.732,505.616 L424.236,505.616 L424.236,508.352 L429.036,508.352 L429.036,510 L422.348,510 L422.348,499.616 Z M439.452,502.8 C439.452,503.536004 439.244002,504.165331 438.828,504.688 C438.411998,505.210669 437.814671,505.573332 437.036,505.776 L439.82,510 L437.356,510 L435.068,505.952 L433.628,505.952 L433.628,510 L431.74,510 L431.74,499.616 L435.58,499.616 C436.806673,499.616 437.76133,499.90933 438.444,500.496 C439.116003,501.061336 439.452,501.829328 439.452,502.8 Z M435.404,504.688 L433.628,504.688 L433.628,501.248 L435.58,501.248 C436.220003,501.248 436.699998,501.405332 437.02,501.72 C437.340002,502.034668 437.5,502.450664 437.5,502.968 C437.5,503.485336 437.324002,503.901332 436.972,504.216 C436.619998,504.530668 436.097337,504.688 435.404,504.688 Z" id="ZOOKEEPER" fill="#FFFFFF" fill-rule="nonzero"></path>
                    <g id="Group-16" transform="translate(429.000000, 411.000000)">
                        <path d="M31.263,15 L31.263,13.964 L26.923,13.964 L26.923,5.662 L25.761,5.662 L25.761,15 L31.263,15 Z M35.813,15.168 C37.871,15.168 39.159,13.572 39.159,11.612 C39.159,9.652 37.871,8.07 35.813,8.07 C33.755,8.07 32.467,9.652 32.467,11.612 C32.467,13.572 33.755,15.168 35.813,15.168 Z M35.813,14.23 C34.371,14.23 33.559,12.998 33.559,11.612 C33.559,10.24 34.371,9.008 35.813,9.008 C37.255,9.008 38.053,10.24 38.053,11.612 C38.053,12.998 37.255,14.23 35.813,14.23 Z M43.583,17.744 C45.235,17.744 46.803,17.044 46.803,14.804 L46.803,8.238 L45.753,8.238 L45.753,9.26 C45.207,8.518 44.395,8.07 43.485,8.07 C41.707,8.07 40.475,9.414 40.475,11.584 C40.475,13.768 41.721,15.084 43.485,15.084 C44.437,15.084 45.263,14.566 45.753,13.88 L45.753,14.846 C45.753,16.33 44.703,16.876 43.583,16.876 C42.617,16.876 41.945,16.624 41.385,15.952 L40.853,16.736 C41.651,17.52 42.435,17.744 43.583,17.744 Z M43.737,14.16 C42.379,14.16 41.567,13.068 41.567,11.584 C41.567,10.086 42.379,9.008 43.737,9.008 C44.577,9.008 45.389,9.512 45.753,10.1 L45.753,13.054 C45.389,13.642 44.577,14.16 43.737,14.16 Z M51.045,15.168 C52.795,15.168 53.705,14.258 53.705,13.124 C53.705,10.492 49.519,11.472 49.519,9.988 C49.519,9.386 50.093,8.924 51.017,8.924 C51.885,8.924 52.627,9.288 53.033,9.778 L53.523,9.05 C52.977,8.504 52.165,8.07 51.017,8.07 C49.407,8.07 48.497,8.966 48.497,10.016 C48.497,12.522 52.683,11.514 52.683,13.152 C52.683,13.824 52.123,14.314 51.087,14.314 C50.163,14.314 49.309,13.866 48.861,13.348 L48.315,14.104 C49.001,14.832 49.939,15.168 51.045,15.168 Z M66.557,15 C65.871,14.37 65.283,13.81 64.737,13.236 C65.297,12.452 65.689,11.57 66.011,10.828 L65.101,10.436 L64.981384,10.782304 C64.79636,11.2872 64.5074,11.948 64.093,12.564 C63.82,12.27 63.547,11.968125 63.2680938,11.6465625 L62.6546296,10.9327407 C62.4192222,10.6537778 62.161,10.3333333 61.909,9.988 L62.3928007,9.73401202 C63.4014174,9.18942149 64.289,8.56509091 64.289,7.356 C64.289,6.18 63.393,5.522 62.175,5.522 C60.859,5.522 59.823,6.446 59.823,7.692 C59.823,8.35 60.117,9.078 60.537,9.792 C59.459,10.366 58.479,11.108 58.479,12.564 C58.479,14.3 59.781,15.168 61.391,15.168 C62.525,15.168 63.393,14.706 64.079,14.02 C64.457,14.412 64.821,14.762 65.101,15 L66.557,15 Z M61.489,14.3 C60.509,14.3 59.613,13.656 59.613,12.494 C59.613,11.528 60.215,10.954 60.985,10.478 C61.2685,10.877 61.56775,11.26025 61.8650313,11.6159375 L62.3695213,12.2057805 C62.6468519,12.5218272 63.0352222,12.9404444 63.449,13.376 C62.917,13.908 62.259,14.3 61.489,14.3 Z M60.915,7.706 C60.915,6.908 61.503,6.348 62.217,6.348 C62.847,6.348 63.323,6.712 63.323,7.398 C63.323,8.322 62.469,8.826 61.475,9.316 C61.153,8.77 60.915,8.196 60.915,7.706 Z M74.943,15.168 C76.721,15.168 77.953,13.796 77.953,11.612 C77.953,9.414 76.721,8.07 74.943,8.07 C73.991,8.07 73.151,8.56 72.661,9.246 L72.661,8.238 L71.611,8.238 L71.611,17.576 L72.661,17.576 L72.661,13.978 C73.207,14.734 74.019,15.168 74.943,15.168 Z M74.677,14.23 C73.851,14.23 73.025,13.726 72.661,13.138 L72.661,10.086 C73.025,9.498 73.851,9.008 74.677,9.008 C76.035,9.008 76.847,10.114 76.847,11.612 C76.847,13.11 76.035,14.23 74.677,14.23 Z M84.897,15 L84.897,10.352 C84.897,8.714 83.707,8.07 82.279,8.07 C81.173,8.07 80.305,8.434 79.577,9.19 L80.067,9.918 C80.669,9.274 81.327,8.98 82.139,8.98 C83.119,8.98 83.847,9.498 83.847,10.408 L83.847,11.626 C83.301,10.996 82.531,10.702 81.607,10.702 C80.459,10.702 79.241,11.416 79.241,12.928 C79.241,14.398 80.459,15.168 81.607,15.168 C82.517,15.168 83.287,14.846 83.847,14.23 L83.847,15 L84.897,15 Z M81.985,14.412 C81.005,14.412 80.319,13.796 80.319,12.942 C80.319,12.074 81.005,11.458 81.985,11.458 C82.727,11.458 83.441,11.738 83.847,12.298 L83.847,13.572 C83.441,14.132 82.727,14.412 81.985,14.412 Z M88.047,15 L88.047,10.212 C88.355,9.666 89.237,9.134 89.881,9.134 C90.049,9.134 90.175,9.148 90.301,9.176 L90.301,8.098 C89.377,8.098 88.593,8.616 88.047,9.33 L88.047,8.238 L86.997,8.238 L86.997,15 L88.047,15 Z M93.325,15.168 C93.941,15.168 94.319,14.986 94.585,14.734 L94.277,13.95 C94.137,14.104 93.857,14.23 93.563,14.23 C93.101,14.23 92.877,13.866 92.877,13.362 L92.877,9.162 L94.249,9.162 L94.249,8.238 L92.877,8.238 L92.877,6.39 L91.827,6.39 L91.827,8.238 L90.707,8.238 L90.707,9.162 L91.827,9.162 L91.827,13.586 C91.827,14.594 92.331,15.168 93.325,15.168 Z M96.251,7.272 C96.643,7.272 96.965,6.964 96.965,6.572 C96.965,6.18 96.643,5.858 96.251,5.858 C95.873,5.858 95.551,6.18 95.551,6.572 C95.551,6.964 95.873,7.272 96.251,7.272 Z M96.783,15 L96.783,8.238 L95.733,8.238 L95.733,15 L96.783,15 Z M100.591,15.168 C101.207,15.168 101.585,14.986 101.851,14.734 L101.543,13.95 C101.403,14.104 101.123,14.23 100.829,14.23 C100.367,14.23 100.143,13.866 100.143,13.362 L100.143,9.162 L101.515,9.162 L101.515,8.238 L100.143,8.238 L100.143,6.39 L99.093,6.39 L99.093,8.238 L97.973,8.238 L97.973,9.162 L99.093,9.162 L99.093,13.586 C99.093,14.594 99.597,15.168 100.591,15.168 Z M103.517,7.272 C103.909,7.272 104.231,6.964 104.231,6.572 C104.231,6.18 103.909,5.858 103.517,5.858 C103.139,5.858 102.817,6.18 102.817,6.572 C102.817,6.964 103.139,7.272 103.517,7.272 Z M104.049,15 L104.049,8.238 L102.999,8.238 L102.999,15 L104.049,15 Z M109.103,15.168 C111.161,15.168 112.449,13.572 112.449,11.612 C112.449,9.652 111.161,8.07 109.103,8.07 C107.045,8.07 105.757,9.652 105.757,11.612 C105.757,13.572 107.045,15.168 109.103,15.168 Z M109.103,14.23 C107.661,14.23 106.849,12.998 106.849,11.612 C106.849,10.24 107.661,9.008 109.103,9.008 C110.545,9.008 111.343,10.24 111.343,11.612 C111.343,12.998 110.545,14.23 109.103,14.23 Z M119.771,15 L119.771,10.254 C119.771,8.784 119.029,8.07 117.615,8.07 C116.607,8.07 115.683,8.658 115.207,9.218 L115.207,8.238 L114.157,8.238 L114.157,15 L115.207,15 L115.207,10.058 C115.599,9.512 116.383,9.008 117.209,9.008 C118.119,9.008 118.721,9.386 118.721,10.576 L118.721,15 L119.771,15 Z M124.013,15.168 C122.907,15.168 121.969,14.832 121.283,14.104 L121.829,13.348 C122.277,13.866 123.131,14.314 124.055,14.314 C125.091,14.314 125.651,13.824 125.651,13.152 C125.651,11.514 121.465,12.522 121.465,10.016 C121.465,8.966 122.375,8.07 123.985,8.07 C125.133,8.07 125.945,8.504 126.491,9.05 L126.001,9.778 C125.595,9.288 124.853,8.924 123.985,8.924 C123.061,8.924 122.487,9.386 122.487,9.988 C122.487,11.472 126.673,10.492 126.673,13.124 C126.673,14.258 125.763,15.168 124.013,15.168 Z" id="Logs&amp;partitions" fill="#6D7782" fill-rule="nonzero"></path>
                        <g id="Group-2" stroke="#3F9EE1" stroke-linejoin="round" stroke-width="1.4">
                            <polygon id="Path-18" points="0.6 0 0.6 19.6 14.6 19.6 14.6 3.76923077 10.7071164 0"></polygon>
                            <polyline id="Path-19" stroke-linecap="round" points="11.1 0.7 11.1 4.2 14.6 4.2"></polyline>
                            <line x1="4.8" y1="8.05" x2="9.12898263" y2="8.05" id="Path-20" stroke-linecap="round"></line>
                            <line x1="4.8" y1="11.55" x2="10.8197217" y2="11.55" id="Path-20" stroke-linecap="round"></line>
                            <line x1="4.8" y1="15.05" x2="10.8197217" y2="15.05" id="Path-20" stroke-linecap="round"></line>
                        </g>
                    </g>
                    <g id="Group-13" transform="translate(269.000000, 411.000000)">
                        <path d="M29.064,15 L29.064,6.698 L32.032,6.698 L32.032,5.662 L24.948,5.662 L24.948,6.698 L27.902,6.698 L27.902,15 L29.064,15 Z M36.484,15.168 C38.542,15.168 39.83,13.572 39.83,11.612 C39.83,9.652 38.542,8.07 36.484,8.07 C34.426,8.07 33.138,9.652 33.138,11.612 C33.138,13.572 34.426,15.168 36.484,15.168 Z M36.484,14.23 C35.042,14.23 34.23,12.998 34.23,11.612 C34.23,10.24 35.042,9.008 36.484,9.008 C37.926,9.008 38.724,10.24 38.724,11.612 C38.724,12.998 37.926,14.23 36.484,14.23 Z M44.87,15.168 C46.648,15.168 47.88,13.796 47.88,11.612 C47.88,9.414 46.648,8.07 44.87,8.07 C43.918,8.07 43.078,8.56 42.588,9.246 L42.588,8.238 L41.538,8.238 L41.538,17.576 L42.588,17.576 L42.588,13.978 C43.134,14.734 43.946,15.168 44.87,15.168 Z M44.604,14.23 C43.778,14.23 42.952,13.726 42.588,13.138 L42.588,10.086 C42.952,9.498 43.778,9.008 44.604,9.008 C45.962,9.008 46.774,10.114 46.774,11.612 C46.774,13.11 45.962,14.23 44.604,14.23 Z M50.064,7.272 C50.456,7.272 50.778,6.964 50.778,6.572 C50.778,6.18 50.456,5.858 50.064,5.858 C49.686,5.858 49.364,6.18 49.364,6.572 C49.364,6.964 49.686,7.272 50.064,7.272 Z M50.596,15 L50.596,8.238 L49.546,8.238 L49.546,15 L50.596,15 Z M55.678,15.168 C56.91,15.168 57.638,14.664 58.156,13.992 L57.456,13.348 C57.008,13.95 56.434,14.23 55.734,14.23 C54.292,14.23 53.396,13.11 53.396,11.612 C53.396,10.114 54.292,9.008 55.734,9.008 C56.434,9.008 57.008,9.274 57.456,9.89 L58.156,9.246 C57.638,8.574 56.91,8.07 55.678,8.07 C53.662,8.07 52.304,9.61 52.304,11.612 C52.304,13.628 53.662,15.168 55.678,15.168 Z M61.768,15.168 C60.662,15.168 59.724,14.832 59.038,14.104 L59.584,13.348 C60.032,13.866 60.886,14.314 61.81,14.314 C62.846,14.314 63.406,13.824 63.406,13.152 C63.406,11.514 59.22,12.522 59.22,10.016 C59.22,8.966 60.13,8.07 61.74,8.07 C62.888,8.07 63.7,8.504 64.246,9.05 L63.756,9.778 C63.35,9.288 62.608,8.924 61.74,8.924 C60.816,8.924 60.242,9.386 60.242,9.988 C60.242,11.472 64.428,10.492 64.428,13.124 C64.428,14.258 63.518,15.168 61.768,15.168 Z" id="Topics" fill="#6D7782" fill-rule="nonzero"></path>
                        <g id="Group-2" stroke="#3F9EE1" stroke-linejoin="round" stroke-width="1.4">
                            <polygon id="Path-18" points="0.6 0 0.6 19.6 14.6 19.6 14.6 3.76923077 10.7071164 0"></polygon>
                            <polyline id="Path-19" stroke-linecap="round" points="11.1 0.7 11.1 4.2 14.6 4.2"></polyline>
                            <line x1="4.8" y1="8.05" x2="9.12898263" y2="8.05" id="Path-20" stroke-linecap="round"></line>
                            <line x1="4.8" y1="11.55" x2="10.8197217" y2="11.55" id="Path-20" stroke-linecap="round"></line>
                            <line x1="4.8" y1="15.05" x2="10.8197217" y2="15.05" id="Path-20" stroke-linecap="round"></line>
                        </g>
                    </g>
                    <line x1="295" y1="453" x2="295" y2="483" id="Path-22" stroke="#3A5B85" stroke-width="2"></line>
                    <line x1="492.5" y1="453" x2="492.5" y2="483" id="Path-22" stroke="#3A5B85" stroke-width="2"></line>
                </g>
                <g id="logo-cloudkarafka" transform="translate(287.000000, 53.000000)" fill="#252232" fill-rule="nonzero">
                    <path d="M14.3666773,11.3184563 C13.4902214,9.8605354 12.8588408,8.81003353 12.8588408,7.30418103 C12.8588408,3.21268259 15.0562113,1.86393937 15.1503646,1.80801912 L15.1503646,1.79736764 C15.3304124,1.68470096 15.439631,1.49265655 15.441132,1.28609677 C15.441132,0.772163022 14.8374435,0.472590244 13.3642222,0.256897843 C11.9573676,0.0738332577 10.5386325,-0.0115993828 9.11901857,0.00126240567 C7.6902345,-0.0104726428 6.26237555,0.0749521766 4.84612284,0.256897843 C3.32305566,0.476584548 2.72629025,0.765505849 2.72629025,1.28609677 C2.72629025,1.52176069 2.84813562,1.71082439 3.12228771,1.86660224 C3.65536122,2.29931848 5.14519785,3.81582245 5.14519785,7.22562639 C5.14519785,8.73147889 4.51104806,9.78198076 3.63459213,11.2359073 C2.1004481,13.7789473 0,17.2619802 0,25.6979496 C0.00174577501,25.8133291 0.0516375205,25.9231937 0.138460652,26.0028481 C1.66152783,27.4674262 5.71704034,28 8.99994241,28 L9.01378848,28 C12.2966905,28 16.3438954,27.4767462 17.8752702,26.0028481 C17.9570144,25.9210052 18.0018063,25.8114115 17.9999442,25.6979496 C17.9832695,17.3218947 15.8925137,13.8481819 14.3666773,11.3184563 Z M9.11901857,0.862700573 C11.6819252,0.862700573 13.3725298,1.08638158 14.1465249,1.28609677 C13.3725298,1.48714339 11.6833099,1.71082439 9.11901857,1.71082439 C6.53257358,1.71082439 4.82673834,1.48714339 4.03058959,1.28609677 C4.82119992,1.08638158 6.53257358,0.862700573 9.11901857,0.862700573 Z M4.68827769,2.2926613 L4.85304587,2.31662712 C6.26838302,2.49844753 7.69531199,2.58387208 9.12317239,2.57226256 C10.5386299,2.58454981 11.953179,2.49911846 13.3559145,2.31662712 L13.4126834,2.30863852 C12.699611,3.26860284 11.9630004,4.85567285 11.9630004,7.30418103 C11.9630004,9.03504597 12.7148417,10.2892573 13.5857592,11.7365267 C11.4410037,13.1052415 10.444087,12.4621586 9.19794114,11.6566406 C8.11933266,10.9589689 6.92303262,10.184074 4.95412215,10.744608 C5.57581047,9.65016874 6.03965366,8.58635252 6.03965366,7.22562639 C6.03965366,4.82904416 5.35565804,3.25795137 4.68412387,2.2926613 L4.68827769,2.2926613 Z M9.00686544,27.135899 L8.99994241,27.135899 C5.30304299,27.135899 2.1004481,26.4861589 0.901378848,25.5115488 C0.930455585,17.7412966 2.79690518,14.3621157 4.24935742,11.9428991 C6.42318967,10.9017172 7.47687523,11.5847432 8.69948279,12.371621 C9.45824717,12.8629204 10.2765496,13.3914999 11.366235,13.3914999 C12.1069995,13.3914999 12.9723785,13.1478474 14.0316025,12.4847929 C15.4272859,14.8680608 17.0611216,18.2791962 17.1012752,25.5115488 C15.8994367,26.4888218 12.7009957,27.135899 9.00686544,27.135899 Z" id="Shape"></path>
                    <path d="M7,24 C5.34314575,24 4,22.6568542 4,21 C4,19.3431458 5.34314575,18 7,18 C8.65685425,18 10,19.3431458 10,21 C9.99832033,22.656158 8.65615801,23.9983203 7,24 L7,24 Z M7,18.8075165 C6.11246835,18.8075165 5.31235753,19.3422344 4.97285638,20.1622657 C4.63335523,20.9822971 4.82134459,21.9260981 5.44914218,22.5534597 C6.07693978,23.1808213 7.02087114,23.368155 7.84066644,23.0280843 C8.66046173,22.6880135 9.19462345,21.8875314 9.19400764,21 C9.19232694,19.7892266 8.21077424,18.8083556 7,18.8075165 L7,18.8075165 Z" id="Shape"></path>
                    <path d="M7.00002923,18 C6.19111656,18 5.46185465,17.5127228 5.15229717,16.7653849 C4.84273969,16.0180471 5.0138487,15.157824 5.58583634,14.5858363 C6.15782397,14.0138487 7.01804705,13.8427397 7.76538491,14.1522972 C8.51272277,14.4618546 9,15.1911166 9,16.0000292 C8.9991587,17.1042339 8.10423392,17.9991587 7.00002923,18 L7.00002923,18 Z M7.00002923,14.8070642 C6.34117284,14.8070642 5.80706421,15.3411728 5.80706421,16.0000292 C5.80706421,16.6588856 6.34117284,17.1929943 7.00002923,17.1929943 C7.65888562,17.1929943 8.19299425,16.6588856 8.19299425,16.0000292 C8.19215378,15.3415213 7.65853717,14.8079047 7.00002923,14.8070642 L7.00002923,14.8070642 Z" id="Shape"></path>
                    <path d="M12.0000281,20 C11.190977,20 10.461619,19.5125573 10.1521512,18.7650321 C9.84268343,18.0175069 10.0140722,17.1571642 10.586376,16.5852967 C11.1586798,16.0134293 12.0191527,15.842697 12.7664412,16.1527352 C13.5137298,16.4627734 14.0006154,17.1925034 14,18.0015547 C13.9983162,19.1051636 13.1036376,19.9991601 12.0000281,20 Z M12.0000281,16.8085896 C11.341172,16.8085896 10.8070635,17.3426983 10.8070635,18.0015547 C10.8070635,18.6604111 11.341172,19.1945197 12.0000281,19.1945197 C12.6588843,19.1945197 13.1929967,18.6604111 13.1929967,18.0015547 C13.1938033,17.6846324 13.0684742,17.3804126 12.8446621,17.1560279 C12.6208499,16.9316433 12.3169514,16.8055385 12.0000281,16.8055385 L12.0000281,16.8085896 Z" id="Shape"></path>
                    <path d="M14,25 C12.8954305,25 12,24.1045695 12,23 C12,21.8954305 12.8954305,21 14,21 C15.1045695,21 16,21.8954305 16,23 C15.9991587,24.1042208 15.1042208,24.9991587 14,25 L14,25 Z M14,21.8070175 C13.5174836,21.8070175 13.0824789,22.0976784 12.8978279,22.5434654 C12.7131769,22.9892524 12.8152434,23.5023754 13.156434,23.843566 C13.4976246,24.1847566 14.0107476,24.2868231 14.4565346,24.1021721 C14.9023216,23.9175211 15.1929825,23.4825164 15.1929825,23 C15.192142,22.3414824 14.6585176,21.807858 14,21.8070175 L14,21.8070175 Z" id="Shape"></path>
                    <g id="logo-cloudkarafka-blue-and-black" transform="translate(27.000000, 0.000000)">
                        <g id="Layer_2">
                            <g id="Group" transform="translate(0.393334, 0.000000)">
                                <path d="M2.41856414,22.132569 C0.820253772,20.5048501 0.0214687359,18.3443563 0.0214687359,15.6525573 C0.0214687359,12.9600235 0.820253772,10.8002646 2.41856414,9.17254556 C4.01613421,7.54482658 6.08749707,6.73059964 8.63117213,6.73059964 C10.7543561,6.73059964 12.5310791,7.24206349 13.9606007,8.26425632 C15.3901224,9.287184 16.3465916,10.7370664 16.8307486,12.6153733 L12.0372981,12.6153733 C11.4694871,11.1750441 10.3346053,10.4556143 8.63117213,10.4556143 C7.34823009,10.4556143 6.34512191,10.920047 5.61962669,11.8489124 C4.89413148,12.7777778 4.53138388,14.0454145 4.53138388,15.6525573 C4.53138388,17.2597002 4.89413148,18.5273369 5.61962669,19.4562022 C6.34512191,20.3850675 7.3489704,20.8495004 8.63117213,20.8495004 C10.3131365,20.8495004 11.4480183,20.1190477 12.0372981,18.6581423 L16.8307486,18.6581423 C16.3258632,20.473986 15.3531074,21.9135803 13.9139618,22.9783951 C12.4733356,24.042475 10.7128992,24.5752498 8.63117213,24.5752498 C6.08675679,24.574515 4.01613421,23.7602881 2.41856414,22.132569 Z" id="Path"></path>
                                <polygon id="Path" points="17.9027048 24.323927 17.9027048 1.15814227 22.3496944 1.15814227 22.3496944 24.323927"></polygon>
                                <path d="M26.165207,22.1017048 C24.462514,20.4534098 23.6104274,18.292916 23.6104274,15.6216931 C23.6104274,12.9504703 24.4721381,10.8009994 26.1962996,9.17254556 C27.9197208,7.54482658 30.0591914,6.73059964 32.613971,6.73059964 C35.1687506,6.73059964 37.3074808,7.54482658 39.0316425,9.17254556 C40.7550637,10.8002646 41.6175148,12.9504703 41.6175148,15.6216931 C41.6175148,18.2936507 40.7506219,20.4534098 39.0160961,22.1017048 C37.2815704,23.7507349 35.1317356,24.574515 32.5665918,24.574515 C30.001448,24.574515 27.8678997,23.75 26.165207,22.1017048 Z M32.5665918,20.8495004 C33.8065964,20.8495004 34.8733703,20.3953556 35.7676543,19.4878013 C36.6611978,18.5802469 37.1075996,17.2964433 37.1075996,15.6371252 C37.1075996,13.9778072 36.66638,12.6998824 35.7832006,11.8018812 C34.9000213,10.9046149 33.8325068,10.4556143 32.582138,10.4556143 C31.331029,10.4556143 30.2746191,10.9046149 29.4129084,11.8018812 C28.5504576,12.6991476 28.1196022,13.9829512 28.1196022,15.6525573 C28.1196022,17.3221634 28.5504576,18.6059671 29.4129084,19.5032333 C30.2753594,20.4004997 31.3258468,20.8495004 32.5665918,20.8495004 Z" id="Shape"></path>
                                <path d="M54.92591,6.98118753 L59.3728996,6.98118753 L59.3728996,24.323927 L54.92591,24.323927 L54.92591,21.6945913 C53.8110163,23.5942093 51.9928365,24.5436509 49.46989,24.5436509 C47.4932856,24.5436509 45.8749871,23.8918284 44.6135139,22.5867138 C43.3520405,21.2823339 42.7213039,19.4716344 42.7213039,17.1553498 L42.7213039,6.98118753 L47.1364604,6.98118753 L47.1364604,16.5292475 C47.1364604,17.8858025 47.4836617,18.9293063 48.177324,19.659759 C48.8709862,20.3902117 49.8170913,20.755438 51.0156388,20.755438 C52.2141866,20.755438 53.1647333,20.3902117 53.8695001,19.659759 C54.5735267,18.9293063 54.92591,17.8865372 54.92591,16.5292475 L54.92591,6.98118753 L54.92591,6.98118753 Z" id="Path"></path>
                                <path d="M62.9522561,22.0546737 C61.3857786,20.3747795 60.60254,18.2304527 60.60254,15.6216931 C60.60254,13.0129336 61.3798562,10.8788948 62.9359695,9.21957673 C64.4913424,7.56025868 66.4679466,6.73059964 68.8650421,6.73059964 C71.2621374,6.73059964 73.0906816,7.7116402 74.3521548,9.67298648 L74.3521548,1.15814227 L78.7673114,1.15814227 L78.7673114,24.323927 L74.3521548,24.323927 L74.3521548,21.4124044 C73.027756,23.520723 71.1873671,24.574515 68.8332091,24.574515 C66.4783108,24.574515 64.5179932,23.7345678 62.9522561,22.0546737 Z M72.9648304,19.393739 C73.8894665,18.4861845 74.3521548,17.2391241 74.3521548,15.6525573 C74.3521548,14.0667255 73.8894665,12.8196649 72.9648304,11.9113757 C72.0394537,11.0038213 70.9571333,10.5496767 69.7163886,10.5496767 C68.4756436,10.5496767 67.3985053,10.9986773 66.483493,11.8959436 C65.5692209,12.7932099 65.1117148,14.0351264 65.1117148,15.6209583 C65.1117148,17.207525 65.5736628,18.4597295 66.4990392,19.3775721 C67.4236756,20.2961493 68.5015542,20.7547031 69.7319348,20.7547031 C70.9623155,20.7547031 72.0394537,20.3012934 72.9648304,19.393739 Z" id="Shape"></path>
                                <polygon id="Path" points="85.674322 24.323927 81.2273325 24.323927 81.2273325 1.15814227 85.674322 1.15814227 85.674322 14.4003527 91.5715616 6.98118753 97.5953929 6.98118753 89.8370359 15.7466196 97.5946525 24.323927 91.6655799 24.323927 85.6735817 17.0921517 85.6735817 24.323927"></polygon>
                                <path d="M98.9982637,22.0546737 C97.4317863,20.3747795 96.6485476,18.2304527 96.6485476,15.6216931 C96.6485476,13.0129336 97.4258639,10.8788948 98.981977,9.21957673 C100.53735,7.56025868 102.513954,6.73059964 104.91105,6.73059964 C107.308145,6.73059964 109.136689,7.7116402 110.398162,9.67298648 L110.398162,6.98118753 L114.813319,6.98118753 L114.813319,24.323927 L110.398162,24.323927 L110.398162,21.4124044 C109.073763,23.520723 107.233375,24.574515 104.879217,24.574515 C102.525059,24.574515 100.564001,23.7345678 98.9982637,22.0546737 Z M109.010838,19.393739 C109.935474,18.4861845 110.398162,17.2391241 110.398162,15.6525573 C110.398162,14.0667255 109.935474,12.8196649 109.010838,11.9113757 C108.085461,11.0038213 107.003141,10.5496767 105.762396,10.5496767 C104.521651,10.5496767 103.444513,10.9986773 102.5295,11.8959436 C101.615229,12.7932099 101.157722,14.0351264 101.157722,15.6209583 C101.157722,17.207525 101.61967,18.4597295 102.545047,19.3775721 C103.469683,20.2961493 104.547562,20.7547031 105.777942,20.7547031 C107.008323,20.7547031 108.085461,20.3012934 109.010838,19.393739 Z" id="Shape"></path>
                                <path d="M121.720329,6.98118753 L121.720329,10.0492357 C122.897408,7.83730159 124.600842,6.73059964 126.829148,6.73059964 L126.829148,11.2382422 L125.725359,11.2382422 C124.40096,11.2382422 123.402294,11.5667254 122.72936,12.2244268 C122.056426,12.8821282 121.720329,14.0138154 121.720329,15.6209583 L121.720329,24.323927 L117.27334,24.323927 L117.27334,6.98118753 L121.720329,6.98118753 Z" id="Path"></path>
                                <path d="M128.831663,22.0546737 C127.265186,20.3747795 126.481947,18.2304527 126.481947,15.6216931 C126.481947,13.0129336 127.259263,10.8788948 128.815377,9.21957673 C130.37075,7.56025868 132.347354,6.73059964 134.744449,6.73059964 C137.141545,6.73059964 138.970089,7.7116402 140.231562,9.67298648 L140.231562,6.98118753 L144.646719,6.98118753 L144.646719,24.323927 L140.231562,24.323927 L140.231562,21.4124044 C138.907163,23.520723 137.066774,24.574515 134.712616,24.574515 C132.358458,24.574515 130.398141,23.7345678 128.831663,22.0546737 Z M138.844978,19.393739 C139.769614,18.4861845 140.232302,17.2391241 140.232302,15.6525573 C140.232302,14.0667255 139.769614,12.8196649 138.844978,11.9113757 C137.919601,11.0038213 136.837281,10.5496767 135.596536,10.5496767 C134.355791,10.5496767 133.278653,10.9986773 132.36364,11.8959436 C131.449368,12.7932099 130.991862,14.0351264 130.991862,15.6209583 C130.991862,17.207525 131.45381,18.4597295 132.379187,19.3775721 C133.303823,20.2961493 134.381702,20.7547031 135.612082,20.7547031 C136.842463,20.7547031 137.919601,20.3012934 138.844978,19.393739 Z" id="Shape"></path>
                                <path d="M154.581561,6.98118753 L154.581561,10.5812757 L151.806172,10.5812757 L151.806172,24.323927 L147.391015,24.323927 L147.391015,10.5812757 L145.498805,10.5812757 L145.498805,6.98118753 L147.391015,6.98118753 L147.391015,6.01043503 C147.391015,3.9234274 147.947722,2.40005878 149.062615,1.43959436 C150.176769,0.480599647 151.932763,0 154.329118,0 L154.329118,3.6941505 C153.403742,3.6941505 152.752277,3.87198707 152.373983,4.22619048 C151.995689,4.58112875 151.806172,5.17636685 151.806172,6.01043503 L151.806172,6.98118753 L154.581561,6.98118753 Z" id="Path"></path>
                                <polygon id="Path" points="159.816972 24.323927 155.369982 24.323927 155.369982 1.15814227 159.816972 1.15814227 159.816972 14.4003527 165.714211 6.98118753 171.738042 6.98118753 163.979685 15.7466196 171.737302 24.323927 165.808229 24.323927 159.816231 17.0921517 159.816231 24.323927"></polygon>
                                <path d="M173.140913,22.0546737 C171.574436,20.3747795 170.791197,18.2304527 170.791197,15.6216931 C170.791197,13.0129336 171.568513,10.8788948 173.124627,9.21957673 C174.68,7.56025868 176.656604,6.73059964 179.0537,6.73059964 C181.450795,6.73059964 183.279339,7.7116402 184.540812,9.67298648 L184.540812,6.98118753 L188.955968,6.98118753 L188.955968,24.323927 L184.540812,24.323927 L184.540812,21.4124044 C183.216413,23.520723 181.376025,24.574515 179.021866,24.574515 C176.667708,24.574515 174.70665,23.7345678 173.140913,22.0546737 Z M183.153487,19.393739 C184.078124,18.4861845 184.540812,17.2391241 184.540812,15.6525573 C184.540812,14.0667255 184.078124,12.8196649 183.153487,11.9113757 C182.228111,11.0038213 181.14579,10.5496767 179.905045,10.5496767 C178.664301,10.5496767 177.587162,10.9986773 176.67215,11.8959436 C175.757878,12.7932099 175.300372,14.0351264 175.300372,15.6209583 C175.300372,17.207525 175.76232,18.4597295 176.687696,19.3775721 C177.612333,20.2961493 178.690211,20.7547031 179.920592,20.7547031 C181.150973,20.7547031 182.228111,20.3012934 183.153487,19.393739 Z" id="Shape"></path>
                            </g>
                        </g>
                    </g>
                </g>
                <g id="apache_kafka-ar21" transform="translate(329.000000, 171.000000)" fill="#231F20" fill-rule="nonzero">
                    <path d="M13.0415372,5.51680769 C12.3655309,4.82765385 11.4263009,4.4043548 10.380585,4.4043548 C9.38453798,4.40036824 8.43012851,4.80225471 7.73877638,5.51680769 L7.72082932,5.51680769 C7.00821645,6.23224484 6.61082976,7.2010169 6.6164863,8.20903846 C6.60955629,9.21288033 7.00239843,10.1784903 7.7088646,10.8941154 L7.72681167,10.9131923 C8.42098614,11.622195 9.37461498,12.0194488 10.3686203,12.013754 C11.4143362,12.013754 12.3523697,11.5963846 13.0295725,10.9131923 L13.0367513,10.8941154 C13.7139541,10.2168846 14.1135755,9.269 14.1135755,8.20903846 C14.1201175,7.2039726 13.7284241,6.23693015 13.0235901,5.518 L13.0295725,5.518 L13.0415372,5.51680769 Z M10.380585,57.5968077 C11.4263009,57.5968077 12.3643344,57.1651923 13.0415372,56.4879615 L13.048716,56.4688846 C13.7259188,55.7940385 14.1255402,54.8401923 14.1255402,53.7921538 C14.1255402,52.7190769 13.7127576,51.7819231 13.048716,51.0951538 L13.0415372,51.0951538 C12.3655309,50.4000385 11.4263009,49.9790903 10.380585,49.9790903 C9.38344024,49.9732647 8.42788687,50.3769266 7.73877638,51.0951538 L7.72082932,51.0951538 C7.01586365,51.8166049 6.62355629,52.7851823 6.62840576,53.7921538 C6.62373916,54.7931102 7.01641573,55.7553129 7.72082932,56.4688846 L7.73877638,56.4879615 C8.43409897,57.1961462 9.38634772,57.5954037 10.380585,57.5956154 L10.380585,57.5968077 Z M30.8211008,46.0707692 C31.7914282,45.814229 32.6159609,45.176687 33.1063609,44.3037692 L33.1757563,44.1702308 C33.6188666,43.3216235 33.7248138,42.3377852 33.4724812,41.4148077 C33.2260081,40.4657308 32.6349512,39.6239615 31.7232401,39.1017308 L31.6705954,39.0659615 C30.8216277,38.5887344 29.817509,38.4661215 28.8780314,38.7249615 C27.9447837,38.9610385 27.1072538,39.5917692 26.5951641,40.4979231 C26.0974123,41.3763007 25.9618345,42.4131107 26.2170792,43.3892692 C26.4750666,44.358427 27.1021831,45.189106 27.9651238,45.7047308 L27.9711061,45.7047308 C28.8684596,46.2293462 29.8818708,46.3211538 30.8222972,46.0624231 L30.8211008,46.0707692 Z M14.2176685,27.1130769 C13.2329726,26.1175 11.8725847,25.4915385 10.3698168,25.4915385 C8.92285731,25.4941806 7.53814764,26.0783774 6.5291439,27.1118846 C5.54803743,28.1062692 4.94499406,29.4786154 4.94499406,31.0047692 C4.94093354,32.4640178 5.50943017,33.8670491 6.5291439,34.9143462 C7.51025037,35.9039615 8.86704882,36.5239615 10.3578521,36.5239615 C11.8486553,36.5239615 13.2210079,35.9039615 14.2057038,34.9143462 C15.2265821,33.8671348 15.7959789,32.4635733 15.7922841,31.0035769 C15.798981,29.5482809 15.2287931,28.1491971 14.2057038,27.1106923 L14.2176685,27.1130769 Z M12.0640201,20.6293077 C14.2122339,20.9921132 16.1886288,22.0274043 17.7065788,23.5850385 L17.7185435,23.5850385 C17.9598696,23.8305942 18.1886832,24.0880588 18.4041216,24.3564615 L22.1490768,22.1590385 C21.6563678,20.6467431 21.6139783,19.024569 22.0270367,17.4887692 C22.5606629,15.4618462 23.8576378,13.6495385 25.7983142,12.5132692 L25.8617272,12.4727308 C27.6986486,11.4092992 29.8868505,11.1245386 31.936212,11.6822308 C34.0171622,12.249998 35.7836268,13.6239043 36.8417443,15.4976154 L36.8417443,15.5035769 C37.9568556,17.4589615 38.1817922,19.7028846 37.6517554,21.7226538 C37.1205222,23.7495769 35.8211543,25.5738077 33.8804779,26.7041154 L33.3683882,27.0105385 L33.3169399,27.0105385 C31.5806734,27.8476323 29.5994756,28.0318103 27.7377942,27.5291923 C26.2208296,27.1140874 24.8582637,26.2671563 23.8169577,25.0921154 L20.0767885,27.2823846 C20.5212744,28.4691757 20.7474344,29.7260947 20.7444194,30.9928462 C20.7444194,32.2996154 20.5075181,33.5610769 20.0767885,34.72 L23.8169577,36.9055 C24.8854066,35.6917308 26.2505804,34.8785769 27.7377942,34.4672308 C29.7359013,33.914 31.9469802,34.1488846 33.8804779,35.2923077 L34.0049109,35.3519231 L34.0049109,35.3578846 C35.8139266,36.4668856 37.1211152,38.2315179 37.6517554,40.2809231 C38.2055157,42.3779563 37.9148311,44.6076256 36.8417443,46.4940385 L36.774742,46.6311538 L36.7663667,46.6311538 C35.6966616,48.4448171 33.9632308,49.7747688 31.9302297,50.3416154 C29.9321226,50.8757692 27.7186507,50.6480385 25.7863495,49.5213077 L25.7863495,49.5058077 C23.9170335,48.4100215 22.5606241,46.6196336 22.015072,44.5279231 C21.6013677,42.9946162 21.6437673,41.3745408 22.137112,39.8648077 L18.3921569,37.6733462 C18.1762428,37.9375421 17.9474413,38.191014 17.7065788,38.4328462 L17.6946141,38.4447692 C16.196632,39.9709231 14.2248473,41.0320769 12.0520554,41.3838077 L12.0520554,45.7715 C13.5890513,46.1019381 14.9943462,46.8761624 16.092539,47.9975385 L16.0985214,48.0094615 C17.5618058,49.4855385 18.4675346,51.5434615 18.4675346,53.8040769 C18.4713918,55.9670318 17.6203134,58.0444894 16.0985214,59.5867692 L16.092539,59.6106154 C14.6208793,61.0819231 12.5988428,62 10.3698168,62 C8.15155898,62 6.1247366,61.0819231 4.65546984,59.5975 L4.64948748,59.5975 L4.64948748,59.5736538 C3.12608996,58.0316581 2.27366977,55.9536447 2.27688489,53.7897692 C2.27688489,51.5279615 3.18620308,49.4712308 4.64948748,47.9951538 L4.64948748,47.9832308 L4.65546984,47.9832308 C5.74782917,46.85613 7.15384949,46.0808173 8.69236401,45.7571923 L8.69236401,41.3695 C6.50880389,41.0165769 4.55257331,39.9566154 3.06894889,38.4304615 L3.05339476,38.4185385 C1.09752587,36.4387635 0.000889489456,33.7722309 0,30.9940385 C0,28.0967308 1.17014893,25.4760385 3.03903711,23.5743077 L3.05459124,23.5743077 C4.56994678,22.0164403 6.54454911,20.9809903 8.69116754,20.6185769 L8.69116754,16.2487692 C7.1577431,15.9081619 5.75583056,15.133044 4.65427337,14.0167692 L4.64829101,14.0167692 L4.64829101,14.0048462 C3.12417807,12.458468 2.27190797,10.3765376 2.27568842,8.20903846 C2.27350875,6.04220256 3.12556418,3.96122467 4.64829101,2.41442308 L4.66623808,2.40846154 C6.16288853,0.870815945 8.22019961,0.00207109508 10.3698168,0 C12.6000393,0 14.6208793,0.918076923 16.0937355,2.40846154 L16.0937355,2.41442308 L16.0997178,2.41442308 C17.5630023,3.89884615 18.468731,5.95915385 18.468731,8.20903846 C18.4705874,10.3751186 17.6200394,12.4555622 16.0997178,14.0036538 L16.0937355,14.0155769 C15.0025537,15.1172692 13.6098611,15.9053846 12.0532519,16.2475769 L12.0532519,20.6173846 L12.0640201,20.6293077 Z M33.103968,17.7141154 L33.0728597,17.6664231 C32.576499,16.8204574 31.7679961,16.2013217 30.8199043,15.9411538 C29.8554207,15.6767715 28.8245938,15.8131345 27.9627308,16.3191154 L27.9687132,16.3191154 C27.0689667,16.8365769 26.4671417,17.6843077 26.2146862,18.6321923 C25.9568688,19.6081884 26.0925742,20.645975 26.5927712,21.5235385 L26.6095218,21.5473846 C27.1275938,22.4416154 27.953159,23.0437308 28.8744419,23.2857692 C29.7993143,23.5504615 30.831869,23.4383846 31.7196507,22.9137692 L31.7675096,22.8899231 C32.6409336,22.3605385 33.2272045,21.5235385 33.4688917,20.6054615 C33.7165613,19.6575769 33.6184507,18.6214615 33.103968,17.7141154 M49.7253473,18.9982308 L53.9046216,18.9982308 L53.9046216,31.9371538 L59.932444,25.1767692 L64.9576235,25.1767692 L57.680685,33.0102308 L64.9636058,42.9230769 L60.1777206,42.9230769 L53.8938534,34.0546923 L53.8938534,42.9230769 L49.7133826,42.9230769 L49.7133826,18.9863077 M69.7877781,34.1202692 C69.7877781,36.3236538 71.3503697,39.5261923 75.1156648,39.5261923 C77.4451945,39.5261923 78.9778742,38.2957308 79.7735276,36.6825385 C80.1898996,35.8991923 80.381335,35.061 80.4459445,34.1786923 C80.4777368,33.320493 80.3132623,32.4663267 79.964963,31.6808077 C79.2327226,30.0032308 77.6055216,28.5486154 75.0857531,28.5486154 C71.7057216,28.5486154 69.7889746,31.3266923 69.7889746,34.0785385 L69.7889746,34.1083462 L69.7877781,34.1202692 Z M84.5905211,42.9230769 L80.4088539,42.9230769 L80.4088539,40.3679615 C79.2961356,42.4342308 76.9654095,43.4715385 74.5078574,43.4715385 C68.8928176,43.4715385 65.6061109,39.0361538 65.6061109,34.0260769 C65.6061109,28.4305769 69.5939498,24.614 74.5078574,24.614 C77.6976499,24.614 79.6431123,26.3285385 80.4088539,27.7533462 L80.4088539,25.1624615 L84.5905211,25.1624615 L84.5905211,42.9230769 M89.324958,28.4317692 L87.1713097,28.4317692 L87.1713097,25.1648462 L89.324958,25.1648462 L89.324958,24.1633077 C89.324958,18.8861538 93.2816886,18.5678077 96.2824387,18.5332308 L96.2824387,21.7953846 C95.227151,21.7953846 93.5066252,21.7953846 93.5066252,24.2920769 L93.5066252,25.1624615 L96.2824387,25.1624615 L96.2824387,28.4293846 L93.5066252,28.4293846 L93.5066252,42.9230769 L89.324958,42.9230769 L89.324958,28.4317692 M99.1360227,18.9863077 L103.314101,18.9863077 L103.314101,31.9252308 L109.344316,25.1648462 L114.369495,25.1648462 L107.092557,32.9983077 L114.382657,42.9230769 L109.596771,42.9230769 L103.312904,34.0546923 L103.312904,42.9230769 L99.1348262,42.9230769 L99.1348262,18.9863077 M119.211615,34.1202692 C119.211615,36.3236538 120.77301,39.5261923 124.539501,39.5261923 C126.865442,39.5261923 128.399318,38.2957308 129.205739,36.6825385 C129.624504,35.8991923 129.803975,35.061 129.878156,34.1786923 C129.906872,33.3357308 129.750134,32.4593846 129.395978,31.6808077 C128.678096,30.0032308 127.03893,28.5486154 124.517965,28.5486154 C121.136737,28.5486154 119.221186,31.3266923 119.221186,34.0785385 L119.221186,34.1083462 L119.211615,34.1202692 Z M134,42.9230769 L129.819529,42.9230769 L129.819529,40.3679615 C128.703222,42.4342308 126.373692,43.4715385 123.918533,43.4715385 C118.303493,43.4715385 115.020376,39.0361538 115.020376,34.0260769 C115.020376,28.4305769 119.004625,24.614 123.918533,24.614 C127.107129,24.614 129.053788,26.3285385 129.819529,27.7533462 L129.819529,25.1624615 L134,25.1624615 L134,42.9230769" id="Shape"></path>
                </g>
            </g>
        </g>
    </g>
</svg>