<svg version="1.1" id="Layer_1" xmlns="http://www.w3.org/2000/svg" x="0" y="0" viewBox="0 0 589 560.1" xml:space="preserve" enable-background="new 0 0 589 560.1"><style>.st0{fill-rule:evenodd;clip-rule:evenodd;fill:#b6b6c0}.st4{fill:none;stroke:#b6b6c0;stroke-width:2;stroke-linecap:square}.st5{enable-background:new}.st6{fill:#3d3d57}.st7{fill:#00abe8}.st10,.st12,.st8,.st9{fill-rule:evenodd;clip-rule:evenodd;fill:#00abe8}.st10,.st12,.st9{fill:#231f20}.st10,.st12{fill:#008ccc}.st12{fill:#68cef2}</style><g id="Page-1"><g id="Landing-Page" transform="translate(-730 -3074)"><g id="Graph" transform="translate(730 3074)"><g id="Group" transform="translate(101 .33)"><g id="Oval"><path id="path-1_1_" class="st0" d="M290 487.2C290 327.5 160.6 198 .9 198 0 198-.3 488 .4 488c144.7-.1 289.6-.4 289.6-.8z"/></g><defs><filter id="Adobe_OpacityMaskFilter" filterUnits="userSpaceOnUse" x="0" y="-44" width="532" height="532"><feColorMatrix values="1 0 0 0 0 0 1 0 0 0 0 0 1 0 0 0 0 0 1 0"/></filter></defs><mask maskUnits="userSpaceOnUse" x="0" y="-44" width="532" height="532" id="mask-4_1_"><g filter="url(#Adobe_OpacityMaskFilter)"><path id="path-3_1_" fill-rule="evenodd" clip-rule="evenodd" fill="#fff" d="M0 0h488v488H0z"/></g></mask><path id="Oval_1_" d="M532 486.6C532 193.6 294.6-44 1.6-44 0-44-.6 488 .6 488c265.6-.2 531.4-.8 531.4-1.4z" opacity=".25" mask="url(#mask-4_1_)" fill-rule="evenodd" clip-rule="evenodd" fill="#b6b6c0" enable-background="new"/></g><path id="Line-2" class="st4" d="M100 12l.8 476"/><path id="Triangle" class="st0" d="M101 0l6 12H95z"/><path id="Triangle_1_" class="st0" d="M589 488l-12 6v-12z"/><g class="st5"><path class="st6" d="M4.5 30L.1 18.5h1.6l3 8.3c.2.7.4 1.3.6 1.9.2-.6.4-1.3.6-1.9L9 18.5h1.5L6.1 30H4.5zM16.4 27.3l1.5.2c-.2.8-.7 1.5-1.3 2-.6.5-1.4.7-2.4.7-1.2 0-2.2-.4-2.9-1.1s-1.1-1.8-1.1-3.1c0-1.4.4-2.5 1.1-3.3s1.7-1.2 2.8-1.2c1.1 0 2 .4 2.7 1.1s1.1 1.8 1.1 3.2v.4h-6.2c.1.9.3 1.6.8 2.1s1 .7 1.7.7c.5 0 1-.1 1.3-.4.4-.2.6-.7.9-1.3zm-4.7-2.2h4.6c-.1-.7-.2-1.2-.5-1.6-.4-.5-1-.8-1.7-.8-.6 0-1.2.2-1.6.6-.5.5-.7 1-.8 1.8zM19.4 30v-8.3h1.3V23c.3-.6.6-1 .9-1.2s.6-.3.9-.3c.5 0 1 .2 1.4.5l-.5 1.3c-.3-.2-.7-.3-1-.3-.3 0-.6.1-.8.3-.2.2-.4.4-.5.8-.2.5-.2 1-.2 1.6V30h-1.5z"/><path class="st6" d="M24.5 33.2l-.2-1.3c.3.1.6.1.8.1.3 0 .6-.1.8-.2s.3-.3.5-.4c.1-.1.2-.5.4-1 0-.1.1-.2.1-.3l-3.1-8.3h1.5l1.7 4.8c.2.6.4 1.3.6 1.9.2-.6.4-1.3.6-1.9l1.8-4.8h1.4l-3.2 8.4c-.3.9-.6 1.5-.8 1.9-.3.5-.5.8-.9 1-.3.2-.7.3-1.2.3-.1 0-.4-.1-.8-.2zM36.4 24.4c0-1.9.5-3.4 1.5-4.5s2.3-1.6 4-1.6c1.1 0 2 .3 2.9.8.8.5 1.5 1.2 1.9 2.1s.7 1.9.7 3.1c0 1.2-.2 2.2-.7 3.1s-1.1 1.6-2 2.1-1.8.7-2.8.7c-1.1 0-2-.3-2.9-.8-.8-.5-1.5-1.2-1.9-2.1s-.7-1.9-.7-2.9zm1.6 0c0 1.4.4 2.5 1.1 3.3s1.7 1.2 2.8 1.2c1.1 0 2.1-.4 2.8-1.2.7-.8 1.1-1.9 1.1-3.4 0-.9-.2-1.7-.5-2.4s-.8-1.2-1.4-1.6c-.6-.4-1.3-.6-2-.6-1.1 0-2 .4-2.8 1.1S38 22.7 38 24.4zM49 33.2V21.7h1.3v1.1c.3-.4.6-.7 1-.9.4-.2.8-.3 1.4-.3.7 0 1.3.2 1.9.5.5.4 1 .9 1.2 1.5.3.7.4 1.4.4 2.2 0 .8-.2 1.6-.5 2.3s-.7 1.2-1.3 1.6c-.6.4-1.2.5-1.8.5-.5 0-.9-.1-1.3-.3-.4-.2-.7-.4-.9-.8v4H49zm1.3-7.3c0 1.1.2 1.9.6 2.4.4.5 1 .8 1.6.8.6 0 1.2-.3 1.6-.8s.7-1.3.7-2.5c0-1.1-.2-1.8-.7-2.4-.4-.5-1-.8-1.6-.8-.6 0-1.1.3-1.6.8s-.6 1.4-.6 2.5zM63.4 27.3l1.5.2c-.2.8-.7 1.5-1.3 2-.6.5-1.4.7-2.4.7-1.2 0-2.2-.4-2.9-1.1s-1.1-1.8-1.1-3.1c0-1.4.4-2.5 1.1-3.3s1.7-1.2 2.8-1.2c1.1 0 2 .4 2.7 1.1s1.1 1.8 1.1 3.2v.4h-6.2c.1.9.3 1.6.8 2.1s1 .7 1.7.7c.5 0 1-.1 1.3-.4.4-.2.7-.7.9-1.3zm-4.6-2.2h4.6c-.1-.7-.2-1.2-.5-1.6-.4-.5-1-.8-1.7-.8-.6 0-1.2.2-1.6.6-.5.5-.8 1-.8 1.8zM66.5 30v-8.3h1.3v1.2c.6-.9 1.5-1.4 2.6-1.4.5 0 1 .1 1.4.3.4.2.7.4.9.7.2.3.4.6.4 1 .1.3.1.7.1 1.4V30h-1.4v-5c0-.6-.1-1-.2-1.3s-.3-.5-.6-.7c-.3-.2-.6-.3-1-.3-.6 0-1.1.2-1.6.6-.4.4-.7 1.1-.7 2.2V30h-1.2z"/></g><g class="st5"><path class="st7" d="M86 302.9H66v-2.7h17.7v-9.9H86v12.6zM78.7 288.8c-2.7 0-4.7-.7-6-2.2-1.1-1.2-1.6-2.8-1.6-4.6 0-2 .7-3.6 2-4.9 1.3-1.3 3.1-1.9 5.4-1.9 1.9 0 3.3.3 4.4.8s1.9 1.4 2.5 2.4c.6 1.1.9 2.2.9 3.5 0 2-.7 3.7-2 4.9-1.2 1.4-3.1 2-5.6 2zm0-2.6c1.9 0 3.3-.4 4.2-1.2.9-.8 1.4-1.8 1.4-3.1 0-1.2-.5-2.2-1.4-3-.9-.8-2.3-1.2-4.3-1.2-1.8 0-3.2.4-4.1 1.2-.9.8-1.4 1.8-1.4 3s.5 2.3 1.4 3.1c1 .8 2.4 1.2 4.2 1.2zM80.7 263.1l.3-2.4c1.7.3 3 .9 3.9 2 .9 1.1 1.4 2.4 1.4 4 0 2-.6 3.6-1.9 4.8-1.3 1.2-3.2 1.8-5.6 1.8-1.6 0-2.9-.3-4.1-.8s-2.1-1.3-2.6-2.4c-.6-1.1-.9-2.2-.9-3.5 0-1.6.4-2.9 1.2-3.9.8-1 1.9-1.6 3.4-1.9l.4 2.4c-1 .2-1.7.6-2.2 1.2-.5.6-.7 1.3-.7 2.1 0 1.2.4 2.2 1.3 3 .9.8 2.3 1.2 4.2 1.2 2 0 3.4-.4 4.3-1.1.9-.7 1.3-1.7 1.3-2.9 0-1-.3-1.8-.9-2.4-.7-.6-1.6-1-2.8-1.2zM86 258.8H66v-2.5h11.4l-5.9-5.8v-3.2l5.4 5.6 9.1-6.1v3l-7.4 4.8 1.7 1.7H86v2.5zM80 246.1h-2.5v-7.6H80v7.6zM86 235.3H66v-2.7h20v2.7zM86 228.6H71.5v-2.2h2.1c-1.6-1.1-2.4-2.6-2.4-4.6 0-.9.2-1.7.5-2.4s.7-1.3 1.2-1.6c.5-.4 1.1-.6 1.8-.8.5-.1 1.3-.1 2.4-.1H86v2.5h-8.8c-1 0-1.8.1-2.2.3s-.9.5-1.2 1c-.3.5-.4 1.1-.4 1.7 0 1 .3 2 1 2.7.7.8 1.9 1.1 3.8 1.1H86v2.4z"/></g><g class="st5"><path class="st7" d="M301.5 544l2.7.7c-.6 2.2-1.6 3.8-3 5s-3.2 1.7-5.3 1.7c-2.2 0-3.9-.4-5.3-1.3s-2.4-2.2-3.1-3.8c-.7-1.7-1.1-3.5-1.1-5.4 0-2.1.4-3.9 1.2-5.5.8-1.6 1.9-2.7 3.4-3.5 1.5-.8 3.1-1.2 4.9-1.2 2 0 3.7.5 5.1 1.5s2.3 2.5 2.9 4.3l-2.6.6c-.5-1.5-1.1-2.5-2-3.2-.9-.7-2-1-3.3-1-1.5 0-2.8.4-3.9 1.1-1 .7-1.8 1.7-2.2 3-.4 1.2-.6 2.5-.6 3.8 0 1.7.2 3.2.7 4.5.5 1.3 1.3 2.2 2.3 2.9 1 .6 2.2.9 3.4.9 1.5 0 2.7-.4 3.8-1.3.9-.9 1.6-2.1 2-3.8zM306.7 551v-20h2.5v20h-2.5zM311.8 543.7c0-2.7.7-4.7 2.2-6 1.2-1.1 2.8-1.6 4.6-1.6 2 0 3.6.7 4.9 2 1.3 1.3 1.9 3.1 1.9 5.4 0 1.9-.3 3.3-.8 4.4s-1.4 1.9-2.4 2.5c-1.1.6-2.2.9-3.5.9-2 0-3.7-.7-4.9-2-1.4-1.2-2-3.1-2-5.6zm2.5 0c0 1.9.4 3.3 1.2 4.2.8.9 1.8 1.4 3.1 1.4 1.2 0 2.2-.5 3-1.4.8-.9 1.2-2.3 1.2-4.3 0-1.8-.4-3.2-1.2-4.1-.8-.9-1.8-1.4-3-1.4s-2.3.5-3.1 1.4c-.8 1-1.2 2.4-1.2 4.2zM337.5 551v-2.1c-1.1 1.6-2.7 2.5-4.6 2.5-.9 0-1.7-.2-2.4-.5s-1.3-.7-1.7-1.2-.6-1.1-.8-1.8c-.1-.5-.2-1.2-.2-2.3v-9h2.5v8.1c0 1.3 0 2.2.2 2.6.2.6.5 1.2 1 1.5.5.4 1.1.6 1.9.6s1.4-.2 2.1-.6c.6-.4 1.1-.9 1.4-1.5s.4-1.6.4-2.8v-7.8h2.5V551h-2.3zM352.7 551v-1.8c-.9 1.4-2.3 2.2-4.1 2.2-1.2 0-2.2-.3-3.2-1s-1.7-1.5-2.3-2.7-.8-2.5-.8-3.9.2-2.8.7-3.9 1.2-2.1 2.2-2.7 2-.9 3.2-.9c.9 0 1.7.2 2.3.6s1.2.8 1.7 1.4V531h2.4v20h-2.1zm-7.7-7.2c0 1.9.4 3.2 1.2 4.2s1.7 1.4 2.8 1.4c1.1 0 2-.4 2.7-1.3s1.1-2.2 1.1-4c0-2-.4-3.4-1.1-4.4s-1.7-1.4-2.8-1.4c-1.1 0-2 .4-2.7 1.3-.9.8-1.2 2.2-1.2 4.2zM357.6 545v-2.5h7.6v2.5h-7.6zM367.2 541.2c0-3.3.9-5.9 2.7-7.8 1.8-1.9 4.1-2.8 6.9-2.8 1.8 0 3.5.4 5 1.3s2.6 2.1 3.4 3.7 1.2 3.4 1.2 5.4c0 2-.4 3.9-1.2 5.5s-2 2.8-3.5 3.6-3.1 1.2-4.9 1.2c-1.9 0-3.6-.5-5.1-1.4-1.5-.9-2.6-2.2-3.4-3.7s-1.1-3.2-1.1-5zm2.7.1c0 2.4.6 4.3 1.9 5.7s2.9 2.1 4.9 2.1c2 0 3.6-.7 4.9-2.1 1.3-1.4 1.9-3.4 1.9-6 0-1.6-.3-3.1-.8-4.3-.6-1.2-1.4-2.2-2.4-2.8-1.1-.7-2.3-1-3.6-1-1.9 0-3.5.6-4.8 1.9s-2 3.5-2 6.5zM389.1 556.6v-20.1h2.2v1.9c.5-.7 1.1-1.3 1.8-1.7s1.5-.6 2.4-.6c1.2 0 2.3.3 3.3 1s1.7 1.5 2.1 2.7.7 2.4.7 3.8c0 1.5-.3 2.8-.8 4s-1.3 2.1-2.3 2.7c-1 .6-2.1 1-3.2 1-.8 0-1.6-.2-2.2-.5-.7-.3-1.2-.8-1.6-1.3v7.1h-2.4zm2.3-12.8c0 1.9.4 3.2 1.1 4.1s1.7 1.3 2.7 1.3c1.1 0 2-.5 2.8-1.4s1.2-2.4 1.2-4.3-.4-3.2-1.1-4.2c-.8-.9-1.7-1.4-2.7-1.4-1 0-2 .5-2.8 1.5s-1.2 2.6-1.2 4.4zM403.5 546.7l2.4-.4c.1 1 .5 1.7 1.1 2.2s1.5.8 2.6.8 2-.2 2.5-.7.8-1 .8-1.6c0-.6-.2-1-.7-1.3-.3-.2-1.2-.5-2.5-.8-1.8-.5-3.1-.8-3.8-1.2s-1.2-.8-1.6-1.4-.5-1.2-.5-1.9c0-.6.1-1.2.4-1.8s.7-1 1.2-1.4c.4-.3.9-.5 1.6-.7s1.4-.3 2.1-.3c1.1 0 2.1.2 3 .5s1.5.8 1.9 1.3.7 1.3.8 2.2l-2.4.3c-.1-.7-.4-1.3-1-1.8s-1.3-.6-2.2-.6c-1.1 0-1.9.2-2.4.6-.5.4-.7.8-.7 1.3 0 .3.1.6.3.9.2.3.5.5.9.7.2.1 1 .3 2.2.6 1.7.5 3 .8 3.6 1.1s1.2.7 1.6 1.3c.4.6.6 1.3.6 2.1s-.2 1.6-.7 2.3-1.2 1.3-2.1 1.7-1.9.6-3.1.6c-1.9 0-3.3-.4-4.3-1.2s-1.4-1.9-1.6-3.4z"/></g><g class="st5"><path class="st6" d="M18.2 492v-11.5h1.6l6 9v-9h1.5V492h-1.6l-6-9v9h-1.5zM28.9 487.9c0-1.5.4-2.7 1.3-3.4.7-.6 1.6-.9 2.6-.9 1.1 0 2.1.4 2.8 1.1.7.7 1.1 1.8 1.1 3.1 0 1.1-.2 1.9-.5 2.5s-.8 1.1-1.4 1.4c-.6.3-1.3.5-2 .5-1.2 0-2.1-.4-2.8-1.1-.7-.8-1.1-1.8-1.1-3.2zm1.5 0c0 1.1.2 1.9.7 2.4.5.5 1 .8 1.8.8.7 0 1.3-.3 1.7-.8.5-.5.7-1.3.7-2.4 0-1-.2-1.8-.7-2.3-.5-.5-1-.8-1.7-.8s-1.3.3-1.8.8c-.5.4-.7 1.2-.7 2.3zM41.3 490.7l.2 1.2c-.4.1-.8.1-1.1.1-.5 0-.9-.1-1.2-.2s-.5-.4-.6-.6c-.1-.3-.2-.8-.2-1.7v-4.8h-1v-1.1h1v-2.1l1.4-.8v2.9h1.4v1.1h-1.4v4.9c0 .4 0 .7.1.8 0 .1.1.2.2.3.1.1.3.1.5.1s.4 0 .7-.1zM46.5 486.4c0-1.9.5-3.4 1.5-4.5s2.3-1.6 4-1.6c1.1 0 2 .3 2.9.8.8.5 1.5 1.2 1.9 2.1s.7 1.9.7 3.1c0 1.2-.2 2.2-.7 3.1s-1.1 1.6-2 2.1-1.8.7-2.8.7c-1.1 0-2-.3-2.9-.8-.8-.5-1.5-1.2-1.9-2.1s-.7-1.9-.7-2.9zm1.5 0c0 1.4.4 2.5 1.1 3.3s1.7 1.2 2.8 1.2c1.1 0 2.1-.4 2.8-1.2.7-.8 1.1-1.9 1.1-3.4 0-.9-.2-1.7-.5-2.4s-.8-1.2-1.4-1.6c-.6-.4-1.3-.6-2-.6-1.1 0-2 .4-2.8 1.1s-1.1 1.9-1.1 3.6zM59 495.2v-11.5h1.3v1.1c.3-.4.6-.7 1-.9.4-.2.8-.3 1.4-.3.7 0 1.3.2 1.9.5.5.4 1 .9 1.2 1.5.3.7.4 1.4.4 2.2 0 .8-.2 1.6-.5 2.3s-.7 1.2-1.3 1.6c-.6.4-1.2.5-1.8.5-.5 0-.9-.1-1.3-.3-.4-.2-.7-.4-.9-.8v4H59zm1.3-7.3c0 1.1.2 1.9.6 2.4.4.5 1 .8 1.6.8.6 0 1.2-.3 1.6-.8s.7-1.3.7-2.5c0-1.1-.2-1.8-.7-2.4-.4-.5-1-.8-1.6-.8-.6 0-1.1.3-1.6.8s-.6 1.4-.6 2.5zM73.5 489.3l1.5.2c-.2.8-.7 1.5-1.3 2-.6.5-1.4.7-2.4.7-1.2 0-2.2-.4-2.9-1.1s-1.1-1.8-1.1-3.1c0-1.4.4-2.5 1.1-3.3s1.7-1.2 2.8-1.2c1.1 0 2 .4 2.7 1.1s1.1 1.8 1.1 3.2v.4h-6.2c.1.9.3 1.6.8 2.1s1 .7 1.7.7c.5 0 1-.1 1.3-.4.4-.2.6-.7.9-1.3zm-4.7-2.2h4.6c-.1-.7-.2-1.2-.5-1.6-.4-.5-1-.8-1.7-.8-.6 0-1.2.2-1.6.6-.5.5-.7 1-.8 1.8zM76.5 492v-8.3h1.3v1.2c.6-.9 1.5-1.4 2.6-1.4.5 0 1 .1 1.4.3.4.2.7.4.9.7.2.3.4.6.4 1 .1.3.1.7.1 1.4v5.1h-1.4v-5c0-.6-.1-1-.2-1.3s-.3-.5-.6-.7c-.3-.2-.6-.3-1-.3-.6 0-1.1.2-1.6.6-.4.4-.7 1.1-.7 2.2v4.5h-1.2z"/></g><g class="st5"><path class="st6" d="M110.4 532l1.5.4c-.3 1.2-.9 2.2-1.7 2.8-.8.7-1.8 1-3 1s-2.2-.3-3-.8-1.4-1.2-1.8-2.2c-.4-1-.6-2-.6-3.1 0-1.2.2-2.2.7-3.1.5-.9 1.1-1.6 1.9-2 .8-.5 1.8-.7 2.8-.7 1.1 0 2.1.3 2.9.9s1.3 1.4 1.6 2.5l-1.5.4c-.3-.8-.7-1.4-1.2-1.8-.5-.4-1.1-.6-1.9-.6-.9 0-1.6.2-2.2.6-.6.4-1 1-1.2 1.7-.2.7-.4 1.4-.4 2.2 0 1 .1 1.8.4 2.6.3.7.7 1.3 1.3 1.6.6.4 1.2.5 1.9.5.8 0 1.6-.2 2.2-.7.7-.5 1.1-1.3 1.3-2.2zM112.9 531.9c0-1.5.4-2.7 1.3-3.4.7-.6 1.6-.9 2.6-.9 1.1 0 2.1.4 2.8 1.1.7.7 1.1 1.8 1.1 3.1 0 1.1-.2 1.9-.5 2.5s-.8 1.1-1.4 1.4c-.6.3-1.3.5-2 .5-1.2 0-2.1-.4-2.8-1.1-.7-.8-1.1-1.8-1.1-3.2zm1.5 0c0 1.1.2 1.9.7 2.4.5.5 1 .8 1.8.8.7 0 1.3-.3 1.7-.8.5-.5.7-1.3.7-2.4 0-1-.2-1.8-.7-2.3-.5-.5-1-.8-1.7-.8s-1.3.3-1.8.8c-.5.4-.7 1.2-.7 2.3zM122.2 536v-8.3h1.3v1.2c.3-.4.6-.7 1-1 .4-.2.9-.4 1.5-.4s1.1.1 1.5.4c.4.3.7.6.8 1.1.7-1 1.5-1.5 2.6-1.5.8 0 1.5.2 1.9.7.4.5.7 1.2.7 2.1v5.7H132v-5.2c0-.6 0-1-.1-1.2-.1-.2-.3-.4-.5-.6-.2-.2-.5-.2-.8-.2-.6 0-1.1.2-1.5.6-.4.4-.6 1-.6 1.9v4.8h-1.4v-5.4c0-.6-.1-1.1-.3-1.4-.2-.3-.6-.5-1.1-.5-.4 0-.8.1-1.1.3s-.6.5-.7.9c-.2.4-.2 1-.2 1.7v4.3h-1.5zM135.4 539.2v-11.5h1.3v1.1c.3-.4.6-.7 1-.9.4-.2.8-.3 1.4-.3.7 0 1.3.2 1.9.5.5.4 1 .9 1.2 1.5.3.7.4 1.4.4 2.2 0 .8-.2 1.6-.5 2.3s-.7 1.2-1.3 1.6c-.6.4-1.2.5-1.8.5-.5 0-.9-.1-1.3-.3-.4-.2-.7-.4-.9-.8v4h-1.4zm1.2-7.3c0 1.1.2 1.9.6 2.4.4.5 1 .8 1.6.8.6 0 1.2-.3 1.6-.8s.7-1.3.7-2.5c0-1.1-.2-1.8-.7-2.4-.4-.5-1-.8-1.6-.8-.6 0-1.1.3-1.6.8s-.6 1.4-.6 2.5zM144.1 536v-11.5h1.4V536h-1.4zM153.2 533.3l1.5.2c-.2.8-.7 1.5-1.3 2-.6.5-1.4.7-2.4.7-1.2 0-2.2-.4-2.9-1.1s-1.1-1.8-1.1-3.1c0-1.4.4-2.5 1.1-3.3s1.7-1.2 2.8-1.2c1.1 0 2 .4 2.7 1.1s1.1 1.8 1.1 3.2v.4h-6.2c.1.9.3 1.6.8 2.1s1 .7 1.7.7c.5 0 1-.1 1.3-.4.4-.2.7-.7.9-1.3zm-4.6-2.2h4.6c-.1-.7-.2-1.2-.5-1.6-.4-.5-1-.8-1.7-.8-.6 0-1.2.2-1.6.6-.6.5-.8 1-.8 1.8zM155.3 536l3-4.3-2.8-4h1.8l1.3 1.9c.2.4.4.7.6.9l.6-.9 1.4-2h1.7l-2.9 3.9 3.1 4.4h-1.7l-1.7-2.6-.5-.7-2.2 3.4h-1.7z"/></g><g class="st5"><path class="st6" d="M149.3 87V75.5h5.1c1 0 1.8.1 2.3.3s1 .6 1.3 1.1c.3.5.5 1.1.5 1.7 0 .8-.3 1.5-.8 2.1-.5.6-1.3.9-2.4 1.1.4.2.7.4.9.6.4.4.9.9 1.3 1.5l2 3.1h-1.9l-1.5-2.4c-.4-.7-.8-1.2-1.1-1.6-.3-.4-.5-.6-.8-.8s-.5-.2-.7-.3c-.2 0-.5-.1-.8-.1h-1.8V87h-1.6zm1.5-6.4h3.3c.7 0 1.2-.1 1.6-.2s.7-.4.9-.7.3-.7.3-1c0-.5-.2-1-.6-1.3-.4-.3-1-.5-1.9-.5h-3.6v3.7zM165.9 86c-.5.4-1 .8-1.5.9-.5.2-1 .3-1.6.3-.9 0-1.6-.2-2.1-.7-.5-.4-.7-1-.7-1.7 0-.4.1-.8.3-1.1.2-.3.4-.6.7-.8.3-.2.6-.4 1-.5.3-.1.7-.1 1.3-.2 1.1-.1 2-.3 2.5-.5v-.4c0-.6-.1-1-.4-1.2-.4-.3-.9-.5-1.6-.5-.7 0-1.1.1-1.5.3-.3.2-.5.6-.7 1.2l-1.4-.2c.1-.6.3-1.1.6-1.4.3-.4.7-.6 1.2-.8.5-.2 1.2-.3 1.9-.3s1.3.1 1.7.3c.4.2.8.4 1 .6.2.3.4.6.4 1 0 .2.1.7.1 1.3v1.9c0 1.3 0 2.1.1 2.5.1.3.2.7.4 1h-1.5c-.1-.3-.2-.6-.2-1zm-.2-3.2c-.5.2-1.3.4-2.3.5-.6.1-1 .2-1.2.3-.2.1-.4.3-.6.5-.1.2-.2.4-.2.7 0 .4.1.7.4.9.3.3.7.4 1.2.4s1-.1 1.4-.4.7-.6.9-1c.2-.3.2-.8.2-1.4v-.5zM169.2 87v-8.3h1.3v1.2c.6-.9 1.5-1.4 2.6-1.4.5 0 1 .1 1.4.3.4.2.7.4.9.7.2.3.4.6.4 1 .1.3.1.7.1 1.4V87h-1.4v-5c0-.6-.1-1-.2-1.3s-.3-.5-.6-.7c-.3-.2-.6-.3-1-.3-.6 0-1.1.2-1.6.6-.4.4-.7 1.1-.7 2.2V87h-1.2zM183.3 84l1.4.2c-.2 1-.5 1.7-1.2 2.2-.6.5-1.4.8-2.3.8-1.1 0-2-.4-2.7-1.1-.7-.7-1-1.8-1-3.2 0-.9.1-1.7.4-2.4s.7-1.2 1.4-1.5c.6-.3 1.3-.5 2-.5.9 0 1.6.2 2.2.7.6.5.9 1.1 1.1 1.9l-1.4.2c-.1-.6-.4-1-.7-1.3-.3-.3-.7-.4-1.2-.4-.7 0-1.3.3-1.7.8-.4.5-.7 1.3-.7 2.4 0 1.1.2 1.9.6 2.4.4.5 1 .8 1.7.8.6 0 1-.2 1.4-.5.4-.3.6-.8.7-1.5zM185.8 87V75.5h1.4v4.1c.7-.8 1.5-1.1 2.5-1.1.6 0 1.1.1 1.6.4s.8.6 1 1 .3 1 .3 1.9V87h-1.4v-5.3c0-.7-.2-1.2-.5-1.5s-.7-.5-1.3-.5c-.4 0-.8.1-1.2.3s-.6.5-.8.9-.2.9-.2 1.5V87h-1.4zM200.2 84.3l1.5.2c-.2.8-.7 1.5-1.3 2-.6.5-1.4.7-2.4.7-1.2 0-2.2-.4-2.9-1.1S194 84.3 194 83c0-1.4.4-2.5 1.1-3.3s1.7-1.2 2.8-1.2c1.1 0 2 .4 2.7 1.1s1.1 1.8 1.1 3.2v.4h-6.2c.1.9.3 1.6.8 2.1s1 .7 1.7.7c.5 0 1-.1 1.3-.4.4-.2.7-.7.9-1.3zm-4.6-2.2h4.6c-.1-.7-.2-1.2-.5-1.6-.4-.5-1-.8-1.7-.8-.6 0-1.2.2-1.6.6-.5.5-.8 1-.8 1.8zM203.2 87v-8.3h1.3V80c.3-.6.6-1 .9-1.2s.6-.3.9-.3c.5 0 1 .2 1.4.5l-.5 1.3c-.3-.2-.7-.3-1-.3-.3 0-.6.1-.8.3-.2.2-.4.4-.5.8-.2.5-.2 1-.2 1.6V87h-1.5z"/></g><g class="st5"><path class="st6" d="M228.5 462l-4.4-11.5h1.6l3 8.3c.2.7.4 1.3.6 1.9.2-.6.4-1.3.6-1.9l3.1-8.3h1.5L230 462h-1.5zM235.7 462v-11.5h2.3l2.7 8.1c.3.8.4 1.3.5 1.7.1-.4.3-1 .6-1.8l2.7-8h2V462H245v-9.6l-3.3 9.6h-1.4l-3.3-9.8v9.8h-1.3zM250.9 462l-3-11.5h1.6l1.7 7.5c.2.8.3 1.6.5 2.3.3-1.2.5-1.9.5-2.1l2.2-7.7h1.8l1.6 5.8c.4 1.4.7 2.8.9 4.1.1-.7.3-1.6.6-2.5l1.8-7.4h1.5l-3.1 11.5H258l-2.4-8.7c-.2-.7-.3-1.2-.4-1.3-.1.5-.2 1-.3 1.3l-2.4 8.7h-1.6zM268.5 461c-.5.4-1 .8-1.5.9-.5.2-1 .3-1.6.3-.9 0-1.6-.2-2.1-.7-.5-.4-.7-1-.7-1.7 0-.4.1-.8.3-1.1.2-.3.4-.6.7-.8.3-.2.6-.4 1-.5.3-.1.7-.1 1.3-.2 1.1-.1 2-.3 2.5-.5v-.4c0-.6-.1-1-.4-1.2-.4-.3-.9-.5-1.6-.5-.7 0-1.1.1-1.5.3-.3.2-.5.6-.7 1.2l-1.4-.2c.1-.6.3-1.1.6-1.4.3-.4.7-.6 1.2-.8.5-.2 1.2-.3 1.9-.3s1.3.1 1.7.3c.4.2.8.4 1 .6.2.3.4.6.4 1 0 .2.1.7.1 1.3v1.9c0 1.3 0 2.1.1 2.5.1.3.2.7.4 1h-1.5c-.1-.3-.2-.6-.2-1zm-.1-3.2c-.5.2-1.3.4-2.3.5-.6.1-1 .2-1.2.3-.2.1-.4.3-.6.5-.1.2-.2.4-.2.7 0 .4.1.7.4.9.3.3.7.4 1.2.4s1-.1 1.4-.4.7-.6.9-1c.2-.3.2-.8.2-1.4v-.5zM271.8 462v-8.3h1.3v1.3c.3-.6.6-1 .9-1.2s.6-.3.9-.3c.5 0 1 .2 1.4.5l-.5 1.3c-.3-.2-.7-.3-1-.3-.3 0-.6.1-.8.3-.2.2-.4.4-.5.8-.2.5-.2 1-.2 1.6v4.3h-1.5zM282.7 459.3l1.5.2c-.2.8-.7 1.5-1.3 2-.6.5-1.4.7-2.4.7-1.2 0-2.2-.4-2.9-1.1s-1.1-1.8-1.1-3.1c0-1.4.4-2.5 1.1-3.3s1.7-1.2 2.8-1.2c1.1 0 2 .4 2.7 1.1s1.1 1.8 1.1 3.2v.4H278c.1.9.3 1.6.8 2.1s1 .7 1.7.7c.5 0 1-.1 1.3-.4.4-.2.7-.7.9-1.3zm-4.6-2.2h4.6c-.1-.7-.2-1.2-.5-1.6-.4-.5-1-.8-1.7-.8-.6 0-1.2.2-1.6.6-.6.5-.8 1-.8 1.8zM292.8 462v-10.1H289v-1.4h9.1v1.4h-3.8V462h-1.5zM303 461c-.5.4-1 .8-1.5.9-.5.2-1 .3-1.6.3-.9 0-1.6-.2-2.1-.7-.5-.4-.7-1-.7-1.7 0-.4.1-.8.3-1.1.2-.3.4-.6.7-.8.3-.2.6-.4 1-.5.3-.1.7-.1 1.3-.2 1.1-.1 2-.3 2.5-.5v-.4c0-.6-.1-1-.4-1.2-.4-.3-.9-.5-1.6-.5-.7 0-1.2.1-1.5.3-.3.2-.5.6-.7 1.2l-1.4-.2c.1-.6.3-1.1.6-1.4.3-.4.7-.6 1.2-.8.5-.2 1.2-.3 1.9-.3s1.3.1 1.7.3c.4.2.8.4 1 .6.2.3.4.6.4 1 0 .2.1.7.1 1.3v1.9c0 1.3 0 2.1.1 2.5.1.3.2.7.4 1h-1.5c-.1-.3-.2-.6-.2-1zm-.1-3.2c-.5.2-1.3.4-2.3.5-.6.1-1 .2-1.2.3-.2.1-.4.3-.6.5-.1.2-.2.4-.2.7 0 .4.1.7.4.9.3.3.7.4 1.2.4s1-.1 1.4-.4.7-.6.9-1c.2-.3.2-.8.2-1.4v-.5zM306.3 462v-8.3h1.3v1.2c.6-.9 1.5-1.4 2.6-1.4.5 0 1 .1 1.4.3.4.2.7.4.9.7.2.3.4.6.4 1 .1.3.1.7.1 1.4v5.1h-1.4v-5c0-.6-.1-1-.2-1.3s-.3-.5-.6-.7c-.3-.2-.6-.3-1-.3-.6 0-1.1.2-1.6.6-.4.4-.7 1.1-.7 2.2v4.5h-1.2zM314.3 462v-1.1l5.3-6.1h-5v-1.1h6.8v.9l-4.5 5.3-.9 1c.6 0 1.2-.1 1.8-.1h3.8v1.2h-7.3zM328.3 462v-1.2c-.6.9-1.5 1.4-2.6 1.4-.5 0-.9-.1-1.4-.3-.4-.2-.7-.4-.9-.7-.2-.3-.4-.6-.4-1-.1-.3-.1-.7-.1-1.3v-5.1h1.4v4.6c0 .7 0 1.2.1 1.5.1.4.3.7.6.9.3.2.6.3 1.1.3s.8-.1 1.2-.3c.4-.2.6-.5.8-.9.2-.4.2-.9.2-1.6v-4.4h1.4v8.3h-1.4z"/></g><g id="Group-2" transform="translate(370 355)"><g class="st5"><path class="st6" d="M24.6 13.5v-1.3h4.9v4.3c-.7.6-1.5 1-2.3 1.3-.8.3-1.6.4-2.4.4-1.1 0-2.1-.2-3.1-.7-.9-.5-1.6-1.2-2.1-2.1s-.7-1.9-.7-3.1c0-1.1.2-2.2.7-3.1.5-1 1.1-1.7 2-2.2s1.9-.7 3-.7c.8 0 1.6.1 2.2.4.7.3 1.2.7 1.6 1.2.4.5.7 1.1.9 1.9l-1.4.4c-.2-.6-.4-1-.6-1.4-.3-.3-.6-.6-1.1-.8-.5-.2-1-.3-1.6-.3-.7 0-1.3.1-1.8.3-.5.2-.9.5-1.2.8-.3.3-.6.7-.7 1.1-.3.7-.4 1.5-.4 2.3 0 1 .2 1.9.5 2.6s.9 1.2 1.5 1.5 1.4.5 2.1.5c.7 0 1.3-.1 1.9-.4s1.1-.5 1.4-.8v-2.1h-3.3zM30.8 13.9c0-1.5.4-2.7 1.3-3.4.7-.6 1.6-.9 2.6-.9 1.1 0 2.1.4 2.8 1.1.7.7 1.1 1.8 1.1 3.1 0 1.1-.2 1.9-.5 2.5s-.8 1.1-1.4 1.4c-.6.3-1.3.5-2 .5-1.2 0-2.1-.4-2.8-1.1-.7-.8-1.1-1.8-1.1-3.2zm1.5 0c0 1.1.2 1.9.7 2.4.5.5 1 .8 1.8.8.7 0 1.3-.3 1.7-.8.5-.5.7-1.3.7-2.4 0-1-.2-1.8-.7-2.3-.5-.5-1-.8-1.7-.8s-1.3.3-1.8.8c-.5.4-.7 1.2-.7 2.3zM39.6 13.9c0-1.5.4-2.7 1.3-3.4.7-.6 1.6-.9 2.6-.9 1.1 0 2.1.4 2.8 1.1.7.7 1.1 1.8 1.1 3.1 0 1.1-.2 1.9-.5 2.5s-.8 1.1-1.4 1.4c-.6.3-1.3.5-2 .5-1.2 0-2.1-.4-2.8-1.1-.8-.8-1.1-1.8-1.1-3.2zm1.4 0c0 1.1.2 1.9.7 2.4.5.5 1 .8 1.8.8.7 0 1.3-.3 1.7-.8.5-.5.7-1.3.7-2.4 0-1-.2-1.8-.7-2.3-.5-.5-1-.8-1.7-.8s-1.3.3-1.8.8c-.5.4-.7 1.2-.7 2.3zM48.6 18.7l1.4.2c.1.4.2.7.5.9.3.3.8.4 1.4.4.7 0 1.2-.1 1.5-.4.4-.3.6-.6.7-1.1.1-.3.1-.9.1-1.8-.6.7-1.4 1.1-2.3 1.1-1.1 0-2-.4-2.6-1.2s-.9-1.8-.9-3c0-.8.1-1.5.4-2.2.3-.7.7-1.2 1.2-1.6.5-.4 1.2-.5 1.9-.5 1 0 1.8.4 2.4 1.2v-1h1.3v7.2c0 1.3-.1 2.2-.4 2.7-.3.5-.7 1-1.3 1.3s-1.3.5-2.1.5c-1 0-1.8-.2-2.4-.7s-.9-1.1-.8-2zm1.1-5c0 1.1.2 1.9.6 2.4.4.5 1 .8 1.6.8.6 0 1.2-.2 1.6-.7s.7-1.3.7-2.3c0-1-.2-1.8-.7-2.3-.5-.5-1-.8-1.6-.8-.6 0-1.2.3-1.6.8s-.6 1.1-.6 2.1zM57.5 18V6.5h1.4V18h-1.4zM66.6 15.3l1.5.2c-.2.8-.7 1.5-1.3 2s-1.4.7-2.4.7c-1.2 0-2.2-.4-2.9-1.1s-1.1-1.8-1.1-3.1c0-1.4.4-2.5 1.1-3.3s1.7-1.2 2.8-1.2c1.1 0 2 .4 2.7 1.1s1.1 1.8 1.1 3.2v.4h-6.2c.1.9.3 1.6.8 2.1s1 .7 1.7.7c.5 0 1-.1 1.3-.4s.7-.7.9-1.3zM62 13.1h4.6c-.1-.7-.2-1.2-.5-1.6-.4-.5-1-.8-1.7-.8-.6 0-1.2.2-1.6.6s-.7 1-.8 1.8zM72 18l4.4-11.5H78L82.7 18H81l-1.3-3.5h-4.8L73.6 18H72zm3.3-4.7h3.9L78 10.1c-.4-1-.6-1.8-.8-2.4-.1.7-.4 1.5-.6 2.2l-1.3 3.4zM83.6 18V9.7h1.3v1.2c.6-.9 1.5-1.4 2.6-1.4.5 0 1 .1 1.4.3.4.2.7.4.9.7.2.3.4.6.4 1 .1.3.1.7.1 1.4V18h-1.4v-5c0-.6-.1-1-.2-1.3s-.3-.5-.6-.7c-.3-.2-.6-.3-1-.3-.6 0-1.1.2-1.6.6-.4.4-.7 1.1-.7 2.2V18h-1.2zM95.4 16.7l.2 1.2c-.4.1-.8.1-1.1.1-.5 0-.9-.1-1.2-.2s-.5-.4-.6-.6c-.1-.3-.2-.8-.2-1.7v-4.8h-1v-1h1V7.6l1.5-.8v2.9h1.4v1.1H94v4.9c0 .4 0 .7.1.8 0 .1.1.2.2.3.1.1.3.1.5.1.2-.1.4-.1.6-.2zM96.6 18V6.5H98v4.1c.7-.8 1.5-1.1 2.5-1.1.6 0 1.1.1 1.6.4s.8.6 1 1 .3 1 .3 1.9V18H102v-5.3c0-.7-.2-1.2-.5-1.5s-.7-.5-1.3-.5c-.4 0-.8.1-1.2.3s-.6.5-.8.9-.2.9-.2 1.6V18h-1.4zM104.8 13.9c0-1.5.4-2.7 1.3-3.4.7-.6 1.6-.9 2.6-.9 1.1 0 2.1.4 2.8 1.1.7.7 1.1 1.8 1.1 3.1 0 1.1-.2 1.9-.5 2.5s-.8 1.1-1.4 1.4c-.6.3-1.3.5-2 .5-1.2 0-2.1-.4-2.8-1.1-.7-.8-1.1-1.8-1.1-3.2zm1.5 0c0 1.1.2 1.9.7 2.4.5.5 1 .8 1.8.8.7 0 1.3-.3 1.7-.8.5-.5.7-1.3.7-2.4 0-1-.2-1.8-.7-2.3-.5-.5-1-.8-1.7-.8s-1.3.3-1.8.8c-.5.4-.7 1.2-.7 2.3zM113.5 15.5l1.4-.2c.1.6.3 1 .7 1.3.4.3.9.4 1.5.4s1.1-.1 1.4-.4.5-.6.5-.9c0-.3-.1-.6-.4-.8-.2-.1-.7-.3-1.4-.5-1-.3-1.7-.5-2.1-.7s-.7-.5-.9-.8c-.2-.3-.3-.7-.3-1.1 0-.4.1-.7.3-1 .2-.3.4-.6.7-.8.2-.2.5-.3.9-.4.4-.1.8-.2 1.2-.2.7 0 1.2.1 1.7.3s.9.4 1.1.8.4.7.5 1.3l-1.4.2c-.1-.4-.2-.8-.5-1-.3-.2-.7-.4-1.3-.4-.6 0-1.1.1-1.4.3-.3.2-.4.5-.4.8 0 .2.1.3.2.5s.3.3.5.4c.1.1.6.2 1.2.4 1 .3 1.7.5 2.1.7.4.2.7.4.9.7.2.3.3.7.3 1.2s-.1.9-.4 1.3-.7.7-1.2 1-1.1.3-1.8.3c-1.1 0-1.9-.2-2.5-.7-.5-.4-.9-1.1-1.1-2z"/></g><circle id="Oval-Copy-3" class="st8" cx="4" cy="10" r="4"/></g><g id="Group-2-Copy" transform="translate(193 279)"><g class="st5"><path class="st6" d="M18.8 12.4c0-1.9.5-3.4 1.5-4.5s2.3-1.6 4-1.6c1.1 0 2 .3 2.9.8.8.5 1.5 1.2 1.9 2.1s.7 1.9.7 3.1c0 1.2-.2 2.2-.7 3.1s-1.1 1.6-2 2.1-1.8.7-2.8.7c-1.1 0-2-.3-2.9-.8-.8-.5-1.5-1.2-1.9-2.1s-.7-1.9-.7-2.9zm1.5 0c0 1.4.4 2.5 1.1 3.3s1.7 1.2 2.8 1.2c1.1 0 2.1-.4 2.8-1.2.7-.8 1.1-1.9 1.1-3.4 0-.9-.2-1.7-.5-2.4s-.8-1.2-1.4-1.6c-.6-.4-1.3-.6-2-.6-1.1 0-2 .4-2.8 1.1s-1.1 1.9-1.1 3.6zM31.3 21.2V9.7h1.3v1.1c.3-.4.6-.7 1-.9.4-.3.9-.4 1.4-.4.7 0 1.3.2 1.9.5.5.4 1 .9 1.2 1.5.3.7.4 1.4.4 2.2 0 .8-.2 1.6-.5 2.3s-.7 1.2-1.3 1.6c-.6.4-1.2.5-1.8.5-.5 0-.9-.1-1.3-.3-.4-.2-.7-.4-.9-.8v4h-1.4zm1.3-7.3c0 1.1.2 1.9.6 2.4.4.5 1 .8 1.6.8.6 0 1.2-.3 1.6-.8s.7-1.3.7-2.5c0-1.1-.2-1.8-.7-2.4-.4-.5-1-.8-1.6-.8-.6 0-1.1.3-1.6.8s-.6 1.4-.6 2.5zM45.8 15.3l1.5.2c-.2.8-.7 1.5-1.3 2-.6.5-1.4.7-2.4.7-1.2 0-2.2-.4-2.9-1.1s-1.1-1.8-1.1-3.1c0-1.4.4-2.5 1.1-3.3s1.7-1.2 2.8-1.2c1.1 0 2 .4 2.7 1.1s1.1 1.8 1.1 3.2v.4h-6.2c.1.9.3 1.6.8 2.1s1 .7 1.7.7c.5 0 1-.1 1.3-.4.4-.2.6-.7.9-1.3zm-4.7-2.2h4.6c-.1-.7-.2-1.2-.5-1.6-.4-.5-1-.8-1.7-.8-.6 0-1.2.2-1.6.6-.5.5-.7 1-.8 1.8zM48.8 18V9.7h1.3v1.2c.6-.9 1.5-1.4 2.6-1.4.5 0 1 .1 1.4.3.4.2.7.4.9.7.2.3.4.6.4 1 .1.3.1.7.1 1.4V18h-1.4v-5c0-.6-.1-1-.2-1.3s-.3-.5-.6-.7c-.3-.2-.6-.3-1-.3-.6 0-1.1.2-1.6.6-.4.4-.7 1.1-.7 2.2V18h-1.2zM57.2 14.3l1.4-.1c.1.6.2 1 .5 1.4.2.4.6.7 1.2.9.5.2 1.1.3 1.8.3.6 0 1.1-.1 1.5-.3.4-.2.8-.4 1-.7.2-.3.3-.6.3-1s-.1-.7-.3-.9c-.2-.3-.6-.5-1-.7-.3-.1-1-.3-2-.6-1.1-.3-1.8-.5-2.2-.7-.5-.3-1-.6-1.2-1.1-.3-.4-.4-.9-.4-1.4 0-.6.2-1.1.5-1.6s.7-.8 1.3-1.1c.6-.3 1.3-.4 2.1-.4s1.6.1 2.2.4 1.1.7 1.5 1.2c.4.6.6 1.2.6 1.9l-1.5.1c-.1-.7-.3-1.3-.8-1.6-.5-.4-1.1-.6-2-.6-.9 0-1.6.2-2 .5-.4.3-.6.7-.6 1.2 0 .4.1.8.4 1 .3.3 1.1.5 2.3.8 1.2.3 2.1.5 2.5.7.7.3 1.2.7 1.5 1.2.3.5.5 1 .5 1.6 0 .6-.2 1.2-.5 1.7s-.9 1-1.5 1.3c-.7.3-1.4.4-2.2.4-1 0-1.9-.2-2.6-.5-.7-.3-1.3-.8-1.6-1.4s-.7-1.1-.7-1.9zM68.1 18V6.5h1.4v4.1c.6-.7 1.5-1.1 2.5-1.1.6 0 1.1.1 1.6.4s.8.6 1 1 .3 1 .3 1.9V18h-1.4v-5.3c0-.7-.2-1.2-.5-1.5s-.7-.5-1.3-.5c-.4 0-.8.1-1.2.3s-.6.5-.8.9-.2.9-.2 1.5V18h-1.4zM76.8 8.2V6.5h1.4v1.6h-1.4zm0 9.8V9.7h1.4V18h-1.4zM80.5 18v-7.2h-1.2V9.7h1.2v-.9c0-.6 0-1 .1-1.2.1-.4.4-.7.7-.9.3-.2.8-.3 1.4-.3.4 0 .8 0 1.3.1l-.2 1.2c-.3-.1-.6-.1-.8-.1-.4 0-.7.1-.9.3-.2.2-.3.5-.3 1v.8h1.6v1.1h-1.6V18h-1.3zM87.6 16.7l.2 1.2c-.4.1-.8.1-1.1.1-.5 0-.9-.1-1.2-.2s-.5-.4-.6-.6c-.1-.3-.2-.8-.2-1.7v-4.8h-1v-1h1V7.6l1.4-.8v2.9h1.4v1.1h-1.4v4.9c0 .4 0 .7.1.8 0 .1.1.2.2.3.1.1.3.1.5.1.2-.1.4-.1.7-.2z"/></g><circle id="Oval-Copy-3_1_" class="st8" cx="4" cy="10" r="4"/></g><g class="st5"><path class="st6" d="M536.7 534.3l1.4-.1c.1.6.2 1 .5 1.4.2.4.6.7 1.2.9.5.2 1.1.3 1.8.3.6 0 1.1-.1 1.5-.3.4-.2.8-.4 1-.7.2-.3.3-.6.3-1s-.1-.7-.3-.9c-.2-.3-.6-.5-1-.7-.3-.1-1-.3-2-.6-1.1-.3-1.8-.5-2.2-.7-.5-.3-1-.6-1.2-1.1-.3-.4-.4-.9-.4-1.4 0-.6.2-1.1.5-1.6s.8-.9 1.4-1.1c.6-.3 1.3-.4 2.1-.4s1.6.1 2.2.4 1.1.7 1.5 1.2c.3.5.5 1.1.6 1.8l-1.5.1c-.1-.7-.3-1.3-.8-1.6-.5-.4-1.1-.6-2-.6-.9 0-1.6.2-2 .5-.4.3-.6.7-.6 1.2 0 .4.1.8.4 1 .3.3 1.1.5 2.3.8 1.2.3 2.1.5 2.5.7.7.3 1.2.7 1.5 1.2.3.5.5 1 .5 1.6 0 .6-.2 1.2-.5 1.7s-.9 1-1.5 1.3c-.7.3-1.4.4-2.2.4-1 0-1.9-.2-2.6-.5-.7-.3-1.3-.8-1.6-1.4s-.8-1-.8-1.8zM547.6 528.2v-1.6h1.4v1.6h-1.4zm0 9.8v-8.3h1.4v8.3h-1.4zM551 538v-8.3h1.3v1.2c.3-.4.6-.7 1-1 .4-.2.9-.4 1.5-.4s1.1.1 1.5.4c.4.3.7.6.8 1.1.7-1 1.5-1.5 2.6-1.5.8 0 1.5.2 1.9.7.4.5.7 1.2.7 2.1v5.7h-1.4v-5.2c0-.6 0-1-.1-1.2-.1-.2-.3-.4-.5-.6-.2-.2-.5-.2-.8-.2-.6 0-1.1.2-1.5.6-.4.4-.6 1-.6 1.9v4.8H556v-5.4c0-.6-.1-1.1-.3-1.4-.2-.3-.6-.5-1.1-.5-.4 0-.8.1-1.1.3s-.6.5-.7.9c-.2.4-.2 1-.2 1.7v4.3H551zM564.1 541.2v-11.5h1.3v1.1c.3-.4.6-.7 1-.9.4-.2.8-.3 1.4-.3.7 0 1.3.2 1.9.5.5.4 1 .9 1.2 1.5.3.7.4 1.4.4 2.2 0 .8-.2 1.6-.5 2.3s-.7 1.2-1.3 1.6c-.6.4-1.2.5-1.8.5-.5 0-.9-.1-1.3-.3-.4-.2-.7-.4-.9-.8v4h-1.4zm1.3-7.3c0 1.1.2 1.9.6 2.4.4.5 1 .8 1.6.8.6 0 1.2-.3 1.6-.8s.7-1.3.7-2.5c0-1.1-.2-1.8-.7-2.4-.4-.5-1-.8-1.6-.8-.6 0-1.1.3-1.6.8s-.6 1.4-.6 2.5zM572.8 538v-11.5h1.4V538h-1.4zM581.9 535.3l1.5.2c-.2.8-.7 1.5-1.3 2s-1.4.7-2.4.7c-1.2 0-2.2-.4-2.9-1.1s-1.1-1.8-1.1-3.1c0-1.4.4-2.5 1.1-3.3s1.7-1.2 2.8-1.2c1.1 0 2 .4 2.7 1.1s1.1 1.8 1.1 3.2v.4h-6.2c.1.9.3 1.6.8 2.1s1 .7 1.7.7c.5 0 1-.1 1.3-.4s.7-.7.9-1.3zm-4.6-2.2h4.6c-.1-.7-.2-1.2-.5-1.6-.4-.5-1-.8-1.7-.8-.6 0-1.2.2-1.6.6s-.7 1-.8 1.8z"/></g><path id="Line-2_1_" class="st4" d="M577 488H101"/><g id="Platform9-logo-RGB" transform="translate(388 72)"><path id="Fill-1" class="st8" d="M166.2 9c0 1.3-1.2 2.4-2.7 2.4-1.5 0-2.8-1.1-2.8-2.4 0-1.3 1.2-2.4 2.8-2.4 1.5-.1 2.7 1 2.7 2.4zm-2.7-4C161 5 159 6.8 159 9s2 4 4.4 4h.3l-1.9 2.3c-.1.2-.1.3-.1.5.1.1.3.2.5.2h.7c.3 0 .6-.2.8-.4l3.1-3.9c.1-.1.3-.4.4-.5 0 0 .7-1.3.7-2.1.1-2.3-1.9-4.1-4.4-4.1z"/><path id="Fill-2" class="st9" d="M84.7 12h-4.5l2.2-4.9 2.3 4.9zm-1.5-6.7c-.1-.2-.2-.3-.3-.3h-.8c-.2 0-.3.2-.4.3l-4.6 10.2c0 .1-.1.3 0 .4 0 .1.1.1.2.1h.9c.1 0 .3 0 .3-.2 0-.1.1-.2.1-.2l1-2.2v-.1h5.7v.1l1 2.2c0 .1.1.3.4.3h1c.1 0 .2 0 .2-.1v-.3L83.2 5.3z"/><path id="Fill-3" class="st9" d="M73.8 14.6c-.1 0-.2-.1-.2-.1h-5.9V5.3c0-.2-.1-.3-.4-.3h-.9c-.3 0-.4.1-.4.3v10.3c0 .2.2.4.4.4h7.2c.3 0 .4-.2.4-.4v-.8c-.1-.1-.1-.2-.2-.2"/><path id="Fill-4" class="st9" d="M59.5 8.1c0 .8-.7 1.7-2.1 1.7h-3.8V6.4h3.9c.7 0 1.2.2 1.6.6.2.2.4.6.4 1.1zM57.4 5h-4.9c-.2 0-.5.1-.5.5v10.1c0 .2.2.4.4.4h.8c.3 0 .4-.1.4-.4v-4.4-.1h4.1c2 0 3.4-1.3 3.4-3.1-.1-1.5-1.2-3-3.7-3z"/><path id="Fill-5" class="st9" d="M98.7 5H88.3c-.3 0-.3.2-.3.3V6c0 .1 0 .4.3.4h4.4v9.2c0 .2.1.4.3.4h.8c.3 0 .3-.1.3-.4V6.4h4.4c.2 0 .3-.1.3-.3v-.8c.2-.1.2-.3-.1-.3"/><path id="Fill-6" class="st9" d="M135.4 9.8h-3.8V6.4h3.9c.7 0 1.2.2 1.6.6.3.3.5.7.5 1.1-.2.8-.8 1.7-2.2 1.7zm3.4 5.7c-1.4-1.7-3.1-3.7-3.6-4.3h.4c2 0 3.4-1.3 3.4-3.1 0-1.5-1.1-3.1-3.6-3.1h-4.9c-.2 0-.5.1-.5.5v10.1c0 .2.2.4.4.4h.8c.3 0 .4-.1.4-.4v-4.4-.1h1.6c.7.9 2.5 3 3.8 4.6 0 0 .2.2.5.2h1c.2 0 .3 0 .4-.1v-.2l-.1-.1z"/><path id="Fill-7" class="st9" d="M111.7 5h-8.3c-.2 0-.4.2-.4.4v10.2c0 .2.1.3.3.3h.9c.2 0 .3-.1.3-.3v-4.5h6.1c.2 0 .3-.1.3-.3V10c0-.2-.1-.3-.3-.3h-6.1V6.4h7.2c.2 0 .3-.1.4-.3v-.7c0-.1 0-.2-.1-.3-.1-.1-.2-.1-.3-.1"/><path id="Fill-8" class="st9" d="M153.7 5h-.7c-.3 0-.4.1-.5.2l-4 3.9-4-4c-.2 0-.3-.1-.5-.1h-.7c-.2 0-.3.1-.3.3v10.3c0 .2.1.4.3.4h.9c.3 0 .4-.3.4-.4v-8l3.4 3.3s.2.2.5.2c.2 0 .4-.1.5-.2l3.5-3.3v8c0 .2.2.3.3.3h.9c.2 0 .4-.1.4-.4V5.4c-.1-.3-.3-.4-.4-.4"/><path id="Fill-9" class="st9" d="M125.5 10.5c0 2.2-2 4-4.5 4s-4.5-1.8-4.5-4 2-4 4.5-4 4.5 1.8 4.5 4zM121 5c-3.3 0-6 2.5-6 5.5s2.7 5.5 6 5.5 6-2.5 6-5.5-2.7-5.5-6-5.5z"/><path id="Fill-10" class="st8" d="M37.5 11.9l-5.9-2.4 5.9-2.4 5.9 2.4-5.9 2.4zm-7.2 3l-5.9-2.4 6-2.5 5.9 2.4-6 2.5zm-7.3 3l-5.9-2.4L23 13l5.9 2.4-5.9 2.5zM9.9 12.5l5.9-2.4 5.9 2.4-5.9 2.4-5.9-2.4zm-7.3-3l5.9-2.4 6 2.5L8.6 12l-6-2.5zM15.8 4l6 2.5-6 2.5-6-2.5 6-2.5zM23 1.1l6 2.5L23.1 6l-6-2.5L23 1.1zm6 8.4L23 12l-5.9-2.4 6-2.5L29 9.5zm7.2-3L30.3 9l-5.9-2.4 5.9-2.4 5.9 2.3zm9.7 2.9l-7-2.9-1.3-.5-5.9-2.4-1.4-.6S23.2.1 23.1 0h-.2l-7.1 3-8.6 3.5L.1 9.4s-.1.1 0 .1c0 0 3.6 1.5 7.9 3.3 6.1 2.5 13.8 5.7 14.9 6.1h.3c1-.4 8.6-3.6 14.8-6.1 4.3-1.8 7.9-3.2 8-3.3.1 0-.1-.1-.1-.1z"/><path id="Fill-11" class="st10" d="M29 9.5L23.5 12 18 9.5 23.5 7 29 9.5"/><path id="Fill-12" class="st10" d="M36 12.5L30.5 15 25 12.5l5.5-2.5 5.5 2.5"/><path id="Fill-13" class="st10" d="M29 15.5L23.5 18 18 15.5l5.5-2.5 5.5 2.5"/><path id="Fill-14" d="M46 16l-22.5 9L1 16l7.4-3c6.2 2.5 14 5.6 15.1 6.1h.3c1-.4 8.7-3.5 15-6L46 16" fill-rule="evenodd" clip-rule="evenodd" fill="#007bb6"/><path id="Fill-15" class="st12" d="M14 9.5L8.5 12 3 9.5 8.5 7 14 9.5"/><path id="Fill-16" class="st10" d="M22 12.5L16.5 15 11 12.5l5.5-2.5 5.5 2.5"/><path id="Fill-17" class="st12" d="M22 6.5L16 9l-6-2.5L16 4l6 2.5"/><path id="Fill-18" class="st12" d="M29 3.5L23.5 6 18 3.5 23.5 1 29 3.5"/><path id="Fill-19" class="st12" d="M36 6.5L30.5 9 25 6.5 30.5 4 36 6.5"/><path id="Fill-20" class="st12" d="M43 9.5L37.5 12 32 9.5 37.5 7 43 9.5"/></g><circle id="Oval_2_" class="st8" cx="374" cy="86" r="4"/><circle id="Oval-Copy" class="st8" cx="134" cy="79" r="4"/><circle id="Oval-Copy-2" class="st8" cx="210" cy="454" r="4"/></g></g></g></svg>